<svg width="152" height="44" viewBox="0 0 152 44" fill="none" xmlns="http://www.w3.org/2000/svg">
<g clip-path="url(#clip0_18_667)">
<path d="M152 39.5894C152 40.169 151.887 40.7429 151.667 41.2783C151.447 41.8138 151.124 42.3002 150.718 42.7098C150.311 43.1194 149.829 43.4442 149.298 43.6656C148.767 43.887 148.198 44.0006 147.623 44H4.38275C3.22178 44.0012 2.10786 43.5373 1.28597 42.7102C0.464079 41.883 0.00151302 40.7605 0 39.5894V4.41636C0.00151232 3.24474 0.463896 2.12161 1.28562 1.29358C2.10735 0.465556 3.22126 0.000311746 4.38275 7.62939e-06H147.622C148.197 7.60967e-06 148.766 0.114248 149.297 0.336205C149.828 0.558162 150.311 0.883486 150.717 1.2936C151.124 1.70371 151.446 2.19057 151.666 2.72638C151.886 3.26219 151.999 3.83645 151.999 4.41636L152 39.5894Z" fill="black"/>
<path d="M33.9626 21.7567C33.9291 18.0313 37.0138 16.2188 37.1548 16.1345C35.4078 13.588 32.7 13.2401 31.7485 13.2124C29.4742 12.9731 27.2682 14.5729 26.1097 14.5729C24.9281 14.5729 23.1441 13.2355 21.2213 13.2748C18.7471 13.3129 16.4324 14.7451 15.1629 16.969C12.5429 21.5036 14.4969 28.1672 17.007 31.8326C18.2626 33.6288 19.7298 35.632 21.6503 35.5615C23.5291 35.4852 24.2309 34.3651 26.4982 34.3651C28.7447 34.3651 29.4037 35.5615 31.3623 35.5164C33.3787 35.4852 34.6482 33.7132 35.8599 31.9019C37.3109 29.8456 37.8937 27.8182 37.9168 27.7141C37.8705 27.698 34.0019 26.2207 33.9626 21.7567ZM30.2628 10.8012C31.2733 9.5378 31.9647 7.819 31.7728 6.07476C30.3102 6.13949 28.4811 7.08616 27.4278 8.32181C26.4959 9.41065 25.6634 11.1953 25.8785 12.8737C27.5214 12.9962 29.2083 12.0449 30.2628 10.8012Z" fill="white"/>
<path d="M61.1759 35.3037H58.5502L57.1119 30.7853H52.1125L50.7424 35.3037H48.186L53.1403 19.9211H56.1996L61.1759 35.3037ZM56.6783 28.8897L55.3776 24.873C55.24 24.4626 54.981 23.4963 54.6018 21.9752H54.5555C54.4029 22.6294 54.1589 23.5957 53.8248 24.873L52.546 28.8897H56.6783ZM73.8917 29.6214C73.8917 31.5078 73.3795 32.9989 72.354 34.0935C71.4359 35.0679 70.2948 35.5545 68.9339 35.5545C67.4644 35.5545 66.4077 35.0309 65.766 33.9814V39.8013H63.301V27.8575C63.301 26.6727 63.2697 25.4578 63.2096 24.2118H65.3775L65.5151 25.9699H65.5613C66.3834 24.6453 67.6309 23.9829 69.3051 23.9829C70.6139 23.9829 71.7065 24.4996 72.5806 25.5341C73.4535 26.571 73.8917 27.9326 73.8917 29.6214ZM71.3805 29.7115C71.3805 28.6319 71.1377 27.7419 70.6497 27.0403C70.1167 26.3109 69.401 25.9456 68.5038 25.9456C67.8957 25.9456 67.343 26.1491 66.8493 26.5502C66.3545 26.9547 66.0307 27.483 65.8793 28.1372C65.8117 28.3819 65.7732 28.6337 65.7648 28.8874V30.7379C65.7648 31.5436 66.0122 32.2244 66.5071 32.7816C67.0019 33.3364 67.6448 33.6149 68.4356 33.6149C69.364 33.6149 70.0867 33.2555 70.6035 32.5423C71.1215 31.8268 71.3805 30.8836 71.3805 29.7115ZM86.6526 29.6214C86.6526 31.5078 86.1404 32.9989 85.1149 34.0935C84.1957 35.0679 83.0557 35.5545 81.6937 35.5545C80.2242 35.5545 79.1674 35.0309 78.5257 33.9814V39.8013H76.0607V27.8575C76.0607 26.6727 76.0295 25.4578 75.9694 24.2118H78.1373L78.2748 25.9699H78.3211C79.142 24.6453 80.3895 23.9829 82.0648 23.9829C83.3725 23.9829 84.4651 24.4996 85.3415 25.5341C86.2133 26.571 86.6526 27.9326 86.6526 29.6214ZM84.1402 29.7115C84.1402 28.6319 83.8963 27.7419 83.4083 27.0403C82.8753 26.3109 82.162 25.9456 81.2648 25.9456C80.6566 25.9456 80.1039 26.1491 79.6079 26.5502C79.1131 26.9547 78.7905 27.483 78.639 28.1372C78.5639 28.4423 78.5234 28.6909 78.5234 28.8874V30.7379C78.5234 31.5436 78.772 32.2244 79.2645 32.7816C79.7594 33.3352 80.4022 33.6149 81.1954 33.6149C82.125 33.6149 82.8476 33.2555 83.3633 32.5423C83.8812 31.8268 84.1402 30.8836 84.1402 29.7115ZM100.92 30.9888C100.92 32.2984 100.462 33.363 99.5523 34.1848C98.551 35.0818 97.1532 35.5314 95.3611 35.5314C93.7054 35.5314 92.3781 35.2124 91.3768 34.5732L91.9468 32.5192C93.0279 33.1595 94.2153 33.4785 95.5079 33.4785C96.4375 33.4785 97.1601 33.2682 97.6758 32.8509C98.1926 32.4325 98.4539 31.873 98.4539 31.1749C98.4539 30.5495 98.2377 30.0259 97.8134 29.5994C97.3867 29.174 96.6815 28.7776 95.6906 28.4134C92.9967 27.409 91.6485 25.9398 91.6485 24.0072C91.6485 22.745 92.1249 21.7116 93.0753 20.9036C94.0257 20.0968 95.2859 19.6934 96.8537 19.6934C98.2539 19.6934 99.4205 19.9373 100.347 20.4239L99.728 22.4329C98.8563 21.9613 97.8723 21.7255 96.7716 21.7255C95.9022 21.7255 95.22 21.9393 94.7321 22.3647C94.3217 22.745 94.1135 23.2085 94.1135 23.7587C94.1135 24.3655 94.3506 24.8695 94.8223 25.2648C95.2316 25.6289 95.9785 26.0254 97.0584 26.4507C98.3834 26.9848 99.3569 27.6066 99.9801 28.321C100.608 29.0353 100.92 29.9265 100.92 30.9888ZM109.091 26.0612H106.374V31.4465C106.374 32.8162 106.852 33.4994 107.812 33.4994C108.253 33.4994 108.618 33.4624 108.907 33.3849L108.975 35.2563C108.49 35.4378 107.85 35.5291 107.058 35.5291C106.085 35.5291 105.324 35.232 104.775 34.6379C104.228 34.0438 103.953 33.0486 103.953 31.6476V26.0566H102.334V24.2072H103.953V22.1763L106.374 21.4458V24.2072H109.091V26.0612ZM121.326 29.6664C121.326 31.3714 120.838 32.7711 119.864 33.8658C118.846 34.9928 117.491 35.5545 115.801 35.5545C114.171 35.5545 112.875 35.0147 111.909 33.9363C110.942 32.8555 110.459 31.4939 110.459 29.8514C110.459 28.1326 110.958 26.7247 111.954 25.6301C112.951 24.5343 114.295 23.9864 115.984 23.9864C117.612 23.9864 118.92 24.5274 119.909 25.607C120.855 26.6542 121.326 28.0066 121.326 29.6664ZM118.771 29.7231C118.771 28.707 118.551 27.8355 118.11 27.1061C117.594 26.2254 116.854 25.785 115.895 25.785C114.908 25.785 114.15 26.2254 113.635 27.1061C113.193 27.8355 112.973 28.7221 112.973 29.7693C112.973 30.7865 113.193 31.6603 113.635 32.3874C114.168 33.2682 114.911 33.7086 115.874 33.7086C116.817 33.7086 117.555 33.2589 118.09 32.3654C118.543 31.6187 118.771 30.7414 118.771 29.7231ZM129.342 26.3791C129.085 26.3328 128.825 26.31 128.565 26.3109C127.698 26.3109 127.027 26.6368 126.555 27.2934C126.146 27.8713 125.94 28.6019 125.94 29.4838V35.3037H123.475V27.7049C123.477 26.5405 123.453 25.3762 123.403 24.213H125.55L125.641 26.3352H125.709C125.97 25.6058 126.379 25.0174 126.941 24.5771C127.456 24.1922 128.081 23.9838 128.723 23.9829C128.951 23.9829 129.157 23.9991 129.339 24.028L129.342 26.3791ZM140.366 29.233C140.372 29.6076 140.342 29.9819 140.276 30.3507H132.881C132.908 31.4465 133.267 32.2857 133.954 32.8636C134.577 33.3791 135.383 33.6381 136.372 33.6381C137.467 33.6381 138.466 33.4647 139.365 33.1144L139.751 34.824C138.701 35.2817 137.462 35.5094 136.031 35.5094C134.311 35.5094 132.961 35.0032 131.978 33.9929C130.997 32.9815 130.506 31.6222 130.506 29.9196C130.506 28.2482 130.963 26.8553 131.877 25.7445C132.835 24.5586 134.128 23.9656 135.756 23.9656C137.355 23.9656 138.566 24.5586 139.388 25.7445C140.039 26.6842 140.366 27.8494 140.366 29.233ZM138.015 28.5938C138.033 27.8621 137.871 27.2321 137.537 26.6993C137.11 26.0127 136.453 25.6705 135.574 25.6705C134.768 25.6705 134.111 26.0046 133.611 26.675C133.201 27.2079 132.957 27.8482 132.882 28.5915L138.015 28.5938Z" fill="white"/>
<path d="M51.4015 14.4827C50.7158 14.4827 50.1227 14.4492 49.629 14.3925V6.95554C50.3195 6.84891 51.0173 6.79635 51.716 6.79834C54.5429 6.79834 55.8447 8.18888 55.8447 10.4556C55.8447 13.0702 54.307 14.4827 51.4015 14.4827ZM51.8154 7.75195C51.4338 7.75195 51.109 7.77507 50.8396 7.83055V13.484C50.9852 13.5071 51.265 13.5175 51.6581 13.5175C53.5104 13.5175 54.5648 12.4634 54.5648 10.4891C54.5648 8.72868 53.611 7.75195 51.8154 7.75195ZM59.9018 14.5393C58.3086 14.5393 57.2761 13.3499 57.2761 11.7351C57.2761 10.0522 58.3305 8.85236 59.992 8.85236C61.5621 8.85236 62.6177 9.98513 62.6177 11.6461C62.6177 13.3499 61.5297 14.5393 59.9018 14.5393ZM59.9481 9.73777C59.0728 9.73777 58.5121 10.5561 58.5121 11.7005C58.5121 12.8228 59.0844 13.6412 59.9365 13.6412C60.7886 13.6412 61.3609 12.7662 61.3609 11.6773C61.3609 10.5677 60.8002 9.73777 59.9481 9.73777ZM71.7031 8.96448L69.9977 14.4156H68.8866L68.1802 12.0484C68.0045 11.4693 67.8583 10.8818 67.742 10.288H67.7188C67.6298 10.8821 67.461 11.4774 67.2818 12.0484L66.5303 14.4156H65.4076L63.8028 8.96448H65.048L65.6654 11.556C65.8111 12.1732 65.9337 12.7558 66.0354 13.306H66.0585C66.1476 12.8471 66.2933 12.2738 66.5072 11.5675L67.2818 8.96563H68.2692L69.0103 11.5121C69.1895 12.1293 69.3352 12.735 69.4485 13.3071H69.4809C69.5595 12.7465 69.6832 12.1513 69.8509 11.5121L70.5134 8.96563L71.7031 8.96448ZM77.9812 14.4156H76.7695V11.2855C76.7695 10.3215 76.3995 9.83833 75.67 9.83833C74.952 9.83833 74.4583 10.4556 74.4583 11.1734V14.4156H73.2466V10.5226C73.2466 10.0406 73.235 9.52393 73.2015 8.96332H74.2675L74.3242 9.80481H74.3577C74.6838 9.22224 75.3451 8.85236 76.0862 8.85236C77.2309 8.85236 77.9824 9.72736 77.9824 11.1514L77.9812 14.4156ZM81.3226 14.4156H80.1098V6.46313H81.3226V14.4156ZM85.7404 14.5393C84.1484 14.5393 83.1147 13.3499 83.1147 11.7351C83.1147 10.0522 84.1692 8.85236 85.8295 8.85236C87.4007 8.85236 88.4552 9.98513 88.4552 11.6461C88.4563 13.3499 87.3672 14.5393 85.7404 14.5393ZM85.7855 9.73777C84.9103 9.73777 84.3495 10.5561 84.3495 11.7005C84.3495 12.8228 84.923 13.6412 85.7728 13.6412C86.6261 13.6412 87.1972 12.7662 87.1972 11.6773C87.1984 10.5677 86.6388 9.73777 85.7855 9.73777ZM93.2326 14.4156L93.1447 13.788H93.1123C92.7424 14.2931 92.2024 14.5393 91.5179 14.5393C90.541 14.5393 89.8472 13.855 89.8472 12.935C89.8472 11.5895 91.0138 10.8937 93.0337 10.8937V10.7931C93.0337 10.0753 92.6533 9.7158 91.9018 9.7158C91.3642 9.7158 90.8924 9.85104 90.4774 10.1204L90.2311 9.32396C90.7352 9.00956 91.3642 8.85236 92.103 8.85236C93.5274 8.85236 94.2466 9.60368 94.2466 11.1075V13.1153C94.2466 13.6655 94.2708 14.092 94.3252 14.4168L93.2326 14.4156ZM93.0661 11.7005C91.7203 11.7005 91.0451 12.0264 91.0451 12.7997C91.0451 13.3719 91.3931 13.6516 91.8764 13.6516C92.4926 13.6516 93.0661 13.1812 93.0661 12.542V11.7005ZM100.13 14.4156L100.074 13.5406H100.04C99.6922 14.2018 99.1072 14.5393 98.2898 14.5393C96.9752 14.5393 96.0017 13.3834 96.0017 11.7571C96.0017 10.0522 97.011 8.8512 98.3892 8.8512C99.1188 8.8512 99.6356 9.0974 99.9269 9.59212H99.9512V6.46313H101.164V12.9465C101.164 13.4736 101.177 13.9672 101.209 14.4156H100.13ZM99.9512 11.2081C99.9512 10.4452 99.446 9.7944 98.6748 9.7944C97.7764 9.7944 97.2272 10.5908 97.2272 11.712C97.2272 12.8113 97.7972 13.5638 98.6505 13.5638C99.4124 13.5638 99.9512 12.9014 99.9512 12.1166V11.2081ZM108.854 14.5393C107.262 14.5393 106.229 13.3499 106.229 11.7351C106.229 10.0522 107.284 8.85236 108.944 8.85236C110.515 8.85236 111.57 9.98513 111.57 11.6461C111.571 13.3499 110.483 14.5393 108.854 14.5393ZM108.899 9.73777C108.025 9.73777 107.464 10.5561 107.464 11.7005C107.464 12.8228 108.036 13.6412 108.887 13.6412C109.741 13.6412 110.312 12.7662 110.312 11.6773C110.314 10.5677 109.753 9.73777 108.899 9.73777ZM118.086 14.4156H116.873V11.2855C116.873 10.3215 116.503 9.83833 115.774 9.83833C115.056 9.83833 114.563 10.4556 114.563 11.1734V14.4156H113.35V10.5226C113.35 10.0406 113.339 9.52393 113.305 8.96332H114.371L114.428 9.80481H114.461C114.786 9.22224 115.449 8.8512 116.189 8.8512C117.333 8.8512 118.086 9.72621 118.086 11.1503V14.4156ZM126.238 9.87301H124.905V12.52C124.905 13.1939 125.139 13.5302 125.611 13.5302C125.825 13.5302 126.004 13.5071 126.148 13.4736L126.182 14.3937C125.947 14.4838 125.633 14.5289 125.242 14.5289C124.287 14.5289 123.716 14.0018 123.716 12.6217V9.87301H122.92V8.96448H123.716V7.96579L124.905 7.60631V8.96332H126.238V9.87301ZM132.653 14.4156H131.442V11.3086C131.442 10.333 131.074 9.83948 130.343 9.83948C129.715 9.83948 129.13 10.266 129.13 11.1295V14.4156H127.92V6.46313H129.13V9.73777H129.154C129.536 9.14364 130.089 8.8512 130.794 8.8512C131.948 8.8512 132.653 9.74817 132.653 11.1734V14.4156ZM139.225 11.9813H135.589C135.612 13.0136 136.295 13.5961 137.307 13.5961C137.844 13.5961 138.339 13.506 138.776 13.3384L138.965 14.1798C138.449 14.4041 137.842 14.5162 137.136 14.5162C135.43 14.5162 134.421 13.4389 134.421 11.7687C134.421 10.0972 135.454 8.8408 136.999 8.8408C138.392 8.8408 139.266 9.87301 139.266 11.4323C139.274 11.6163 139.26 11.8006 139.225 11.9813ZM138.114 11.1179C138.114 10.2764 137.689 9.68228 136.915 9.68228C136.219 9.68228 135.668 10.288 135.59 11.1179H138.114Z" fill="white"/>
</g>
<defs>
<clipPath id="clip0_18_667">
<rect width="152" height="44" fill="white"/>
</clipPath>
</defs>
</svg>
