<svg width="40" height="40" viewBox="0 0 40 40" fill="none" xmlns="http://www.w3.org/2000/svg">
<path fill-rule="evenodd" clip-rule="evenodd" d="M20 0C31.0457 0 40 8.95431 40 20C40 31.0457 31.0457 40 20 40C8.95431 40 0 31.0457 0 20C0 8.95431 8.95431 0 20 0ZM26.8104 10.9715C24.7502 10.9715 22.4656 12.1618 22.4656 19.9094C22.4656 27.6569 24.7493 28.8473 26.8104 28.8473C27.4701 28.8473 27.9273 28.6759 28.2287 28.4929C28.5372 28.3046 28.6859 27.9422 28.5946 27.5928C28.3662 26.7207 27.8743 24.839 27.6464 23.9665C27.5716 23.6799 27.3473 23.4599 27.0606 23.3869L25.6071 23.0188C25.2817 22.9364 25.0413 22.6676 25.0004 22.3346C24.9296 21.759 24.8339 20.8139 24.8339 19.9085C24.8339 19.003 24.9296 18.0579 25.0004 17.4824C25.0413 17.1494 25.2817 16.8805 25.6071 16.7981L27.0606 16.43C27.3477 16.3574 27.5725 16.1344 27.6473 15.8477L28.5937 12.2286C28.685 11.8783 28.5363 11.5123 28.2264 11.3245C27.926 11.1415 27.4688 10.971 26.8104 10.9715ZM13.1897 10.9715C12.5313 10.971 12.0742 11.1415 11.7737 11.3245C11.4793 11.5029 11.3304 11.8421 11.3945 12.1759L11.4064 12.2286L12.3528 15.8477C12.4229 16.1165 12.6249 16.3293 12.8865 16.4147L12.9395 16.43L14.393 16.7981C14.7184 16.8805 14.9588 17.1494 14.9997 17.4824C15.0705 18.0579 15.1662 19.003 15.1662 19.9085C15.1662 20.8139 15.0705 21.759 14.9997 22.3346C14.9609 22.65 14.7432 22.908 14.4436 23.0043L14.393 23.0188L12.9395 23.3869C12.6529 23.4599 12.4285 23.6799 12.3537 23.9665C12.1258 24.839 11.6339 26.7207 11.4055 27.5928C11.3143 27.9422 11.463 28.3046 11.7714 28.4929C12.0728 28.6759 12.53 28.8473 13.1897 28.8473C15.2508 28.8473 17.5345 27.6569 17.5345 19.9094C17.5345 12.1618 15.2499 10.9715 13.1897 10.9715ZM20 18.6425C19.2503 18.6425 18.6425 19.2503 18.6425 20C18.6425 20.7497 19.2503 21.3575 20 21.3575C20.7497 21.3575 21.3575 20.7497 21.3575 20C21.3575 19.2503 20.7497 18.6425 20 18.6425Z" fill="#2C2FFE"/>
</svg>
