<svg width="548" height="552" viewBox="0 0 548 552" fill="none" xmlns="http://www.w3.org/2000/svg">
<g clip-path="url(#clip0_975_32122)">
<mask id="mask0_975_32122" style="mask-type:alpha" maskUnits="userSpaceOnUse" x="0" y="4" width="549" height="549">
<path d="M274.301 552.3C425.793 552.3 548.601 429.716 548.601 278.5C548.601 127.284 425.793 4.69995 274.301 4.69995C122.809 4.69995 0 127.284 0 278.5C0 429.716 122.809 552.3 274.301 552.3Z" fill="url(#paint0_linear_975_32122)"/>
</mask>
<g mask="url(#mask0_975_32122)">
<path d="M274.301 552.3C425.793 552.3 548.601 429.716 548.601 278.5C548.601 127.284 425.793 4.69995 274.301 4.69995C122.809 4.69995 0 127.284 0 278.5C0 429.716 122.809 552.3 274.301 552.3Z" fill="url(#paint1_linear_975_32122)"/>
</g>
<path d="M547.098 313.3C516.842 300.1 477.571 293.8 452.926 303C429.884 311.6 433.59 328.7 409.947 335.8C371.778 347.2 345.329 307.7 288.526 309.5C237.933 311.2 220.401 343.7 182.232 335.8C158.388 330.8 153.88 315.8 136.949 305.2C108.497 287.4 53.9978 287.6 1.50195 297.8C6.31073 366.3 36.2654 427.9 82.3495 473.3C134.144 482.9 190.547 488 245.447 485.9C342.023 482.3 439.802 456.5 506.323 425.7C527.562 392.5 541.888 354.3 547.098 313.3Z" fill="url(#paint2_linear_975_32122)"/>
<path d="M165.904 115.4H110.202C106.996 115.4 103.991 114.2 101.687 112.3C98.8814 109.9 97.0781 106.3 97.0781 102.3C97.0781 98.7 98.5809 95.4 100.985 93C103.39 90.6 106.696 89.1 110.302 89.1H166.004C169.61 89.1 172.917 90.6 175.321 93C177.725 95.4 179.228 98.7 179.228 102.3C179.228 105.9 177.725 109.2 175.321 111.6C172.816 114 169.51 115.4 165.904 115.4Z" fill="#D8E2F4"/>
<path d="M133.243 113.3C144.254 113.3 153.179 104.39 153.179 93.4C153.179 82.4095 144.254 73.5 133.243 73.5C122.232 73.5 113.307 82.4095 113.307 93.4C113.307 104.39 122.232 113.3 133.243 113.3Z" fill="#D8E2F4"/>
<path d="M426.779 73.4H329.501C323.089 73.4 317.379 70.8 313.171 66.7C308.964 62.5 306.459 56.8 306.459 50.4C306.459 45.9 307.761 41.6 310.066 38.1C314.173 31.7 321.386 27.4 329.501 27.4H426.779C433.19 27.4 438.901 30 443.108 34.1C447.316 38.2 449.821 44 449.821 50.4C449.821 56.3 447.617 61.7 443.91 65.8C439.702 70.5 433.591 73.4 426.779 73.4Z" fill="white"/>
<path d="M369.774 69.8C389.084 69.8 404.738 54.1747 404.738 34.9C404.738 15.6253 389.084 0 369.774 0C350.464 0 334.811 15.6253 334.811 34.9C334.811 54.1747 350.464 69.8 369.774 69.8Z" fill="white"/>
<path d="M182.533 182.4C182.533 182.4 176.722 177.5 176.221 177.8C175.82 178.1 176.421 180.9 176.421 180.9C176.421 180.9 172.514 177.9 170.811 179.6C169.108 181.3 174.217 192.3 179.126 193.6L182.533 182.4Z" fill="#FFAA9D"/>
<path d="M380.996 176.7C380.996 176.7 386.807 171.8 387.308 172.1C387.809 172.4 387.107 175.2 387.107 175.2C387.107 175.2 391.014 172.2 392.717 173.9C394.421 175.6 389.311 186.6 384.402 187.9L380.996 176.7Z" fill="#FFAA9D"/>
<path d="M388.409 186.3L380.996 175.5C368.072 182.9 349.739 183.3 327.498 177.2C311.168 172.7 299.747 167.9 281.514 167.9C263.281 167.9 245.348 180.8 236.231 183.3C213.991 189.4 195.657 189 182.734 181.6L175.32 192.4C175.32 192.4 205.676 218 250.658 211.1C249.556 226.2 247.051 249.2 247.853 252.7C249.656 261 312.27 261.4 315.276 251.9C316.177 249.1 311.97 219.9 311.369 204.7C357.252 212.5 388.409 186.3 388.409 186.3Z" fill="url(#paint3_linear_975_32122)"/>
<path d="M298.044 153.7L298.144 163.1H296.741C296.741 163.1 295.639 170.9 290.129 169.6C288.526 169.2 286.523 167.9 285.921 168.2C285.22 168.5 284.92 170.6 284.819 171.3C284.218 173.7 276.003 171.3 277.306 168.9C278.608 166.6 280.512 163.5 280.111 162.6C278.708 159.6 278.308 152.1 285.921 149.5C291.932 147.5 298.044 150.5 298.044 153.7Z" fill="#FFAA9D"/>
<path d="M277.407 168.8C278.709 166.5 280.613 163.4 280.212 162.5C280.212 162.5 283.418 167.4 286.323 168.1C286.223 168.1 286.123 168.1 286.123 168.1C285.421 168.4 285.121 170.5 285.021 171.2C284.219 173.6 276.004 171.2 277.407 168.8Z" fill="#FF9F91"/>
<path d="M285.32 158.3C281.814 157.7 284.018 165.6 280.111 165.3C276.204 165 273.499 156.5 276.304 150C279.209 143.4 284.619 143.8 289.829 144.7C295.038 145.6 301.35 147.9 301.35 151.9C301.35 161.3 290.129 153.4 289.428 156.3C288.827 158.5 288.025 164.8 290.229 165C292.534 165.1 294.838 163.3 296.641 163.8C297.643 164.1 300.548 176.4 293.034 176.9C285.621 177.3 283.818 170.8 285.32 165.5C286.923 160.2 287.124 158.6 285.32 158.3Z" fill="#14336A"/>
<path d="M210.684 296.9C198.261 296.9 184.035 290.1 172.614 278.8C161.193 267.4 154.381 253.2 154.381 240.7C154.381 233 160.592 228.1 166.603 223.3C172.514 218.6 178.224 214.1 178.525 207.1C178.725 203.1 177.022 200.4 175.319 197.5C173.416 194.4 171.412 191.2 171.813 186.2C172.514 177.5 180.328 169.5 194.955 162.4C195.656 162 196.558 162.4 196.959 163.1C197.359 163.8 196.959 164.7 196.257 165.1C182.632 171.7 175.419 178.9 174.718 186.4C174.417 190.4 176.02 192.9 177.824 195.8C179.627 198.8 181.731 202.1 181.53 207.1C181.13 215.4 174.718 220.5 168.507 225.5C162.796 230 157.487 234.3 157.487 240.5C157.487 252.2 163.998 265.7 174.918 276.5C185.738 287.3 199.263 293.7 210.884 293.7C211.685 293.7 212.387 294.4 212.387 295.2C212.186 296.3 211.485 296.9 210.684 296.9Z" fill="#4FC7A0"/>
<path d="M201.166 173.2C207.031 173.2 211.786 168.454 211.786 162.6C211.786 156.746 207.031 152 201.166 152C195.301 152 190.547 156.746 190.547 162.6C190.547 168.454 195.301 173.2 201.166 173.2Z" fill="#3FB790"/>
<path d="M208.168 161.001C209.814 168.216 212.985 173.648 215.251 173.133C217.516 172.618 218.019 166.351 216.373 159.136C214.727 151.92 211.556 146.488 209.29 147.003C207.024 147.518 206.522 153.785 208.168 161.001Z" fill="#4FC7A0"/>
<path d="M200.466 163.8L199.965 161.8C198.462 155.2 202.67 148.5 209.282 147L215.193 173.1C208.58 174.7 201.968 170.5 200.466 163.8Z" fill="#4FC7A0"/>
<path d="M209.048 160.801C210.363 166.562 212.871 170.905 214.651 170.501C216.432 170.096 216.809 165.097 215.495 159.335C214.181 153.574 211.672 149.231 209.892 149.636C208.112 150.04 207.734 155.039 209.048 160.801Z" fill="#3FB790"/>
<path d="M210.734 155.52C210.955 156.489 211.397 157.215 211.72 157.142C212.044 157.068 212.127 156.223 211.906 155.253C211.685 154.284 211.243 153.558 210.92 153.632C210.596 153.705 210.513 154.551 210.734 155.52Z" fill="#14336A"/>
<path d="M212.965 164.863C213.186 165.832 213.628 166.558 213.951 166.485C214.275 166.411 214.358 165.566 214.137 164.596C213.916 163.627 213.474 162.901 213.15 162.975C212.827 163.048 212.744 163.894 212.965 164.863Z" fill="#14336A"/>
<path d="M346.93 292.3C346.129 292.3 345.428 291.7 345.428 290.9C345.428 290.1 346.029 289.4 346.83 289.3C420.264 285.1 432.687 241.7 434.791 228.4C437.696 209.9 431.084 192 419.763 187.6C416.257 186.3 413.252 187.9 409.745 189.9C406.439 191.7 403.033 193.6 399.026 192.9C390.911 191.4 384.699 180.9 380.191 160.7C379.991 159.9 380.492 159.1 381.293 158.9C382.095 158.7 382.896 159.2 383.096 160C387.304 178.7 392.814 188.7 399.526 189.9C402.432 190.4 405.237 188.9 408.242 187.2C411.849 185.2 415.956 182.9 420.765 184.7C433.589 189.6 440.802 208.5 437.596 228.7C435.592 242.7 422.769 288 346.93 292.3C347.031 292.3 347.031 292.3 346.93 292.3Z" fill="#4FC7A0"/>
<path d="M389.509 156.9C387.204 162.6 380.693 165.3 375.082 163C370.274 161 367.569 156 368.27 151C368.37 150.2 386.804 144.4 388.006 145.9C390.41 148.9 391.112 153.1 389.509 156.9Z" fill="#3FB790"/>
<path d="M381.094 135.9C381.895 135.7 382.597 136.1 382.797 136.9L385.702 147.6C385.903 148.4 385.502 149.1 384.7 149.3C383.899 149.5 383.198 149.1 382.997 148.3L380.092 137.6C379.892 136.8 380.292 136.1 381.094 135.9Z" fill="#14336A"/>
<path d="M369.572 138.9C370.373 138.7 371.074 139.1 371.275 139.9L374.18 150.6C374.381 151.4 373.98 152.1 373.178 152.3C372.377 152.5 371.676 152.1 371.475 151.3L368.57 140.6C368.37 139.9 368.87 139.1 369.572 138.9Z" fill="#14336A"/>
<path d="M384.9 153.5L374.982 156.1C370.373 157.3 365.665 154.5 364.462 149.9C364.162 148.7 364.863 147.6 365.965 147.3L388.306 141.5C389.508 141.2 390.61 141.9 390.911 143C392.213 147.6 389.508 152.3 384.9 153.5Z" fill="#4FC7A0"/>
<path d="M363.363 511.4H193.453V260.2C193.453 244.5 206.176 231.8 221.905 231.8H334.811C350.54 231.8 363.263 244.5 363.263 260.2V511.4H363.363Z" fill="white"/>
<path d="M363.363 505.5C361.66 505.5 360.357 504.2 360.357 502.5V260.2C360.357 246.2 348.936 234.8 334.911 234.8H221.905C207.879 234.8 196.458 246.2 196.458 260.2V491.9C196.458 493.6 195.156 494.9 193.453 494.9C191.75 494.9 190.447 493.6 190.447 491.9V260.2C190.447 242.9 204.573 228.8 221.905 228.8H334.811C352.142 228.8 366.268 242.9 366.268 260.2V502.5C366.368 504.1 364.966 505.5 363.363 505.5Z" fill="#E0E9F3"/>
<path d="M217.397 260.5C220.496 260.5 223.008 257.993 223.008 254.9C223.008 251.807 220.496 249.3 217.397 249.3C214.299 249.3 211.787 251.807 211.787 254.9C211.787 257.993 214.299 260.5 217.397 260.5Z" fill="#E0E9F3"/>
<path d="M213.79 350.9H424.474C425.576 350.9 426.478 350.4 427.079 349.7C427.58 349.1 427.88 348.3 427.88 347.5V309.2C427.88 308.4 427.58 307.6 427.079 307C426.478 306.2 425.476 305.8 424.474 305.8H213.79C212.988 305.8 212.287 306.1 211.686 306.5C210.884 307.1 210.283 308.1 210.283 309.3V347.6C210.283 348.5 210.584 349.3 211.185 349.9C211.786 350.5 212.788 350.9 213.79 350.9Z" fill="white"/>
<path d="M392.416 342.1H416.46C416.961 342.1 417.461 341.9 417.862 341.5C418.263 341.1 418.463 340.6 418.463 340.1V316.1C418.463 315.7 418.363 315.3 418.163 315C417.762 314.5 417.161 314.1 416.46 314.1H392.416C391.915 314.1 391.514 314.3 391.113 314.6C390.713 315 390.412 315.5 390.412 316.1V340.1C390.412 340.6 390.612 341.1 391.013 341.5C391.414 341.9 391.915 342.1 392.416 342.1Z" fill="#D0DAED"/>
<path d="M238.133 320.5H372.679C373.58 320.5 374.382 320.1 374.883 319.6C375.484 319 375.784 318.2 375.784 317.4C375.784 316.6 375.484 315.8 374.883 315.2C374.281 314.6 373.48 314.2 372.578 314.2H238.133C237.231 314.2 236.43 314.6 235.929 315.1C235.328 315.7 235.027 316.5 235.027 317.3C235.027 317.9 235.228 318.5 235.528 319C236.029 319.9 237.031 320.5 238.133 320.5Z" fill="#D0DAED"/>
<path d="M238.134 332.3H372.679C373.681 332.3 374.583 331.8 375.184 331.1C375.584 330.6 375.885 329.9 375.885 329.2C375.885 328.6 375.685 328 375.384 327.5C374.783 326.6 373.881 326 372.679 326H238.134C237.232 326 236.531 326.3 235.93 326.9C235.328 327.5 234.928 328.3 234.928 329.2C234.928 330.1 235.328 330.9 235.829 331.4C236.531 331.9 237.332 332.3 238.134 332.3Z" fill="#D0DAED"/>
<path d="M336.314 415.5H125.529C124.427 415.5 123.526 415 122.925 414.3C122.424 413.7 122.123 412.9 122.123 412.1V373.8C122.123 373 122.424 372.2 122.925 371.6C123.526 370.8 124.527 370.4 125.529 370.4H336.214C337.015 370.4 337.716 370.7 338.318 371.1C339.119 371.7 339.72 372.7 339.72 373.9V412C339.72 412.9 339.42 413.7 338.818 414.3C338.217 415.1 337.316 415.5 336.314 415.5Z" fill="white"/>
<path d="M157.589 406.7H133.545C133.044 406.7 132.543 406.5 132.142 406.1C131.741 405.7 131.541 405.2 131.541 404.7V380.7C131.541 380.3 131.641 379.9 131.842 379.6C132.242 379.1 132.843 378.7 133.545 378.7H157.589C158.089 378.7 158.49 378.9 158.891 379.2C159.292 379.6 159.592 380.1 159.592 380.7V404.7C159.592 405.2 159.392 405.7 158.991 406.1C158.691 406.5 158.19 406.7 157.589 406.7Z" fill="#D0DAED"/>
<path d="M311.869 385.1H177.424C176.522 385.1 175.721 384.7 175.22 384.2C174.619 383.6 174.318 382.8 174.318 382C174.318 381.2 174.619 380.4 175.22 379.8C175.821 379.2 176.623 378.8 177.524 378.8H311.97C312.871 378.8 313.673 379.2 314.174 379.7C314.775 380.3 315.075 381.1 315.075 381.9C315.075 382.5 314.875 383.1 314.574 383.6C313.973 384.5 312.971 385.1 311.869 385.1Z" fill="#D0DAED"/>
<path d="M268.892 396.9H177.425C176.423 396.9 175.521 396.4 174.92 395.7C174.519 395.2 174.219 394.5 174.219 393.8C174.219 393.2 174.419 392.6 174.72 392.1C175.321 391.2 176.222 390.6 177.425 390.6H268.892C269.793 390.6 270.494 390.9 271.096 391.5C271.697 392.1 272.097 392.9 272.097 393.8C272.097 394.7 271.697 395.5 271.196 396C270.595 396.5 269.793 396.9 268.892 396.9Z" fill="#D0DAED"/>
<path d="M397.326 511C409.332 511 419.065 509.567 419.065 507.8C419.065 506.033 409.332 504.6 397.326 504.6C385.319 504.6 375.586 506.033 375.586 507.8C375.586 509.567 385.319 511 397.326 511Z" fill="#D0DFF3"/>
<path d="M367.873 410.9C367.071 414.7 371.679 415.5 372.481 420.8C373.282 426.1 370.978 427.6 371.679 430.7C372.381 433.8 376.989 434.5 377.791 442.1C378.592 449.7 375.486 448.9 376.288 453.5C377.089 458.1 381.598 458.1 382.399 461.9C383.2 465.7 383.2 471 384.703 475.6C386.206 480.2 390.814 487 393.119 487C395.423 487 401.534 474.1 399.931 470.3C398.428 466.5 396.124 465.7 396.124 462.7C396.124 459.7 399.13 452.1 398.428 446.8C397.627 441.5 390.814 439.2 390.013 435.4C389.211 431.6 391.516 421.7 386.206 417.2C380.796 412.4 368.674 407.1 367.873 410.9Z" fill="#3FB790"/>
<path d="M392.619 485.5C392.418 485.5 392.218 485.3 392.218 485.1C392.218 485 392.118 475.1 389.213 472.2C386.307 469.3 384.604 460.3 383.803 443.1C383.101 427.5 371.881 414.6 371.681 414.5C371.58 414.3 371.58 414.1 371.681 414C371.881 413.9 372.081 413.9 372.182 414C372.282 414.1 383.703 427.2 384.404 443.1C385.205 459.9 386.908 469 389.613 471.7C392.719 474.8 392.819 484.7 392.819 485.1C393.02 485.4 392.819 485.5 392.619 485.5Z" fill="#34916F"/>
<path d="M437.498 422.4C440.203 425.1 431.387 426.2 430.686 431.5C429.884 436.8 429.884 439.1 426.879 442.1C423.873 445.1 419.265 445.9 420.066 450.5C420.868 455.1 422.371 459.6 420.066 461.9C417.762 464.2 412.453 464.2 410.95 468C409.447 471.8 410.148 476.4 407.143 480.1C404.137 483.9 399.529 491.5 395.722 490C391.915 488.5 394.219 471 395.722 468C397.225 465 398.728 462.7 398.728 460.4C398.728 458.1 397.926 454.3 399.529 450.5C401.032 446.7 409.447 445.2 410.148 442.9C410.85 440.6 411.651 428.5 416.26 425.4C420.768 422.4 432.99 417.9 437.498 422.4Z" fill="#4FC7A0"/>
<path d="M396.825 488.7C396.725 488.7 396.725 488.7 396.625 488.6C396.425 488.5 396.425 488.3 396.525 488.1C396.525 488 399.63 483 400.232 480.4C400.432 479.7 400.632 478.7 400.833 477.6C401.634 473.4 402.937 467 404.94 465.1C407.745 462.3 412.354 453.6 415.459 442.5C419.366 428.8 432.29 424.8 432.49 424.8C432.691 424.7 432.891 424.9 432.991 425.1C433.092 425.3 432.891 425.5 432.691 425.6C432.591 425.6 419.968 429.5 416.261 442.8C413.055 454 408.447 462.8 405.541 465.7C403.738 467.5 402.436 474 401.634 477.8C401.434 479 401.233 480 401.033 480.7C400.332 483.4 397.326 488.4 397.226 488.6C397.126 488.6 397.026 488.7 396.825 488.7Z" fill="#3FB690"/>
<path d="M395.924 431.1C386.807 431.9 389.812 459.2 389.812 459.2C392.117 482.7 395.122 493.4 397.426 494.1C399.731 494.9 404.239 460.7 404.239 452.3C404.239 452.4 405.04 430.3 395.924 431.1Z" fill="#90DAD8"/>
<path d="M397.026 490.3C396.726 490.3 396.626 490.1 396.626 489.9C399.631 465.2 395.924 434.1 395.824 433.8C395.824 433.6 395.924 433.4 396.125 433.4C396.325 433.4 396.525 433.5 396.525 433.7C396.525 434 400.332 465.2 397.327 490C397.427 490.2 397.227 490.3 397.026 490.3Z" fill="white"/>
<path d="M408.347 507.6H385.205C384.403 507.6 383.802 507.1 383.702 506.5L380.296 482.5C380.095 481.4 380.997 480.5 382.099 480.5H411.452C412.554 480.5 413.356 481.5 413.256 482.5L409.85 506.5C409.749 507.1 409.148 507.6 408.347 507.6Z" fill="#D0DAED"/>
</g>
<defs>
<linearGradient id="paint0_linear_975_32122" x1="274.259" y1="497.868" x2="274.259" y2="-49.6487" gradientUnits="userSpaceOnUse">
<stop/>
<stop offset="1" stop-color="white"/>
</linearGradient>
<linearGradient id="paint1_linear_975_32122" x1="274.259" y1="497.868" x2="274.259" y2="-49.6487" gradientUnits="userSpaceOnUse">
<stop stop-color="#FEFEFD"/>
<stop offset="1" stop-color="#EBF3FF"/>
</linearGradient>
<linearGradient id="paint2_linear_975_32122" x1="274.258" y1="476.659" x2="274.258" y2="320.109" gradientUnits="userSpaceOnUse">
<stop stop-color="#FEFEFD"/>
<stop offset="0.8395" stop-color="#EBF3FF"/>
</linearGradient>
<linearGradient id="paint3_linear_975_32122" x1="175.321" y1="213.41" x2="388.439" y2="213.41" gradientUnits="userSpaceOnUse">
<stop stop-color="#3162DF"/>
<stop offset="0.9649" stop-color="#173DB8"/>
</linearGradient>
<clipPath id="clip0_975_32122">
<rect width="548" height="552" fill="white"/>
</clipPath>
</defs>
</svg>
