<svg width="20" height="20" viewBox="0 0 20 20" fill="none" xmlns="http://www.w3.org/2000/svg">
<circle cx="10" cy="10" r="10" fill="#6DA544"/>
<path d="M5.65234 11.9565C5.65234 12.6769 6.23633 13.2609 6.95668 13.2609H10.8697C10.8697 13.8612 11.3564 14.3478 11.9567 14.3478H13.261C13.8613 14.3478 14.348 13.8612 14.348 13.2609V11.9565H5.65234Z" fill="#F0F0F0"/>
<path d="M14.4565 5.65234V8.69582C14.4565 9.17531 14.0664 9.56539 13.5869 9.56539V10.8697C14.7856 10.8697 15.7608 9.89449 15.7608 8.69582V5.65234L14.4565 5.65234Z" fill="#F0F0F0"/>
<path d="M5.10883 8.69582C5.10883 9.17531 4.71875 9.56539 4.23926 9.56539V10.8697C5.43797 10.8697 6.41316 9.89449 6.41316 8.69582V5.65234H5.10883V8.69582Z" fill="#F0F0F0"/>
<rect x="12.5" y="5.65234" width="1.30434" height="3.04348" fill="#F0F0F0"/>
<path d="M10.5437 7.39148C10.5437 7.51137 10.4461 7.60887 10.3263 7.60887C10.2064 7.60887 10.1089 7.51133 10.1089 7.39148V5.65234H8.80457V7.39148C8.80457 7.51137 8.70703 7.60887 8.58719 7.60887C8.46734 7.60887 8.3698 7.51133 8.3698 7.39148V5.65234H7.06543V7.39148C7.06543 8.23059 7.74809 8.91324 8.58719 8.91324C8.91035 8.91324 9.21004 8.81168 9.45676 8.63918C9.70344 8.81164 10.0032 8.91324 10.3263 8.91324C10.3914 8.91324 10.4554 8.90867 10.5183 8.90066C10.4259 9.28148 10.0829 9.56539 9.67414 9.56539V10.8697C10.8729 10.8697 11.848 9.89449 11.848 8.69582V7.39148V5.65234H10.5437V7.39148H10.5437Z" fill="#F0F0F0"/>
<rect x="7.06543" y="9.56543" width="1.95652" height="1.30434" fill="#F0F0F0"/>
</svg>
