<svg width="237" height="52" viewBox="0 0 237 52" fill="none" xmlns="http://www.w3.org/2000/svg">
<path fill-rule="evenodd" clip-rule="evenodd" d="M26 0C40.3594 0 52 11.6406 52 26C52 40.3594 40.3594 52 26 52C11.6406 52 0 40.3594 0 26C0 11.6406 11.6406 0 26 0ZM34.8535 14.2629C32.1753 14.2629 29.2053 15.8104 29.2053 25.8822C29.2053 35.954 32.1741 37.5014 34.8535 37.5014C35.7112 37.5014 36.3055 37.2786 36.6973 37.0408C37.0983 36.796 37.2916 36.3249 37.173 35.8706C36.8761 34.737 36.2366 32.2908 35.9403 31.1565C35.8431 30.7838 35.5514 30.4979 35.1787 30.403L33.2893 29.9244C32.8662 29.8174 32.5537 29.4678 32.5005 29.035C32.4085 28.2867 32.2841 27.0581 32.2841 25.881C32.2841 24.7039 32.4085 23.4753 32.5005 22.7271C32.5537 22.2942 32.8662 21.9447 33.2893 21.8376L35.1787 21.359C35.552 21.2647 35.8443 20.9747 35.9415 20.6021L37.1718 15.8972C37.2904 15.4417 37.0972 14.966 36.6944 14.7218C36.3038 14.484 35.7094 14.2623 34.8535 14.2629ZM17.1466 14.2629C16.2907 14.2623 15.6964 14.484 15.3058 14.7218C14.9231 14.9538 14.7296 15.3947 14.8129 15.8287L14.8283 15.8972L16.0587 20.6021C16.1498 20.9514 16.4124 21.2281 16.7524 21.339L16.8214 21.359L18.7109 21.8376C19.1339 21.9447 19.4464 22.2942 19.4997 22.7271C19.5917 23.4753 19.7161 24.7039 19.7161 25.881C19.7161 27.0581 19.5917 28.2867 19.4997 29.035C19.4492 29.4451 19.1661 29.7803 18.7767 29.9055L18.7109 29.9244L16.8214 30.403C16.4487 30.4979 16.1571 30.7838 16.0598 31.1565C15.7635 32.2908 15.1241 34.737 14.8272 35.8706C14.7086 36.3249 14.9018 36.796 15.3029 37.0408C15.6947 37.2786 16.289 37.5014 17.1466 37.5014C19.8261 37.5014 22.7948 35.954 22.7948 25.8822C22.7948 15.8104 19.8249 14.2629 17.1466 14.2629ZM26 24.2353C25.0254 24.2353 24.2353 25.0254 24.2353 26C24.2353 26.9746 25.0254 27.7647 26 27.7647C26.9746 27.7647 27.7647 26.9746 27.7647 26C27.7647 25.0254 26.9746 24.2353 26 24.2353Z" fill="#2C2FFE"/>
<path d="M69.2381 35.5V17.742H72.8261V25.152H79.7161V17.742H83.3041V35.5H79.7161V28.168H72.8261V35.5H69.2381ZM91.5229 35.786C90.0843 35.786 88.9403 35.5433 88.0909 35.058C87.2589 34.5727 86.6609 33.836 86.2969 32.848C85.9329 31.86 85.7509 30.6207 85.7509 29.13C85.7509 27.518 85.9763 26.2007 86.4269 25.178C86.8949 24.1553 87.5709 23.4013 88.4549 22.916C89.3389 22.4133 90.4309 22.162 91.7309 22.162C93.6549 22.162 95.1023 22.6473 96.0729 23.618C97.0609 24.5887 97.5549 26.1227 97.5549 28.22L97.3989 30.144H89.2349C89.2523 31.1147 89.4516 31.8427 89.8329 32.328C90.2143 32.8133 90.8729 33.056 91.8089 33.056C92.3463 33.056 92.9356 33.0473 93.5769 33.03C94.2183 32.9953 94.8509 32.9607 95.4749 32.926C96.1163 32.8913 96.6623 32.8567 97.1129 32.822L97.1909 35.24C96.7576 35.3093 96.2116 35.3873 95.5529 35.474C94.8943 35.5607 94.2096 35.63 93.4989 35.682C92.8056 35.7513 92.1469 35.786 91.5229 35.786ZM89.2349 27.934H94.0969C94.0969 26.7553 93.9063 25.932 93.5249 25.464C93.1609 24.996 92.5629 24.762 91.7309 24.762C90.9163 24.762 90.2923 25.0047 89.8589 25.49C89.4429 25.9753 89.2349 26.79 89.2349 27.934ZM99.9583 35.5V17.118H103.416V35.5H99.9583ZM106.484 35.5V17.118H109.942V35.5H106.484ZM118.521 35.786C117.048 35.786 115.86 35.5433 114.959 35.058C114.075 34.5727 113.434 33.8273 113.035 32.822C112.636 31.7993 112.437 30.482 112.437 28.87C112.437 27.31 112.645 26.0447 113.061 25.074C113.477 24.086 114.136 23.358 115.037 22.89C115.938 22.4047 117.1 22.162 118.521 22.162C119.96 22.162 121.121 22.4047 122.005 22.89C122.906 23.358 123.565 24.086 123.981 25.074C124.414 26.0447 124.631 27.31 124.631 28.87C124.631 30.482 124.432 31.7993 124.033 32.822C123.634 33.8273 122.984 34.5727 122.083 35.058C121.199 35.5433 120.012 35.786 118.521 35.786ZM118.521 32.926C119.249 32.926 119.795 32.796 120.159 32.536C120.523 32.2587 120.766 31.8253 120.887 31.236C121.026 30.6293 121.095 29.8407 121.095 28.87C121.095 27.9167 121.017 27.1627 120.861 26.608C120.705 26.036 120.445 25.6287 120.081 25.386C119.717 25.1433 119.197 25.022 118.521 25.022C117.862 25.022 117.342 25.1433 116.961 25.386C116.597 25.6287 116.337 26.036 116.181 26.608C116.025 27.1627 115.947 27.9167 115.947 28.87C115.947 29.8407 116.008 30.6293 116.129 31.236C116.268 31.8253 116.519 32.2587 116.883 32.536C117.247 32.796 117.793 32.926 118.521 32.926ZM128.853 30.092C128.766 29.9187 128.671 29.676 128.567 29.364C128.463 29.0347 128.411 28.688 128.411 28.324C128.411 27.908 128.497 27.5267 128.671 27.18C128.844 26.8333 129.104 26.4867 129.451 26.14C129.797 25.776 130.231 25.386 130.751 24.97C131.288 24.5367 131.695 24.1813 131.973 23.904C132.25 23.6093 132.432 23.332 132.519 23.072C132.623 22.7947 132.675 22.4567 132.675 22.058C132.675 21.382 132.458 20.8967 132.025 20.602C131.609 20.3073 130.924 20.16 129.971 20.16C129.589 20.16 129.156 20.186 128.671 20.238C128.203 20.29 127.735 20.3593 127.267 20.446C126.816 20.5327 126.417 20.6107 126.071 20.68L125.915 18.106C126.313 17.9847 126.79 17.8547 127.345 17.716C127.899 17.5773 128.48 17.4647 129.087 17.378C129.693 17.2913 130.248 17.248 130.751 17.248C132.605 17.248 133.975 17.6033 134.859 18.314C135.76 19.0073 136.211 20.1947 136.211 21.876C136.211 22.6907 136.141 23.3493 136.003 23.852C135.881 24.3547 135.647 24.8053 135.301 25.204C134.954 25.6027 134.469 26.0533 133.845 26.556C133.065 27.18 132.501 27.6913 132.155 28.09C131.825 28.4887 131.652 28.9047 131.635 29.338V30.092H128.853ZM128.437 35.474V31.86H132.051V35.474H128.437ZM150.714 35.786C149.328 35.786 148.184 35.6127 147.282 35.266C146.398 34.902 145.696 34.3473 145.176 33.602C144.656 32.8567 144.292 31.912 144.084 30.768C143.894 29.6067 143.798 28.2287 143.798 26.634C143.798 25.022 143.894 23.644 144.084 22.5C144.292 21.3387 144.656 20.3853 145.176 19.64C145.696 18.8947 146.407 18.34 147.308 17.976C148.227 17.612 149.397 17.43 150.818 17.43C151.39 17.43 151.988 17.4647 152.612 17.534C153.236 17.6033 153.834 17.69 154.406 17.794C154.996 17.8807 155.498 17.976 155.914 18.08L155.81 20.94C155.464 20.8707 155.03 20.81 154.51 20.758C153.99 20.6887 153.462 20.6367 152.924 20.602C152.387 20.5673 151.884 20.55 151.416 20.55C150.584 20.55 149.908 20.654 149.388 20.862C148.868 21.07 148.461 21.4167 148.166 21.902C147.889 22.3873 147.698 23.02 147.594 23.8C147.49 24.5627 147.438 25.5073 147.438 26.634C147.438 27.7433 147.49 28.688 147.594 29.468C147.698 30.2307 147.889 30.8547 148.166 31.34C148.444 31.808 148.842 32.1547 149.362 32.38C149.9 32.588 150.593 32.692 151.442 32.692C152.136 32.692 152.898 32.6573 153.73 32.588C154.58 32.5013 155.282 32.4233 155.836 32.354L155.914 35.188C155.498 35.2747 155.004 35.37 154.432 35.474C153.86 35.5607 153.254 35.63 152.612 35.682C151.971 35.7513 151.338 35.786 150.714 35.786ZM161.557 35.786C160.205 35.786 159.183 35.448 158.489 34.772C157.813 34.0787 157.475 33.0387 157.475 31.652C157.475 30.6813 157.649 29.9273 157.995 29.39C158.342 28.8353 158.853 28.4367 159.529 28.194C160.223 27.934 161.063 27.778 162.051 27.726L165.223 27.44V26.66C165.223 26.036 165.067 25.6027 164.755 25.36C164.443 25.1 163.984 24.97 163.377 24.97C162.892 24.97 162.329 24.9873 161.687 25.022C161.063 25.0567 160.439 25.1 159.815 25.152C159.209 25.204 158.68 25.256 158.229 25.308L158.125 22.864C158.576 22.76 159.113 22.656 159.737 22.552C160.379 22.4307 161.046 22.3353 161.739 22.266C162.433 22.1967 163.074 22.162 163.663 22.162C164.773 22.162 165.7 22.3007 166.445 22.578C167.191 22.8553 167.754 23.3147 168.135 23.956C168.517 24.58 168.707 25.4293 168.707 26.504V32.458C168.742 32.7007 168.872 32.8913 169.097 33.03C169.323 33.1513 169.583 33.238 169.877 33.29L169.799 35.682C169.383 35.6993 168.976 35.708 168.577 35.708C168.179 35.708 167.841 35.682 167.563 35.63C167.165 35.578 166.818 35.474 166.523 35.318C166.246 35.162 166.021 34.9973 165.847 34.824C165.57 34.9453 165.197 35.084 164.729 35.24C164.261 35.396 163.75 35.526 163.195 35.63C162.658 35.734 162.112 35.786 161.557 35.786ZM162.389 33.212C162.719 33.212 163.065 33.1773 163.429 33.108C163.793 33.0387 164.131 32.9607 164.443 32.874C164.773 32.77 165.033 32.6747 165.223 32.588V29.598L162.571 29.832C161.999 29.884 161.583 30.0573 161.323 30.352C161.081 30.6293 160.959 31.028 160.959 31.548C160.959 32.068 161.072 32.4753 161.297 32.77C161.54 33.0647 161.904 33.212 162.389 33.212ZM171.865 35.5V17.118H175.323V35.5H171.865ZM178.39 35.5V17.118H181.848V35.5H178.39ZM190.089 35.786C188.651 35.786 187.507 35.5433 186.657 35.058C185.825 34.5727 185.227 33.836 184.863 32.848C184.499 31.86 184.317 30.6207 184.317 29.13C184.317 27.518 184.543 26.2007 184.993 25.178C185.461 24.1553 186.137 23.4013 187.021 22.916C187.905 22.4133 188.997 22.162 190.297 22.162C192.221 22.162 193.669 22.6473 194.639 23.618C195.627 24.5887 196.121 26.1227 196.121 28.22L195.965 30.144H187.801C187.819 31.1147 188.018 31.8427 188.399 32.328C188.781 32.8133 189.439 33.056 190.375 33.056C190.913 33.056 191.502 33.0473 192.143 33.03C192.785 32.9953 193.417 32.9607 194.041 32.926C194.683 32.8913 195.229 32.8567 195.679 32.822L195.757 35.24C195.324 35.3093 194.778 35.3873 194.119 35.474C193.461 35.5607 192.776 35.63 192.065 35.682C191.372 35.7513 190.713 35.786 190.089 35.786ZM187.801 27.934H192.663C192.663 26.7553 192.473 25.932 192.091 25.464C191.727 24.996 191.129 24.762 190.297 24.762C189.483 24.762 188.859 25.0047 188.425 25.49C188.009 25.9753 187.801 26.79 187.801 27.934ZM198.421 35.5V22.448H201.879V23.982C202.173 23.7567 202.537 23.5227 202.971 23.28C203.404 23.02 203.872 22.786 204.375 22.578C204.895 22.3527 205.389 22.2053 205.857 22.136V25.49C205.406 25.5593 204.929 25.6807 204.427 25.854C203.924 26.01 203.447 26.1833 202.997 26.374C202.563 26.5647 202.191 26.738 201.879 26.894V35.5H198.421ZM213.533 35.5V17.742H217.121V35.5H213.533ZM220.414 35.5V17.742H227.2C228.587 17.742 229.748 17.9413 230.684 18.34C231.637 18.7213 232.4 19.2847 232.972 20.03C233.544 20.7753 233.951 21.6767 234.194 22.734C234.454 23.7913 234.584 24.996 234.584 26.348C234.584 27.7173 234.463 28.9567 234.22 30.066C233.995 31.1753 233.605 32.1373 233.05 32.952C232.495 33.7667 231.75 34.3993 230.814 34.85C229.878 35.2833 228.708 35.5 227.304 35.5H220.414ZM224.002 32.484H227.096C227.911 32.484 228.569 32.328 229.072 32.016C229.575 31.704 229.956 31.2707 230.216 30.716C230.493 30.144 230.675 29.494 230.762 28.766C230.866 28.0207 230.918 27.2147 230.918 26.348C230.918 25.516 230.866 24.762 230.762 24.086C230.658 23.3927 230.467 22.8033 230.19 22.318C229.93 21.8153 229.549 21.434 229.046 21.174C228.561 20.8967 227.911 20.758 227.096 20.758H224.002V32.484Z" fill="black"/>
</svg>
