<svg width="275" height="52" viewBox="0 0 275 52" fill="none" xmlns="http://www.w3.org/2000/svg">
<path d="M16.38 35.5V32.484H19.11V35.5H16.38ZM8.892 41.948C7.384 41.948 6.032 41.6707 4.836 41.116C3.65733 40.5787 2.73 39.8247 2.054 38.854C1.378 37.8833 1.04 36.7827 1.04 35.552C1.04 35.2053 1.066 34.746 1.118 34.174C1.17 33.602 1.23933 32.9607 1.326 32.25C1.43 31.5393 1.534 30.82 1.638 30.092C1.75933 29.3467 1.872 28.6273 1.976 27.934L5.408 28.402C5.21733 29.5633 5.05267 30.6293 4.914 31.6C4.79267 32.5533 4.69733 33.368 4.628 34.044C4.55867 34.72 4.524 35.214 4.524 35.526C4.524 36.2193 4.69733 36.8173 5.044 37.32C5.39067 37.8227 5.88467 38.2127 6.526 38.49C7.18467 38.7847 7.97333 38.932 8.892 38.932C9.84533 38.932 10.6167 38.7933 11.206 38.516C11.7953 38.2387 12.22 37.8573 12.48 37.372C12.7573 36.8867 12.896 36.3407 12.896 35.734V17.118H16.38V35.734C16.38 36.982 16.0507 38.074 15.392 39.01C14.7507 39.946 13.8667 40.6653 12.74 41.168C11.6133 41.688 10.3307 41.948 8.892 41.948ZM19.11 35.5V32.484C19.318 32.484 19.4567 32.6227 19.526 32.9C19.5953 33.16 19.63 33.524 19.63 33.992C19.63 34.4427 19.5953 34.8067 19.526 35.084C19.4567 35.3613 19.318 35.5 19.11 35.5ZM39.3211 35.5V32.484H42.0511V35.5H39.3211ZM19.1191 35.5V32.484H38.7751L35.8371 35.032V29.572C35.8371 28.584 35.7071 27.7953 35.4471 27.206C35.1871 26.5993 34.8058 26.1573 34.3031 25.88C33.8178 25.6027 33.2285 25.464 32.5351 25.464C31.7898 25.464 31.0791 25.6113 30.4031 25.906C29.7445 26.2007 29.1291 26.582 28.5571 27.05C27.9851 27.518 27.4565 28.0207 26.9711 28.558C26.4858 29.0953 26.0525 29.6153 25.6711 30.118C25.2898 30.6033 24.9605 31.0193 24.6831 31.366L23.9031 28.844C24.5791 28.0293 25.1858 27.284 25.7231 26.608C26.2605 25.932 26.7718 25.334 27.2571 24.814C27.7598 24.294 28.2798 23.8607 28.8171 23.514C29.3718 23.1673 29.9698 22.9073 30.6111 22.734C31.2698 22.5433 32.0325 22.448 32.8991 22.448C34.0605 22.448 35.0485 22.6473 35.8631 23.046C36.6778 23.4273 37.3365 23.956 37.8391 24.632C38.3591 25.308 38.7318 26.0707 38.9571 26.92C39.1998 27.7693 39.3211 28.6533 39.3211 29.572V35.5H19.1191ZM22.3951 32.484V22.448H25.8791V32.484H22.3951ZM19.1191 35.5C18.9111 35.5 18.7725 35.3613 18.7031 35.084C18.6338 34.8067 18.5991 34.4427 18.5991 33.992C18.5991 33.524 18.6338 33.16 18.7031 32.9C18.7725 32.6227 18.9111 32.484 19.1191 32.484V35.5ZM42.0511 35.5V32.484C42.2591 32.484 42.3978 32.6227 42.4671 32.9C42.5365 33.16 42.5711 33.524 42.5711 33.992C42.5711 34.4427 42.5365 34.8067 42.4671 35.084C42.3978 35.3613 42.2591 35.5 42.0511 35.5ZM49.6389 35.5V32.484H52.8889V35.5H49.6389ZM52.8889 35.5V32.484C53.0969 32.484 53.2355 32.6227 53.3049 32.9C53.3742 33.16 53.4089 33.524 53.4089 33.992C53.4089 34.4427 53.3742 34.8067 53.3049 35.084C53.2355 35.3613 53.0969 35.5 52.8889 35.5ZM42.0469 35.5V32.484H48.2089L46.1809 34.174V22.448H49.6389V35.5H42.0469ZM42.0469 35.5C41.8389 35.5 41.7002 35.3613 41.6309 35.084C41.5615 34.8067 41.5269 34.4427 41.5269 33.992C41.5269 33.524 41.5615 33.16 41.6309 32.9C41.7002 32.6227 41.8389 32.484 42.0469 32.484V35.5ZM43.0869 20.888V17.924H46.5709V20.888H43.0869ZM46.6489 20.888V17.924H50.1329V20.888H46.6489ZM65.0555 35.5V32.484H67.8115V35.5H65.0555ZM49.6895 35.5V32.484H63.1835L61.5975 33.836V29.052C61.5975 28.116 61.4935 27.388 61.2855 26.868C61.0775 26.3307 60.7135 25.958 60.1935 25.75C59.6908 25.5247 58.9888 25.412 58.0875 25.412C57.3768 25.412 56.6748 25.464 55.9815 25.568C55.3055 25.6547 54.7768 25.776 54.3955 25.932L56.5535 23.904C56.4495 24.3027 56.3455 24.8053 56.2415 25.412C56.1548 26.0187 56.0768 26.6687 56.0075 27.362C55.9381 28.038 55.9035 28.7053 55.9035 29.364C55.9035 29.9707 55.9295 30.6033 55.9815 31.262C56.0508 31.9207 56.1201 32.5013 56.1895 33.004C56.2761 33.5067 56.3455 33.8533 56.3975 34.044L53.0955 34.954C53.0261 34.7113 52.9395 34.3127 52.8355 33.758C52.7315 33.2033 52.6361 32.5447 52.5495 31.782C52.4801 31.0193 52.4455 30.2133 52.4455 29.364C52.4455 28.4973 52.4888 27.6653 52.5755 26.868C52.6621 26.0533 52.7575 25.3253 52.8615 24.684C52.9828 24.0253 53.0955 23.4967 53.1995 23.098C53.6155 22.942 54.2655 22.786 55.1495 22.63C56.0335 22.474 57.0128 22.396 58.0875 22.396C59.6475 22.396 60.9388 22.6127 61.9615 23.046C63.0015 23.4793 63.7728 24.1813 64.2755 25.152C64.7955 26.1227 65.0555 27.4313 65.0555 29.078V35.5H49.6895ZM49.6895 35.5C49.4815 35.5 49.3428 35.3613 49.2735 35.084C49.2041 34.8067 49.1695 34.4427 49.1695 33.992C49.1695 33.524 49.2041 33.16 49.2735 32.9C49.3428 32.6227 49.4815 32.484 49.6895 32.484V35.5ZM67.8115 35.5V32.484C68.0195 32.484 68.1581 32.6227 68.2275 32.9C68.2968 33.16 68.3315 33.524 68.3315 33.992C68.3315 34.4427 68.2968 34.8067 68.2275 35.084C68.1581 35.3613 68.0195 35.5 67.8115 35.5ZM70.7564 35.5V17.118H74.2404V35.5H70.7564ZM67.8184 35.5V32.484H70.7564V35.5H67.8184ZM67.8184 35.5C67.6104 35.5 67.4717 35.3613 67.4024 35.084C67.333 34.8067 67.2984 34.4427 67.2984 33.992C67.2984 33.524 67.333 33.16 67.4024 32.9C67.4717 32.6227 67.6104 32.484 67.8184 32.484V35.5ZM78.4103 35.5V17.118H81.8683V35.5H78.4103ZM106.263 35.5V32.484H108.993V35.5H106.263ZM98.7748 41.948C97.2668 41.948 95.9148 41.6707 94.7188 41.116C93.5402 40.5787 92.6128 39.8247 91.9368 38.854C91.2608 37.8833 90.9228 36.7827 90.9228 35.552C90.9228 35.2053 90.9488 34.746 91.0008 34.174C91.0528 33.602 91.1222 32.9607 91.2088 32.25C91.3128 31.5393 91.4168 30.82 91.5208 30.092C91.6422 29.3467 91.7548 28.6273 91.8588 27.934L95.2908 28.402C95.1002 29.5633 94.9355 30.6293 94.7968 31.6C94.6755 32.5533 94.5802 33.368 94.5108 34.044C94.4415 34.72 94.4068 35.214 94.4068 35.526C94.4068 36.2193 94.5802 36.8173 94.9268 37.32C95.2735 37.8227 95.7675 38.2127 96.4088 38.49C97.0675 38.7847 97.8562 38.932 98.7748 38.932C99.7282 38.932 100.499 38.7933 101.089 38.516C101.678 38.2387 102.103 37.8573 102.363 37.372C102.64 36.8867 102.779 36.3407 102.779 35.734V22.448H106.263V35.734C106.263 36.982 105.933 38.074 105.275 39.01C104.633 39.946 103.749 40.6653 102.623 41.168C101.496 41.688 100.213 41.948 98.7748 41.948ZM108.993 35.5V32.484C109.201 32.484 109.339 32.6227 109.409 32.9C109.478 33.16 109.513 33.524 109.513 33.992C109.513 34.4427 109.478 34.8067 109.409 35.084C109.339 35.3613 109.201 35.5 108.993 35.5ZM96.8768 21.512V18.548H100.361V21.512H96.8768ZM109.002 35.5V32.484H122.496L120.91 33.836V29.052C120.91 28.116 120.806 27.388 120.598 26.868C120.39 26.3307 120.026 25.958 119.506 25.75C119.003 25.5247 118.301 25.412 117.4 25.412C116.689 25.412 115.987 25.464 115.294 25.568C114.618 25.6547 114.089 25.776 113.708 25.932L115.866 23.904C115.762 24.3027 115.658 24.8053 115.554 25.412C115.467 26.0187 115.389 26.6687 115.32 27.362C115.251 28.038 115.216 28.7053 115.216 29.364C115.216 29.9707 115.242 30.6033 115.294 31.262C115.363 31.9207 115.433 32.5013 115.502 33.004C115.589 33.5067 115.658 33.8533 115.71 34.044L112.408 34.954C112.339 34.7113 112.252 34.3127 112.148 33.758C112.044 33.2033 111.949 32.5447 111.862 31.782C111.793 31.0193 111.758 30.2133 111.758 29.364C111.758 28.4973 111.801 27.6653 111.888 26.868C111.975 26.0533 112.07 25.3253 112.174 24.684C112.295 24.0253 112.408 23.4967 112.512 23.098C112.928 22.942 113.578 22.786 114.462 22.63C115.346 22.474 116.325 22.396 117.4 22.396C118.96 22.396 120.251 22.6127 121.274 23.046C122.314 23.4793 123.085 24.1813 123.588 25.152C124.108 26.1227 124.368 27.4313 124.368 29.078V35.5H109.002ZM109.002 35.5C108.794 35.5 108.655 35.3613 108.586 35.084C108.517 34.8067 108.482 34.4427 108.482 33.992C108.482 33.524 108.517 33.16 108.586 32.9C108.655 32.6227 108.794 32.484 109.002 32.484V35.5ZM140.018 30.092H137.236L137.21 29.338C137.21 28.9047 137.036 28.4887 136.69 28.09C136.343 27.6913 135.788 27.18 135.026 26.556C134.384 26.0533 133.89 25.6027 133.544 25.204C133.214 24.8053 132.98 24.3547 132.842 23.852C132.72 23.3493 132.66 22.6907 132.66 21.876C132.66 20.1947 133.102 19.0073 133.986 18.314C134.887 17.6033 136.265 17.248 138.12 17.248C138.64 17.248 139.194 17.2913 139.784 17.378C140.373 17.4647 140.945 17.5773 141.5 17.716C142.072 17.8547 142.557 17.9847 142.956 18.106L142.8 20.68C142.453 20.6107 142.046 20.5327 141.578 20.446C141.127 20.3593 140.659 20.29 140.174 20.238C139.706 20.186 139.281 20.16 138.9 20.16C137.946 20.16 137.253 20.3073 136.82 20.602C136.386 20.8967 136.17 21.382 136.17 22.058C136.17 22.4567 136.222 22.7947 136.326 23.072C136.43 23.332 136.62 23.6093 136.898 23.904C137.175 24.1813 137.582 24.5367 138.12 24.97C138.64 25.386 139.073 25.776 139.42 26.14C139.766 26.4867 140.026 26.8333 140.2 27.18C140.373 27.5267 140.46 27.908 140.46 28.324C140.46 28.688 140.408 29.0347 140.304 29.364C140.217 29.676 140.122 29.9187 140.018 30.092ZM140.434 35.474H136.82V31.86H140.434V35.474ZM157.075 35.5V32.484H159.805V35.5H157.075ZM150.055 41.948C149.414 41.948 148.738 41.896 148.027 41.792C147.334 41.7053 146.588 41.584 145.791 41.428L146.311 38.646C147.178 38.75 147.914 38.828 148.521 38.88C149.128 38.932 149.639 38.958 150.055 38.958C151.303 38.958 152.204 38.7327 152.759 38.282C153.314 37.8313 153.591 37.1553 153.591 36.254V24.84L154.449 25.464H151.199C150.488 25.464 149.916 25.5507 149.483 25.724C149.05 25.88 148.729 26.218 148.521 26.738C148.33 27.2407 148.235 28.012 148.235 29.052C148.235 30.04 148.322 30.7853 148.495 31.288C148.686 31.7733 148.998 32.094 149.431 32.25C149.864 32.406 150.454 32.484 151.199 32.484H153.591V35.5H151.199C149.726 35.5 148.512 35.266 147.559 34.798C146.606 34.33 145.895 33.6193 145.427 32.666C144.976 31.7127 144.751 30.508 144.751 29.052C144.751 27.596 144.976 26.3827 145.427 25.412C145.895 24.424 146.606 23.6873 147.559 23.202C148.512 22.6993 149.726 22.448 151.199 22.448H157.075V36.254C157.075 37.4327 156.78 38.4467 156.191 39.296C155.619 40.1627 154.804 40.8213 153.747 41.272C152.707 41.7227 151.476 41.948 150.055 41.948ZM159.805 35.5V32.484C160.013 32.484 160.152 32.6227 160.221 32.9C160.29 33.16 160.325 33.524 160.325 33.992C160.325 34.4427 160.29 34.8067 160.221 35.084C160.152 35.3613 160.013 35.5 159.805 35.5ZM166.231 35.5V32.484H168.961V35.5H166.231ZM162.747 35.5V17.118H166.231V35.5H162.747ZM159.809 35.5V32.484H162.747V35.5H159.809ZM159.809 35.5C159.601 35.5 159.462 35.3613 159.393 35.084C159.323 34.8067 159.289 34.4427 159.289 33.992C159.289 33.524 159.323 33.16 159.393 32.9C159.462 32.6227 159.601 32.484 159.809 32.484V35.5ZM168.961 35.5V32.484C169.169 32.484 169.307 32.6227 169.377 32.9C169.446 33.16 169.481 33.524 169.481 33.992C169.481 34.4427 169.446 34.8067 169.377 35.084C169.307 35.3613 169.169 35.5 168.961 35.5ZM171.887 35.5V17.118H175.371V35.5H171.887ZM168.949 35.5V32.484H171.887V35.5H168.949ZM168.949 35.5C168.741 35.5 168.603 35.3613 168.533 35.084C168.464 34.8067 168.429 34.4427 168.429 33.992C168.429 33.524 168.464 33.16 168.533 32.9C168.603 32.6227 168.741 32.484 168.949 32.484V35.5ZM182.999 35.5V32.484H185.963V35.5H182.999ZM179.541 35.5V17.118H182.999V35.5H179.541ZM185.963 35.5V32.484C186.171 32.484 186.31 32.6227 186.379 32.9C186.449 33.16 186.483 33.524 186.483 33.992C186.483 34.4427 186.449 34.8067 186.379 35.084C186.31 35.3613 186.171 35.5 185.963 35.5ZM185.961 35.5V32.484H204.005L201.587 34.434V29.988C201.587 28.4973 201.388 27.3013 200.989 26.4C200.608 25.4987 199.992 24.8487 199.143 24.45C198.311 24.034 197.228 23.826 195.893 23.826C195.252 23.826 194.55 23.852 193.787 23.904C193.024 23.9387 192.262 23.9907 191.499 24.06C190.754 24.112 190.078 24.1727 189.471 24.242L189.107 21.902C189.696 21.746 190.381 21.5813 191.161 21.408C191.941 21.2347 192.756 21.0873 193.605 20.966C194.472 20.8447 195.312 20.784 196.127 20.784C197.254 20.784 198.346 20.94 199.403 21.252C200.478 21.5467 201.44 22.0493 202.289 22.76C203.138 23.4533 203.814 24.3893 204.317 25.568C204.82 26.7467 205.071 28.22 205.071 29.988V35.5H185.961ZM188.639 32.484V31.184C188.639 30.352 188.847 29.5807 189.263 28.87C189.696 28.142 190.286 27.57 191.031 27.154C191.776 26.7207 192.608 26.504 193.527 26.504C194.446 26.504 195.269 26.7207 195.997 27.154C196.725 27.57 197.297 28.1333 197.713 28.844C198.146 29.5547 198.363 30.3347 198.363 31.184V32.484H195.607V31.184C195.607 30.7507 195.512 30.3693 195.321 30.04C195.13 29.6933 194.879 29.416 194.567 29.208C194.255 29 193.908 28.896 193.527 28.896C193.146 28.896 192.79 29 192.461 29.208C192.149 29.416 191.898 29.6933 191.707 30.04C191.516 30.3693 191.421 30.7507 191.421 31.184V32.484H188.639ZM185.961 35.5C185.753 35.5 185.614 35.3613 185.545 35.084C185.476 34.8067 185.441 34.4427 185.441 33.992C185.441 33.524 185.476 33.16 185.545 32.9C185.614 32.6227 185.753 32.484 185.961 32.484V35.5Z" fill="black"/>
<g clip-path="url(#clip0_665_10749)">
<path fill-rule="evenodd" clip-rule="evenodd" d="M248.6 0C262.959 0 274.6 11.6406 274.6 26C274.6 40.3594 262.959 52 248.6 52C234.241 52 222.6 40.3594 222.6 26C222.6 11.6406 234.241 0 248.6 0ZM257.454 14.2629C254.775 14.2629 251.805 15.8104 251.805 25.8822C251.805 35.954 254.774 37.5014 257.454 37.5014C258.311 37.5014 258.906 37.2786 259.297 37.0408C259.698 36.796 259.892 36.3249 259.773 35.8706C259.476 34.737 258.837 32.2908 258.54 31.1565C258.443 30.7838 258.152 30.4979 257.779 30.403L255.889 29.9244C255.466 29.8174 255.154 29.4678 255.101 29.035C255.009 28.2867 254.884 27.0581 254.884 25.881C254.884 24.7039 255.009 23.4753 255.101 22.7271C255.154 22.2942 255.466 21.9447 255.889 21.8376L257.779 21.359C258.152 21.2647 258.444 20.9747 258.542 20.6021L259.772 15.8972C259.891 15.4417 259.697 14.966 259.294 14.7218C258.904 14.484 258.31 14.2623 257.454 14.2629ZM239.747 14.2629C238.891 14.2623 238.297 14.484 237.906 14.7218C237.523 14.9538 237.33 15.3947 237.413 15.8287L237.428 15.8972L238.659 20.6021C238.75 20.9514 239.012 21.2281 239.352 21.339L239.422 21.359L241.311 21.8376C241.734 21.9447 242.047 22.2942 242.1 22.7271C242.192 23.4753 242.316 24.7039 242.316 25.881C242.316 27.0581 242.192 28.2867 242.1 29.035C242.049 29.4451 241.766 29.7803 241.377 29.9055L241.311 29.9244L239.422 30.403C239.049 30.4979 238.757 30.7838 238.66 31.1565C238.364 32.2908 237.724 34.737 237.427 35.8706C237.309 36.3249 237.502 36.796 237.903 37.0408C238.295 37.2786 238.889 37.5014 239.747 37.5014C242.426 37.5014 245.395 35.954 245.395 25.8822C245.395 15.8104 242.425 14.2629 239.747 14.2629ZM248.6 24.2353C247.625 24.2353 246.835 25.0254 246.835 26C246.835 26.9746 247.625 27.7647 248.6 27.7647C249.575 27.7647 250.365 26.9746 250.365 26C250.365 25.0254 249.575 24.2353 248.6 24.2353Z" fill="#2C2FFE"/>
</g>
<defs>
<clipPath id="clip0_665_10749">
<rect width="52" height="52" fill="white" transform="translate(222.6)"/>
</clipPath>
</defs>
</svg>
