<svg width="506" height="820" viewBox="0 0 506 820" fill="none" xmlns="http://www.w3.org/2000/svg">
<rect width="506" height="820" fill="#ECFBFF"/>
<mask id="mask0_18_5187" style="mask-type:alpha" maskUnits="userSpaceOnUse" x="0" y="0" width="506" height="820">
<rect width="506" height="820" rx="25" fill="#ECFBFF"/>
</mask>
<g mask="url(#mask0_18_5187)">
<path d="M292.765 742.148L290.641 739.168C244.527 674.454 159.457 650.772 86.5369 682.35L15.8115 712.976C-82.5188 755.558 -187.017 666.967 -161.103 562.994L-157.384 548.073C-147.4 508.013 -161.533 465.797 -193.623 439.823C-267.56 379.978 -230.441 260.534 -135.607 253.138L2.99067 242.328C59.2413 237.941 109.132 204.535 134.612 154.195L230.651 -35.5401C260.837 -95.1751 344.855 -98.2807 379.36 -41.0369C404.156 0.097866 457.828 12.968 498.582 -12.4483L527.081 -30.222C618.207 -87.0522 731.747 -2.64325 703.579 100.991L648.243 304.581C638.744 339.529 638.82 376.389 648.463 411.298L679.958 525.304C719.126 667.087 615.45 808.201 468.441 813.202L438.652 814.215C381.014 816.176 326.232 789.114 292.765 742.148Z" stroke="#C0F2FE"/>
<path d="M304.944 827.797L302.339 824.138C245.791 744.711 141.473 715.645 52.0541 754.401L-34.7209 792.012C-155.451 844.341 -283.755 735.472 -251.938 607.696L-247.375 589.373C-235.136 540.221 -252.46 488.424 -291.799 456.554C-382.595 382.997 -337.01 236.186 -220.554 227.096L-50.5049 213.822C18.4714 208.437 79.6481 167.437 110.893 105.653L228.726 -127.349C265.802 -200.662 368.998 -204.48 411.38 -134.106C441.77 -83.6459 507.55 -67.8576 557.499 -99.0363L592.466 -120.863C704.357 -190.707 843.774 -86.9698 809.186 40.3981L741.292 290.413C729.642 333.312 729.736 378.556 741.563 421.406L780.204 561.409C828.28 735.595 701.025 908.959 520.583 915.102L484.033 916.347C413.278 918.756 346.028 885.504 304.944 827.797Z" stroke="#C0F2FE"/>
<path d="M318.854 923.258L315.71 918.842C247.486 823.05 121.628 787.996 13.7463 834.738L-90.9896 880.117C-236.787 943.287 -391.732 811.861 -353.308 657.613L-347.801 635.505C-333.038 576.241 -353.935 513.786 -401.385 475.36C-511.046 386.552 -455.99 209.302 -315.337 198.327L-110.09 182.311C-26.8729 175.817 46.9344 126.37 84.6304 51.858L226.853 -229.267C271.639 -317.795 396.297 -322.405 447.494 -237.427C484.144 -176.594 563.475 -157.561 623.714 -195.148L665.918 -221.483C801.049 -305.802 969.421 -180.565 927.65 -26.8009L845.703 274.852C831.647 326.592 831.76 381.162 846.03 432.844L892.669 601.763C950.714 811.989 797.072 1021.22 579.214 1028.64L535.099 1030.14C449.665 1033.05 368.463 992.911 318.854 923.258Z" stroke="#C0F2FE"/>
<path d="M283.492 680.495L281.718 678.007C243.177 623.956 172.077 604.177 111.132 630.551L52.0557 656.116C-30.0169 691.634 -117.236 617.739 -95.607 531.015L-92.5008 518.561C-84.1532 485.09 -95.9691 449.817 -122.799 428.115C-184.5 378.207 -153.524 278.595 -74.3838 272.427L41.3855 263.405C88.3997 259.74 130.098 231.838 151.395 189.791L231.615 31.4108C256.8 -18.3113 326.898 -20.9008 355.687 26.8276C376.422 61.2042 421.305 71.9595 455.385 50.7192L479.191 35.8827C555.244 -11.5168 650.004 58.8854 626.495 145.32L580.273 315.265C572.334 344.452 572.398 375.236 580.457 404.391L606.764 499.556C639.467 617.857 552.905 735.6 430.163 739.772L405.28 740.618C357.164 742.254 311.431 719.677 283.492 680.495Z" stroke="#C0F2FE"/>
<path d="M274.442 618.869L273.019 616.87C242.074 573.383 184.988 557.469 136.054 578.689L88.6636 599.239C22.9025 627.757 -46.9869 568.427 -29.6554 498.791L-27.1636 488.779C-20.458 461.837 -29.9495 433.445 -51.5022 415.975C-100.931 375.912 -76.1138 295.951 -12.7185 291L80.1515 283.747C117.901 280.799 151.382 258.349 168.481 224.519L232.834 97.206C253.002 57.3062 309.136 55.2285 332.191 93.5282C348.853 121.209 384.92 129.87 412.306 112.766L431.403 100.84C492.334 62.787 568.258 119.305 549.422 188.702L512.342 325.312C505.97 348.791 506.021 373.554 512.491 397.006L533.594 473.505C559.811 568.54 490.415 663.126 392.017 666.478L372.056 667.158C333.49 668.471 296.835 650.339 274.442 618.869Z" stroke="#C0F2FE"/>
<path d="M264.219 548.785L263.192 547.34C240.829 515.868 199.573 504.35 164.209 519.708L130.018 534.555C82.6815 555.112 32.3693 512.345 44.8461 462.143L46.6439 454.91C51.4946 435.392 44.6286 414.824 29.0372 402.169C-6.52715 373.302 11.3308 315.689 56.9412 312.122L123.943 306.882C151.227 304.748 175.425 288.499 187.783 264.014L234.211 172.032C248.712 143.302 289.073 141.806 305.649 169.384C317.71 189.449 343.818 195.728 363.643 183.329L377.421 174.712C421.271 147.288 475.915 188.019 462.358 238.038L435.607 336.737C431.003 353.724 431.04 371.64 435.714 388.608L450.939 443.878C469.83 512.454 419.826 580.704 348.926 583.123L334.525 583.614C306.749 584.562 280.348 571.483 264.219 548.785Z" stroke="#C0F2FE"/>
</g>
</svg>
