<svg width="180" height="52" viewBox="0 0 180 52" fill="none" xmlns="http://www.w3.org/2000/svg">
<g clip-path="url(#clip0_118_17167)">
<path d="M180 46.7875C180 47.4725 179.866 48.1507 179.605 48.7835C179.345 49.4163 178.963 49.9911 178.482 50.4752C178 50.9593 177.429 51.3432 176.8 51.6048C176.171 51.8664 175.497 52.0007 174.817 52H5.1901C3.81527 52.0014 2.49615 51.4531 1.52286 50.4756C0.549568 49.4981 0.00179173 48.1715 0 46.7875V5.21933C0.00179091 3.83469 0.549351 2.50735 1.52245 1.52877C2.49555 0.550193 3.81464 0.00035941 5.1901 0H174.815C175.496 -2.33118e-08 176.17 0.135012 176.799 0.397324C177.428 0.659636 178 1.04411 178.481 1.52879C178.962 2.01346 179.344 2.58885 179.604 3.22208C179.865 3.85531 179.999 4.53398 179.999 5.21933L180 46.7875Z" fill="black"/>
<path d="M40.2188 25.7129C40.1791 21.3101 43.8321 19.1681 43.9991 19.0684C41.9303 16.059 38.7237 15.6478 37.5968 15.615C34.9036 15.3323 32.2913 17.2229 30.9193 17.2229C29.52 17.2229 27.4074 15.6424 25.1305 15.6888C22.2004 15.7339 19.4593 17.4264 17.956 20.0547C14.8534 25.4137 17.1673 33.289 20.1398 37.6207C21.6267 39.7436 23.3642 42.1109 25.6384 42.0276C27.8633 41.9375 28.6944 40.6138 31.3794 40.6138C34.0397 40.6138 34.8201 42.0276 37.1395 41.9743C39.5274 41.9375 41.0307 39.8433 42.4656 37.7027C44.1839 35.2725 44.874 32.8764 44.9014 32.7535C44.8466 32.7344 40.2653 30.9886 40.2188 25.7129ZM35.8374 12.7655C37.0341 11.2724 37.8529 9.24106 37.6256 7.17969C35.8936 7.25619 33.7275 8.37498 32.4802 9.83529C31.3766 11.1221 30.3908 13.2313 30.6455 15.2148C32.5911 15.3596 34.5887 14.2353 35.8374 12.7655Z" fill="white"/>
<path d="M72.4451 41.7229H69.3357L67.6324 36.383H61.7121L60.0896 41.7229H57.0624L62.9293 23.5435H66.5521L72.4451 41.7229ZM67.119 34.1427L65.5787 29.3957C65.4157 28.9107 65.109 27.7687 64.6599 25.971H64.6052C64.4244 26.7442 64.1355 27.8862 63.7399 29.3957L62.2255 34.1427H67.119ZM87.5033 35.0074C87.5033 37.2368 86.8968 38.999 85.6823 40.2927C84.5952 41.4442 83.2438 42.0193 81.6323 42.0193C79.892 42.0193 78.6406 41.4005 77.8807 40.1602V47.0382H74.9616V32.9228C74.9616 31.5226 74.9247 30.0869 74.8535 28.6143H77.4207L77.5836 30.6921H77.6384C78.6119 29.1266 80.0892 28.3438 82.0718 28.3438C83.6217 28.3438 84.9156 28.9544 85.9507 30.1771C86.9844 31.4024 87.5033 33.0116 87.5033 35.0074ZM84.5295 35.114C84.5295 33.8381 84.2419 32.7862 83.6641 31.957C83.0329 31.095 82.1854 30.6634 81.1229 30.6634C80.4027 30.6634 79.7483 30.9038 79.1636 31.3778C78.5776 31.8559 78.1943 32.4802 78.0149 33.2534C77.9348 33.5426 77.8893 33.8401 77.8794 34.14V36.327C77.8794 37.2792 78.1724 38.0838 78.7584 38.7422C79.3444 39.3979 80.1056 39.7271 81.0422 39.7271C82.1416 39.7271 82.9973 39.3023 83.6094 38.4594C84.2228 37.6138 84.5295 36.4991 84.5295 35.114ZM102.615 35.0074C102.615 37.2368 102.008 38.999 100.794 40.2927C99.7054 41.4442 98.3554 42.0193 96.7425 42.0193C95.0023 42.0193 93.7509 41.4005 92.991 40.1602V47.0382H90.0719V32.9228C90.0719 31.5226 90.0349 30.0869 89.9637 28.6143H92.5309L92.6939 30.6921H92.7486C93.7207 29.1266 95.1981 28.3438 97.182 28.3438C98.7306 28.3438 100.024 28.9544 101.062 30.1771C102.095 31.4024 102.615 33.0116 102.615 35.0074ZM99.6397 35.114C99.6397 33.8381 99.3508 32.7862 98.773 31.957C98.1418 31.095 97.297 30.6634 96.2346 30.6634C95.5144 30.6634 94.8599 30.9038 94.2725 31.3778C93.6865 31.8559 93.3045 32.4802 93.1251 33.2534C93.0361 33.614 92.9882 33.9077 92.9882 34.14V36.327C92.9882 37.2792 93.2826 38.0838 93.8659 38.7422C94.4519 39.3965 95.2132 39.7271 96.1524 39.7271C97.2532 39.7271 98.109 39.3023 98.7196 38.4594C99.333 37.6138 99.6397 36.4991 99.6397 35.114ZM119.511 36.6235C119.511 38.1712 118.968 39.4293 117.891 40.4006C116.705 41.4606 115.05 41.992 112.928 41.992C110.967 41.992 109.395 41.615 108.209 40.8596L108.884 38.4321C110.165 39.1889 111.571 39.5659 113.101 39.5659C114.202 39.5659 115.058 39.3173 115.669 38.8242C116.281 38.3296 116.59 37.6685 116.59 36.8434C116.59 36.1044 116.334 35.4855 115.832 34.9815C115.326 34.4788 114.491 34.0102 113.318 33.5799C110.128 32.3928 108.531 30.6565 108.531 28.3725C108.531 26.8808 109.095 25.6595 110.221 24.7047C111.346 23.7512 112.839 23.2744 114.695 23.2744C116.353 23.2744 117.735 23.5627 118.831 24.1378L118.099 26.512C117.067 25.9546 115.901 25.6759 114.598 25.6759C113.568 25.6759 112.761 25.9286 112.183 26.4314C111.697 26.8808 111.45 27.4286 111.45 28.0788C111.45 28.796 111.731 29.3916 112.29 29.8588C112.774 30.2891 113.659 30.7576 114.938 31.2603C116.507 31.8915 117.659 32.6264 118.397 33.4706C119.141 34.3148 119.511 35.3681 119.511 36.6235ZM129.187 30.8H125.969V37.1644C125.969 38.7832 126.536 39.5905 127.672 39.5905C128.194 39.5905 128.627 39.5468 128.969 39.4553L129.05 41.6669C128.475 41.8814 127.717 41.9893 126.78 41.9893C125.627 41.9893 124.726 41.6382 124.075 40.9361C123.428 40.2339 123.102 39.0578 123.102 37.4021V30.7945H121.185V28.6088H123.102V26.2087L125.969 25.3453V28.6088H129.187V30.8ZM143.675 35.0607C143.675 37.0756 143.097 38.7299 141.945 40.0235C140.738 41.3554 139.134 42.0193 137.133 42.0193C135.203 42.0193 133.668 41.3814 132.523 40.1069C131.379 38.8296 130.806 37.2204 130.806 35.2793C130.806 33.2479 131.398 31.5841 132.577 30.2904C133.758 28.9954 135.349 28.3479 137.35 28.3479C139.277 28.3479 140.826 28.9872 141.998 30.2631C143.118 31.5008 143.675 33.099 143.675 35.0607ZM140.649 35.1276C140.649 33.9269 140.389 32.8969 139.868 32.0349C139.255 30.994 138.379 30.4735 137.244 30.4735C136.075 30.4735 135.178 30.994 134.567 32.0349C134.044 32.8969 133.784 33.9446 133.784 35.1823C133.784 36.3844 134.044 37.4171 134.567 38.2764C135.199 39.3173 136.079 39.8378 137.22 39.8378C138.335 39.8378 139.21 39.3064 139.843 38.2504C140.38 37.3679 140.649 36.3311 140.649 35.1276ZM153.168 31.1756C152.864 31.121 152.556 31.094 152.248 31.095C151.221 31.095 150.427 31.4803 149.868 32.2562C149.383 32.9392 149.14 33.8026 149.14 34.8449V41.7229H146.22V32.7425C146.223 31.3664 146.195 29.9905 146.136 28.6157H148.678L148.785 31.1237H148.866C149.175 30.2618 149.66 29.5664 150.325 29.046C150.934 28.5912 151.674 28.3449 152.435 28.3438C152.705 28.3438 152.949 28.3629 153.165 28.3971L153.168 31.1756ZM166.223 34.5484C166.23 34.9912 166.194 35.4336 166.116 35.8694H157.359C157.392 37.1644 157.816 38.1562 158.629 38.8392C159.367 39.4484 160.322 39.7544 161.494 39.7544C162.79 39.7544 163.973 39.5495 165.037 39.1356L165.494 41.156C164.251 41.697 162.783 41.9661 161.09 41.9661C159.052 41.9661 157.453 41.3677 156.289 40.1738C155.128 38.9785 154.546 37.372 154.546 35.3599C154.546 33.3845 155.087 31.7385 156.17 30.4257C157.304 29.0241 158.836 28.3233 160.764 28.3233C162.657 28.3233 164.091 29.0241 165.064 30.4257C165.835 31.5363 166.223 32.9133 166.223 34.5484ZM163.439 33.793C163.46 32.9283 163.268 32.1838 162.872 31.554C162.367 30.7426 161.59 30.3383 160.548 30.3383C159.593 30.3383 158.816 30.733 158.224 31.5254C157.738 32.1551 157.449 32.9119 157.36 33.7903L163.439 33.793Z" fill="white"/>
<path d="M60.8701 17.1153C60.0581 17.1153 59.3558 17.0757 58.7711 17.0088V8.21963C59.5888 8.09361 60.4151 8.03149 61.2425 8.03385C64.5901 8.03385 66.1318 9.67721 66.1318 12.356C66.1318 15.446 64.3108 17.1153 60.8701 17.1153ZM61.3602 9.16084C60.9084 9.16084 60.5237 9.18816 60.2046 9.25373V15.9351C60.3772 15.9624 60.7085 15.9747 61.174 15.9747C63.3674 15.9747 64.6161 14.7289 64.6161 12.3956C64.6161 10.3152 63.4866 9.16084 61.3602 9.16084ZM70.9363 17.1823C69.0495 17.1823 67.8269 15.7766 67.8269 13.8682C67.8269 11.8793 69.0755 10.4613 71.0431 10.4613C72.9024 10.4613 74.1525 11.8 74.1525 13.7631C74.1525 15.7766 72.8641 17.1823 70.9363 17.1823ZM70.991 11.5077C69.9546 11.5077 69.2905 12.4749 69.2905 13.8273C69.2905 15.1537 69.9682 16.1209 70.9773 16.1209C71.9864 16.1209 72.6642 15.0868 72.6642 13.7999C72.6642 12.4885 72.0001 11.5077 70.991 11.5077ZM84.9115 10.5938L82.8919 17.0361H81.5761L80.7396 14.2384C80.5316 13.5541 80.3584 12.8597 80.2207 12.158H80.1933C80.0878 12.8601 79.8879 13.5636 79.6757 14.2384L78.7858 17.0361H77.4563L75.5559 10.5938H77.0305L77.7616 13.6565C77.9341 14.386 78.0793 15.0745 78.1997 15.7247H78.2271C78.3326 15.1824 78.5051 14.5048 78.7584 13.6702L79.6757 10.5952H80.845L81.7226 13.6046C81.9349 14.3341 82.1074 15.0499 82.2416 15.7261H82.2799C82.373 15.0635 82.5195 14.36 82.718 13.6046L83.5026 10.5952L84.9115 10.5938ZM92.3461 17.0361H90.9112V13.3369C90.9112 12.1976 90.473 11.6266 89.6091 11.6266C88.7588 11.6266 88.1742 12.356 88.1742 13.2043V17.0361H86.7393V12.4353C86.7393 11.8656 86.7256 11.255 86.6859 10.5925H87.9483L88.0154 11.5869H88.0551C88.4412 10.8985 89.2244 10.4613 90.102 10.4613C91.4575 10.4613 92.3475 11.4954 92.3475 13.1784L92.3461 17.0361ZM96.303 17.0361H94.8667V7.6377H96.303V17.0361ZM101.535 17.1823C99.6493 17.1823 98.4252 15.7766 98.4252 13.8682C98.4252 11.8793 99.6739 10.4613 101.64 10.4613C103.501 10.4613 104.749 11.8 104.749 13.7631C104.751 15.7766 103.461 17.1823 101.535 17.1823ZM101.588 11.5077C100.552 11.5077 99.8875 12.4749 99.8875 13.8273C99.8875 15.1537 100.567 16.1209 101.573 16.1209C102.583 16.1209 103.26 15.0868 103.26 13.7999C103.261 12.4885 102.598 11.5077 101.588 11.5077ZM110.407 17.0361L110.303 16.2944H110.265C109.826 16.8913 109.187 17.1823 108.376 17.1823C107.219 17.1823 106.398 16.3736 106.398 15.2862C106.398 13.6961 107.779 12.8738 110.171 12.8738V12.7549C110.171 11.9066 109.721 11.4818 108.831 11.4818C108.194 11.4818 107.636 11.6416 107.144 11.9599L106.853 11.0187C107.449 10.6471 108.194 10.4613 109.069 10.4613C110.756 10.4613 111.608 11.3493 111.608 13.1265V15.4993C111.608 16.1496 111.636 16.6536 111.701 17.0375L110.407 17.0361ZM110.21 13.8273C108.616 13.8273 107.816 14.2125 107.816 15.1264C107.816 15.8026 108.229 16.1332 108.801 16.1332C109.531 16.1332 110.21 15.5772 110.21 14.8218V13.8273ZM118.575 17.0361L118.508 16.002H118.469C118.056 16.7834 117.364 17.1823 116.396 17.1823C114.839 17.1823 113.686 15.8162 113.686 13.8942C113.686 11.8793 114.881 10.46 116.513 10.46C117.377 10.46 117.989 10.7509 118.334 11.3356H118.363V7.6377H119.799V15.2999C119.799 15.9228 119.815 16.5061 119.853 17.0361H118.575ZM118.363 13.2453C118.363 12.3437 117.765 11.5747 116.852 11.5747C115.788 11.5747 115.137 12.5159 115.137 13.8409C115.137 15.14 115.812 16.0293 116.823 16.0293C117.725 16.0293 118.363 15.2466 118.363 14.319V13.2453ZM128.906 17.1823C127.021 17.1823 125.798 15.7766 125.798 13.8682C125.798 11.8793 127.047 10.4613 129.013 10.4613C130.873 10.4613 132.122 11.8 132.122 13.7631C132.123 15.7766 130.835 17.1823 128.906 17.1823ZM128.959 11.5077C127.924 11.5077 127.26 12.4749 127.26 13.8273C127.26 15.1537 127.938 16.1209 128.946 16.1209C129.956 16.1209 130.632 15.0868 130.632 13.7999C130.635 12.4885 129.971 11.5077 128.959 11.5077ZM139.839 17.0361H138.402V13.3369C138.402 12.1976 137.964 11.6266 137.1 11.6266C136.25 11.6266 135.667 12.356 135.667 13.2043V17.0361H134.231V12.4353C134.231 11.8656 134.217 11.255 134.177 10.5925H135.44L135.507 11.5869H135.546C135.931 10.8985 136.716 10.46 137.592 10.46C138.947 10.46 139.839 11.4941 139.839 13.177V17.0361ZM149.493 11.6675H147.914V14.7958C147.914 15.5922 148.191 15.9897 148.749 15.9897C149.003 15.9897 149.215 15.9624 149.386 15.9228L149.426 17.0102C149.148 17.1167 148.775 17.17 148.313 17.17C147.182 17.17 146.505 16.5471 146.505 14.916V11.6675H145.563V10.5938H146.505V9.41356L147.914 8.98872V10.5925H149.493V11.6675ZM157.089 17.0361H155.655V13.3642C155.655 12.2112 155.219 11.6279 154.353 11.6279C153.61 11.6279 152.917 12.132 152.917 13.1524V17.0361H151.484V7.6377H152.917V11.5077H152.946C153.398 10.8056 154.052 10.46 154.887 10.46C156.254 10.46 157.089 11.52 157.089 13.2043V17.0361ZM164.871 14.1592H160.565C160.593 15.3791 161.402 16.0676 162.6 16.0676C163.237 16.0676 163.823 15.961 164.34 15.763L164.563 16.7574C163.953 17.0225 163.234 17.155 162.397 17.155C160.378 17.155 159.182 15.8818 159.182 13.9079C159.182 11.9326 160.407 10.4477 162.236 10.4477C163.886 10.4477 164.921 11.6675 164.921 13.5103C164.93 13.7278 164.913 13.9456 164.871 14.1592ZM163.556 13.1388C163.556 12.1443 163.053 11.4421 162.136 11.4421C161.312 11.4421 160.66 12.158 160.567 13.1388H163.556Z" fill="white"/>
</g>
<defs>
<clipPath id="clip0_118_17167">
<rect width="180" height="52" fill="white"/>
</clipPath>
</defs>
</svg>
