<svg width="152" height="67" viewBox="0 0 152 67" fill="none" xmlns="http://www.w3.org/2000/svg">
<rect width="152" height="67" rx="9" fill="#4F4F4F"/>
<path d="M20.7268 60.165C19.9268 60.165 19.2668 60.065 18.7468 59.865C18.2368 59.655 17.8318 59.335 17.5318 58.905C17.2318 58.475 17.0218 57.93 16.9018 57.27C16.7918 56.6 16.7368 55.805 16.7368 54.885C16.7368 53.955 16.7918 53.16 16.9018 52.5C17.0218 51.83 17.2318 51.28 17.5318 50.85C17.8318 50.42 18.2418 50.1 18.7618 49.89C19.2918 49.68 19.9668 49.575 20.7868 49.575C21.1168 49.575 21.4618 49.595 21.8218 49.635C22.1818 49.675 22.5268 49.725 22.8568 49.785C23.1968 49.835 23.4868 49.89 23.7268 49.95L23.6668 51.6C23.4668 51.56 23.2168 51.525 22.9168 51.495C22.6168 51.455 22.3118 51.425 22.0018 51.405C21.6918 51.385 21.4018 51.375 21.1318 51.375C20.6518 51.375 20.2618 51.435 19.9618 51.555C19.6618 51.675 19.4268 51.875 19.2568 52.155C19.0968 52.435 18.9868 52.8 18.9268 53.25C18.8668 53.69 18.8368 54.235 18.8368 54.885C18.8368 55.525 18.8668 56.07 18.9268 56.52C18.9868 56.96 19.0968 57.32 19.2568 57.6C19.4168 57.87 19.6468 58.07 19.9468 58.2C20.2568 58.32 20.6568 58.38 21.1468 58.38C21.5468 58.38 21.9868 58.36 22.4668 58.32C22.9568 58.27 23.3618 58.225 23.6818 58.185L23.7268 59.82C23.4868 59.87 23.2018 59.925 22.8718 59.985C22.5418 60.035 22.1918 60.075 21.8218 60.105C21.4518 60.145 21.0868 60.165 20.7268 60.165ZM30.1724 60.165C29.0824 60.165 28.2174 59.975 27.5774 59.595C26.9474 59.205 26.4924 58.62 26.2124 57.84C25.9424 57.06 25.8074 56.085 25.8074 54.915C25.8074 53.735 25.9424 52.75 26.2124 51.96C26.4924 51.17 26.9474 50.575 27.5774 50.175C28.2174 49.775 29.0824 49.575 30.1724 49.575C31.2624 49.575 32.1224 49.775 32.7524 50.175C33.3924 50.575 33.8474 51.17 34.1174 51.96C34.3974 52.75 34.5374 53.735 34.5374 54.915C34.5374 56.105 34.3974 57.09 34.1174 57.87C33.8474 58.65 33.3924 59.23 32.7524 59.61C32.1224 59.98 31.2624 60.165 30.1724 60.165ZM30.1724 58.425C30.8024 58.425 31.2774 58.3 31.5974 58.05C31.9274 57.79 32.1474 57.4 32.2574 56.88C32.3674 56.35 32.4224 55.695 32.4224 54.915C32.4224 54.135 32.3624 53.48 32.2424 52.95C32.1324 52.41 31.9174 52.005 31.5974 51.735C31.2774 51.455 30.8024 51.315 30.1724 51.315C29.5524 51.315 29.0774 51.455 28.7474 51.735C28.4274 52.005 28.2074 52.41 28.0874 52.95C27.9674 53.48 27.9074 54.135 27.9074 54.915C27.9074 55.685 27.9624 56.33 28.0724 56.85C28.1924 57.37 28.4124 57.765 28.7324 58.035C29.0624 58.295 29.5424 58.425 30.1724 58.425ZM37.0983 60V49.755H40.4283L42.4983 56.595L44.5233 49.755H47.8983V60H45.8283V52.41H45.6183L43.4733 59.73H41.5233L39.3783 52.41H39.1683V60H37.0983ZM50.7839 60V49.755H52.8539V60H50.7839ZM55.7536 60V49.755H58.4536L61.7386 56.955H62.0086V49.755H64.0786V60H61.4086L58.0936 52.68H57.8236V60H55.7536ZM70.9386 60.15C70.0786 60.15 69.3686 60.04 68.8086 59.82C68.2486 59.59 67.8086 59.255 67.4886 58.815C67.1786 58.365 66.9586 57.815 66.8286 57.165C66.6986 56.505 66.6336 55.745 66.6336 54.885C66.6336 53.975 66.7036 53.19 66.8436 52.53C66.9936 51.86 67.2336 51.31 67.5636 50.88C67.9036 50.44 68.3436 50.115 68.8836 49.905C69.4336 49.685 70.1086 49.575 70.9086 49.575C71.3186 49.575 71.7436 49.6 72.1836 49.65C72.6336 49.69 73.0586 49.745 73.4586 49.815C73.8686 49.885 74.2086 49.955 74.4786 50.025L74.4486 51.645C74.1686 51.595 73.8286 51.55 73.4286 51.51C73.0386 51.47 72.6386 51.44 72.2286 51.42C71.8186 51.39 71.4486 51.375 71.1186 51.375C70.6186 51.375 70.2086 51.44 69.8886 51.57C69.5786 51.7 69.3386 51.91 69.1686 52.2C69.0086 52.48 68.8986 52.845 68.8386 53.295C68.7786 53.735 68.7486 54.265 68.7486 54.885C68.7486 55.675 68.8036 56.335 68.9136 56.865C69.0336 57.385 69.2586 57.77 69.5886 58.02C69.9286 58.27 70.4136 58.395 71.0436 58.395C71.2036 58.395 71.3736 58.39 71.5536 58.38C71.7436 58.37 71.9236 58.355 72.0936 58.335C72.2736 58.315 72.4236 58.295 72.5436 58.275V56.04H71.3286V54.465H74.5086V59.76C74.2886 59.79 74.0236 59.83 73.7136 59.88C73.4036 59.92 73.0786 59.96 72.7386 60C72.4086 60.04 72.0836 60.075 71.7636 60.105C71.4536 60.135 71.1786 60.15 70.9386 60.15ZM84.803 60.165C84.423 60.165 84.008 60.14 83.558 60.09C83.108 60.05 82.668 60 82.238 59.94C81.818 59.87 81.458 59.81 81.158 59.76L81.293 58.125C81.603 58.165 81.963 58.21 82.373 58.26C82.783 58.3 83.188 58.335 83.588 58.365C83.998 58.395 84.353 58.41 84.653 58.41C85.223 58.41 85.638 58.3 85.898 58.08C86.158 57.85 86.288 57.495 86.288 57.015C86.288 56.755 86.233 56.55 86.123 56.4C86.023 56.24 85.838 56.115 85.568 56.025C85.298 55.925 84.923 55.83 84.443 55.74C83.643 55.59 82.993 55.405 82.493 55.185C82.003 54.965 81.643 54.655 81.413 54.255C81.193 53.855 81.083 53.32 81.083 52.65C81.083 51.87 81.228 51.26 81.518 50.82C81.808 50.37 82.223 50.05 82.763 49.86C83.303 49.67 83.938 49.575 84.668 49.575C84.998 49.575 85.373 49.595 85.793 49.635C86.223 49.665 86.643 49.705 87.053 49.755C87.473 49.805 87.828 49.86 88.118 49.92L88.028 51.57C87.728 51.53 87.378 51.495 86.978 51.465C86.588 51.425 86.198 51.39 85.808 51.36C85.428 51.33 85.103 51.315 84.833 51.315C84.263 51.315 83.843 51.405 83.573 51.585C83.303 51.765 83.168 52.055 83.168 52.455C83.168 52.755 83.228 52.985 83.348 53.145C83.468 53.305 83.668 53.435 83.948 53.535C84.238 53.635 84.633 53.74 85.133 53.85C85.723 53.98 86.223 54.12 86.633 54.27C87.053 54.42 87.388 54.6 87.638 54.81C87.898 55.02 88.088 55.29 88.208 55.62C88.328 55.95 88.388 56.365 88.388 56.865C88.388 57.665 88.243 58.31 87.953 58.8C87.673 59.28 87.263 59.63 86.723 59.85C86.193 60.06 85.553 60.165 84.803 60.165ZM94.8579 60.165C93.7679 60.165 92.9029 59.975 92.2629 59.595C91.6329 59.205 91.1779 58.62 90.8979 57.84C90.6279 57.06 90.4929 56.085 90.4929 54.915C90.4929 53.735 90.6279 52.75 90.8979 51.96C91.1779 51.17 91.6329 50.575 92.2629 50.175C92.9029 49.775 93.7679 49.575 94.8579 49.575C95.9479 49.575 96.8079 49.775 97.4379 50.175C98.0779 50.575 98.5329 51.17 98.8029 51.96C99.0829 52.75 99.2229 53.735 99.2229 54.915C99.2229 56.105 99.0829 57.09 98.8029 57.87C98.5329 58.65 98.0779 59.23 97.4379 59.61C96.8079 59.98 95.9479 60.165 94.8579 60.165ZM94.8579 58.425C95.4879 58.425 95.9629 58.3 96.2829 58.05C96.6129 57.79 96.8329 57.4 96.9429 56.88C97.0529 56.35 97.1079 55.695 97.1079 54.915C97.1079 54.135 97.0479 53.48 96.9279 52.95C96.8179 52.41 96.6029 52.005 96.2829 51.735C95.9629 51.455 95.4879 51.315 94.8579 51.315C94.2379 51.315 93.7629 51.455 93.4329 51.735C93.1129 52.005 92.8929 52.41 92.7729 52.95C92.6529 53.48 92.5929 54.135 92.5929 54.915C92.5929 55.685 92.6479 56.33 92.7579 56.85C92.8779 57.37 93.0979 57.765 93.4179 58.035C93.7479 58.295 94.2279 58.425 94.8579 58.425ZM105.819 60.165C104.729 60.165 103.864 59.975 103.224 59.595C102.594 59.205 102.139 58.62 101.859 57.84C101.589 57.06 101.454 56.085 101.454 54.915C101.454 53.735 101.589 52.75 101.859 51.96C102.139 51.17 102.594 50.575 103.224 50.175C103.864 49.775 104.729 49.575 105.819 49.575C106.909 49.575 107.769 49.775 108.399 50.175C109.039 50.575 109.494 51.17 109.764 51.96C110.044 52.75 110.184 53.735 110.184 54.915C110.184 56.105 110.044 57.09 109.764 57.87C109.494 58.65 109.039 59.23 108.399 59.61C107.769 59.98 106.909 60.165 105.819 60.165ZM105.819 58.425C106.449 58.425 106.924 58.3 107.244 58.05C107.574 57.79 107.794 57.4 107.904 56.88C108.014 56.35 108.069 55.695 108.069 54.915C108.069 54.135 108.009 53.48 107.889 52.95C107.779 52.41 107.564 52.005 107.244 51.735C106.924 51.455 106.449 51.315 105.819 51.315C105.199 51.315 104.724 51.455 104.394 51.735C104.074 52.005 103.854 52.41 103.734 52.95C103.614 53.48 103.554 54.135 103.554 54.915C103.554 55.685 103.609 56.33 103.719 56.85C103.839 57.37 104.059 57.765 104.379 58.035C104.709 58.295 105.189 58.425 105.819 58.425ZM112.745 60V49.755H115.445L118.73 56.955H119V49.755H121.07V60H118.4L115.085 52.68H114.815V60H112.745ZM123.79 60V57.78H125.875V60H123.79ZM128.423 60V57.78H130.508V60H128.423ZM133.055 60V57.78H135.14V60H133.055Z" fill="white"/>
<g clip-path="url(#clip0_184_2086)">
<path d="M152 39.5894C152 40.169 151.887 40.7429 151.667 41.2783C151.447 41.8138 151.124 42.3002 150.718 42.7098C150.311 43.1194 149.829 43.4442 149.298 43.6656C148.767 43.887 148.198 44.0006 147.623 44H4.38275C3.22178 44.0012 2.10786 43.5373 1.28597 42.7101C0.464079 41.883 0.00151302 40.7605 0 39.5894V4.41635C0.00151232 3.24473 0.463896 2.12161 1.28562 1.29358C2.10735 0.465548 3.22126 0.000304116 4.38275 0H147.622C148.197 -1.97254e-08 148.766 0.114241 149.297 0.336197C149.828 0.558154 150.311 0.883478 150.717 1.29359C151.124 1.7037 151.446 2.19057 151.666 2.72637C151.886 3.26218 151.999 3.83644 151.999 4.41635L152 39.5894Z" fill="black"/>
<path d="M33.9626 21.7566C33.9291 18.0312 37.0138 16.2188 37.1548 16.1344C35.4078 13.588 32.7 13.2401 31.7485 13.2123C29.4742 12.973 27.2682 14.5728 26.1097 14.5728C24.9281 14.5728 23.1441 13.2354 21.2213 13.2747C18.7471 13.3129 16.4324 14.745 15.1629 16.969C12.5429 21.5035 14.4969 28.1672 17.007 31.8325C18.2626 33.6288 19.7298 35.6319 21.6503 35.5614C23.5291 35.4851 24.2309 34.3651 26.4982 34.3651C28.7447 34.3651 29.4037 35.5614 31.3623 35.5163C33.3787 35.4851 34.6482 33.7131 35.8599 31.9019C37.3109 29.8455 37.8937 27.8181 37.9168 27.7141C37.8705 27.6979 34.0019 26.2207 33.9626 21.7566ZM30.2628 10.8011C31.2733 9.53775 31.9647 7.81894 31.7728 6.07471C30.3102 6.13944 28.4811 7.08611 27.4278 8.32175C26.4959 9.4106 25.6634 11.1953 25.8785 12.8736C27.5214 12.9962 29.2083 12.0449 30.2628 10.8011Z" fill="white"/>
<path d="M61.1759 35.3036H58.5502L57.1119 30.7853H52.1125L50.7424 35.3036H48.186L53.1403 19.9211H56.1996L61.1759 35.3036ZM56.6783 28.8896L55.3776 24.8729C55.24 24.4626 54.981 23.4962 54.6018 21.9751H54.5555C54.4029 22.6293 54.1589 23.5956 53.8248 24.8729L52.546 28.8896H56.6783ZM73.8917 29.6213C73.8917 31.5077 73.3795 32.9988 72.354 34.0934C71.4359 35.0678 70.2948 35.5545 68.9339 35.5545C67.4644 35.5545 66.4077 35.0308 65.766 33.9813V39.8012H63.301V27.8574C63.301 26.6726 63.2697 25.4578 63.2096 24.2117H65.3775L65.5151 25.9698H65.5613C66.3834 24.6452 67.6309 23.9829 69.3051 23.9829C70.6139 23.9829 71.7065 24.4995 72.5806 25.5341C73.4535 26.5709 73.8917 27.9325 73.8917 29.6213ZM71.3805 29.7114C71.3805 28.6318 71.1377 27.7418 70.6497 27.0402C70.1167 26.3108 69.401 25.9456 68.5038 25.9456C67.8957 25.9456 67.343 26.149 66.8493 26.5501C66.3545 26.9546 66.0307 27.4829 65.8793 28.1371C65.8117 28.3818 65.7732 28.6336 65.7648 28.8873V30.7379C65.7648 31.5435 66.0122 32.2243 66.5071 32.7815C67.0019 33.3363 67.6448 33.6149 68.4356 33.6149C69.364 33.6149 70.0867 33.2554 70.6035 32.5422C71.1215 31.8267 71.3805 30.8835 71.3805 29.7114ZM86.6526 29.6213C86.6526 31.5077 86.1404 32.9988 85.1149 34.0934C84.1957 35.0678 83.0557 35.5545 81.6937 35.5545C80.2242 35.5545 79.1674 35.0308 78.5257 33.9813V39.8012H76.0607V27.8574C76.0607 26.6726 76.0295 25.4578 75.9694 24.2117H78.1373L78.2748 25.9698H78.3211C79.142 24.6452 80.3895 23.9829 82.0648 23.9829C83.3725 23.9829 84.4651 24.4995 85.3415 25.5341C86.2133 26.5709 86.6526 27.9325 86.6526 29.6213ZM84.1402 29.7114C84.1402 28.6318 83.8963 27.7418 83.4083 27.0402C82.8753 26.3108 82.162 25.9456 81.2648 25.9456C80.6566 25.9456 80.1039 26.149 79.6079 26.5501C79.1131 26.9546 78.7905 27.4829 78.639 28.1371C78.5639 28.4423 78.5234 28.6908 78.5234 28.8873V30.7379C78.5234 31.5435 78.772 32.2243 79.2645 32.7815C79.7594 33.3352 80.4022 33.6149 81.1954 33.6149C82.125 33.6149 82.8476 33.2554 83.3633 32.5422C83.8812 31.8267 84.1402 30.8835 84.1402 29.7114ZM100.92 30.9887C100.92 32.2983 100.462 33.3629 99.5523 34.1847C98.551 35.0817 97.1532 35.5313 95.3611 35.5313C93.7054 35.5313 92.3781 35.2123 91.3768 34.5731L91.9468 32.5191C93.0279 33.1595 94.2153 33.4785 95.5079 33.4785C96.4375 33.4785 97.1601 33.2681 97.6758 32.8508C98.1926 32.4324 98.4539 31.873 98.4539 31.1748C98.4539 30.5495 98.2377 30.0258 97.8134 29.5993C97.3867 29.174 96.6815 28.7775 95.6906 28.4134C92.9967 27.4089 91.6485 25.9398 91.6485 24.0071C91.6485 22.7449 92.1249 21.7115 93.0753 20.9036C94.0257 20.0968 95.2859 19.6934 96.8537 19.6934C98.2539 19.6934 99.4205 19.9373 100.347 20.4239L99.728 22.4328C98.8563 21.9612 97.8723 21.7254 96.7716 21.7254C95.9022 21.7254 95.22 21.9392 94.7321 22.3646C94.3217 22.7449 94.1135 23.2084 94.1135 23.7586C94.1135 24.3655 94.3506 24.8694 94.8223 25.2647C95.2316 25.6288 95.9785 26.0253 97.0584 26.4507C98.3834 26.9847 99.3569 27.6066 99.9801 28.3209C100.608 29.0352 100.92 29.9264 100.92 30.9887ZM109.091 26.0611H106.374V31.4464C106.374 32.8162 106.852 33.4993 107.812 33.4993C108.253 33.4993 108.618 33.4623 108.907 33.3849L108.975 35.2562C108.49 35.4377 107.85 35.529 107.058 35.529C106.085 35.529 105.324 35.232 104.775 34.6378C104.228 34.0437 103.953 33.0485 103.953 31.6476V26.0565H102.334V24.2071H103.953V22.1762L106.374 21.4457V24.2071H109.091V26.0611ZM121.326 29.6664C121.326 31.3713 120.838 32.7711 119.864 33.8657C118.846 34.9927 117.491 35.5545 115.801 35.5545C114.171 35.5545 112.875 35.0147 111.909 33.9362C110.942 32.8555 110.459 31.4938 110.459 29.8513C110.459 28.1325 110.958 26.7246 111.954 25.63C112.951 24.5342 114.295 23.9863 115.984 23.9863C117.612 23.9863 118.92 24.5273 119.909 25.6069C120.855 26.6541 121.326 28.0065 121.326 29.6664ZM118.771 29.723C118.771 28.707 118.551 27.8354 118.11 27.1061C117.594 26.2253 116.854 25.7849 115.895 25.7849C114.908 25.7849 114.15 26.2253 113.635 27.1061C113.193 27.8354 112.973 28.722 112.973 29.7692C112.973 30.7864 113.193 31.6603 113.635 32.3873C114.168 33.2681 114.911 33.7085 115.874 33.7085C116.817 33.7085 117.555 33.2589 118.09 32.3654C118.543 31.6187 118.771 30.7413 118.771 29.723ZM129.342 26.379C129.085 26.3327 128.825 26.3099 128.565 26.3108C127.698 26.3108 127.027 26.6368 126.555 27.2933C126.146 27.8713 125.94 28.6018 125.94 29.4837V35.3036H123.475V27.7048C123.477 26.5405 123.453 25.3762 123.403 24.2129H125.55L125.641 26.3351H125.709C125.97 25.6057 126.379 25.0174 126.941 24.577C127.456 24.1922 128.081 23.9838 128.723 23.9829C128.951 23.9829 129.157 23.999 129.339 24.0279L129.342 26.379ZM140.366 29.2329C140.372 29.6075 140.342 29.9819 140.276 30.3506H132.881C132.908 31.4464 133.267 32.2856 133.954 32.8635C134.577 33.3791 135.383 33.638 136.372 33.638C137.467 33.638 138.466 33.4646 139.365 33.1144L139.751 34.8239C138.701 35.2817 137.462 35.5094 136.031 35.5094C134.311 35.5094 132.961 35.0031 131.978 33.9929C130.997 32.9815 130.506 31.6221 130.506 29.9195C130.506 28.2481 130.963 26.8552 131.877 25.7444C132.835 24.5585 134.128 23.9655 135.756 23.9655C137.355 23.9655 138.566 24.5585 139.388 25.7444C140.039 26.6842 140.366 27.8493 140.366 29.2329ZM138.015 28.5937C138.033 27.862 137.871 27.2321 137.537 26.6992C137.11 26.0126 136.453 25.6705 135.574 25.6705C134.768 25.6705 134.111 26.0045 133.611 26.6749C133.201 27.2078 132.957 27.8482 132.882 28.5914L138.015 28.5937Z" fill="white"/>
<path d="M51.4015 14.4824C50.7158 14.4824 50.1227 14.4489 49.629 14.3923V6.9553C50.3195 6.84866 51.0173 6.7961 51.716 6.7981C54.5429 6.7981 55.8447 8.18863 55.8447 10.4553C55.8447 13.0699 54.307 14.4824 51.4015 14.4824ZM51.8154 7.75171C51.4338 7.75171 51.109 7.77482 50.8396 7.83031V13.4838C50.9852 13.5069 51.265 13.5173 51.6581 13.5173C53.5104 13.5173 54.5648 12.4631 54.5648 10.4888C54.5648 8.72843 53.611 7.75171 51.8154 7.75171ZM59.9018 14.5391C58.3086 14.5391 57.2761 13.3497 57.2761 11.7349C57.2761 10.0519 58.3305 8.85211 59.992 8.85211C61.5621 8.85211 62.6177 9.98488 62.6177 11.6459C62.6177 13.3497 61.5297 14.5391 59.9018 14.5391ZM59.9481 9.73752C59.0728 9.73752 58.5121 10.5559 58.5121 11.7002C58.5121 12.8226 59.0844 13.641 59.9365 13.641C60.7886 13.641 61.3609 12.7659 61.3609 11.6771C61.3609 10.5675 60.8002 9.73752 59.9481 9.73752ZM71.7031 8.96423L69.9977 14.4154H68.8866L68.1802 12.0481C68.0045 11.4691 67.8583 10.8815 67.742 10.2877H67.7188C67.6298 10.8819 67.461 11.4771 67.2818 12.0481L66.5303 14.4154H65.4076L63.8028 8.96423H65.048L65.6654 11.5557C65.8111 12.173 65.9337 12.7555 66.0354 13.3057H66.0585C66.1476 12.8469 66.2933 12.2735 66.5072 11.5673L67.2818 8.96539H68.2692L69.0103 11.5118C69.1895 12.1291 69.3352 12.7347 69.4485 13.3069H69.4809C69.5595 12.7463 69.6832 12.151 69.8509 11.5118L70.5134 8.96539L71.7031 8.96423ZM77.9812 14.4154H76.7695V11.2853C76.7695 10.3212 76.3995 9.83808 75.67 9.83808C74.952 9.83808 74.4583 10.4553 74.4583 11.1731V14.4154H73.2466V10.5224C73.2466 10.0404 73.235 9.52368 73.2015 8.96308H74.2675L74.3242 9.80456H74.3577C74.6838 9.222 75.3451 8.85211 76.0862 8.85211C77.2309 8.85211 77.9824 9.72712 77.9824 11.1512L77.9812 14.4154ZM81.3226 14.4154H80.1098V6.46289H81.3226V14.4154ZM85.7404 14.5391C84.1484 14.5391 83.1147 13.3497 83.1147 11.7349C83.1147 10.0519 84.1692 8.85211 85.8295 8.85211C87.4007 8.85211 88.4552 9.98488 88.4552 11.6459C88.4563 13.3497 87.3672 14.5391 85.7404 14.5391ZM85.7855 9.73752C84.9103 9.73752 84.3495 10.5559 84.3495 11.7002C84.3495 12.8226 84.923 13.641 85.7728 13.641C86.6261 13.641 87.1972 12.7659 87.1972 11.6771C87.1984 10.5675 86.6388 9.73752 85.7855 9.73752ZM93.2326 14.4154L93.1447 13.7878H93.1123C92.7424 14.2929 92.2024 14.5391 91.5179 14.5391C90.541 14.5391 89.8472 13.8548 89.8472 12.9347C89.8472 11.5893 91.0138 10.8934 93.0337 10.8934V10.7928C93.0337 10.075 92.6533 9.71556 91.9018 9.71556C91.3642 9.71556 90.8924 9.8508 90.4774 10.1201L90.2311 9.32371C90.7352 9.00931 91.3642 8.85211 92.103 8.85211C93.5274 8.85211 94.2466 9.60344 94.2466 11.1072V13.115C94.2466 13.6652 94.2708 14.0918 94.3252 14.4166L93.2326 14.4154ZM93.0661 11.7002C91.7203 11.7002 91.0451 12.0262 91.0451 12.7995C91.0451 13.3716 91.3931 13.6514 91.8764 13.6514C92.4926 13.6514 93.0661 13.1809 93.0661 12.5417V11.7002ZM100.13 14.4154L100.074 13.5404H100.04C99.6922 14.2016 99.1072 14.5391 98.2898 14.5391C96.9752 14.5391 96.0017 13.3832 96.0017 11.7569C96.0017 10.0519 97.011 8.85096 98.3892 8.85096C99.1188 8.85096 99.6356 9.09716 99.9269 9.59188H99.9512V6.46289H101.164V12.9463C101.164 13.4734 101.177 13.9669 101.209 14.4154H100.13ZM99.9512 11.2078C99.9512 10.4449 99.446 9.79416 98.6748 9.79416C97.7764 9.79416 97.2272 10.5906 97.2272 11.7118C97.2272 12.811 97.7972 13.5635 98.6505 13.5635C99.4124 13.5635 99.9512 12.9012 99.9512 12.1163V11.2078ZM108.854 14.5391C107.262 14.5391 106.229 13.3497 106.229 11.7349C106.229 10.0519 107.284 8.85211 108.944 8.85211C110.515 8.85211 111.57 9.98488 111.57 11.6459C111.571 13.3497 110.483 14.5391 108.854 14.5391ZM108.899 9.73752C108.025 9.73752 107.464 10.5559 107.464 11.7002C107.464 12.8226 108.036 13.641 108.887 13.641C109.741 13.641 110.312 12.7659 110.312 11.6771C110.314 10.5675 109.753 9.73752 108.899 9.73752ZM118.086 14.4154H116.873V11.2853C116.873 10.3212 116.503 9.83808 115.774 9.83808C115.056 9.83808 114.563 10.4553 114.563 11.1731V14.4154H113.35V10.5224C113.35 10.0404 113.339 9.52368 113.305 8.96308H114.371L114.428 9.80456H114.461C114.786 9.222 115.449 8.85096 116.189 8.85096C117.333 8.85096 118.086 9.72596 118.086 11.15V14.4154ZM126.238 9.87276H124.905V12.5197C124.905 13.1936 125.139 13.53 125.611 13.53C125.825 13.53 126.004 13.5069 126.148 13.4734L126.182 14.3934C125.947 14.4836 125.633 14.5287 125.242 14.5287C124.287 14.5287 123.716 14.0016 123.716 12.6215V9.87276H122.92V8.96423H123.716V7.96555L124.905 7.60606V8.96308H126.238V9.87276ZM132.653 14.4154H131.442V11.3084C131.442 10.3328 131.074 9.83924 130.343 9.83924C129.715 9.83924 129.13 10.2658 129.13 11.1292V14.4154H127.92V6.46289H129.13V9.73752H129.154C129.536 9.14339 130.089 8.85096 130.794 8.85096C131.948 8.85096 132.653 9.74793 132.653 11.1731V14.4154ZM139.225 11.9811H135.589C135.612 13.0133 136.295 13.5959 137.307 13.5959C137.844 13.5959 138.339 13.5057 138.776 13.3381L138.965 14.1796C138.449 14.4038 137.842 14.516 137.136 14.516C135.43 14.516 134.421 13.4387 134.421 11.7684C134.421 10.097 135.454 8.84055 136.999 8.84055C138.392 8.84055 139.266 9.87276 139.266 11.4321C139.274 11.6161 139.26 11.8004 139.225 11.9811ZM138.114 11.1177C138.114 10.2762 137.689 9.68204 136.915 9.68204C136.219 9.68204 135.668 10.2877 135.59 11.1177H138.114Z" fill="white"/>
</g>
<defs>
<clipPath id="clip0_184_2086">
<rect width="152" height="44" fill="white"/>
</clipPath>
</defs>
</svg>
