<svg width="312" height="260" viewBox="0 0 312 260" fill="none" xmlns="http://www.w3.org/2000/svg">
<path fill-rule="evenodd" clip-rule="evenodd" d="M137.613 50.7047C159.513 42.7511 176.614 8.07102 197.847 17.6634C217.928 26.7358 198.41 61.6239 206.827 81.9745C213.634 98.4308 233.467 105.745 240.96 121.901C251.092 143.75 271.017 171.133 257.383 190.99C243.258 211.564 207.603 193.371 184.843 203.634C165.43 212.388 158.91 244.742 137.613 244.998C116.399 245.253 105.583 218.855 89.723 204.777C77.0661 193.542 57.378 186.867 53.5584 170.388C49.6254 153.42 73.1545 139.117 70.5136 121.901C67.0806 99.5208 28.688 84.9675 37.2389 63.9999C45.157 44.5837 77.4733 56.5808 98.2756 53.8254C111.541 52.0683 125.036 55.2723 137.613 50.7047Z" fill="#FFF9F8"/>
<rect x="98.5" y="77" width="8" height="8" rx="4" fill="#E2E4FE"/>
<rect x="109.5" y="77" width="8" height="8" rx="4" fill="#E2E4FE"/>
<rect x="125.5" y="77" width="8" height="8" rx="4" fill="#E2E4FE"/>
<rect x="136.5" y="77" width="8" height="8" rx="4" fill="#E2E4FE"/>
<rect x="147.5" y="77" width="8" height="8" rx="4" fill="#E2E4FE"/>
<rect x="163.5" y="77" width="8" height="8" rx="4" fill="#E2E4FE"/>
<rect x="174.5" y="77" width="8" height="8" rx="4" fill="#E2E4FE"/>
<rect x="185.5" y="77" width="8" height="8" rx="4" fill="#E2E4FE"/>
<rect x="201.5" y="77" width="8" height="8" rx="4" fill="#E2E4FE"/>
<rect x="212.5" y="77" width="8" height="8" rx="4" fill="#E2E4FE"/>
<rect x="223.5" y="77" width="8" height="8" rx="4" fill="#E2E4FE"/>
<rect x="234.5" y="77" width="8" height="8" rx="4" fill="#E2E4FE"/>
<rect x="98.5" y="57" width="38" height="8" rx="4" fill="#E2E4FE"/>
<rect x="144.5" y="57" width="38" height="8" rx="4" fill="#E2E4FE"/>
<circle cx="60" cy="70.5" r="24.5" stroke="#E2E4FE" stroke-width="2"/>
<path d="M39.5544 82.094C43.1161 74.3649 50.9315 69 60 69C69.0685 69 76.8839 74.3649 80.4456 82.094C76.405 89.2041 68.7626 94 60 94C51.2375 94 43.595 89.2041 39.5544 82.094Z" fill="#E2E4FE"/>
<path d="M39.5544 82.094C43.1161 74.3649 50.9315 69 60 69C69.0685 69 76.8839 74.3649 80.4456 82.094C76.405 89.2041 68.7626 94 60 94C51.2375 94 43.595 89.2041 39.5544 82.094Z" fill="#E2E4FE"/>
<path d="M56.033 69.3486C48.6932 70.6543 42.5845 75.5186 39.5544 82.094C41.0806 84.7794 43.1204 87.1346 45.5403 89.0261C45.9808 80.991 50.0009 73.9094 56.033 69.3486Z" fill="#EEEEF5"/>
<path d="M69.0188 70.8804C67.1854 73.9468 63.8325 76 60.0001 76C56.1677 76 52.8148 73.9468 50.9814 70.8804C53.7424 69.6711 56.793 69 60.0001 69C63.2073 69 66.2578 69.6711 69.0188 70.8804Z" fill="#CCCCEB"/>
<circle cx="60" cy="63.5" r="10.5" fill="#E2E4FE"/>
<path d="M58.7306 53.0759C53.5303 53.7026 49.5 58.1307 49.5 63.5C49.5 67.0549 51.2666 70.1972 53.9698 72.0969C53.0271 70.0952 52.5 67.8591 52.5 65.5C52.5 60.4152 54.9484 55.9023 58.7306 53.0759Z" fill="#EEEEF5"/>
<rect x="171.5" y="136" width="8" height="8" rx="4" fill="#E2E4FE"/>
<rect x="182.5" y="136" width="8" height="8" rx="4" fill="#E2E4FE"/>
<rect x="198.5" y="136" width="8" height="8" rx="4" fill="#E2E4FE"/>
<rect x="209.5" y="136" width="8" height="8" rx="4" fill="#E2E4FE"/>
<rect x="220.5" y="136" width="8" height="8" rx="4" fill="#E2E4FE"/>
<rect x="236.5" y="136" width="8" height="8" rx="4" fill="#E2E4FE"/>
<rect x="247.5" y="136" width="8" height="8" rx="4" fill="#E2E4FE"/>
<rect x="258.5" y="136" width="8" height="8" rx="4" fill="#E2E4FE"/>
<rect x="269.5" y="136" width="8" height="8" rx="4" fill="#E2E4FE"/>
<path d="M137.676 125V122.912H139.998V125H137.676ZM134.184 129.464C134.028 129.464 133.86 129.458 133.68 129.446C133.5 129.434 133.314 129.416 133.122 129.392L133.212 127.34C133.404 127.352 133.584 127.364 133.752 127.376C133.932 127.388 134.064 127.394 134.148 127.394C134.616 127.394 134.988 127.208 135.264 126.836C135.552 126.464 135.696 125.942 135.696 125.27V115.964H138.108V125.27C138.108 126.086 137.94 126.812 137.604 127.448C137.28 128.084 136.824 128.576 136.236 128.924C135.648 129.284 134.964 129.464 134.184 129.464ZM139.998 125V122.912C140.142 122.912 140.238 123.008 140.286 123.2C140.334 123.38 140.358 123.632 140.358 123.956C140.358 124.268 140.334 124.52 140.286 124.712C140.238 124.904 140.142 125 139.998 125ZM140.004 125V122.912H152.496L150.822 124.262V121.184C150.822 120.152 150.684 119.324 150.408 118.7C150.144 118.076 149.718 117.626 149.13 117.35C148.554 117.062 147.804 116.918 146.88 116.918C146.436 116.918 145.95 116.936 145.422 116.972C144.894 116.996 144.366 117.032 143.838 117.08C143.322 117.116 142.854 117.158 142.434 117.206L142.182 115.586C142.59 115.478 143.064 115.364 143.604 115.244C144.144 115.124 144.708 115.022 145.296 114.938C145.896 114.854 146.478 114.812 147.042 114.812C147.822 114.812 148.578 114.92 149.31 115.136C150.054 115.34 150.72 115.688 151.308 116.18C151.896 116.66 152.364 117.308 152.712 118.124C153.06 118.94 153.234 119.96 153.234 121.184V125H140.004ZM141.858 122.912V122.012C141.858 121.436 142.002 120.902 142.29 120.41C142.59 119.906 142.998 119.51 143.514 119.222C144.03 118.922 144.606 118.772 145.242 118.772C145.878 118.772 146.448 118.922 146.952 119.222C147.456 119.51 147.852 119.9 148.14 120.392C148.44 120.884 148.59 121.424 148.59 122.012V122.912H146.682V122.012C146.682 121.712 146.616 121.448 146.484 121.22C146.352 120.98 146.178 120.788 145.962 120.644C145.746 120.5 145.506 120.428 145.242 120.428C144.978 120.428 144.732 120.5 144.504 120.644C144.288 120.788 144.114 120.98 143.982 121.22C143.85 121.448 143.784 121.712 143.784 122.012V122.912H141.858ZM140.004 125C139.86 125 139.764 124.904 139.716 124.712C139.668 124.52 139.644 124.268 139.644 123.956C139.644 123.632 139.668 123.38 139.716 123.2C139.764 123.008 139.86 122.912 140.004 122.912V125ZM158.485 125V122.912H160.537V125H158.485ZM156.091 125V112.274H158.485V125H156.091ZM160.537 125V122.912C160.681 122.912 160.777 123.008 160.825 123.2C160.873 123.38 160.897 123.632 160.897 123.956C160.897 124.268 160.873 124.52 160.825 124.712C160.777 124.904 160.681 125 160.537 125ZM160.535 125V122.912H173.099L171.065 124.676V120.896C171.065 120.212 170.975 119.666 170.795 119.258C170.615 118.838 170.351 118.532 170.003 118.34C169.667 118.148 169.259 118.052 168.779 118.052C168.263 118.052 167.777 118.154 167.321 118.358C166.865 118.562 166.433 118.826 166.025 119.15C165.629 119.474 165.263 119.822 164.927 120.194C164.591 120.566 164.291 120.926 164.027 121.274C163.763 121.61 163.535 121.898 163.343 122.138L162.803 120.392C163.295 119.768 163.751 119.186 164.171 118.646C164.603 118.106 165.053 117.638 165.521 117.242C165.989 116.834 166.505 116.522 167.069 116.306C167.633 116.078 168.287 115.964 169.031 115.964C169.835 115.964 170.513 116.102 171.065 116.378C171.629 116.642 172.091 117.008 172.451 117.476C172.811 117.944 173.069 118.472 173.225 119.06C173.381 119.648 173.459 120.26 173.459 120.896V125H160.535ZM161.777 122.912V112.274H164.171V122.912H161.777ZM160.535 125C160.391 125 160.295 124.904 160.247 124.712C160.199 124.52 160.175 124.268 160.175 123.956C160.175 123.632 160.199 123.38 160.247 123.2C160.295 123.008 160.391 122.912 160.535 122.912V125Z" fill="#2C2FFE"/>
<path d="M136.478 143.622V140.472H133.418V138.438H136.478V135.342H138.512V138.438H141.59V140.472H138.512V143.622H136.478ZM143.564 144V142.056L146.282 139.266C146.798 138.738 147.242 138.276 147.614 137.88C147.986 137.472 148.268 137.088 148.46 136.728C148.664 136.368 148.766 135.984 148.766 135.576C148.766 134.976 148.598 134.574 148.262 134.37C147.926 134.154 147.386 134.046 146.642 134.046C146.342 134.046 146.012 134.064 145.652 134.1C145.292 134.136 144.944 134.178 144.608 134.226C144.284 134.274 144.002 134.322 143.762 134.37L143.636 132.462C143.9 132.39 144.224 132.312 144.608 132.228C145.004 132.144 145.43 132.072 145.886 132.012C146.354 131.94 146.81 131.904 147.254 131.904C148.55 131.904 149.54 132.18 150.224 132.732C150.908 133.272 151.25 134.112 151.25 135.252C151.25 135.876 151.16 136.428 150.98 136.908C150.812 137.388 150.542 137.85 150.17 138.294C149.81 138.726 149.33 139.2 148.73 139.716L146.354 141.984H151.412V144H143.564ZM157.508 144.198C156.74 144.198 156.074 144.096 155.51 143.892C154.946 143.676 154.478 143.334 154.106 142.866C153.746 142.386 153.47 141.762 153.278 140.994C153.098 140.226 153.008 139.284 153.008 138.168C153.008 137.016 153.098 136.038 153.278 135.234C153.47 134.43 153.752 133.788 154.124 133.308C154.496 132.816 154.958 132.462 155.51 132.246C156.074 132.03 156.734 131.922 157.49 131.922C158.27 131.922 158.942 132.03 159.506 132.246C160.07 132.462 160.532 132.816 160.892 133.308C161.264 133.788 161.534 134.43 161.702 135.234C161.882 136.026 161.972 137.004 161.972 138.168C161.972 139.644 161.81 140.826 161.486 141.714C161.174 142.59 160.688 143.226 160.028 143.622C159.368 144.006 158.528 144.198 157.508 144.198ZM157.508 142.11C157.844 142.11 158.132 142.056 158.372 141.948C158.624 141.828 158.834 141.624 159.002 141.336C159.17 141.048 159.29 140.646 159.362 140.13C159.446 139.614 159.488 138.96 159.488 138.168C159.488 137.328 159.446 136.638 159.362 136.098C159.29 135.558 159.176 135.138 159.02 134.838C158.864 134.526 158.66 134.31 158.408 134.19C158.156 134.058 157.856 133.992 157.508 133.992C157.16 133.992 156.86 134.058 156.608 134.19C156.356 134.31 156.146 134.52 155.978 134.82C155.822 135.12 155.702 135.546 155.618 136.098C155.534 136.638 155.492 137.334 155.492 138.186C155.492 138.978 155.534 139.632 155.618 140.148C155.714 140.664 155.846 141.066 156.014 141.354C156.182 141.63 156.386 141.828 156.626 141.948C156.878 142.056 157.172 142.11 157.508 142.11Z" fill="#2C2FFE"/>
<rect x="179.5" y="116" width="38" height="8" rx="4" fill="#E2E4FE"/>
<mask id="mask0_639_9760" style="mask-type:alpha" maskUnits="userSpaceOnUse" x="64" y="67" width="127" height="126">
<path fill-rule="evenodd" clip-rule="evenodd" d="M127.5 193C162.294 193 190.5 164.794 190.5 130C190.5 95.2061 162.294 67 127.5 67C92.7061 67 64.5 95.2061 64.5 130C64.5 164.794 92.7061 193 127.5 193ZM127.5 180C155.114 180 177.5 157.614 177.5 130C177.5 102.386 155.114 80 127.5 80C99.8858 80 77.5 102.386 77.5 130C77.5 157.614 99.8858 180 127.5 180Z" fill="#FB5B29"/>
</mask>
<g mask="url(#mask0_639_9760)">
<circle cx="95" cy="122.5" r="24.5" stroke="#E2E4FE" stroke-width="2"/>
<path d="M74.5544 134.094C78.1161 126.365 85.9315 121 95 121C104.068 121 111.884 126.365 115.446 134.094C111.405 141.204 103.763 146 95 146C86.2375 146 78.595 141.204 74.5544 134.094Z" fill="#E2E4FE"/>
<path d="M74.5544 134.094C78.1161 126.365 85.9315 121 95 121C104.068 121 111.884 126.365 115.446 134.094C111.405 141.204 103.763 146 95 146C86.2375 146 78.595 141.204 74.5544 134.094Z" fill="#E2E4FE"/>
<path d="M91.033 121.349C83.6932 122.654 77.5845 127.519 74.5544 134.094C76.0806 136.779 78.1204 139.135 80.5403 141.026C80.9808 132.991 85.0009 125.909 91.033 121.349Z" fill="#EEEEF5"/>
<path d="M104.019 122.88C102.185 125.947 98.8325 128 95.0001 128C91.1677 128 87.8148 125.947 85.9814 122.88C88.7424 121.671 91.793 121 95.0001 121C98.2073 121 101.258 121.671 104.019 122.88Z" fill="#CCCCEB"/>
<circle cx="95" cy="115.5" r="10.5" fill="#E2E4FE"/>
<path d="M93.7306 105.076C88.5303 105.703 84.5 110.131 84.5 115.5C84.5 119.055 86.2666 122.197 88.9698 124.097C88.0271 122.095 87.5 119.859 87.5 117.5C87.5 112.415 89.9484 107.902 93.7306 105.076Z" fill="#EEEEF5"/>
</g>
<mask id="mask1_639_9760" style="mask-type:alpha" maskUnits="userSpaceOnUse" x="77" y="80" width="101" height="100">
<circle cx="127.5" cy="130" r="50" fill="#FB5B29"/>
</mask>
<g mask="url(#mask1_639_9760)">
<path fill-rule="evenodd" clip-rule="evenodd" d="M107.225 100.116C106.912 100.5 106.558 100.826 106.196 101.094C106.759 101.309 107.32 101.645 107.82 102.14C108.183 102.499 108.503 102.933 108.764 103.45C114.663 107.72 118.5 114.662 118.5 122.5C118.5 135.479 107.979 146 95 146C82.0213 146 71.5 135.479 71.5 122.5C71.5 114.526 75.4716 107.48 81.5446 103.231C81.5543 103.014 81.5658 102.794 81.5789 102.57C81.5966 102.269 81.619 101.979 81.6459 101.699C81.6023 101.41 81.5792 101.115 81.5779 100.814C74.3281 105.311 69.5 113.342 69.5 122.5C69.5 136.583 80.9167 148 95 148C109.083 148 120.5 136.583 120.5 122.5C120.5 112.847 115.136 104.446 107.225 100.116Z" fill="#2C2FFE"/>
<path d="M95 145.5C86.5165 145.5 79.1051 140.907 75.1176 134.07C77.017 130.073 80.0867 126.739 83.8839 124.511C84.6608 125.553 85.6556 126.441 86.8255 127.103L90.3255 129.081C93.2262 130.721 96.7738 130.721 99.6745 129.081L103.175 127.103C104.344 126.441 105.339 125.553 106.116 124.511C109.913 126.739 112.983 130.073 114.882 134.07C110.895 140.907 103.484 145.5 95 145.5Z" fill="#2C2FFE" stroke="#2C2FFE"/>
<path d="M86.186 126.096C85.3336 125.473 84.6067 124.711 84.0293 123.851C82.8332 124.521 81.7045 125.296 80.6558 126.165C78.0723 128.305 75.975 131.011 74.5544 134.094C74.936 134.765 75.3496 135.416 75.7933 136.044C76.6736 137.29 77.6722 138.447 78.7727 139.498C79.3359 140.036 79.9259 140.546 80.5403 141.026C80.8486 135.404 82.9095 130.248 86.186 126.096Z" fill="#494CFF"/>
<path d="M85 117L85 117.77C85 120.687 86.5883 123.374 89.1446 124.78L91.1446 125.88C93.5453 127.2 96.4547 127.2 98.8553 125.88L100.855 124.78C103.412 123.374 105 120.687 105 117.77V117" stroke="#2C2FFE" stroke-width="2"/>
<path d="M96.6525 120.75C96.3966 121.686 95.6785 122.25 95 122.25C94.3215 122.25 93.6034 121.686 93.3475 120.75H96.6525Z" fill="#2C2FFE" stroke="#2C2FFE" stroke-width="1.5" stroke-linecap="round"/>
<path d="M96.3694 109.923C97.4999 109 99.4999 109 100.893 110.069" stroke="#2C2FFE" stroke-width="1.50001" stroke-linecap="round"/>
<path d="M93.0385 109.923C91.9081 109 89.9081 109 88.5148 110.069" stroke="#2C2FFE" stroke-width="1.50001" stroke-linecap="round"/>
<path d="M105 117.086C105.16 117.071 105.327 117.043 105.5 117C107.5 116.5 108.372 112.291 106 111.5C105.867 111.456 105.736 111.424 105.608 111.405" stroke="#2C2FFE" stroke-width="2" stroke-linecap="round"/>
<path d="M85 117.092C84.818 117.079 84.6272 117.05 84.4288 117C82.4288 116.5 81.5571 112.291 83.9288 111.5C84.1001 111.443 84.267 111.408 84.4288 111.392" stroke="#2C2FFE" stroke-width="2" stroke-linecap="round"/>
<circle cx="91.5" cy="113" r="1" fill="#2C2FFE"/>
<circle cx="98.5" cy="113" r="1" fill="#2C2FFE"/>
<path d="M94 116.5C93.7239 116.5 93.4918 116.73 93.5822 116.991C93.7855 117.578 94.3435 118 95 118C95.6565 118 96.2145 117.578 96.4178 116.991C96.5082 116.73 96.2761 116.5 96 116.5C95.7239 116.5 95.5024 116.771 95.2702 116.921C95.1923 116.971 95.0995 117 95 117C94.9005 117 94.8077 116.971 94.7298 116.921C94.4976 116.771 94.2761 116.5 94 116.5Z" fill="#2C2FFE"/>
<path d="M106.5 96.0001C106.5 97.5211 105.934 98.9099 105.001 99.9674C104.966 100.025 104.929 100.082 104.891 100.137C104.583 100.59 104.203 100.963 103.812 101.252C104.276 101.43 104.739 101.707 105.151 102.115C106.104 103.059 106.7 104.624 106.498 107.042C106.297 109.456 106.001 110.923 105.696 111.78C105.546 112.203 105.378 112.522 105.183 112.729C104.995 112.928 104.669 113.12 104.312 112.964C104.087 112.881 103.867 112.713 103.665 112.493C103.447 112.257 103.225 111.933 103.015 111.51C102.594 110.665 102.208 109.396 102.003 107.555C101.889 106.526 101.528 105.913 101.079 105.555C100.623 105.192 100.005 105.034 99.2693 105.062C97.7804 105.12 96.0051 105.936 94.8124 106.891C93.4303 107.996 91.6652 108.252 90.2273 108.187C89.5027 108.154 88.841 108.039 88.3209 107.896C88.0613 107.825 87.8302 107.745 87.6405 107.662C87.6034 107.646 87.5657 107.628 87.528 107.61C87.5022 107.661 87.4739 107.722 87.4433 107.793C87.2551 108.227 87.0442 108.885 86.8601 109.621C86.6768 110.355 86.5254 111.144 86.4502 111.835C86.3722 112.553 86.3871 113.08 86.4744 113.342C86.5477 113.562 86.4602 113.803 86.263 113.925C86.0657 114.047 85.8104 114.018 85.6465 113.854C85.1362 113.343 84.5072 112.191 84.0523 110.358C83.5924 108.506 83.2984 105.913 83.5009 102.471C83.5155 102.222 83.534 101.982 83.5562 101.752C83.5192 101.507 83.5 101.256 83.5 101C83.5 98.4415 85.4219 96.3317 87.9008 96.0356C88.6641 94.2507 90.4359 93.0001 92.5 93.0001C93.4007 93.0001 94.2457 93.2382 94.9756 93.6549C95.8887 91.5065 98.0184 90.0001 100.5 90.0001C103.814 90.0001 106.5 92.6863 106.5 96.0001Z" fill="#2C2FFE"/>
</g>
<rect x="98.5" y="195" width="8" height="8" rx="4" fill="#E2E4FE"/>
<rect x="109.5" y="195" width="8" height="8" rx="4" fill="#E2E4FE"/>
<rect x="125.5" y="195" width="8" height="8" rx="4" fill="#E2E4FE"/>
<rect x="136.5" y="195" width="8" height="8" rx="4" fill="#E2E4FE"/>
<rect x="147.5" y="195" width="8" height="8" rx="4" fill="#E2E4FE"/>
<rect x="163.5" y="195" width="8" height="8" rx="4" fill="#E2E4FE"/>
<rect x="174.5" y="195" width="8" height="8" rx="4" fill="#E2E4FE"/>
<rect x="185.5" y="195" width="8" height="8" rx="4" fill="#E2E4FE"/>
<rect x="201.5" y="195" width="8" height="8" rx="4" fill="#E2E4FE"/>
<rect x="212.5" y="195" width="8" height="8" rx="4" fill="#E2E4FE"/>
<rect x="223.5" y="195" width="8" height="8" rx="4" fill="#E2E4FE"/>
<rect x="234.5" y="195" width="8" height="8" rx="4" fill="#E2E4FE"/>
<rect x="98.5" y="175" width="38" height="8" rx="4" fill="#E2E4FE"/>
<rect x="144.5" y="175" width="38" height="8" rx="4" fill="#E2E4FE"/>
<circle cx="60" cy="188.5" r="24.5" stroke="#E2E4FE" stroke-width="2"/>
<path d="M39.5544 200.094C43.1161 192.365 50.9315 187 60 187C69.0685 187 76.8839 192.365 80.4456 200.094C76.405 207.204 68.7626 212 60 212C51.2375 212 43.595 207.204 39.5544 200.094Z" fill="#E2E4FE"/>
<path d="M39.5544 200.094C43.1161 192.365 50.9315 187 60 187C69.0685 187 76.8839 192.365 80.4456 200.094C76.405 207.204 68.7626 212 60 212C51.2375 212 43.595 207.204 39.5544 200.094Z" fill="#E2E4FE"/>
<path d="M56.033 187.349C48.6932 188.654 42.5845 193.519 39.5544 200.094C41.0806 202.779 43.1204 205.135 45.5403 207.026C45.9808 198.991 50.0009 191.909 56.033 187.349Z" fill="#EEEEF5"/>
<path d="M69.0188 188.88C67.1854 191.947 63.8325 194 60.0001 194C56.1677 194 52.8148 191.947 50.9814 188.88C53.7424 187.671 56.793 187 60.0001 187C63.2073 187 66.2578 187.671 69.0188 188.88Z" fill="#CCCCEB"/>
<circle cx="60" cy="181.5" r="10.5" fill="#E2E4FE"/>
<path d="M58.7306 171.076C53.5303 171.703 49.5 176.131 49.5 181.5C49.5 185.055 51.2666 188.197 53.9698 190.097C53.0271 188.095 52.5 185.859 52.5 183.5C52.5 178.415 54.9484 173.902 58.7306 171.076Z" fill="#EEEEF5"/>
<g filter="url(#filter0_f_639_9760)">
<circle cx="127.5" cy="136" r="44.5" stroke="#FB5B29" stroke-opacity="0.3" stroke-width="11"/>
</g>
<circle cx="127.5" cy="130" r="46" stroke="#FB5B29" stroke-width="8"/>
<line x1="159.152" y1="167.239" x2="187.739" y2="198.348" stroke="#FB5B29" stroke-width="8" stroke-linecap="round"/>
<defs>
<filter id="filter0_f_639_9760" x="62.5" y="71" width="130" height="130" filterUnits="userSpaceOnUse" color-interpolation-filters="sRGB">
<feFlood flood-opacity="0" result="BackgroundImageFix"/>
<feBlend mode="normal" in="SourceGraphic" in2="BackgroundImageFix" result="shape"/>
<feGaussianBlur stdDeviation="7.5" result="effect1_foregroundBlur_639_9760"/>
</filter>
</defs>
</svg>
