<svg width="312" height="260" viewBox="0 0 312 260" fill="none" xmlns="http://www.w3.org/2000/svg">
<path fill-rule="evenodd" clip-rule="evenodd" d="M137.613 50.7047C159.513 42.7511 176.614 8.07102 197.847 17.6634C217.928 26.7358 198.41 61.6239 206.827 81.9745C213.634 98.4308 233.467 105.745 240.96 121.901C251.092 143.75 271.017 171.133 257.383 190.99C243.258 211.564 207.603 193.371 184.843 203.634C165.43 212.388 158.91 244.742 137.613 244.998C116.399 245.253 105.583 218.855 89.723 204.777C77.0661 193.542 57.378 186.867 53.5584 170.388C49.6254 153.42 73.1545 139.117 70.5136 121.901C67.0806 99.5208 28.688 84.9675 37.2389 63.9999C45.157 44.5837 77.4733 56.5808 98.2756 53.8254C111.541 52.0683 125.036 55.2723 137.613 50.7047Z" fill="#FFF9F8"/>
<rect x="98.5" y="77" width="8" height="8" rx="4" fill="#E2E4FE"/>
<rect x="109.5" y="77" width="8" height="8" rx="4" fill="#E2E4FE"/>
<rect x="125.5" y="77" width="8" height="8" rx="4" fill="#E2E4FE"/>
<rect x="136.5" y="77" width="8" height="8" rx="4" fill="#E2E4FE"/>
<rect x="147.5" y="77" width="8" height="8" rx="4" fill="#E2E4FE"/>
<rect x="163.5" y="77" width="8" height="8" rx="4" fill="#E2E4FE"/>
<rect x="174.5" y="77" width="8" height="8" rx="4" fill="#E2E4FE"/>
<rect x="185.5" y="77" width="8" height="8" rx="4" fill="#E2E4FE"/>
<rect x="201.5" y="77" width="8" height="8" rx="4" fill="#E2E4FE"/>
<rect x="212.5" y="77" width="8" height="8" rx="4" fill="#E2E4FE"/>
<rect x="223.5" y="77" width="8" height="8" rx="4" fill="#E2E4FE"/>
<rect x="234.5" y="77" width="8" height="8" rx="4" fill="#E2E4FE"/>
<rect x="98.5" y="57" width="38" height="8" rx="4" fill="#E2E4FE"/>
<rect x="144.5" y="57" width="38" height="8" rx="4" fill="#E2E4FE"/>
<circle cx="60" cy="70.5" r="24.5" stroke="#E2E4FE" stroke-width="2"/>
<path d="M39.5544 82.094C43.1161 74.3649 50.9315 69 60 69C69.0685 69 76.8839 74.3649 80.4456 82.094C76.405 89.2041 68.7626 94 60 94C51.2375 94 43.595 89.2041 39.5544 82.094Z" fill="#E2E4FE"/>
<path d="M39.5544 82.094C43.1161 74.3649 50.9315 69 60 69C69.0685 69 76.8839 74.3649 80.4456 82.094C76.405 89.2041 68.7626 94 60 94C51.2375 94 43.595 89.2041 39.5544 82.094Z" fill="#E2E4FE"/>
<path d="M56.033 69.3486C48.6932 70.6543 42.5845 75.5186 39.5544 82.094C41.0806 84.7794 43.1204 87.1346 45.5403 89.0261C45.9808 80.991 50.0009 73.9094 56.033 69.3486Z" fill="#EEEEF5"/>
<path d="M69.0187 70.8804C67.1853 73.9468 63.8324 76 60 76C56.1676 76 52.8147 73.9468 50.9813 70.8804C53.7423 69.6711 56.7928 69 60 69C63.2072 69 66.2577 69.6711 69.0187 70.8804Z" fill="#CCCCEB"/>
<circle cx="60" cy="63.5" r="10.5" fill="#E2E4FE"/>
<path d="M58.7306 53.0759C53.5303 53.7026 49.5 58.1307 49.5 63.5C49.5 67.0549 51.2666 70.1972 53.9698 72.0969C53.0271 70.0952 52.5 67.8591 52.5 65.5C52.5 60.4152 54.9484 55.9023 58.7306 53.0759Z" fill="#EEEEF5"/>
<rect x="171.5" y="136" width="8" height="8" rx="4" fill="#E2E4FE"/>
<rect x="182.5" y="136" width="8" height="8" rx="4" fill="#E2E4FE"/>
<rect x="198.5" y="136" width="8" height="8" rx="4" fill="#E2E4FE"/>
<rect x="209.5" y="136" width="8" height="8" rx="4" fill="#E2E4FE"/>
<rect x="220.5" y="136" width="8" height="8" rx="4" fill="#E2E4FE"/>
<rect x="236.5" y="136" width="8" height="8" rx="4" fill="#E2E4FE"/>
<rect x="247.5" y="136" width="8" height="8" rx="4" fill="#E2E4FE"/>
<rect x="258.5" y="136" width="8" height="8" rx="4" fill="#E2E4FE"/>
<rect x="269.5" y="136" width="8" height="8" rx="4" fill="#E2E4FE"/>
<path d="M138.612 125.198C138.156 125.198 137.658 125.168 137.118 125.108C136.578 125.06 136.05 125 135.534 124.928C135.03 124.844 134.598 124.772 134.238 124.712L134.4 122.75C134.772 122.798 135.204 122.852 135.696 122.912C136.188 122.96 136.674 123.002 137.154 123.038C137.646 123.074 138.072 123.092 138.432 123.092C139.116 123.092 139.614 122.96 139.926 122.696C140.238 122.42 140.394 121.994 140.394 121.418C140.394 121.106 140.328 120.86 140.196 120.68C140.076 120.488 139.854 120.338 139.53 120.23C139.206 120.11 138.756 119.996 138.18 119.888C137.22 119.708 136.44 119.486 135.84 119.222C135.252 118.958 134.82 118.586 134.544 118.106C134.28 117.626 134.148 116.984 134.148 116.18C134.148 115.244 134.322 114.512 134.67 113.984C135.018 113.444 135.516 113.06 136.164 112.832C136.812 112.604 137.574 112.49 138.45 112.49C138.846 112.49 139.296 112.514 139.8 112.562C140.316 112.598 140.82 112.646 141.312 112.706C141.816 112.766 142.242 112.832 142.59 112.904L142.482 114.884C142.122 114.836 141.702 114.794 141.222 114.758C140.754 114.71 140.286 114.668 139.818 114.632C139.362 114.596 138.972 114.578 138.648 114.578C137.964 114.578 137.46 114.686 137.136 114.902C136.812 115.118 136.65 115.466 136.65 115.946C136.65 116.306 136.722 116.582 136.866 116.774C137.01 116.966 137.25 117.122 137.586 117.242C137.934 117.362 138.408 117.488 139.008 117.62C139.716 117.776 140.316 117.944 140.808 118.124C141.312 118.304 141.714 118.52 142.014 118.772C142.326 119.024 142.554 119.348 142.698 119.744C142.842 120.14 142.914 120.638 142.914 121.238C142.914 122.198 142.74 122.972 142.392 123.56C142.056 124.136 141.564 124.556 140.916 124.82C140.28 125.072 139.512 125.198 138.612 125.198ZM147.537 125.216C146.877 125.216 146.343 125.12 145.935 124.928C145.527 124.736 145.233 124.406 145.053 123.938C144.885 123.458 144.801 122.792 144.801 121.94V117.962H143.739V115.964H144.801V113.57H147.195V115.964H149.499V117.962H147.195V121.31C147.195 121.778 147.213 122.144 147.249 122.408C147.297 122.672 147.393 122.858 147.537 122.966C147.681 123.074 147.903 123.128 148.203 123.128C148.287 123.128 148.413 123.122 148.581 123.11C148.749 123.098 148.917 123.086 149.085 123.074C149.253 123.062 149.391 123.05 149.499 123.038L149.571 124.964C149.283 125.012 148.935 125.066 148.527 125.126C148.131 125.186 147.801 125.216 147.537 125.216ZM154.492 125.198C153.496 125.198 152.704 125.03 152.116 124.694C151.54 124.358 151.126 123.848 150.874 123.164C150.622 122.48 150.496 121.622 150.496 120.59C150.496 119.474 150.652 118.562 150.964 117.854C151.288 117.146 151.756 116.624 152.368 116.288C152.98 115.94 153.736 115.766 154.636 115.766C155.968 115.766 156.97 116.102 157.642 116.774C158.326 117.446 158.668 118.508 158.668 119.96L158.56 121.292H152.908C152.92 121.964 153.058 122.468 153.322 122.804C153.586 123.14 154.042 123.308 154.69 123.308C155.062 123.308 155.47 123.302 155.914 123.29C156.358 123.266 156.796 123.242 157.228 123.218C157.672 123.194 158.05 123.17 158.362 123.146L158.416 124.82C158.116 124.868 157.738 124.922 157.282 124.982C156.826 125.042 156.352 125.09 155.86 125.126C155.38 125.174 154.924 125.198 154.492 125.198ZM152.908 119.762H156.274C156.274 118.946 156.142 118.376 155.878 118.052C155.626 117.728 155.212 117.566 154.636 117.566C154.072 117.566 153.64 117.734 153.34 118.07C153.052 118.406 152.908 118.97 152.908 119.762ZM161.576 125L159.434 115.964H162.008L163.52 122.966H164.042L165.59 115.964H168.02L165.878 125H161.576Z" fill="#2C2FFE"/>
<path d="M136.478 143.622V140.472H133.418V138.438H136.478V135.342H138.512V138.438H141.59V140.472H138.512V143.622H136.478ZM147.596 144V134.784L144.788 136.404L143.96 134.622L147.902 132.12H150.044V144H147.596Z" fill="#2C2FFE"/>
<path d="M163.306 144.198C162.862 144.198 162.394 144.174 161.902 144.126C161.422 144.078 160.96 144.018 160.516 143.946C160.084 143.862 159.724 143.79 159.436 143.73L159.544 141.804C159.832 141.84 160.174 141.882 160.57 141.93C160.978 141.978 161.392 142.02 161.812 142.056C162.244 142.08 162.64 142.092 163 142.092C163.684 142.092 164.194 141.966 164.53 141.714C164.866 141.462 165.034 141.054 165.034 140.49C165.034 140.106 164.956 139.806 164.8 139.59C164.656 139.362 164.44 139.194 164.152 139.086C163.876 138.978 163.552 138.918 163.18 138.906H160.732V136.926H163.126C163.402 136.926 163.666 136.866 163.918 136.746C164.182 136.626 164.392 136.452 164.548 136.224C164.716 135.996 164.8 135.72 164.8 135.396C164.8 134.892 164.644 134.538 164.332 134.334C164.032 134.118 163.54 134.01 162.856 134.01C162.496 134.01 162.118 134.028 161.722 134.064C161.326 134.1 160.948 134.142 160.588 134.19C160.228 134.226 159.928 134.268 159.688 134.316L159.58 132.426C159.844 132.354 160.168 132.282 160.552 132.21C160.936 132.126 161.344 132.06 161.776 132.012C162.208 131.952 162.616 131.922 163 131.922C164.02 131.922 164.842 132.03 165.466 132.246C166.102 132.45 166.564 132.792 166.852 133.272C167.14 133.74 167.284 134.358 167.284 135.126C167.284 135.546 167.23 135.9 167.122 136.188C167.026 136.476 166.894 136.722 166.726 136.926C166.57 137.13 166.408 137.298 166.24 137.43C166.072 137.55 165.916 137.658 165.772 137.754C166.132 137.922 166.444 138.108 166.708 138.312C166.972 138.516 167.176 138.786 167.32 139.122C167.464 139.458 167.536 139.908 167.536 140.472C167.536 141.372 167.38 142.098 167.068 142.65C166.756 143.19 166.288 143.586 165.664 143.838C165.04 144.078 164.254 144.198 163.306 144.198Z" fill="#2C2FFE"/>
<rect x="179.5" y="116" width="38" height="8" rx="4" fill="#E2E4FE"/>
<mask id="mask0_18_716" style="mask-type:alpha" maskUnits="userSpaceOnUse" x="64" y="67" width="127" height="126">
<path fill-rule="evenodd" clip-rule="evenodd" d="M127.5 193C162.294 193 190.5 164.794 190.5 130C190.5 95.2061 162.294 67 127.5 67C92.7061 67 64.5 95.2061 64.5 130C64.5 164.794 92.7061 193 127.5 193ZM127.5 180C155.114 180 177.5 157.614 177.5 130C177.5 102.386 155.114 80 127.5 80C99.8858 80 77.5 102.386 77.5 130C77.5 157.614 99.8858 180 127.5 180Z" fill="#FB5B29"/>
</mask>
<g mask="url(#mask0_18_716)">
<circle cx="95" cy="122.5" r="24.5" stroke="#E2E4FE" stroke-width="2"/>
<path d="M74.5544 134.094C78.1161 126.365 85.9315 121 95 121C104.068 121 111.884 126.365 115.446 134.094C111.405 141.204 103.763 146 95 146C86.2375 146 78.595 141.204 74.5544 134.094Z" fill="#E2E4FE"/>
<path d="M74.5544 134.094C78.1161 126.365 85.9315 121 95 121C104.068 121 111.884 126.365 115.446 134.094C111.405 141.204 103.763 146 95 146C86.2375 146 78.595 141.204 74.5544 134.094Z" fill="#E2E4FE"/>
<path d="M91.033 121.349C83.6932 122.654 77.5845 127.519 74.5544 134.094C76.0806 136.779 78.1204 139.135 80.5403 141.026C80.9808 132.991 85.0009 125.909 91.033 121.349Z" fill="#EEEEF5"/>
<path d="M104.019 122.88C102.185 125.947 98.8324 128 95 128C91.1676 128 87.8147 125.947 85.9813 122.88C88.7423 121.671 91.7928 121 95 121C98.2072 121 101.258 121.671 104.019 122.88Z" fill="#CCCCEB"/>
<circle cx="95" cy="115.5" r="10.5" fill="#E2E4FE"/>
<path d="M93.7306 105.076C88.5303 105.703 84.5 110.131 84.5 115.5C84.5 119.055 86.2666 122.197 88.9698 124.097C88.0271 122.095 87.5 119.859 87.5 117.5C87.5 112.415 89.9484 107.902 93.7306 105.076Z" fill="#EEEEF5"/>
</g>
<mask id="mask1_18_716" style="mask-type:alpha" maskUnits="userSpaceOnUse" x="77" y="80" width="101" height="100">
<circle cx="127.5" cy="130" r="50" fill="#FB5B29"/>
</mask>
<g mask="url(#mask1_18_716)">
<path fill-rule="evenodd" clip-rule="evenodd" d="M107.225 100.116C106.912 100.5 106.558 100.826 106.196 101.094C106.759 101.309 107.32 101.645 107.82 102.14C108.183 102.499 108.503 102.933 108.764 103.45C114.663 107.72 118.5 114.662 118.5 122.5C118.5 135.479 107.979 146 95 146C82.0213 146 71.5 135.479 71.5 122.5C71.5 114.526 75.4716 107.48 81.5446 103.231C81.5543 103.014 81.5658 102.794 81.5789 102.57C81.5966 102.269 81.619 101.979 81.6459 101.699C81.6023 101.41 81.5792 101.115 81.5779 100.814C74.3281 105.311 69.5 113.342 69.5 122.5C69.5 136.583 80.9167 148 95 148C109.083 148 120.5 136.583 120.5 122.5C120.5 112.847 115.136 104.446 107.225 100.116Z" fill="#2C2FFE"/>
<path d="M95 145.5C86.5165 145.5 79.1051 140.907 75.1176 134.07C77.017 130.073 80.0867 126.739 83.8839 124.511C84.6608 125.553 85.6556 126.441 86.8255 127.103L90.3255 129.081C93.2262 130.721 96.7738 130.721 99.6745 129.081L103.175 127.103C104.344 126.441 105.339 125.553 106.116 124.511C109.913 126.739 112.983 130.073 114.882 134.07C110.895 140.907 103.484 145.5 95 145.5Z" fill="#2C2FFE" stroke="#2C2FFE"/>
<path d="M86.186 126.096C85.3336 125.473 84.6067 124.711 84.0293 123.851C82.8332 124.521 81.7045 125.296 80.6558 126.165C78.0723 128.305 75.975 131.011 74.5544 134.094C74.936 134.765 75.3496 135.416 75.7933 136.044C76.6736 137.29 77.6722 138.447 78.7727 139.498C79.3359 140.036 79.9259 140.546 80.5403 141.026C80.8486 135.404 82.9095 130.248 86.186 126.096Z" fill="#494CFF"/>
<path d="M85 117L85 117.77C85 120.687 86.5883 123.374 89.1446 124.78L91.1446 125.88C93.5453 127.2 96.4547 127.2 98.8553 125.88L100.855 124.78C103.412 123.374 105 120.687 105 117.77V117" stroke="#2C2FFE" stroke-width="2"/>
<path d="M96.6525 120.75C96.3966 121.686 95.6785 122.25 95 122.25C94.3215 122.25 93.6034 121.686 93.3475 120.75H96.6525Z" fill="#2C2FFE" stroke="#2C2FFE" stroke-width="1.5" stroke-linecap="round"/>
<path d="M96.3696 109.923C97.5 109 99.5 109 100.893 110.069" stroke="#2C2FFE" stroke-width="1.50001" stroke-linecap="round"/>
<path d="M93.0384 109.923C91.908 109 89.908 109 88.5147 110.069" stroke="#2C2FFE" stroke-width="1.50001" stroke-linecap="round"/>
<path d="M105 117.086C105.16 117.071 105.327 117.043 105.5 117C107.5 116.5 108.372 112.291 106 111.5C105.867 111.456 105.736 111.424 105.608 111.405" stroke="#2C2FFE" stroke-width="2" stroke-linecap="round"/>
<path d="M85 117.092C84.818 117.079 84.6272 117.05 84.4288 117C82.4288 116.5 81.5571 112.291 83.9288 111.5C84.1001 111.443 84.267 111.408 84.4288 111.392" stroke="#2C2FFE" stroke-width="2" stroke-linecap="round"/>
<circle cx="91.5" cy="113" r="1" fill="#2C2FFE"/>
<circle cx="98.5" cy="113" r="1" fill="#2C2FFE"/>
<path d="M94 116.5C93.7239 116.5 93.4918 116.73 93.5822 116.991C93.7855 117.578 94.3435 118 95 118C95.6565 118 96.2145 117.578 96.4178 116.991C96.5082 116.73 96.2761 116.5 96 116.5C95.7239 116.5 95.5024 116.771 95.2702 116.921C95.1923 116.971 95.0995 117 95 117C94.9005 117 94.8077 116.971 94.7298 116.921C94.4976 116.771 94.2761 116.5 94 116.5Z" fill="#2C2FFE"/>
<path d="M106.5 96.0001C106.5 97.5211 105.934 98.9099 105.001 99.9674C104.966 100.025 104.929 100.082 104.891 100.137C104.583 100.59 104.203 100.963 103.812 101.252C104.276 101.43 104.739 101.707 105.151 102.115C106.104 103.059 106.7 104.624 106.498 107.042C106.297 109.456 106.001 110.923 105.696 111.78C105.546 112.203 105.378 112.522 105.183 112.729C104.995 112.928 104.669 113.12 104.312 112.964C104.087 112.881 103.867 112.713 103.665 112.493C103.447 112.257 103.225 111.933 103.015 111.51C102.594 110.665 102.208 109.396 102.003 107.555C101.889 106.526 101.528 105.913 101.079 105.555C100.623 105.192 100.005 105.034 99.2693 105.062C97.7804 105.12 96.0051 105.936 94.8124 106.891C93.4303 107.996 91.6652 108.252 90.2273 108.187C89.5027 108.154 88.841 108.039 88.3209 107.896C88.0613 107.825 87.8302 107.745 87.6405 107.662C87.6034 107.646 87.5657 107.628 87.528 107.61C87.5022 107.661 87.4739 107.722 87.4433 107.793C87.2551 108.227 87.0442 108.885 86.8601 109.621C86.6768 110.355 86.5254 111.144 86.4502 111.835C86.3722 112.553 86.3871 113.08 86.4744 113.342C86.5477 113.562 86.4602 113.803 86.263 113.925C86.0657 114.047 85.8104 114.018 85.6465 113.854C85.1362 113.343 84.5072 112.191 84.0523 110.358C83.5924 108.506 83.2984 105.913 83.5009 102.471C83.5155 102.222 83.534 101.982 83.5562 101.752C83.5192 101.507 83.5 101.256 83.5 101C83.5 98.4415 85.4219 96.3317 87.9008 96.0356C88.6641 94.2507 90.4359 93.0001 92.5 93.0001C93.4007 93.0001 94.2457 93.2382 94.9756 93.6549C95.8887 91.5065 98.0184 90.0001 100.5 90.0001C103.814 90.0001 106.5 92.6863 106.5 96.0001Z" fill="#2C2FFE"/>
</g>
<rect x="98.5" y="195" width="8" height="8" rx="4" fill="#E2E4FE"/>
<rect x="109.5" y="195" width="8" height="8" rx="4" fill="#E2E4FE"/>
<rect x="125.5" y="195" width="8" height="8" rx="4" fill="#E2E4FE"/>
<rect x="136.5" y="195" width="8" height="8" rx="4" fill="#E2E4FE"/>
<rect x="147.5" y="195" width="8" height="8" rx="4" fill="#E2E4FE"/>
<rect x="163.5" y="195" width="8" height="8" rx="4" fill="#E2E4FE"/>
<rect x="174.5" y="195" width="8" height="8" rx="4" fill="#E2E4FE"/>
<rect x="185.5" y="195" width="8" height="8" rx="4" fill="#E2E4FE"/>
<rect x="201.5" y="195" width="8" height="8" rx="4" fill="#E2E4FE"/>
<rect x="212.5" y="195" width="8" height="8" rx="4" fill="#E2E4FE"/>
<rect x="223.5" y="195" width="8" height="8" rx="4" fill="#E2E4FE"/>
<rect x="234.5" y="195" width="8" height="8" rx="4" fill="#E2E4FE"/>
<rect x="98.5" y="175" width="38" height="8" rx="4" fill="#E2E4FE"/>
<rect x="144.5" y="175" width="38" height="8" rx="4" fill="#E2E4FE"/>
<circle cx="60" cy="188.5" r="24.5" stroke="#E2E4FE" stroke-width="2"/>
<path d="M39.5544 200.094C43.1161 192.365 50.9315 187 60 187C69.0685 187 76.8839 192.365 80.4456 200.094C76.405 207.204 68.7626 212 60 212C51.2375 212 43.595 207.204 39.5544 200.094Z" fill="#E2E4FE"/>
<path d="M39.5544 200.094C43.1161 192.365 50.9315 187 60 187C69.0685 187 76.8839 192.365 80.4456 200.094C76.405 207.204 68.7626 212 60 212C51.2375 212 43.595 207.204 39.5544 200.094Z" fill="#E2E4FE"/>
<path d="M56.033 187.349C48.6932 188.654 42.5845 193.519 39.5544 200.094C41.0806 202.779 43.1204 205.135 45.5403 207.026C45.9808 198.991 50.0009 191.909 56.033 187.349Z" fill="#EEEEF5"/>
<path d="M69.0187 188.88C67.1853 191.947 63.8324 194 60 194C56.1676 194 52.8147 191.947 50.9813 188.88C53.7423 187.671 56.7928 187 60 187C63.2072 187 66.2577 187.671 69.0187 188.88Z" fill="#CCCCEB"/>
<circle cx="60" cy="181.5" r="10.5" fill="#E2E4FE"/>
<path d="M58.7306 171.076C53.5303 171.703 49.5 176.131 49.5 181.5C49.5 185.055 51.2666 188.197 53.9698 190.097C53.0271 188.095 52.5 185.859 52.5 183.5C52.5 178.415 54.9484 173.902 58.7306 171.076Z" fill="#EEEEF5"/>
<g filter="url(#filter0_f_18_716)">
<circle cx="127.5" cy="136" r="44.5" stroke="#FB5B29" stroke-opacity="0.3" stroke-width="11"/>
</g>
<circle cx="127.5" cy="130" r="46" stroke="#FB5B29" stroke-width="8"/>
<line x1="159.152" y1="167.239" x2="187.739" y2="198.348" stroke="#FB5B29" stroke-width="8" stroke-linecap="round"/>
<defs>
<filter id="filter0_f_18_716" x="62.5" y="71" width="130" height="130" filterUnits="userSpaceOnUse" color-interpolation-filters="sRGB">
<feFlood flood-opacity="0" result="BackgroundImageFix"/>
<feBlend mode="normal" in="SourceGraphic" in2="BackgroundImageFix" result="shape"/>
<feGaussianBlur stdDeviation="7.5" result="effect1_foregroundBlur_18_716"/>
</filter>
</defs>
</svg>
