<svg width="182" height="40" viewBox="0 0 182 40" fill="none" xmlns="http://www.w3.org/2000/svg">
<path fill-rule="evenodd" clip-rule="evenodd" d="M20 0C31.0457 0 40 8.95431 40 20C40 31.0457 31.0457 40 20 40C8.95431 40 0 31.0457 0 20C0 8.95431 8.95431 0 20 0ZM26.8104 10.9715C24.7502 10.9715 22.4656 12.1618 22.4656 19.9094C22.4656 27.6569 24.7493 28.8473 26.8104 28.8473C27.4701 28.8473 27.9273 28.6759 28.2287 28.4929C28.5372 28.3046 28.6859 27.9422 28.5946 27.5928C28.3662 26.7207 27.8743 24.839 27.6464 23.9665C27.5716 23.6799 27.3473 23.4599 27.0606 23.3869L25.6071 23.0188C25.2817 22.9364 25.0413 22.6676 25.0004 22.3346C24.9296 21.759 24.8339 20.8139 24.8339 19.9085C24.8339 19.003 24.9296 18.0579 25.0004 17.4824C25.0413 17.1494 25.2817 16.8805 25.6071 16.7981L27.0606 16.43C27.3477 16.3574 27.5725 16.1344 27.6473 15.8477L28.5937 12.2286C28.685 11.8783 28.5363 11.5123 28.2264 11.3245C27.926 11.1415 27.4688 10.971 26.8104 10.9715ZM13.1897 10.9715C12.5313 10.971 12.0742 11.1415 11.7737 11.3245C11.4793 11.5029 11.3304 11.8421 11.3945 12.1759L11.4064 12.2286L12.3528 15.8477C12.4229 16.1165 12.6249 16.3293 12.8865 16.4147L12.9395 16.43L14.393 16.7981C14.7184 16.8805 14.9588 17.1494 14.9997 17.4824C15.0705 18.0579 15.1662 19.003 15.1662 19.9085C15.1662 20.8139 15.0705 21.759 14.9997 22.3346C14.9609 22.65 14.7432 22.908 14.4436 23.0043L14.393 23.0188L12.9395 23.3869C12.6529 23.4599 12.4285 23.6799 12.3537 23.9665C12.1258 24.839 11.6339 26.7207 11.4055 27.5928C11.3143 27.9422 11.463 28.3046 11.7714 28.4929C12.0728 28.6759 12.53 28.8473 13.1897 28.8473C15.2508 28.8473 17.5345 27.6569 17.5345 19.9094C17.5345 12.1618 15.2499 10.9715 13.1897 10.9715ZM20 18.6425C19.2503 18.6425 18.6425 19.2503 18.6425 20C18.6425 20.7497 19.2503 21.3575 20 21.3575C20.7497 21.3575 21.3575 20.7497 21.3575 20C21.3575 19.2503 20.7497 18.6425 20 18.6425Z" fill="#2C2FFE"/>
<path d="M53.26 27.5V13.84H56.02V19.54H61.32V13.84H64.08V27.5H61.32V21.86H56.02V27.5H53.26ZM70.4998 27.72C69.3932 27.72 68.5132 27.5333 67.8598 27.16C67.2198 26.7867 66.7598 26.22 66.4798 25.46C66.1998 24.7 66.0598 23.7467 66.0598 22.6C66.0598 21.36 66.2332 20.3467 66.5798 19.56C66.9398 18.7733 67.4598 18.1933 68.1398 17.82C68.8198 17.4333 69.6598 17.24 70.6598 17.24C72.1398 17.24 73.2532 17.6133 73.9998 18.36C74.7598 19.1067 75.1398 20.2867 75.1398 21.9L75.0198 23.38H68.7398C68.7532 24.1267 68.9065 24.6867 69.1998 25.06C69.4932 25.4333 69.9998 25.62 70.7198 25.62C71.1332 25.62 71.5865 25.6133 72.0798 25.6C72.5732 25.5733 73.0598 25.5467 73.5398 25.52C74.0332 25.4933 74.4532 25.4667 74.7998 25.44L74.8598 27.3C74.5265 27.3533 74.1065 27.4133 73.5998 27.48C73.0932 27.5467 72.5665 27.6 72.0198 27.64C71.4865 27.6933 70.9798 27.72 70.4998 27.72ZM68.7398 21.68H72.4798C72.4798 20.7733 72.3332 20.14 72.0398 19.78C71.7598 19.42 71.2998 19.24 70.6598 19.24C70.0332 19.24 69.5532 19.4267 69.2198 19.8C68.8998 20.1733 68.7398 20.8 68.7398 21.68ZM76.9886 27.5V13.36H79.6486V27.5H76.9886ZM82.0081 27.5V13.36H84.6681V27.5H82.0081ZM91.2677 27.72C90.1343 27.72 89.221 27.5333 88.5277 27.16C87.8477 26.7867 87.3543 26.2133 87.0477 25.44C86.741 24.6533 86.5877 23.64 86.5877 22.4C86.5877 21.2 86.7477 20.2267 87.0677 19.48C87.3877 18.72 87.8943 18.16 88.5877 17.8C89.281 17.4267 90.1743 17.24 91.2677 17.24C92.3743 17.24 93.2677 17.4267 93.9477 17.8C94.641 18.16 95.1477 18.72 95.4677 19.48C95.801 20.2267 95.9677 21.2 95.9677 22.4C95.9677 23.64 95.8143 24.6533 95.5077 25.44C95.201 26.2133 94.701 26.7867 94.0077 27.16C93.3277 27.5333 92.4143 27.72 91.2677 27.72ZM91.2677 25.52C91.8277 25.52 92.2477 25.42 92.5277 25.22C92.8077 25.0067 92.9943 24.6733 93.0877 24.22C93.1943 23.7533 93.2477 23.1467 93.2477 22.4C93.2477 21.6667 93.1877 21.0867 93.0677 20.66C92.9477 20.22 92.7477 19.9067 92.4677 19.72C92.1877 19.5333 91.7877 19.44 91.2677 19.44C90.761 19.44 90.361 19.5333 90.0677 19.72C89.7877 19.9067 89.5877 20.22 89.4677 20.66C89.3477 21.0867 89.2877 21.6667 89.2877 22.4C89.2877 23.1467 89.3343 23.7533 89.4277 24.22C89.5343 24.6733 89.7277 25.0067 90.0077 25.22C90.2877 25.42 90.7077 25.52 91.2677 25.52ZM99.5275 23.34C99.4608 23.2067 99.3875 23.02 99.3075 22.78C99.2275 22.5267 99.1875 22.26 99.1875 21.98C99.1875 21.66 99.2542 21.3667 99.3875 21.1C99.5208 20.8333 99.7208 20.5667 99.9875 20.3C100.254 20.02 100.588 19.72 100.988 19.4C101.401 19.0667 101.714 18.7933 101.928 18.58C102.141 18.3533 102.281 18.14 102.348 17.94C102.428 17.7267 102.468 17.4667 102.468 17.16C102.468 16.64 102.301 16.2667 101.967 16.04C101.648 15.8133 101.121 15.7 100.388 15.7C100.094 15.7 99.7608 15.72 99.3875 15.76C99.0275 15.8 98.6675 15.8533 98.3075 15.92C97.9608 15.9867 97.6542 16.0467 97.3875 16.1L97.2675 14.12C97.5742 14.0267 97.9408 13.9267 98.3675 13.82C98.7942 13.7133 99.2408 13.6267 99.7075 13.56C100.174 13.4933 100.601 13.46 100.988 13.46C102.414 13.46 103.468 13.7333 104.148 14.28C104.841 14.8133 105.188 15.7267 105.188 17.02C105.188 17.6467 105.134 18.1533 105.028 18.54C104.934 18.9267 104.754 19.2733 104.488 19.58C104.221 19.8867 103.848 20.2333 103.368 20.62C102.768 21.1 102.334 21.4933 102.068 21.8C101.814 22.1067 101.681 22.4267 101.668 22.76V23.34H99.5275ZM99.2075 27.48V24.7H101.988V27.48H99.2075ZM116.344 27.72C115.277 27.72 114.397 27.5867 113.704 27.32C113.024 27.04 112.484 26.6133 112.084 26.04C111.684 25.4667 111.404 24.74 111.244 23.86C111.097 22.9667 111.024 21.9067 111.024 20.68C111.024 19.44 111.097 18.38 111.244 17.5C111.404 16.6067 111.684 15.8733 112.084 15.3C112.484 14.7267 113.031 14.3 113.724 14.02C114.431 13.74 115.331 13.6 116.424 13.6C116.864 13.6 117.324 13.6267 117.804 13.68C118.284 13.7333 118.744 13.8 119.184 13.88C119.637 13.9467 120.024 14.02 120.344 14.1L120.264 16.3C119.997 16.2467 119.664 16.2 119.264 16.16C118.864 16.1067 118.457 16.0667 118.044 16.04C117.631 16.0133 117.244 16 116.884 16C116.244 16 115.724 16.08 115.324 16.24C114.924 16.4 114.611 16.6667 114.384 17.04C114.171 17.4133 114.024 17.9 113.944 18.5C113.864 19.0867 113.824 19.8133 113.824 20.68C113.824 21.5333 113.864 22.26 113.944 22.86C114.024 23.4467 114.171 23.9267 114.384 24.3C114.597 24.66 114.904 24.9267 115.304 25.1C115.717 25.26 116.251 25.34 116.904 25.34C117.437 25.34 118.024 25.3133 118.664 25.26C119.317 25.1933 119.857 25.1333 120.284 25.08L120.344 27.26C120.024 27.3267 119.644 27.4 119.204 27.48C118.764 27.5467 118.297 27.6 117.804 27.64C117.311 27.6933 116.824 27.72 116.344 27.72ZM124.685 27.72C123.645 27.72 122.858 27.46 122.325 26.94C121.805 26.4067 121.545 25.6067 121.545 24.54C121.545 23.7933 121.678 23.2133 121.945 22.8C122.212 22.3733 122.605 22.0667 123.125 21.88C123.658 21.68 124.305 21.56 125.065 21.52L127.505 21.3V20.7C127.505 20.22 127.385 19.8867 127.145 19.7C126.905 19.5 126.552 19.4 126.085 19.4C125.712 19.4 125.278 19.4133 124.785 19.44C124.305 19.4667 123.825 19.5 123.345 19.54C122.878 19.58 122.472 19.62 122.125 19.66L122.045 17.78C122.392 17.7 122.805 17.62 123.285 17.54C123.778 17.4467 124.292 17.3733 124.825 17.32C125.358 17.2667 125.852 17.24 126.305 17.24C127.158 17.24 127.872 17.3467 128.445 17.56C129.018 17.7733 129.452 18.1267 129.745 18.62C130.038 19.1 130.185 19.7533 130.185 20.58V25.16C130.212 25.3467 130.312 25.4933 130.485 25.6C130.658 25.6933 130.858 25.76 131.085 25.8L131.025 27.64C130.705 27.6533 130.392 27.66 130.085 27.66C129.778 27.66 129.518 27.64 129.305 27.6C128.998 27.56 128.732 27.48 128.505 27.36C128.292 27.24 128.118 27.1133 127.985 26.98C127.772 27.0733 127.485 27.18 127.125 27.3C126.765 27.42 126.372 27.52 125.945 27.6C125.532 27.68 125.112 27.72 124.685 27.72ZM125.325 25.74C125.578 25.74 125.845 25.7133 126.125 25.66C126.405 25.6067 126.665 25.5467 126.905 25.48C127.158 25.4 127.358 25.3267 127.505 25.26V22.96L125.465 23.14C125.025 23.18 124.705 23.3133 124.505 23.54C124.318 23.7533 124.225 24.06 124.225 24.46C124.225 24.86 124.312 25.1733 124.485 25.4C124.672 25.6267 124.952 25.74 125.325 25.74ZM132.614 27.5V13.36H135.274V27.5H132.614ZM137.633 27.5V13.36H140.293V27.5H137.633ZM146.633 27.72C145.526 27.72 144.646 27.5333 143.993 27.16C143.353 26.7867 142.893 26.22 142.613 25.46C142.333 24.7 142.193 23.7467 142.193 22.6C142.193 21.36 142.366 20.3467 142.713 19.56C143.073 18.7733 143.593 18.1933 144.273 17.82C144.953 17.4333 145.793 17.24 146.793 17.24C148.273 17.24 149.386 17.6133 150.133 18.36C150.893 19.1067 151.273 20.2867 151.273 21.9L151.153 23.38H144.873C144.886 24.1267 145.039 24.6867 145.333 25.06C145.626 25.4333 146.133 25.62 146.853 25.62C147.266 25.62 147.719 25.6133 148.213 25.6C148.706 25.5733 149.193 25.5467 149.673 25.52C150.166 25.4933 150.586 25.4667 150.933 25.44L150.993 27.3C150.659 27.3533 150.239 27.4133 149.733 27.48C149.226 27.5467 148.699 27.6 148.153 27.64C147.619 27.6933 147.113 27.72 146.633 27.72ZM144.873 21.68H148.613C148.613 20.7733 148.466 20.14 148.173 19.78C147.893 19.42 147.433 19.24 146.793 19.24C146.166 19.24 145.686 19.4267 145.353 19.8C145.033 20.1733 144.873 20.8 144.873 21.68ZM153.041 27.5V17.46H155.701V18.64C155.928 18.4667 156.208 18.2867 156.541 18.1C156.875 17.9 157.235 17.72 157.621 17.56C158.021 17.3867 158.401 17.2733 158.761 17.22V19.8C158.415 19.8533 158.048 19.9467 157.661 20.08C157.275 20.2 156.908 20.3333 156.561 20.48C156.228 20.6267 155.941 20.76 155.701 20.88V27.5H153.041ZM164.666 27.5V13.84H167.426V27.5H164.666ZM169.959 27.5V13.84H175.179C176.246 13.84 177.139 13.9933 177.859 14.3C178.593 14.5933 179.179 15.0267 179.619 15.6C180.059 16.1733 180.373 16.8667 180.559 17.68C180.759 18.4933 180.859 19.42 180.859 20.46C180.859 21.5133 180.766 22.4667 180.579 23.32C180.406 24.1733 180.106 24.9133 179.679 25.54C179.253 26.1667 178.679 26.6533 177.959 27C177.239 27.3333 176.339 27.5 175.259 27.5H169.959ZM172.719 25.18H175.099C175.726 25.18 176.233 25.06 176.619 24.82C177.006 24.58 177.299 24.2467 177.499 23.82C177.713 23.38 177.853 22.88 177.919 22.32C177.999 21.7467 178.039 21.1267 178.039 20.46C178.039 19.82 177.999 19.24 177.919 18.72C177.839 18.1867 177.693 17.7333 177.479 17.36C177.279 16.9733 176.986 16.68 176.599 16.48C176.226 16.2667 175.726 16.16 175.099 16.16H172.719V25.18Z" fill="black"/>
</svg>
