<svg width="214" height="40" viewBox="0 0 214 40" fill="none" xmlns="http://www.w3.org/2000/svg">
<path d="M12.6 27.5V25.18H14.7V27.5H12.6ZM6.84 32.46C5.68 32.46 4.64 32.2467 3.72 31.82C2.81333 31.4067 2.1 30.8267 1.58 30.08C1.06 29.3333 0.8 28.4867 0.8 27.54C0.8 27.2733 0.82 26.92 0.86 26.48C0.9 26.04 0.953333 25.5467 1.02 25C1.1 24.4533 1.18 23.9 1.26 23.34C1.35333 22.7667 1.44 22.2133 1.52 21.68L4.16 22.04C4.01333 22.9333 3.88667 23.7533 3.78 24.5C3.68667 25.2333 3.61333 25.86 3.56 26.38C3.50667 26.9 3.48 27.28 3.48 27.52C3.48 28.0533 3.61333 28.5133 3.88 28.9C4.14667 29.2867 4.52667 29.5867 5.02 29.8C5.52667 30.0267 6.13333 30.14 6.84 30.14C7.57333 30.14 8.16667 30.0333 8.62 29.82C9.07333 29.6067 9.4 29.3133 9.6 28.94C9.81333 28.5667 9.92 28.1467 9.92 27.68V13.36H12.6V27.68C12.6 28.64 12.3467 29.48 11.84 30.2C11.3467 30.92 10.6667 31.4733 9.8 31.86C8.93333 32.26 7.94667 32.46 6.84 32.46ZM14.7 27.5V25.18C14.86 25.18 14.9667 25.2867 15.02 25.5C15.0733 25.7 15.1 25.98 15.1 26.34C15.1 26.6867 15.0733 26.9667 15.02 27.18C14.9667 27.3933 14.86 27.5 14.7 27.5ZM30.247 27.5V25.18H32.347V27.5H30.247ZM14.707 27.5V25.18H29.827L27.567 27.14V22.94C27.567 22.18 27.467 21.5733 27.267 21.12C27.067 20.6533 26.7737 20.3133 26.387 20.1C26.0137 19.8867 25.5604 19.78 25.027 19.78C24.4537 19.78 23.907 19.8933 23.387 20.12C22.8804 20.3467 22.407 20.64 21.967 21C21.527 21.36 21.1204 21.7467 20.747 22.16C20.3737 22.5733 20.0404 22.9733 19.747 23.36C19.4537 23.7333 19.2004 24.0533 18.987 24.32L18.387 22.38C18.907 21.7533 19.3737 21.18 19.787 20.66C20.2004 20.14 20.5937 19.68 20.967 19.28C21.3537 18.88 21.7537 18.5467 22.167 18.28C22.5937 18.0133 23.0537 17.8133 23.547 17.68C24.0537 17.5333 24.6404 17.46 25.307 17.46C26.2004 17.46 26.9604 17.6133 27.587 17.92C28.2137 18.2133 28.7204 18.62 29.107 19.14C29.507 19.66 29.7937 20.2467 29.967 20.9C30.1537 21.5533 30.247 22.2333 30.247 22.94V27.5H14.707ZM17.227 25.18V17.46H19.907V25.18H17.227ZM14.707 27.5C14.547 27.5 14.4404 27.3933 14.387 27.18C14.3337 26.9667 14.307 26.6867 14.307 26.34C14.307 25.98 14.3337 25.7 14.387 25.5C14.4404 25.2867 14.547 25.18 14.707 25.18V27.5ZM32.347 27.5V25.18C32.507 25.18 32.6137 25.2867 32.667 25.5C32.7204 25.7 32.747 25.98 32.747 26.34C32.747 26.6867 32.7204 26.9667 32.667 27.18C32.6137 27.3933 32.507 27.5 32.347 27.5ZM38.1838 27.5V25.18H40.6838V27.5H38.1838ZM40.6838 27.5V25.18C40.8438 25.18 40.9504 25.2867 41.0038 25.5C41.0571 25.7 41.0838 25.98 41.0838 26.34C41.0838 26.6867 41.0571 26.9667 41.0038 27.18C40.9504 27.3933 40.8438 27.5 40.6838 27.5ZM32.3438 27.5V25.18H37.0838L35.5238 26.48V17.46H38.1838V27.5H32.3438ZM32.3438 27.5C32.1837 27.5 32.0771 27.3933 32.0237 27.18C31.9704 26.9667 31.9437 26.6867 31.9437 26.34C31.9437 25.98 31.9704 25.7 32.0237 25.5C32.0771 25.2867 32.1837 25.18 32.3438 25.18V27.5ZM33.1438 16.26V13.98H35.8238V16.26H33.1438ZM35.8838 16.26V13.98H38.5638V16.26H35.8838ZM52.5036 27.5V25.18H54.6236V27.5H52.5036ZM40.6836 27.5V25.18H51.0636L49.8436 26.22V22.54C49.8436 21.82 49.7636 21.26 49.6036 20.86C49.4436 20.4467 49.1636 20.16 48.7636 20C48.3769 19.8267 47.8369 19.74 47.1436 19.74C46.5969 19.74 46.0569 19.78 45.5236 19.86C45.0036 19.9267 44.5969 20.02 44.3036 20.14L45.9636 18.58C45.8836 18.8867 45.8036 19.2733 45.7236 19.74C45.6569 20.2067 45.5969 20.7067 45.5436 21.24C45.4903 21.76 45.4636 22.2733 45.4636 22.78C45.4636 23.2467 45.4836 23.7333 45.5236 24.24C45.5769 24.7467 45.6303 25.1933 45.6836 25.58C45.7503 25.9667 45.8036 26.2333 45.8436 26.38L43.3036 27.08C43.2503 26.8933 43.1836 26.5867 43.1036 26.16C43.0236 25.7333 42.9503 25.2267 42.8836 24.64C42.8303 24.0533 42.8036 23.4333 42.8036 22.78C42.8036 22.1133 42.8369 21.4733 42.9036 20.86C42.9703 20.2333 43.0436 19.6733 43.1236 19.18C43.2169 18.6733 43.3036 18.2667 43.3836 17.96C43.7036 17.84 44.2036 17.72 44.8836 17.6C45.5636 17.48 46.3169 17.42 47.1436 17.42C48.3436 17.42 49.3369 17.5867 50.1236 17.92C50.9236 18.2533 51.5169 18.7933 51.9036 19.54C52.3036 20.2867 52.5036 21.2933 52.5036 22.56V27.5H40.6836ZM40.6836 27.5C40.5236 27.5 40.4169 27.3933 40.3636 27.18C40.3103 26.9667 40.2836 26.6867 40.2836 26.34C40.2836 25.98 40.3103 25.7 40.3636 25.5C40.4169 25.2867 40.5236 25.18 40.6836 25.18V27.5ZM54.6236 27.5V25.18C54.7836 25.18 54.8903 25.2867 54.9436 25.5C54.9969 25.7 55.0236 25.98 55.0236 26.34C55.0236 26.6867 54.9969 26.9667 54.9436 27.18C54.8903 27.3933 54.7836 27.5 54.6236 27.5ZM56.8889 27.5V13.36H59.5689V27.5H56.8889ZM54.6289 27.5V25.18H56.8889V27.5H54.6289ZM54.6289 27.5C54.4689 27.5 54.3622 27.3933 54.3089 27.18C54.2556 26.9667 54.2289 26.6867 54.2289 26.34C54.2289 25.98 54.2556 25.7 54.3089 25.5C54.3622 25.2867 54.4689 25.18 54.6289 25.18V27.5ZM62.7766 27.5V13.36H65.4366V27.5H62.7766ZM84.2016 27.5V25.18H86.3016V27.5H84.2016ZM78.4416 32.46C77.2816 32.46 76.2416 32.2467 75.3216 31.82C74.4149 31.4067 73.7016 30.8267 73.1816 30.08C72.6616 29.3333 72.4016 28.4867 72.4016 27.54C72.4016 27.2733 72.4216 26.92 72.4616 26.48C72.5016 26.04 72.5549 25.5467 72.6216 25C72.7016 24.4533 72.7816 23.9 72.8616 23.34C72.9549 22.7667 73.0416 22.2133 73.1216 21.68L75.7616 22.04C75.6149 22.9333 75.4882 23.7533 75.3816 24.5C75.2882 25.2333 75.2149 25.86 75.1616 26.38C75.1082 26.9 75.0816 27.28 75.0816 27.52C75.0816 28.0533 75.2149 28.5133 75.4816 28.9C75.7482 29.2867 76.1282 29.5867 76.6216 29.8C77.1282 30.0267 77.7349 30.14 78.4416 30.14C79.1749 30.14 79.7682 30.0333 80.2216 29.82C80.6749 29.6067 81.0016 29.3133 81.2016 28.94C81.4149 28.5667 81.5216 28.1467 81.5216 27.68V17.46H84.2016V27.68C84.2016 28.64 83.9482 29.48 83.4416 30.2C82.9482 30.92 82.2682 31.4733 81.4016 31.86C80.5349 32.26 79.5482 32.46 78.4416 32.46ZM86.3016 27.5V25.18C86.4616 25.18 86.5682 25.2867 86.6216 25.5C86.6749 25.7 86.7016 25.98 86.7016 26.34C86.7016 26.6867 86.6749 26.9667 86.6216 27.18C86.5682 27.3933 86.4616 27.5 86.3016 27.5ZM76.9816 16.74V14.46H79.6616V16.74H76.9816ZM86.3086 27.5V25.18H96.6886L95.4686 26.22V22.54C95.4686 21.82 95.3886 21.26 95.2286 20.86C95.0686 20.4467 94.7886 20.16 94.3886 20C94.0019 19.8267 93.4619 19.74 92.7686 19.74C92.2219 19.74 91.6819 19.78 91.1486 19.86C90.6286 19.9267 90.2219 20.02 89.9286 20.14L91.5886 18.58C91.5086 18.8867 91.4286 19.2733 91.3486 19.74C91.2819 20.2067 91.2219 20.7067 91.1686 21.24C91.1153 21.76 91.0886 22.2733 91.0886 22.78C91.0886 23.2467 91.1086 23.7333 91.1486 24.24C91.2019 24.7467 91.2553 25.1933 91.3086 25.58C91.3753 25.9667 91.4286 26.2333 91.4686 26.38L88.9286 27.08C88.8753 26.8933 88.8086 26.5867 88.7286 26.16C88.6486 25.7333 88.5753 25.2267 88.5086 24.64C88.4553 24.0533 88.4286 23.4333 88.4286 22.78C88.4286 22.1133 88.4619 21.4733 88.5286 20.86C88.5953 20.2333 88.6686 19.6733 88.7486 19.18C88.8419 18.6733 88.9286 18.2667 89.0086 17.96C89.3286 17.84 89.8286 17.72 90.5086 17.6C91.1886 17.48 91.9419 17.42 92.7686 17.42C93.9686 17.42 94.9619 17.5867 95.7486 17.92C96.5486 18.2533 97.1419 18.7933 97.5286 19.54C97.9286 20.2867 98.1286 21.2933 98.1286 22.56V27.5H86.3086ZM86.3086 27.5C86.1486 27.5 86.0419 27.3933 85.9886 27.18C85.9353 26.9667 85.9086 26.6867 85.9086 26.34C85.9086 25.98 85.9353 25.7 85.9886 25.5C86.0419 25.2867 86.1486 25.18 86.3086 25.18V27.5ZM110.167 23.34H108.027L108.007 22.76C108.007 22.4267 107.873 22.1067 107.607 21.8C107.34 21.4933 106.913 21.1 106.327 20.62C105.833 20.2333 105.453 19.8867 105.187 19.58C104.933 19.2733 104.753 18.9267 104.647 18.54C104.553 18.1533 104.507 17.6467 104.507 17.02C104.507 15.7267 104.847 14.8133 105.527 14.28C106.22 13.7333 107.28 13.46 108.707 13.46C109.107 13.46 109.533 13.4933 109.987 13.56C110.44 13.6267 110.88 13.7133 111.307 13.82C111.747 13.9267 112.12 14.0267 112.427 14.12L112.307 16.1C112.04 16.0467 111.727 15.9867 111.367 15.92C111.02 15.8533 110.66 15.8 110.287 15.76C109.927 15.72 109.6 15.7 109.307 15.7C108.573 15.7 108.04 15.8133 107.707 16.04C107.373 16.2667 107.207 16.64 107.207 17.16C107.207 17.4667 107.247 17.7267 107.327 17.94C107.407 18.14 107.553 18.3533 107.767 18.58C107.98 18.7933 108.293 19.0667 108.707 19.4C109.107 19.72 109.44 20.02 109.707 20.3C109.973 20.5667 110.173 20.8333 110.307 21.1C110.44 21.3667 110.507 21.66 110.507 21.98C110.507 22.26 110.467 22.5267 110.387 22.78C110.32 23.02 110.247 23.2067 110.167 23.34ZM110.487 27.48H107.707V24.7H110.487V27.48ZM123.288 27.5V25.18H125.388V27.5H123.288ZM117.888 32.46C117.394 32.46 116.874 32.42 116.328 32.34C115.794 32.2733 115.221 32.18 114.608 32.06L115.008 29.92C115.674 30 116.241 30.06 116.708 30.1C117.174 30.14 117.568 30.16 117.888 30.16C118.848 30.16 119.541 29.9867 119.968 29.64C120.394 29.2933 120.608 28.7733 120.608 28.08V19.3L121.268 19.78H118.768C118.221 19.78 117.781 19.8467 117.448 19.98C117.114 20.1 116.868 20.36 116.708 20.76C116.561 21.1467 116.488 21.74 116.488 22.54C116.488 23.3 116.554 23.8733 116.688 24.26C116.834 24.6333 117.074 24.88 117.408 25C117.741 25.12 118.194 25.18 118.768 25.18H120.608V27.5H118.768C117.634 27.5 116.701 27.32 115.968 26.96C115.234 26.6 114.688 26.0533 114.328 25.32C113.981 24.5867 113.808 23.66 113.808 22.54C113.808 21.42 113.981 20.4867 114.328 19.74C114.688 18.98 115.234 18.4133 115.968 18.04C116.701 17.6533 117.634 17.46 118.768 17.46H123.288V28.08C123.288 28.9867 123.061 29.7667 122.608 30.42C122.168 31.0867 121.541 31.5933 120.728 31.94C119.928 32.2867 118.981 32.46 117.888 32.46ZM125.388 27.5V25.18C125.548 25.18 125.654 25.2867 125.708 25.5C125.761 25.7 125.788 25.98 125.788 26.34C125.788 26.6867 125.761 26.9667 125.708 27.18C125.654 27.3933 125.548 27.5 125.388 27.5ZM130.331 27.5V25.18H132.431V27.5H130.331ZM127.651 27.5V13.36H130.331V27.5H127.651ZM125.391 27.5V25.18H127.651V27.5H125.391ZM125.391 27.5C125.231 27.5 125.124 27.3933 125.071 27.18C125.017 26.9667 124.991 26.6867 124.991 26.34C124.991 25.98 125.017 25.7 125.071 25.5C125.124 25.2867 125.231 25.18 125.391 25.18V27.5ZM132.431 27.5V25.18C132.591 25.18 132.697 25.2867 132.751 25.5C132.804 25.7 132.831 25.98 132.831 26.34C132.831 26.6867 132.804 26.9667 132.751 27.18C132.697 27.3933 132.591 27.5 132.431 27.5ZM134.682 27.5V13.36H137.362V27.5H134.682ZM132.422 27.5V25.18H134.682V27.5H132.422ZM132.422 27.5C132.262 27.5 132.155 27.3933 132.102 27.18C132.049 26.9667 132.022 26.6867 132.022 26.34C132.022 25.98 132.049 25.7 132.102 25.5C132.155 25.2867 132.262 25.18 132.422 25.18V27.5ZM143.23 27.5V25.18H145.51V27.5H143.23ZM140.57 27.5V13.36H143.23V27.5H140.57ZM145.51 27.5V25.18C145.67 25.18 145.776 25.2867 145.83 25.5C145.883 25.7 145.91 25.98 145.91 26.34C145.91 26.6867 145.883 26.9667 145.83 27.18C145.776 27.3933 145.67 27.5 145.51 27.5ZM145.508 27.5V25.18H159.388L157.528 26.68V23.26C157.528 22.1133 157.374 21.1933 157.068 20.5C156.774 19.8067 156.301 19.3067 155.648 19C155.008 18.68 154.174 18.52 153.148 18.52C152.654 18.52 152.114 18.54 151.528 18.58C150.941 18.6067 150.354 18.6467 149.768 18.7C149.194 18.74 148.674 18.7867 148.208 18.84L147.928 17.04C148.381 16.92 148.908 16.7933 149.508 16.66C150.108 16.5267 150.734 16.4133 151.388 16.32C152.054 16.2267 152.701 16.18 153.328 16.18C154.194 16.18 155.034 16.3 155.848 16.54C156.674 16.7667 157.414 17.1533 158.068 17.7C158.721 18.2333 159.241 18.9533 159.628 19.86C160.014 20.7667 160.208 21.9 160.208 23.26V27.5H145.508ZM147.568 25.18V24.18C147.568 23.54 147.728 22.9467 148.048 22.4C148.381 21.84 148.834 21.4 149.408 21.08C149.981 20.7467 150.621 20.58 151.328 20.58C152.034 20.58 152.668 20.7467 153.228 21.08C153.788 21.4 154.228 21.8333 154.548 22.38C154.881 22.9267 155.048 23.5267 155.048 24.18V25.18H152.928V24.18C152.928 23.8467 152.854 23.5533 152.708 23.3C152.561 23.0333 152.368 22.82 152.128 22.66C151.888 22.5 151.621 22.42 151.328 22.42C151.034 22.42 150.761 22.5 150.508 22.66C150.268 22.82 150.074 23.0333 149.928 23.3C149.781 23.5533 149.708 23.8467 149.708 24.18V25.18H147.568ZM145.508 27.5C145.348 27.5 145.241 27.3933 145.188 27.18C145.134 26.9667 145.108 26.6867 145.108 26.34C145.108 25.98 145.134 25.7 145.188 25.5C145.241 25.2867 145.348 25.18 145.508 25.18V27.5Z" fill="black"/>
<path fill-rule="evenodd" clip-rule="evenodd" d="M194 0C205.046 0 214 8.9543 214 20C214 31.0457 205.046 40 194 40C182.954 40 174 31.0457 174 20C174 8.9543 182.954 0 194 0Z" fill="#2C2FFE"/>
<path fill-rule="evenodd" clip-rule="evenodd" d="M200.81 10.9717C198.75 10.9717 196.466 12.162 196.466 19.9096C196.466 27.6571 198.749 28.8475 200.81 28.8475C201.47 28.8475 201.927 28.6761 202.229 28.4931C202.537 28.3048 202.686 27.9425 202.595 27.593C202.366 26.721 201.874 24.8393 201.646 23.9668C201.572 23.6801 201.347 23.4602 201.061 23.3872L199.607 23.019C199.282 22.9367 199.041 22.6678 199 22.3348C198.93 21.7592 198.834 20.8141 198.834 19.9087C198.834 19.0032 198.93 18.0582 199 17.4826C199.041 17.1496 199.282 16.8807 199.607 16.7984L201.061 16.4302C201.348 16.3577 201.572 16.1346 201.647 15.8479L202.594 12.2288C202.685 11.8785 202.536 11.5125 202.226 11.3247C201.926 11.1417 201.469 10.9712 200.81 10.9717ZM187.19 10.9717C186.531 10.9712 186.074 11.1417 185.774 11.3247C185.479 11.5032 185.33 11.8423 185.395 12.1762L185.406 12.2288L186.353 15.8479C186.423 16.1167 186.625 16.3295 186.886 16.4149L186.94 16.4302L188.393 16.7984C188.718 16.8807 188.959 17.1496 189 17.4826C189.071 18.0582 189.166 19.0032 189.166 19.9087C189.166 20.8141 189.071 21.7592 189 22.3348C188.961 22.6503 188.743 22.9082 188.444 23.0045L188.393 23.019L186.94 23.3872C186.653 23.4602 186.428 23.6801 186.354 23.9668C186.126 24.8393 185.634 26.721 185.406 27.593C185.314 27.9425 185.463 28.3048 185.771 28.4931C186.073 28.6761 186.53 28.8475 187.19 28.8475C189.251 28.8475 191.534 27.6571 191.534 19.9096C191.534 12.162 189.25 10.9717 187.19 10.9717ZM194 18.6428C193.25 18.6428 192.643 19.2505 192.643 20.0002C192.643 20.7499 193.25 21.3577 194 21.3577C194.75 21.3577 195.357 20.7499 195.357 20.0002C195.357 19.2505 194.75 18.6428 194 18.6428Z" fill="white"/>
</svg>
