<svg width="180" height="52" viewBox="0 0 180 52" fill="none" xmlns="http://www.w3.org/2000/svg">
<g clip-path="url(#clip0_118_17010)">
<path d="M173.333 52H6.66666C2.93332 52 -8.58307e-06 49.01 -8.58307e-06 45.5V6.5C-8.58307e-06 2.86 3.06666 0 6.66666 0H173.333C177.067 0 180 2.99 180 6.5V45.5C180 49.14 176.933 52 173.333 52Z" fill="black"/>
<path d="M61.7207 13.2266C61.7207 14.264 61.4609 15.1717 60.8112 15.8201C60.0315 16.5981 59.122 16.9872 57.9525 16.9872C56.7831 16.9872 55.8735 16.5981 55.0939 15.8201C54.3142 15.042 53.9244 14.1343 53.9244 12.9672C53.9244 11.8001 54.3142 10.8924 55.0939 10.1143C55.8735 9.33629 56.7831 8.94727 57.9525 8.94727C58.4723 8.94727 58.992 9.07694 59.5118 9.33629C60.0315 9.59565 60.4213 9.855 60.6812 10.244L60.0315 10.8924C59.5118 10.244 58.8621 9.98467 57.9525 9.98467C57.1729 9.98467 56.3933 10.244 55.8735 10.8924C55.2238 11.4111 54.9639 12.1892 54.9639 13.0969C54.9639 14.0046 55.2238 14.7827 55.8735 15.3014C56.5232 15.8201 57.1729 16.2091 57.9525 16.2091C58.8621 16.2091 59.5118 15.9498 60.1615 15.3014C60.5513 14.9124 60.8112 14.3937 60.8112 13.7453H57.9525V12.7079H61.7207C61.7207 12.8375 61.7207 13.0969 61.7207 13.2266Z" fill="white" stroke="white" stroke-width="0.259352" stroke-miterlimit="10"/>
<path d="M67.6979 9.98488H64.1896V12.4487H67.438V13.3565H64.1896V15.8203H67.6979V16.8577H63.1501V9.07715H67.6979V9.98488Z" fill="white" stroke="white" stroke-width="0.259352" stroke-miterlimit="10"/>
<path d="M71.8559 16.8577H70.8164V9.98488H68.6075V9.07715H74.0649V9.98488H71.8559V16.8577Z" fill="white" stroke="white" stroke-width="0.259352" stroke-miterlimit="10"/>
<path d="M77.9631 16.8577V9.07715H79.0026V16.8577H77.9631Z" fill="white" stroke="white" stroke-width="0.259352" stroke-miterlimit="10"/>
<path d="M83.4205 16.8577H82.381V9.98488H80.172V9.07715H85.4995V9.98488H83.2905V16.8577H83.4205Z" fill="white" stroke="white" stroke-width="0.259352" stroke-miterlimit="10"/>
<path d="M95.7646 15.8201C94.985 16.5981 94.0754 16.9872 92.906 16.9872C91.7365 16.9872 90.8269 16.5981 90.0473 15.8201C89.2677 15.042 88.8779 14.1343 88.8779 12.9672C88.8779 11.8001 89.2677 10.8924 90.0473 10.1143C90.8269 9.33629 91.7365 8.94727 92.906 8.94727C94.0754 8.94727 94.985 9.33629 95.7646 10.1143C96.5442 10.8924 96.934 11.8001 96.934 12.9672C96.8041 14.1343 96.5442 15.042 95.7646 15.8201ZM90.697 15.1717C91.2168 15.6904 91.9964 16.0794 92.776 16.0794C93.5557 16.0794 94.3353 15.8201 94.855 15.1717C95.3748 14.653 95.7646 13.875 95.7646 12.9672C95.7646 12.0595 95.5047 11.2814 94.855 10.7627C94.3353 10.244 93.5557 9.855 92.776 9.855C91.9964 9.855 91.2168 10.1143 90.697 10.7627C90.1773 11.2814 89.7874 12.0595 89.7874 12.9672C89.9174 13.875 90.1773 14.653 90.697 15.1717Z" fill="white" stroke="white" stroke-width="0.259352" stroke-miterlimit="10"/>
<path d="M98.2334 16.8577V9.07715H99.4029L103.171 15.1719V13.6158V9.07715H104.211V16.8577H103.171L99.143 10.5036V12.0597V16.8577H98.2334Z" fill="white" stroke="white" stroke-width="0.259352" stroke-miterlimit="10"/>
<path d="M88.618 28.2696C85.4995 28.2696 83.0307 30.6037 83.0307 33.8456C83.0307 36.9579 85.4995 39.4217 88.618 39.4217C91.7365 39.4217 94.2054 37.0875 94.2054 33.8456C94.2054 30.4741 91.6066 28.2696 88.618 28.2696ZM88.618 37.0875C86.9288 37.0875 85.4995 35.6611 85.4995 33.716C85.4995 31.7708 86.9288 30.3444 88.618 30.3444C90.3072 30.3444 91.7365 31.6411 91.7365 33.716C91.7365 35.6611 90.3072 37.0875 88.618 37.0875ZM76.5337 28.2696C73.4152 28.2696 70.9464 30.6037 70.9464 33.8456C70.9464 36.9579 73.4152 39.4217 76.5337 39.4217C79.6523 39.4217 82.1211 37.0875 82.1211 33.8456C81.9911 30.4741 79.5223 28.2696 76.5337 28.2696ZM76.5337 37.0875C74.8445 37.0875 73.4152 35.6611 73.4152 33.716C73.4152 31.7708 74.8445 30.3444 76.5337 30.3444C78.2229 30.3444 79.6523 31.6411 79.6523 33.716C79.6523 35.6611 78.2229 37.0875 76.5337 37.0875ZM62.1106 29.9554V32.2895H67.6979C67.568 33.5863 67.0482 34.6237 66.3985 35.2721C65.6189 36.0501 64.3195 36.9579 62.1106 36.9579C58.6022 36.9579 56.0035 34.2347 56.0035 30.7334C56.0035 27.2322 58.7322 24.509 62.1106 24.509C63.9297 24.509 65.359 25.287 66.3985 26.1948L68.0877 24.509C66.6584 23.2122 64.8393 22.1748 62.2405 22.1748C57.5627 22.1748 53.5346 26.0651 53.5346 30.7334C53.5346 35.4018 57.5627 39.292 62.2405 39.292C64.8393 39.292 66.6584 38.514 68.2177 36.8282C69.7769 35.2721 70.2967 33.0676 70.2967 31.3818C70.2967 30.8631 70.2967 30.3444 70.1667 29.9554H62.1106ZM120.973 31.7708C120.453 30.4741 119.154 28.2696 116.295 28.2696C113.436 28.2696 111.097 30.4741 111.097 33.8456C111.097 36.9579 113.436 39.4217 116.555 39.4217C119.024 39.4217 120.583 37.8656 121.103 36.9579L119.283 35.6611C118.634 36.5688 117.854 37.2172 116.555 37.2172C115.255 37.2172 114.476 36.6985 113.826 35.5314L121.233 32.4192L120.973 31.7708ZM113.436 33.5863C113.436 31.5115 115.125 30.3444 116.295 30.3444C117.204 30.3444 118.114 30.8631 118.374 31.5115L113.436 33.5863ZM107.459 38.903H109.928V22.6935H107.459V38.903ZM103.431 29.4367C102.781 28.7883 101.742 28.1399 100.442 28.1399C97.7137 28.1399 95.1149 30.6037 95.1149 33.716C95.1149 36.8282 97.5838 39.1624 100.442 39.1624C101.742 39.1624 102.781 38.514 103.301 37.8656H103.431V38.6436C103.431 40.7185 102.262 41.8855 100.442 41.8855C99.0131 41.8855 97.9736 40.8481 97.7137 39.9404L95.6347 40.8481C96.2844 42.2746 97.8436 44.09 100.572 44.09C103.431 44.09 105.77 42.4043 105.77 38.3843V28.5289H103.431V29.4367ZM100.702 37.0875C99.0131 37.0875 97.5838 35.6611 97.5838 33.716C97.5838 31.7708 99.0131 30.3444 100.702 30.3444C102.391 30.3444 103.691 31.7708 103.691 33.716C103.561 35.6611 102.391 37.0875 100.702 37.0875ZM132.407 22.6935H126.56V38.903H129.029V32.8082H132.407C135.136 32.8082 137.735 30.8631 137.735 27.7509C137.735 24.6386 135.006 22.6935 132.407 22.6935ZM132.407 30.4741H128.899V24.898H132.407C134.226 24.898 135.266 26.4541 135.266 27.6212C135.266 29.0476 134.226 30.4741 132.407 30.4741ZM147.35 28.1399C145.531 28.1399 143.712 28.918 143.062 30.6037L145.271 31.5115C145.791 30.6037 146.571 30.3444 147.48 30.3444C148.78 30.3444 149.949 31.1224 150.079 32.4192V32.5489C149.689 32.2895 148.65 31.9005 147.61 31.9005C145.271 31.9005 142.932 33.1973 142.932 35.5314C142.932 37.7359 144.881 39.1624 146.96 39.1624C148.65 39.1624 149.429 38.3843 150.079 37.6062H150.209V38.903H152.548V32.6786C152.288 29.8257 150.209 28.1399 147.35 28.1399ZM147.09 37.0875C146.311 37.0875 145.141 36.6985 145.141 35.6611C145.141 34.3643 146.571 33.9753 147.74 33.9753C148.78 33.9753 149.299 34.2347 149.949 34.494C149.819 36.0501 148.52 37.0875 147.09 37.0875ZM160.864 28.5289L158.135 35.5314H158.005L155.146 28.5289H152.548L156.836 38.3843L154.367 43.8307H156.836L163.463 28.5289H160.864ZM139.034 38.903H141.503V22.6935H139.034V38.903Z" fill="white"/>
<path d="M13.6435 9.72656C13.2537 10.1156 12.9938 10.764 12.9938 11.542V40.2004C12.9938 40.9785 13.2537 41.6268 13.6435 42.0159L13.7735 42.1455L29.8858 26.0657V25.9361V25.8064L13.6435 9.72656Z" fill="url(#paint0_linear_118_17010)"/>
<path d="M35.2133 31.5117L29.8858 26.0653V25.9356V25.806L35.2133 20.4893L35.3432 20.6189L41.7102 24.2499C43.5293 25.2873 43.5293 26.9731 41.7102 28.0105L35.2133 31.5117Z" fill="url(#paint1_linear_118_17010)"/>
<path d="M35.3432 31.3819L29.8858 25.9355L13.6435 42.145C14.2932 42.7934 15.2027 42.7934 16.3722 42.2747L35.3432 31.3819Z" fill="url(#paint2_linear_118_17010)"/>
<path d="M35.3432 20.4892L16.3722 9.72608C15.2028 9.0777 14.2932 9.20738 13.6435 9.85576L29.8858 25.9356L35.3432 20.4892Z" fill="url(#paint3_linear_118_17010)"/>
<path opacity="0.2" d="M35.2133 31.252L16.3722 41.8854C15.3327 42.5338 14.4231 42.4041 13.7734 41.8854L13.6435 42.0151L13.7734 42.1447C14.4231 42.6634 15.3327 42.7931 16.3722 42.1447L35.2133 31.252Z" fill="black"/>
<path opacity="0.12" d="M13.6435 41.8858C13.2537 41.4967 12.9938 40.8484 12.9938 40.0703V40.2C12.9938 40.978 13.2537 41.6264 13.6435 42.0155V41.8858Z" fill="black"/>
<path opacity="0.12" d="M41.7102 27.6213L35.2133 31.2523L35.3432 31.3819L41.7102 27.751C42.6198 27.2323 43.0096 26.5839 43.0096 25.9355C43.0096 26.5839 42.4899 27.1026 41.7102 27.6213Z" fill="black"/>
<path opacity="0.25" d="M16.3722 9.85574L41.7102 24.2498C42.4899 24.7685 43.0096 25.2872 43.0096 25.9356C43.0096 25.2872 42.6198 24.6388 41.7102 24.1201L16.3722 9.72606C14.5531 8.68866 12.9938 9.46671 12.9938 11.5415V11.6712C12.9938 9.72606 14.5531 8.81833 16.3722 9.85574Z" fill="white"/>
</g>
<defs>
<linearGradient id="paint0_linear_118_17010" x1="28.3947" y1="11.2959" x2="6.63196" y2="33.1026" gradientUnits="userSpaceOnUse">
<stop stop-color="#00A0FF"/>
<stop offset="0.00657445" stop-color="#00A1FF"/>
<stop offset="0.2601" stop-color="#00BEFF"/>
<stop offset="0.5122" stop-color="#00D2FF"/>
<stop offset="0.7604" stop-color="#00DFFF"/>
<stop offset="1" stop-color="#00E3FF"/>
</linearGradient>
<linearGradient id="paint1_linear_118_17010" x1="44.0322" y1="25.9381" x2="12.5911" y2="25.9381" gradientUnits="userSpaceOnUse">
<stop stop-color="#FFE000"/>
<stop offset="0.4087" stop-color="#FFBD00"/>
<stop offset="0.7754" stop-color="#FFA500"/>
<stop offset="1" stop-color="#FF9C00"/>
</linearGradient>
<linearGradient id="paint2_linear_118_17010" x1="32.3281" y1="28.9137" x2="2.81614" y2="58.4854" gradientUnits="userSpaceOnUse">
<stop stop-color="#FF3A44"/>
<stop offset="1" stop-color="#C31162"/>
</linearGradient>
<linearGradient id="paint3_linear_118_17010" x1="9.55043" y1="0.229523" x2="22.7287" y2="13.4345" gradientUnits="userSpaceOnUse">
<stop stop-color="#32A071"/>
<stop offset="0.0685" stop-color="#2DA771"/>
<stop offset="0.4762" stop-color="#15CF74"/>
<stop offset="0.8009" stop-color="#06E775"/>
<stop offset="1" stop-color="#00F076"/>
</linearGradient>
<clipPath id="clip0_118_17010">
<rect width="180" height="52" fill="white"/>
</clipPath>
</defs>
</svg>
