<svg width="180" height="52" viewBox="0 0 180 52" fill="none" xmlns="http://www.w3.org/2000/svg">
<g clip-path="url(#clip0_118_17175)">
<path d="M10.2643 52C9.87085 52 9.44168 52 9.04828 52C8.29724 51.9645 7.40314 51.9289 6.50904 51.7867C5.68647 51.6446 4.93543 51.3958 4.25591 51.0403C3.54063 50.6849 2.93264 50.2228 2.36042 49.6897C1.7882 49.1565 1.35903 48.5167 0.965627 47.8059C0.607987 47.1306 0.393404 46.3841 0.250348 45.5666C0.0715279 44.6781 0.0357639 43.7539 0.0357639 43.0431C0.0357639 42.7587 0 41.8346 0 41.8346V10.1654C0 10.1654 -3.46401e-08 9.24129 0.0357639 8.95694C0.0357639 8.24607 0.107292 7.32194 0.250348 6.43336C0.429168 5.61586 0.643751 4.90499 1.00139 4.22966C1.35903 3.5188 1.82396 2.87902 2.36042 2.34586C2.93264 1.77717 3.5764 1.31511 4.29168 0.959672C4.97119 0.604238 5.72223 0.355434 6.50904 0.21326C7.40314 0.0355435 8.333 0 9.04828 0H10.2643H169.771H170.987C171.667 0 172.597 0.0710869 173.491 0.21326C174.314 0.355434 175.029 0.604238 175.744 0.959672C176.424 1.31511 177.067 1.77717 177.64 2.31032C178.176 2.84347 178.641 3.48325 179.034 4.19412C179.392 4.86945 179.607 5.61586 179.75 6.39781C179.893 7.25085 179.964 8.1039 180 8.92139C180 9.31237 180 9.70335 180 10.1299C180 10.6275 180 11.1251 180 11.5872V40.3773C180 40.8749 180 41.337 180 41.8346C180 42.2611 180 42.6876 180 43.0786C179.964 43.8606 179.928 44.7491 179.785 45.5666C179.642 46.3841 179.392 47.1306 179.07 47.8059C178.712 48.5167 178.248 49.121 177.711 49.6541C177.139 50.2228 176.531 50.6849 175.816 51.0403C175.1 51.3958 174.385 51.6446 173.562 51.7867C172.704 51.9289 171.81 52 171.023 52C170.63 52 170.201 52 169.807 52H168.341H10.2643Z" fill="black"/>
<path d="M66 35.4443H59.6552L58.0956 39.6892H55.2954L61.4984 23.877H64.1214L70.4662 39.6892H67.5242L66 35.4443ZM60.4705 33.3218H65.2202L63.5188 28.794C63.2707 28.1572 63.058 27.4851 62.8453 26.7069C62.6326 27.379 62.42 28.0511 62.1718 28.7586L60.4705 33.3218Z" fill="white"/>
<path d="M71.6359 30.81C71.6359 29.9256 71.6004 28.9705 71.565 27.9447H74.1171C74.2234 28.4399 74.2943 28.9351 74.3297 29.4304C75.3931 28.2984 76.5983 27.7324 77.9452 27.7324C78.725 27.7324 79.4694 27.9447 80.1428 28.3338C80.8163 28.7229 81.348 29.3596 81.7733 30.2086C82.1987 31.0576 82.3759 32.1542 82.3759 33.463C82.3759 34.8426 82.1278 36.01 81.667 37.0004C81.2062 37.9909 80.5327 38.6984 79.682 39.229C78.8313 39.7243 77.8743 39.9719 76.74 39.9719C75.9248 39.9719 75.145 39.8304 74.3652 39.5828V44.4644L71.6713 44.712V30.81H71.6359ZM78.7604 36.8236C79.3276 36.0807 79.5757 35.0195 79.5757 33.5692C79.5757 32.2603 79.363 31.3052 78.9022 30.7039C78.4414 30.1025 77.8389 29.8195 77.0945 29.8195C76.5628 29.8195 76.0666 29.9256 75.6412 30.1732C75.1804 30.4209 74.7905 30.7392 74.3652 31.1637V37.4957C74.6487 37.6372 74.9323 37.7433 75.3222 37.8141C75.6767 37.8848 76.0311 37.9202 76.3856 37.9202C77.4135 37.9202 78.1933 37.5664 78.7604 36.8236Z" fill="white"/>
<path d="M83.971 30.81C83.971 29.9256 83.9355 28.9705 83.9001 27.9447H86.4522C86.5585 28.4399 86.6294 28.9351 86.6649 29.4304C87.7282 28.2984 88.9334 27.7324 90.2803 27.7324C91.0601 27.7324 91.8045 27.9447 92.478 28.3338C93.1514 28.7229 93.6831 29.3596 94.1085 30.2086C94.5338 31.0576 94.711 32.1542 94.711 33.463C94.711 34.8426 94.4629 36.01 94.0021 37.0004C93.5413 37.9909 92.8679 38.6984 92.0172 39.229C91.1665 39.7243 90.2094 39.9719 89.0752 39.9719C88.2599 39.9719 87.4801 39.8304 86.7003 39.5828V44.4644L84.0064 44.712V30.81H83.971ZM91.0956 36.8236C91.6627 36.0807 91.9108 35.0195 91.9108 33.5692C91.9108 32.2603 91.6982 31.3052 91.2374 30.7039C90.7766 30.1025 90.174 29.8195 89.4296 29.8195C88.8979 29.8195 88.4017 29.9256 87.9763 30.1732C87.5156 30.4209 87.1257 30.7392 86.7003 31.1637V37.4957C86.9839 37.6372 87.2674 37.7433 87.6573 37.8141C88.0118 37.8848 88.3663 37.9202 88.7207 37.9202C89.7486 37.9202 90.5284 37.5664 91.0956 36.8236Z" fill="white"/>
<path d="M99.638 38.9465C98.4683 38.3097 97.5822 37.39 96.9442 36.1873C96.3061 34.9846 95.9871 33.5696 95.9871 31.9424C95.9871 30.1737 96.3416 28.6526 97.0859 27.4145C97.7949 26.1764 98.7873 25.2567 100.028 24.6199C101.269 23.9832 102.651 23.7002 104.211 23.7002C105.132 23.7002 105.983 23.8063 106.834 23.9832C107.649 24.1954 108.429 24.4431 109.137 24.7968L108.464 26.8839C107.011 26.1764 105.628 25.8226 104.352 25.8226C103.254 25.8226 102.296 26.0703 101.446 26.5301C100.631 26.99 99.9571 27.6975 99.4963 28.5818C99.0355 29.5016 98.8228 30.5982 98.8228 31.8716C98.8228 33.0036 99 33.9941 99.3545 34.8784C99.7089 35.7628 100.276 36.4349 101.02 36.9655C101.765 37.4607 102.757 37.7437 103.892 37.7437C104.423 37.7437 104.955 37.7084 105.451 37.6022C105.983 37.5315 106.479 37.39 106.94 37.2131V34.0294H103.289V31.9424H109.563V38.5927C108.641 39.0172 107.72 39.3356 106.727 39.5478C105.735 39.7601 104.742 39.9016 103.75 39.9016C102.19 39.9016 100.808 39.5832 99.638 38.9465Z" fill="white"/>
<path d="M119.204 39.6891C119.098 39.2292 119.062 38.6986 119.027 38.1326C118.601 38.6279 118.07 39.0524 117.396 39.4061C116.723 39.7599 115.978 39.9367 115.128 39.9367C114.454 39.9367 113.816 39.7952 113.285 39.5476C112.717 39.2646 112.292 38.8755 111.938 38.3449C111.619 37.8143 111.441 37.1422 111.441 36.3993C111.441 35.2673 111.867 34.3476 112.682 33.6755C113.497 33.0034 114.88 32.6496 116.794 32.6496C117.503 32.6496 118.247 32.685 118.956 32.7911V32.5435C118.956 31.5177 118.743 30.7748 118.282 30.3503C117.822 29.9258 117.184 29.7136 116.368 29.7136C115.801 29.7136 115.163 29.7843 114.525 29.9612C113.852 30.1381 113.285 30.315 112.788 30.5626L112.363 28.5816C112.859 28.3694 113.462 28.1571 114.277 27.9803C115.057 27.8034 115.908 27.6973 116.758 27.6973C117.786 27.6973 118.637 27.8388 119.346 28.1571C120.055 28.4755 120.622 29.0061 121.012 29.749C121.402 30.4918 121.614 31.5177 121.614 32.7911V37.4605C121.614 37.9558 121.65 38.6986 121.685 39.6891H119.204ZM117.574 37.4959C118.141 37.2129 118.601 36.8945 118.956 36.5054V34.3122C118.212 34.2415 117.609 34.2061 117.148 34.2061C116.049 34.2061 115.27 34.383 114.844 34.7367C114.419 35.0905 114.206 35.5857 114.206 36.1871C114.206 36.753 114.348 37.2129 114.667 37.4959C114.986 37.7789 115.411 37.9204 115.943 37.9204C116.475 37.9204 117.006 37.7789 117.574 37.4959Z" fill="white"/>
<path d="M123.706 36.8594V22.9574L126.4 22.7451V36.3995C126.4 36.8948 126.47 37.2485 126.648 37.4608C126.825 37.673 127.073 37.7791 127.463 37.7791C127.64 37.7791 127.853 37.7438 128.172 37.673L128.491 39.6186C128.243 39.7247 127.924 39.7955 127.569 39.8662C127.215 39.937 126.86 39.9723 126.541 39.9723C124.663 39.9016 123.706 38.9111 123.706 36.8594Z" fill="white"/>
<path d="M130.44 36.8594V22.9574L133.134 22.7451V36.3995C133.134 36.8948 133.205 37.2485 133.382 37.4608C133.56 37.673 133.808 37.7791 134.198 37.7791C134.375 37.7791 134.588 37.7438 134.907 37.673L135.226 39.6186C134.977 39.7247 134.658 39.7955 134.304 39.8662C133.95 39.937 133.595 39.9723 133.276 39.9723C131.397 39.9016 130.44 38.9111 130.44 36.8594Z" fill="white"/>
<path d="M146.32 34.1356H138.593C138.699 36.6118 139.904 37.8499 142.137 37.8499C142.705 37.8499 143.272 37.7791 143.839 37.6376C144.406 37.4961 144.973 37.3193 145.505 37.107L146.107 38.9465C144.796 39.5832 143.307 39.9016 141.641 39.9016C140.401 39.9016 139.337 39.6539 138.451 39.1941C137.6 38.7342 136.927 38.0267 136.502 37.1424C136.076 36.258 135.864 35.1968 135.864 33.9233C135.864 32.6145 136.076 31.4825 136.537 30.5628C136.998 29.6077 137.636 28.9002 138.451 28.405C139.266 27.9097 140.223 27.6621 141.287 27.6621C142.386 27.6621 143.343 27.9097 144.087 28.4403C144.831 28.971 145.399 29.6431 145.753 30.5274C146.107 31.4118 146.285 32.3669 146.285 33.3927V34.1356H146.32ZM143.662 32.4376C143.626 31.4825 143.378 30.8104 142.953 30.3152C142.527 29.8553 141.96 29.6077 141.251 29.6077C140.578 29.6077 140.011 29.8553 139.55 30.3152C139.089 30.775 138.806 31.4825 138.664 32.4376H143.662Z" fill="white"/>
<path d="M148.34 30.8809C148.34 30.2442 148.305 29.2537 148.27 27.9095H150.786C150.822 28.2279 150.857 28.617 150.928 29.0769C150.963 29.5367 150.999 29.8905 150.999 30.1735C151.318 29.6428 151.637 29.2184 151.921 28.8646C152.24 28.5109 152.594 28.2279 152.984 28.0156C153.374 27.8034 153.835 27.6973 154.366 27.6973C154.792 27.6973 155.146 27.7326 155.43 27.8388L155.075 30.1735C154.827 30.1027 154.508 30.0673 154.189 30.0673C153.551 30.0673 152.984 30.2442 152.523 30.5626C152.062 30.8809 151.531 31.4116 150.999 32.1544V39.7245H148.305V30.8809H148.34Z" fill="white"/>
<path d="M156.954 44.4999C156.564 44.4291 156.245 44.3584 155.997 44.2523L156.493 42.2713C156.67 42.3067 156.918 42.3774 157.166 42.4128C157.45 42.4482 157.698 42.4835 157.946 42.4835C159.151 42.4835 160.038 41.7053 160.64 40.1842L160.817 39.7597L156.458 27.874H159.364L161.562 34.5244C161.916 35.6563 162.164 36.5407 162.235 37.142C162.448 36.2931 162.696 35.4441 162.944 34.5951L165.177 27.9094H167.907L163.547 39.8305C163.121 40.9625 162.696 41.8822 162.235 42.5543C161.774 43.2618 161.207 43.757 160.569 44.1108C159.931 44.4291 159.151 44.606 158.23 44.606C157.769 44.606 157.344 44.5706 156.954 44.4999Z" fill="white"/>
<path d="M55.2954 8.80859H60.116L59.9742 9.97594H56.7132V12.2399H59.797V13.3365H56.7132V15.8127H60.1514L60.0451 16.98H55.2954V8.80859Z" fill="white"/>
<path d="M63.4479 12.8059L60.8958 8.80859H62.4908L64.2277 11.7446L66.0354 8.80859H67.595L65.0784 12.7705L67.8077 16.98H66.1772L64.2277 13.761L62.2427 16.98H60.6831L63.4479 12.8059Z" fill="white"/>
<path d="M68.8357 8.80859H71.0333C72.0612 8.80859 72.8765 9.02084 73.4082 9.44533C73.9753 9.86982 74.2234 10.4712 74.2234 11.2848C74.2234 11.8154 74.1171 12.3106 73.869 12.6998C73.6208 13.0889 73.2664 13.4072 72.841 13.6195C72.4157 13.8317 71.884 13.9378 71.3169 13.9378C70.9979 13.9378 70.6434 13.9025 70.2535 13.8317V16.98H68.8357V8.80859ZM72.3802 12.4521C72.6638 12.1691 72.841 11.78 72.841 11.2848C72.841 10.7895 72.6993 10.4358 72.3802 10.1882C72.0612 9.97594 71.6359 9.86982 71.0333 9.86982H70.2535V12.7705C70.608 12.8412 70.8915 12.8412 71.0687 12.8412C71.6359 12.8766 72.0967 12.7351 72.3802 12.4521Z" fill="white"/>
<path d="M75.6412 8.80859H77.059V15.7773H80.4264L80.3201 16.98H75.6412V8.80859Z" fill="white"/>
<path d="M82.5886 16.5906C81.986 16.2368 81.5252 15.777 81.2062 15.1402C80.8872 14.5389 80.7454 13.796 80.7454 12.9824C80.7454 12.1334 80.9227 11.3552 81.2417 10.7185C81.5961 10.0817 82.0569 9.5865 82.6949 9.23276C83.333 8.87902 84.0773 8.70215 84.928 8.70215C85.7433 8.70215 86.4522 8.87902 87.0548 9.19739C87.6574 9.55113 88.1181 10.011 88.4017 10.6477C88.7207 11.2491 88.8625 11.9919 88.8625 12.8056C88.8625 13.6899 88.6853 14.4328 88.3663 15.1049C88.0118 15.7416 87.551 16.2368 86.913 16.5906C86.275 16.9443 85.5306 17.1212 84.6799 17.1212C83.9001 17.0858 83.1912 16.909 82.5886 16.5906ZM86.2395 15.5647C86.6294 15.3171 86.913 14.928 87.1257 14.4681C87.3383 14.0083 87.4092 13.4777 87.4092 12.8763C87.4092 12.2749 87.3383 11.7797 87.1611 11.3198C86.9839 10.86 86.7003 10.5062 86.3459 10.2232C85.956 9.94024 85.4597 9.79875 84.8926 9.79875C84.3255 9.79875 83.8292 9.94024 83.4393 10.2232C83.0494 10.5062 82.7304 10.86 82.5532 11.3198C82.3405 11.7797 82.2696 12.3103 82.2696 12.8409C82.2696 13.4423 82.3759 13.9729 82.5532 14.4328C82.7304 14.8926 83.014 15.2817 83.4039 15.5294C83.7938 15.8124 84.2546 15.9185 84.8571 15.9185C85.3534 15.9892 85.8496 15.8477 86.2395 15.5647Z" fill="white"/>
<path d="M90.493 8.80859H93.0451C93.9667 8.80859 94.6756 8.98546 95.1719 9.37458C95.6681 9.7637 95.8808 10.2943 95.8808 10.9664C95.8808 11.3909 95.8099 11.78 95.6326 12.0984C95.4554 12.4168 95.2427 12.6998 94.9946 12.912C94.7465 13.1242 94.4629 13.2657 94.2148 13.3719L96.7315 16.98H95.101L92.9742 13.761H91.9463V16.98H90.5285V8.80859H90.493ZM92.6907 12.6644C93.0451 12.6644 93.3287 12.5936 93.6122 12.4521C93.8604 12.3106 94.073 12.1338 94.2148 11.8861C94.3566 11.6385 94.4275 11.3555 94.4275 11.0372C94.4275 10.6127 94.2857 10.3297 94.0376 10.1528C93.7895 9.97594 93.3996 9.86982 92.9033 9.86982H91.8754V12.6644H92.6907Z" fill="white"/>
<path d="M97.8303 8.80859H102.651L102.509 9.97594H99.2481V12.2399H102.332V13.3365H99.2481V15.8127H102.686L102.58 16.98H97.8303V8.80859Z" fill="white"/>
<path d="M107.861 8.80859H109.279V16.98H107.861V8.80859Z" fill="white"/>
<path d="M113.001 9.97594H110.449L110.591 8.80859H116.971L116.829 9.97594H114.419V16.98H113.001V9.97594Z" fill="white"/>
<path d="M123.103 16.5906C122.5 16.2368 122.04 15.777 121.721 15.1402C121.402 14.5389 121.26 13.796 121.26 12.9824C121.26 12.1334 121.437 11.3552 121.756 10.7185C122.075 10.0817 122.571 9.5865 123.209 9.23276C123.847 8.87902 124.592 8.70215 125.442 8.70215C126.258 8.70215 126.967 8.87902 127.569 9.19739C128.172 9.55113 128.633 10.011 128.916 10.6477C129.235 11.2491 129.377 11.9919 129.377 12.8056C129.377 13.6899 129.2 14.4328 128.881 15.1049C128.526 15.7416 128.065 16.2368 127.427 16.5906C126.789 16.9443 126.045 17.1212 125.194 17.1212C124.415 17.0858 123.706 16.909 123.103 16.5906ZM126.754 15.5647C127.144 15.3171 127.427 14.928 127.64 14.4681C127.853 14.0083 127.924 13.4777 127.924 12.8763C127.924 12.2749 127.853 11.7797 127.676 11.3198C127.498 10.86 127.215 10.5062 126.86 10.2232C126.47 9.94024 125.974 9.79875 125.407 9.79875C124.84 9.79875 124.344 9.94024 123.954 10.2232C123.564 10.5062 123.245 10.86 123.068 11.3198C122.855 11.7797 122.784 12.3103 122.784 12.8409C122.784 13.4423 122.89 13.9729 123.068 14.4328C123.245 14.8926 123.528 15.2817 123.918 15.5294C124.308 15.8124 124.804 15.9185 125.372 15.9185C125.868 15.9892 126.364 15.8477 126.754 15.5647Z" fill="white"/>
<path d="M131.007 8.80859H132.638L136.679 15.1406C136.643 14.5392 136.643 13.9732 136.643 13.478V8.80859H137.955V16.98H136.395L132.284 10.5419C132.319 11.2848 132.354 11.9215 132.354 12.4875V16.98H131.043V8.80859H131.007Z" fill="white"/>
<path fill-rule="evenodd" clip-rule="evenodd" d="M35.4458 8.84375H20.4522C13.3631 8.84375 10.7755 11.4261 10.7755 18.5009V33.4995C10.7755 40.5744 13.3631 43.1567 20.4522 43.1567H35.4458C42.5349 43.1567 45.1225 40.5744 45.1225 33.4995V18.5009C45.1225 11.4261 42.5349 8.84375 35.4458 8.84375Z" fill="#C8102E"/>
<path d="M17.5811 26.0002H18.5027V30.4927H17.5811V28.6533H15.5253V30.4574H14.6037V26.0002H15.5253V27.8043H17.5811V26.0002ZM22.7208 28.5472C22.7208 29.29 22.3663 29.6791 21.6928 29.6791C21.0194 29.6791 20.6649 29.29 20.6649 28.5472V26.0002H19.7433V28.5472C19.7433 29.8206 20.4522 30.5281 21.6574 30.5281C22.898 30.5281 23.6069 29.7853 23.6069 28.5118V26.0002H22.6853V28.5472H22.7208ZM33.2482 29.0778L32.2202 26.0002H31.4759L30.4479 29.0778L29.4555 26.0002H28.4984L30.058 30.4927H30.8024L31.8303 27.5567L32.8582 30.4927H33.6026L35.1622 26.0002H34.2052L33.2482 29.0778ZM36.7927 28.5472H38.4587V27.7336H36.7927V26.8138H39.203V26.0002H35.9066V30.4574H39.3094V29.6438H36.8282V28.5472H36.7927ZM40.3728 30.4574H41.2589V26.0002H40.3728V30.4574ZM25.4146 29.5376L24.9893 30.4574H24.0677L26.0527 25.9648H26.8679L28.8529 30.4574H27.8958L27.5059 29.5376H25.4146ZM25.7691 28.724H27.1515L26.478 27.1322L25.7691 28.724Z" fill="white"/>
<path d="M27.9313 20.3046C24.7766 20.3046 22.2245 17.7577 22.2245 14.6094H23.0398C23.0398 17.2978 25.2374 19.491 27.9313 19.491C30.6252 19.491 32.8228 17.2978 32.8228 14.6094H33.6735C33.6735 17.7223 31.086 20.3046 27.9313 20.3046Z" fill="white"/>
</g>
<defs>
<clipPath id="clip0_118_17175">
<rect width="180" height="52" fill="white"/>
</clipPath>
</defs>
</svg>
