<svg width="312" height="260" viewBox="0 0 312 260" fill="none" xmlns="http://www.w3.org/2000/svg">
<g clip-path="url(#clip0_639_10983)">
<rect x="22" y="42" width="267" height="197" rx="18" fill="#ECFBFF" stroke="#E6F6FA" stroke-width="2"/>
<path d="M62.4957 128.3L62.2957 119.34H65.1757L64.9957 128.3H62.4957ZM62.3557 133V130.06H65.1357V133H62.3557ZM72.1487 133C71.0153 133 70.082 132.82 69.3487 132.46C68.6153 132.1 68.0687 131.553 67.7087 130.82C67.362 130.087 67.1887 129.16 67.1887 128.04C67.1887 126.92 67.362 125.987 67.7087 125.24C68.0687 124.48 68.6153 123.913 69.3487 123.54C70.082 123.153 71.0153 122.96 72.1487 122.96H76.6687V131.74H73.9887V124.7L74.6487 125.28H72.1487C71.602 125.28 71.162 125.347 70.8287 125.48C70.4953 125.6 70.2487 125.86 70.0887 126.26C69.942 126.647 69.8687 127.24 69.8687 128.04C69.8687 128.8 69.9353 129.373 70.0687 129.76C70.2153 130.133 70.4553 130.38 70.7887 130.5C71.122 130.62 71.5753 130.68 72.1487 130.68H78.7687V133H72.1487ZM78.7687 133V130.68C78.9287 130.68 79.0353 130.787 79.0887 131C79.142 131.2 79.1687 131.48 79.1687 131.84C79.1687 132.187 79.142 132.467 79.0887 132.68C79.0353 132.893 78.9287 133 78.7687 133ZM83.5515 133V130.68H85.6515V133H83.5515ZM78.7715 133V130.68H82.4315L80.8715 131.98V122.96H83.5515V133H78.7715ZM78.7715 133C78.6115 133 78.5048 132.893 78.4515 132.68C78.3982 132.467 78.3715 132.187 78.3715 131.84C78.3715 131.48 78.3982 131.2 78.4515 131C78.5048 130.787 78.6115 130.68 78.7715 130.68V133ZM85.6515 133V130.68C85.8115 130.68 85.9182 130.787 85.9715 131C86.0248 131.2 86.0515 131.48 86.0515 131.84C86.0515 132.187 86.0248 132.467 85.9715 132.68C85.9182 132.893 85.8115 133 85.6515 133ZM80.8715 121.12V118.84H83.5515V121.12H80.8715ZM89.4065 132.68C88.7265 132.04 88.2132 131.36 87.8665 130.64C87.5332 129.92 87.3665 129.153 87.3665 128.34C87.3665 127.553 87.5132 126.833 87.8065 126.18C88.0998 125.513 88.4998 124.94 89.0065 124.46C89.5132 123.98 90.0998 123.613 90.7665 123.36C91.4465 123.093 92.1598 122.96 92.9065 122.96C93.3065 122.96 93.7265 123 94.1665 123.08C94.6065 123.16 95.0265 123.267 95.4265 123.4L94.6265 125.58C94.3465 125.487 94.0665 125.413 93.7865 125.36C93.5198 125.307 93.2598 125.28 93.0065 125.28C92.4198 125.28 91.8998 125.413 91.4465 125.68C90.9932 125.933 90.6398 126.287 90.3865 126.74C90.1465 127.193 90.0265 127.713 90.0265 128.3C90.0265 129.393 90.4532 130.313 91.3065 131.06L89.4065 132.68ZM85.6465 133V130.68H95.6065V133H85.6465ZM85.6465 133C85.4865 133 85.3798 132.893 85.3265 132.68C85.2732 132.467 85.2465 132.187 85.2465 131.84C85.2465 131.48 85.2732 131.2 85.3265 131C85.3798 130.787 85.4865 130.68 85.6465 130.68V133ZM117.104 133V130.68H119.204V133H117.104ZM108.944 133C106.798 133 105.164 132.587 104.044 131.76C102.924 130.92 102.364 129.68 102.364 128.04C102.364 127.72 102.384 127.387 102.424 127.04C102.464 126.68 102.511 126.34 102.564 126.02C102.631 125.687 102.691 125.393 102.744 125.14C102.798 124.887 102.838 124.7 102.864 124.58L105.464 125.08C105.424 125.293 105.371 125.567 105.304 125.9C105.238 126.233 105.178 126.587 105.124 126.96C105.071 127.32 105.044 127.667 105.044 128C105.044 128.693 105.191 129.24 105.484 129.64C105.778 130.027 106.224 130.3 106.824 130.46C107.424 130.607 108.178 130.68 109.084 130.68H114.424V122.96H117.104V133H108.944ZM119.204 133V130.68C119.364 130.68 119.471 130.787 119.524 131C119.578 131.2 119.604 131.48 119.604 131.84C119.604 132.187 119.578 132.467 119.524 132.68C119.471 132.893 119.364 133 119.204 133ZM108.584 119.48V117.48H110.904V119.48H108.584ZM106.644 122.54V120.26H109.224V122.54H106.644ZM110.284 122.54V120.26H112.864V122.54H110.284ZM129.561 133V130.68H131.681V133H129.561ZM119.201 133V130.68H127.801L126.901 131.42V127.72C126.901 126.92 126.648 126.313 126.141 125.9C125.648 125.487 124.861 125.28 123.781 125.28C123.475 125.28 123.055 125.307 122.521 125.36C121.988 125.4 121.408 125.467 120.781 125.56L120.521 123.44C121.095 123.307 121.675 123.193 122.261 123.1C122.861 123.007 123.448 122.96 124.021 122.96C125.115 122.96 126.075 123.153 126.901 123.54C127.728 123.913 128.375 124.453 128.841 125.16C129.321 125.867 129.561 126.72 129.561 127.72V133H119.201ZM119.201 133C119.041 133 118.935 132.893 118.881 132.68C118.828 132.467 118.801 132.187 118.801 131.84C118.801 131.48 118.828 131.2 118.881 131C118.935 130.787 119.041 130.68 119.201 130.68V133ZM131.681 133V130.68C131.828 130.68 131.928 130.787 131.981 131C132.048 131.2 132.081 131.48 132.081 131.84C132.081 132.187 132.048 132.467 131.981 132.68C131.928 132.893 131.828 133 131.681 133ZM136.462 133V130.68H138.562V133H136.462ZM131.682 133V130.68H135.342L133.782 131.98V122.96H136.462V133H131.682ZM131.682 133C131.522 133 131.415 132.893 131.362 132.68C131.308 132.467 131.282 132.187 131.282 131.84C131.282 131.48 131.308 131.2 131.362 131C131.415 130.787 131.522 130.68 131.682 130.68V133ZM138.562 133V130.68C138.722 130.68 138.828 130.787 138.882 131C138.935 131.2 138.962 131.48 138.962 131.84C138.962 132.187 138.935 132.467 138.882 132.68C138.828 132.893 138.722 133 138.562 133ZM133.782 137.26V134.98H136.462V137.26H133.782ZM138.557 133V130.68H143.297L141.737 131.98V122.96H144.397V133H138.557ZM138.557 133C138.397 133 138.29 132.893 138.237 132.68C138.183 132.467 138.157 132.187 138.157 131.84C138.157 131.48 138.183 131.2 138.237 131C138.29 130.787 138.397 130.68 138.557 130.68V133ZM139.357 121.76V119.48H142.037V121.76H139.357ZM142.097 121.76V119.48H144.777V121.76H142.097ZM148.349 133V130.68H150.629V133H148.349ZM145.689 133V118.86H148.349V133H145.689ZM150.629 133V130.68C150.789 130.68 150.895 130.787 150.949 131C151.002 131.2 151.029 131.48 151.029 131.84C151.029 132.187 151.002 132.467 150.949 132.68C150.895 132.893 150.789 133 150.629 133ZM150.627 133V130.68H161.007L159.787 131.72V128.04C159.787 127.32 159.707 126.76 159.547 126.36C159.387 125.947 159.107 125.66 158.707 125.5C158.32 125.327 157.78 125.24 157.087 125.24C156.54 125.24 156 125.28 155.467 125.36C154.947 125.427 154.54 125.52 154.247 125.64L155.907 124.08C155.827 124.387 155.747 124.773 155.667 125.24C155.6 125.707 155.54 126.207 155.487 126.74C155.434 127.26 155.407 127.773 155.407 128.28C155.407 128.747 155.427 129.233 155.467 129.74C155.52 130.247 155.574 130.693 155.627 131.08C155.694 131.467 155.747 131.733 155.787 131.88L153.247 132.58C153.194 132.393 153.127 132.087 153.047 131.66C152.967 131.233 152.894 130.727 152.827 130.14C152.774 129.553 152.747 128.933 152.747 128.28C152.747 127.613 152.78 126.973 152.847 126.36C152.914 125.733 152.987 125.173 153.067 124.68C153.16 124.173 153.247 123.767 153.327 123.46C153.647 123.34 154.147 123.22 154.827 123.1C155.507 122.98 156.26 122.92 157.087 122.92C158.287 122.92 159.28 123.087 160.067 123.42C160.867 123.753 161.46 124.293 161.847 125.04C162.247 125.787 162.447 126.793 162.447 128.06V133H150.627ZM150.627 133C150.467 133 150.36 132.893 150.307 132.68C150.254 132.467 150.227 132.187 150.227 131.84C150.227 131.48 150.254 131.2 150.307 131C150.36 130.787 150.467 130.68 150.627 130.68V133ZM172.665 133V130.68H174.945V133H172.665ZM170.005 133V118.86H172.665V133H170.005ZM174.945 133V130.68C175.105 130.68 175.212 130.787 175.265 131C175.318 131.2 175.345 131.48 175.345 131.84C175.345 132.187 175.318 132.467 175.265 132.68C175.212 132.893 175.105 133 174.945 133ZM174.943 133V130.68H178.603L177.043 131.98V122.96H179.723V133H174.943ZM174.943 133C174.783 133 174.677 132.893 174.623 132.68C174.57 132.467 174.543 132.187 174.543 131.84C174.543 131.48 174.57 131.2 174.623 131C174.677 130.787 174.783 130.68 174.943 130.68V133ZM177.043 121.12V118.84H179.723V121.12H177.043ZM190.094 133V130.68H192.194V133H190.094ZM181.974 133V130.68H189.234L187.414 132.26V128.9C187.414 127.953 187.314 127.22 187.114 126.7C186.927 126.18 186.607 125.813 186.154 125.6C185.714 125.387 185.107 125.28 184.334 125.28H182.714V122.96H184.334C185.56 122.96 186.6 123.16 187.454 123.56C188.32 123.96 188.974 124.6 189.414 125.48C189.867 126.347 190.094 127.487 190.094 128.9V133H181.974ZM192.194 133V130.68C192.354 130.68 192.46 130.787 192.514 131C192.567 131.2 192.594 131.48 192.594 131.84C192.594 132.187 192.567 132.467 192.514 132.68C192.46 132.893 192.354 133 192.194 133ZM192.189 133V130.68H200.789L199.889 131.42V127.72C199.889 126.92 199.636 126.313 199.129 125.9C198.636 125.487 197.849 125.28 196.769 125.28C196.463 125.28 196.043 125.307 195.509 125.36C194.976 125.4 194.396 125.467 193.769 125.56L193.509 123.44C194.083 123.307 194.663 123.193 195.249 123.1C195.849 123.007 196.436 122.96 197.009 122.96C198.103 122.96 199.063 123.153 199.889 123.54C200.716 123.913 201.363 124.453 201.829 125.16C202.309 125.867 202.549 126.72 202.549 127.72V133H192.189ZM192.189 133C192.029 133 191.923 132.893 191.869 132.68C191.816 132.467 191.789 132.187 191.789 131.84C191.789 131.48 191.816 131.2 191.869 131C191.923 130.787 192.029 130.68 192.189 130.68V133ZM196.049 137.26V134.98H198.729V137.26H196.049ZM208.632 137.96C208.139 137.96 207.619 137.92 207.072 137.84C206.539 137.773 205.965 137.68 205.352 137.56L205.752 135.42C206.419 135.5 206.985 135.56 207.452 135.6C207.919 135.64 208.312 135.66 208.632 135.66C209.592 135.66 210.285 135.487 210.712 135.14C211.139 134.793 211.352 134.273 211.352 133.58V124.8L212.012 125.28H209.512C208.965 125.28 208.525 125.347 208.192 125.48C207.859 125.6 207.612 125.86 207.452 126.26C207.305 126.647 207.232 127.24 207.232 128.04C207.232 128.8 207.299 129.373 207.432 129.76C207.579 130.133 207.819 130.38 208.152 130.5C208.485 130.62 208.939 130.68 209.512 130.68H211.352V133H209.512C208.379 133 207.445 132.82 206.712 132.46C205.979 132.1 205.432 131.553 205.072 130.82C204.725 130.087 204.552 129.16 204.552 128.04C204.552 126.92 204.725 125.987 205.072 125.24C205.432 124.48 205.979 123.913 206.712 123.54C207.445 123.153 208.379 122.96 209.512 122.96H214.032V133.58C214.032 134.487 213.805 135.267 213.352 135.92C212.912 136.587 212.285 137.093 211.472 137.44C210.672 137.787 209.725 137.96 208.632 137.96ZM228.688 133V130.68H230.788V133H228.688ZM220.568 133V130.68H227.828L226.008 132.26V128.9C226.008 127.953 225.908 127.22 225.708 126.7C225.521 126.18 225.201 125.813 224.748 125.6C224.308 125.387 223.701 125.28 222.928 125.28H221.308V122.96H222.928C224.154 122.96 225.194 123.16 226.048 123.56C226.914 123.96 227.568 124.6 228.008 125.48C228.461 126.347 228.688 127.487 228.688 128.9V133H220.568ZM230.788 133V130.68C230.948 130.68 231.054 130.787 231.108 131C231.161 131.2 231.188 131.48 231.188 131.84C231.188 132.187 231.161 132.467 231.108 132.68C231.054 132.893 230.948 133 230.788 133ZM241.983 133V130.68H244.083V133H241.983ZM230.783 133V130.68H240.123L239.303 131.38V124.7L239.983 125.28H237.463C236.877 125.28 236.417 125.353 236.083 125.5C235.75 125.647 235.517 125.92 235.383 126.32C235.25 126.707 235.183 127.26 235.183 127.98C235.183 128.767 235.25 129.353 235.383 129.74C235.517 130.113 235.75 130.367 236.083 130.5C236.417 130.62 236.877 130.68 237.463 130.68V132.76C236.33 132.76 235.397 132.6 234.663 132.28C233.93 131.96 233.383 131.453 233.023 130.76C232.677 130.053 232.503 129.127 232.503 127.98C232.503 126.887 232.677 125.967 233.023 125.22C233.383 124.473 233.93 123.913 234.663 123.54C235.397 123.153 236.33 122.96 237.463 122.96H241.983V133H230.783ZM230.783 133C230.623 133 230.517 132.893 230.463 132.68C230.41 132.467 230.383 132.187 230.383 131.84C230.383 131.48 230.41 131.2 230.463 131C230.517 130.787 230.623 130.68 230.783 130.68V133ZM244.083 133V130.68C244.243 130.68 244.35 130.787 244.403 131C244.457 131.2 244.483 131.48 244.483 131.84C244.483 132.187 244.457 132.467 244.403 132.68C244.35 132.893 244.243 133 244.083 133ZM235.423 121.76V119.48H238.103V121.76H235.423ZM238.163 121.76V119.48H240.843V121.76H238.163ZM245.817 133V118.86H248.497V133H245.817ZM243.557 133V130.68H245.817V133H243.557ZM243.557 133C243.397 133 243.29 132.893 243.237 132.68C243.183 132.467 243.157 132.187 243.157 131.84C243.157 131.48 243.183 131.2 243.237 131C243.29 130.787 243.397 130.68 243.557 130.68V133Z" fill="#2C2FFE"/>
<g filter="url(#filter0_d_639_10983)">
<rect x="29" y="157" width="253" height="75" rx="12" fill="white"/>
</g>
<path d="M137.683 189V187.144H139.363V189H137.683ZM131.187 189V187.144H136.995L135.539 188.408V185.72C135.539 184.963 135.459 184.376 135.299 183.96C135.15 183.544 134.894 183.251 134.531 183.08C134.179 182.909 133.694 182.824 133.075 182.824H131.779V180.968H133.075C134.056 180.968 134.888 181.128 135.571 181.448C136.264 181.768 136.787 182.28 137.139 182.984C137.502 183.677 137.683 184.589 137.683 185.72V189H131.187ZM139.363 189V187.144C139.491 187.144 139.576 187.229 139.619 187.4C139.662 187.56 139.683 187.784 139.683 188.072C139.683 188.349 139.662 188.573 139.619 188.744C139.576 188.915 139.491 189 139.363 189ZM148.815 189V187.144H150.511V189H148.815ZM139.359 189V187.144H147.663L146.687 187.976V185.032C146.687 184.456 146.623 184.008 146.495 183.688C146.367 183.357 146.143 183.128 145.823 183C145.514 182.861 145.082 182.792 144.527 182.792C144.09 182.792 143.658 182.824 143.231 182.888C142.815 182.941 142.49 183.016 142.255 183.112L143.583 181.864C143.519 182.109 143.455 182.419 143.391 182.792C143.338 183.165 143.29 183.565 143.247 183.992C143.205 184.408 143.183 184.819 143.183 185.224C143.183 185.597 143.199 185.987 143.231 186.392C143.274 186.797 143.317 187.155 143.359 187.464C143.413 187.773 143.455 187.987 143.487 188.104L141.455 188.664C141.413 188.515 141.359 188.269 141.295 187.928C141.231 187.587 141.173 187.181 141.119 186.712C141.077 186.243 141.055 185.747 141.055 185.224C141.055 184.691 141.082 184.179 141.135 183.688C141.189 183.187 141.247 182.739 141.311 182.344C141.386 181.939 141.455 181.613 141.519 181.368C141.775 181.272 142.175 181.176 142.719 181.08C143.263 180.984 143.866 180.936 144.527 180.936C145.487 180.936 146.282 181.069 146.911 181.336C147.551 181.603 148.026 182.035 148.335 182.632C148.655 183.229 148.815 184.035 148.815 185.048V189H139.359ZM139.359 189C139.231 189 139.146 188.915 139.103 188.744C139.061 188.573 139.039 188.349 139.039 188.072C139.039 187.784 139.061 187.56 139.103 187.4C139.146 187.229 139.231 187.144 139.359 187.144V189ZM150.511 189V187.144C150.639 187.144 150.725 187.229 150.767 187.4C150.81 187.56 150.831 187.784 150.831 188.072C150.831 188.349 150.81 188.573 150.767 188.744C150.725 188.915 150.639 189 150.511 189ZM150.516 189V187.144H157.396L156.676 187.736V184.776C156.676 184.136 156.473 183.651 156.068 183.32C155.673 182.989 155.044 182.824 154.18 182.824C153.934 182.824 153.598 182.845 153.172 182.888C152.745 182.92 152.281 182.973 151.78 183.048L151.572 181.352C152.03 181.245 152.494 181.155 152.964 181.08C153.444 181.005 153.913 180.968 154.372 180.968C155.246 180.968 156.014 181.123 156.676 181.432C157.337 181.731 157.854 182.163 158.228 182.728C158.612 183.293 158.804 183.976 158.804 184.776V189H150.516ZM150.516 189C150.388 189 150.302 188.915 150.26 188.744C150.217 188.573 150.196 188.349 150.196 188.072C150.196 187.784 150.217 187.56 150.26 187.4C150.302 187.229 150.388 187.144 150.516 187.144V189ZM161.206 189V177.688H163.334V189H161.206ZM175.402 189V187.144H177.082V189H175.402ZM168.906 189V187.144H174.714L173.258 188.408V185.72C173.258 184.963 173.178 184.376 173.018 183.96C172.868 183.544 172.612 183.251 172.25 183.08C171.898 182.909 171.412 182.824 170.794 182.824H169.498V180.968H170.794C171.775 180.968 172.607 181.128 173.29 181.448C173.983 181.768 174.506 182.28 174.858 182.984C175.22 183.677 175.402 184.589 175.402 185.72V189H168.906ZM177.082 189V187.144C177.21 187.144 177.295 187.229 177.338 187.4C177.38 187.56 177.402 187.784 177.402 188.072C177.402 188.349 177.38 188.573 177.338 188.744C177.295 188.915 177.21 189 177.082 189ZM181.75 189V187.144H183.75V189H181.75ZM183.75 189V187.144C183.878 187.144 183.963 187.229 184.006 187.4C184.049 187.56 184.07 187.784 184.07 188.072C184.07 188.349 184.049 188.573 184.006 188.744C183.963 188.915 183.878 189 183.75 189ZM177.078 189V187.144H180.87L179.622 188.184V180.968H181.75V189H177.078ZM177.078 189C176.95 189 176.865 188.915 176.822 188.744C176.779 188.573 176.758 188.349 176.758 188.072C176.758 187.784 176.779 187.56 176.822 187.4C176.865 187.229 176.95 187.144 177.078 187.144V189ZM177.718 192.328V190.504H179.862V192.328H177.718ZM179.91 192.328V190.504H182.054V192.328H179.91ZM195.205 189V187.144H196.901V189H195.205ZM191.189 189C190.752 189 190.315 188.92 189.877 188.76C189.451 188.589 189.056 188.339 188.693 188.008L190.005 186.648C190.219 186.819 190.416 186.947 190.597 187.032C190.789 187.107 190.987 187.144 191.189 187.144H194.181L193.077 188.152V184.6C193.077 184.429 193.056 184.173 193.013 183.832C192.981 183.48 192.928 183.085 192.853 182.648C192.789 182.2 192.709 181.747 192.613 181.288L194.725 180.968C194.8 181.352 194.869 181.784 194.933 182.264C195.008 182.733 195.072 183.181 195.125 183.608C195.179 184.024 195.205 184.355 195.205 184.6V189H191.189ZM181.781 189V187.144H184.117L183.637 187.64V182.6H185.781V189H181.781ZM185.781 189V187.144H187.077C187.419 187.144 187.68 187.096 187.861 187C188.043 186.893 188.165 186.685 188.229 186.376C188.304 186.056 188.341 185.581 188.341 184.952V181.8H190.485V184.952C190.485 185.901 190.363 186.675 190.117 187.272C189.883 187.869 189.515 188.307 189.013 188.584C188.512 188.861 187.867 189 187.077 189H185.781ZM181.781 189C181.653 189 181.568 188.915 181.525 188.744C181.483 188.573 181.461 188.349 181.461 188.072C181.461 187.784 181.483 187.56 181.525 187.4C181.568 187.229 181.653 187.144 181.781 187.144V189ZM196.901 189V187.144C197.029 187.144 197.115 187.229 197.157 187.4C197.2 187.56 197.221 187.784 197.221 188.072C197.221 188.349 197.2 188.573 197.157 188.744C197.115 188.915 197.029 189 196.901 189ZM198.714 189V177.688H200.858V189H198.714ZM196.906 189V187.144H198.714V189H196.906ZM196.906 189C196.778 189 196.693 188.915 196.65 188.744C196.608 188.573 196.586 188.349 196.586 188.072C196.586 187.784 196.608 187.56 196.65 187.4C196.693 187.229 196.778 187.144 196.906 187.144V189ZM203.424 189V177.688H205.552V189H203.424Z" fill="black"/>
<path opacity="0.7" d="M87.8389 210.68V207.64H84.9109V206.312H87.8389V203.32H89.1669V206.312H92.1269V207.64H89.1669V210.68H87.8389ZM94.8084 211V200.44H100.952V201.768H95.4644L96.2964 200.952V211H94.8084ZM102.796 206.6V204.936H104.46V206.6H102.796ZM111.058 211V200.44H112.546V211H111.058ZM116.199 211V200.44H122.343V201.768H116.855L117.687 200.952V211H116.199ZM130.426 205.88C129.946 205.88 129.498 205.8 129.082 205.64C128.677 205.469 128.33 205.235 128.042 204.936L129.146 204.008C129.317 204.2 129.504 204.339 129.706 204.424C129.909 204.509 130.144 204.552 130.41 204.552C130.805 204.552 131.088 204.445 131.258 204.232C131.44 204.008 131.53 203.613 131.53 203.048V200.44H133.018V203.048C133.018 203.645 132.917 204.157 132.714 204.584C132.522 205.011 132.234 205.336 131.85 205.56C131.466 205.773 130.992 205.88 130.426 205.88ZM124.65 210.984V200.44H126.138V210.984H124.65ZM127.002 205.88C126.597 205.88 126.213 205.821 125.85 205.704C125.488 205.576 125.178 205.4 124.922 205.176L125.866 204.152C126.026 204.291 126.192 204.392 126.362 204.456C126.544 204.52 126.752 204.552 126.986 204.552C127.381 204.552 127.664 204.445 127.834 204.232C128.016 204.008 128.106 203.613 128.106 203.048V200.44H129.578V203.048C129.578 203.645 129.477 204.157 129.274 204.584C129.082 205.011 128.794 205.336 128.41 205.56C128.026 205.773 127.557 205.88 127.002 205.88ZM135.071 207.304V205.976H139.903V207.304H135.071ZM145.226 206.376C144.533 206.376 143.914 206.253 143.37 206.008C142.837 205.763 142.416 205.411 142.106 204.952C141.808 204.483 141.658 203.933 141.658 203.304C141.658 202.653 141.808 202.099 142.106 201.64C142.416 201.181 142.837 200.829 143.37 200.584C143.904 200.328 144.506 200.2 145.178 200.2C145.53 200.2 145.882 200.232 146.234 200.296C146.586 200.349 146.933 200.419 147.274 200.504L147.018 201.784C146.624 201.709 146.282 201.651 145.994 201.608C145.706 201.555 145.434 201.528 145.178 201.528C144.549 201.528 144.053 201.688 143.69 202.008C143.338 202.317 143.162 202.749 143.162 203.304C143.162 203.859 143.338 204.291 143.69 204.6C144.053 204.899 144.565 205.048 145.226 205.048V206.376ZM145.178 211.24C144.506 211.24 143.904 211.117 143.37 210.872C142.837 210.616 142.416 210.253 142.106 209.784C141.808 209.315 141.658 208.765 141.658 208.136C141.658 207.496 141.808 206.947 142.106 206.488C142.416 206.029 142.837 205.677 143.37 205.432C143.914 205.176 144.533 205.048 145.226 205.048V206.376C144.565 206.376 144.053 206.531 143.69 206.84C143.338 207.149 143.162 207.581 143.162 208.136C143.162 208.701 143.338 209.139 143.69 209.448C144.053 209.747 144.549 209.896 145.178 209.896C145.434 209.896 145.706 209.875 145.994 209.832C146.282 209.779 146.624 209.72 147.018 209.656L147.274 210.936C146.933 211.011 146.586 211.08 146.234 211.144C145.882 211.208 145.53 211.24 145.178 211.24ZM145.226 206.376V205.048H146.282V206.376H145.226ZM153.847 211.064C153.282 211.064 152.738 210.973 152.215 210.792C151.703 210.6 151.239 210.317 150.823 209.944C150.407 209.571 150.077 209.112 149.831 208.568C149.597 208.013 149.479 207.373 149.479 206.648C149.479 206.179 149.533 205.667 149.639 205.112C149.757 204.557 149.927 204.003 150.151 203.448C150.386 202.893 150.674 202.387 151.015 201.928C151.367 201.459 151.778 201.085 152.247 200.808C152.717 200.52 153.25 200.376 153.847 200.376C154.445 200.376 154.978 200.515 155.447 200.792C155.927 201.069 156.338 201.443 156.679 201.912C157.031 202.371 157.319 202.877 157.543 203.432C157.778 203.987 157.949 204.547 158.055 205.112C158.162 205.667 158.215 206.179 158.215 206.648C158.215 207.373 158.093 208.013 157.847 208.568C157.613 209.112 157.287 209.571 156.871 209.944C156.466 210.317 156.002 210.6 155.479 210.792C154.957 210.973 154.413 211.064 153.847 211.064ZM153.847 209.736C154.434 209.736 154.941 209.613 155.367 209.368C155.805 209.123 156.141 208.76 156.375 208.28C156.621 207.8 156.743 207.213 156.743 206.52C156.743 205.933 156.658 205.357 156.487 204.792C156.327 204.216 156.109 203.699 155.831 203.24C155.565 202.781 155.255 202.413 154.903 202.136C154.562 201.848 154.21 201.704 153.847 201.704C153.495 201.704 153.143 201.848 152.791 202.136C152.45 202.413 152.141 202.787 151.863 203.256C151.597 203.715 151.378 204.232 151.207 204.808C151.047 205.373 150.967 205.944 150.967 206.52C150.967 207.203 151.085 207.784 151.319 208.264C151.565 208.744 151.901 209.112 152.327 209.368C152.765 209.613 153.271 209.736 153.847 209.736ZM163.92 211V200.792L165.04 201.768H159.808V200.44H165.392V211H163.92ZM168.227 207.304V205.976H173.059V207.304H168.227ZM178.062 211L174.607 200.44H176.159L179.215 210.392L178.062 209.672H179.807L178.927 210.408L182.095 200.44H183.631L180.063 211H178.062ZM188.172 200.44H190.172L193.74 211H192.204L189.036 201.032L189.916 201.768H188.172L189.324 201.048L186.268 211H184.716L188.172 200.44ZM199.689 211V200.888L200.713 201.768H198.713C197.839 201.768 197.183 201.944 196.745 202.296C196.308 202.648 196.089 203.155 196.089 203.816C196.089 204.477 196.271 204.979 196.633 205.32C196.996 205.651 197.535 205.816 198.249 205.816C198.516 205.816 198.783 205.8 199.049 205.768C199.327 205.725 199.599 205.667 199.865 205.592L200.233 206.904C199.935 206.968 199.604 207.027 199.241 207.08C198.889 207.123 198.559 207.144 198.249 207.144C197.385 207.144 196.687 206.984 196.153 206.664C195.62 206.344 195.225 205.933 194.969 205.432C194.724 204.92 194.601 204.381 194.601 203.816C194.601 203.123 194.761 202.525 195.081 202.024C195.412 201.523 195.887 201.133 196.505 200.856C197.124 200.579 197.86 200.44 198.713 200.44H201.177V211H199.689ZM204.061 206.6V204.936H205.725V206.6H204.061Z" fill="black"/>
<path fill-rule="evenodd" clip-rule="evenodd" d="M244.5 220C258.583 220 270 208.583 270 194.5C270 180.417 258.583 169 244.5 169C230.417 169 219 180.417 219 194.5C219 208.583 230.417 220 244.5 220ZM244.5 218C257.479 218 268 207.479 268 194.5C268 181.521 257.479 171 244.5 171C231.521 171 221 181.521 221 194.5C221 207.479 231.521 218 244.5 218Z" fill="#2C2FFE"/>
<path d="M244.5 217.5C236.017 217.5 228.605 212.907 224.618 206.07C226.517 202.073 229.587 198.738 233.384 196.511C234.161 197.553 235.156 198.441 236.325 199.103L239.825 201.081C242.726 202.72 246.274 202.72 249.175 201.081L252.675 199.103C253.844 198.441 254.839 197.553 255.616 196.511C259.413 198.738 262.483 202.073 264.382 206.07C260.395 212.907 252.984 217.5 244.5 217.5Z" fill="#2C2FFE" stroke="#2C2FFE"/>
<path d="M235.686 198.096C234.834 197.473 234.107 196.711 233.529 195.851C232.333 196.52 231.204 197.296 230.156 198.164C227.572 200.305 225.475 203.011 224.054 206.094C224.436 206.765 224.85 207.416 225.293 208.044C226.174 209.29 227.172 210.447 228.273 211.498C228.836 212.036 229.426 212.546 230.04 213.026C230.349 207.404 232.409 202.248 235.686 198.096Z" fill="#494CFF"/>
<path d="M235 175L235 189.2C235 192.218 236.435 195.057 238.865 196.848V196.848C242.216 199.317 246.784 199.317 250.135 196.848V196.848C252.565 195.057 254 192.218 254 189.2V175" stroke="#2C2FFE" stroke-width="2"/>
<path d="M235 182.312C234.458 181.519 234.019 181 233 181C231.343 181 230 182.371 230 184.062C230 185.754 231.874 188 233.53 188C234.351 188 234.59 187.449 235 186.688" stroke="#2C2FFE" stroke-width="2"/>
<path d="M252.988 181.704C257.586 180.586 261 176.442 261 171.5C261 165.701 256.299 161 250.5 161C245.181 161 240.786 164.954 240.095 170.084C239.065 169.399 237.829 169 236.5 169C232.91 169 230 171.91 230 175.5C230 178.926 232.65 181.732 236.012 181.982C236.004 181.61 236 181.219 236 180.809C236 177.541 239.654 176.07 241.552 177.278C242.17 177.672 243.141 177.943 243.797 177.615C245.582 176.72 248.388 176.273 250.92 177.81C252.338 178.671 252.901 180.126 252.988 181.704Z" fill="#2C2FFE"/>
<path d="M254 182.312C254.542 181.519 254.981 181 256 181C257.657 181 259 182.371 259 184.062C259 185.754 257.126 188 255.47 188C254.649 188 254.41 187.449 254 186.688" stroke="#2C2FFE" stroke-width="2"/>
<circle cx="240" cy="184" r="1" fill="#2C2FFE"/>
<circle cx="249" cy="184" r="1" fill="#2C2FFE"/>
<path d="M242 181.326C241.333 180.993 239.6 180.626 238 181.826" stroke="#2C2FFE" stroke-width="1.5" stroke-linecap="round" stroke-linejoin="round"/>
<path d="M247 181.326C247.667 180.993 249.4 180.626 251 181.826" stroke="#2C2FFE" stroke-width="1.5" stroke-linecap="round" stroke-linejoin="round"/>
<path d="M243 187C243.5 187.333 244.8 187.8 246 187" stroke="#2C2FFE" stroke-width="1.5" stroke-linecap="round" stroke-linejoin="round"/>
<path d="M236 175H235V189.2C235 192.218 236.435 195.057 238.865 196.848C242.216 199.317 246.784 199.317 250.135 196.848C252.565 195.057 254 192.218 254 189.2V175H253V187.219C253 188.827 251.845 190.204 250.261 190.483C246.45 191.156 242.55 191.156 238.739 190.483C237.155 190.204 236 188.827 236 187.219V175Z" fill="#2C2FFE"/>
<ellipse cx="244.5" cy="192.5" rx="6.5" ry="3.5" fill="#2C2FFE"/>
<path d="M242.189 191C241.58 191 241.106 191.552 241.383 192.094C241.963 193.226 243.141 194 244.5 194C245.859 194 247.037 193.226 247.617 192.094C247.894 191.552 247.42 191 246.811 191H242.189Z" fill="white"/>
<circle cx="154.088" cy="84.0881" r="12" transform="rotate(17.7579 154.088 84.0881)" fill="#FB5B29"/>
<path fill-rule="evenodd" clip-rule="evenodd" d="M161.126 93.809L147.806 87.1476L142.087 84.2874C142.066 83.0116 142.249 81.7108 142.66 80.4282C144.681 74.1165 151.437 70.6386 157.748 72.6599C164.06 74.6812 167.538 81.4364 165.517 87.7481C164.705 90.283 163.129 92.3609 161.126 93.809Z" fill="#DD4C1F"/>
<path d="M137.12 33.0465C144.288 20.0688 158.691 20.5452 164.997 22.4056C171.211 24.5546 183.211 32.5343 181.507 47.2615C179.376 65.6705 177.047 80.9231 179.105 86.1071C179.569 87.2766 180.215 88.2996 180.855 89.2347C183.688 93.3708 178.527 94.9904 173.138 93.2647L145.173 84.3086L117.207 75.3525C111.818 73.6267 108.558 69.3101 113.267 67.5891C114.331 67.2 115.451 66.7425 116.508 66.0603C121.195 63.036 128.16 49.2685 137.12 33.0465Z" fill="#FB5B29"/>
<path fill-rule="evenodd" clip-rule="evenodd" d="M164.997 22.4056C158.691 20.5452 144.288 20.0688 137.12 33.0465C135.739 35.5468 134.405 37.9889 133.12 40.3423C126.067 53.2573 120.472 63.5021 116.508 66.0603C115.451 66.7425 114.331 67.2 113.267 67.5891C108.558 69.3101 111.818 73.6267 117.207 75.3525L118.887 75.8904C123.296 70.4382 128.857 60.256 135.472 48.1423C137.035 45.2801 138.657 42.31 140.337 39.269C148.038 25.3257 162.607 24.1521 171.187 25.6279C168.955 24.0779 166.747 23.0106 164.997 22.4056Z" fill="#FB6D41"/>
<circle cx="168.316" cy="15.3161" r="9" transform="rotate(17.7579 168.316 15.3161)" fill="#FB5B29"/>
<path fill-rule="evenodd" clip-rule="evenodd" d="M163.827 23.1185C162.519 20.967 162.116 18.2818 162.944 15.6959C164.46 10.9621 169.527 8.35365 174.261 9.86966C174.88 10.068 175.463 10.3272 176.005 10.6385C174.919 8.85155 173.209 7.43281 171.061 6.74497C166.327 5.22896 161.261 7.83745 159.745 12.5712C158.427 16.6855 160.225 21.0511 163.827 23.1185Z" fill="#FB6D41"/>
<path d="M149.418 15.316C146.681 15.6645 139.1 17.367 133.872 24.5128" stroke="#FB5B29" stroke-width="3" stroke-linecap="round" stroke-linejoin="round"/>
<path d="M141.568 10.702C139.261 11.4507 136.448 12.7429 133.784 14.9509" stroke="#FB5B29" stroke-width="3" stroke-linecap="round" stroke-linejoin="round"/>
<path d="M181.798 25.6858C183.823 27.5594 189.004 33.3488 189.108 42.2025" stroke="#FB5B29" stroke-width="3" stroke-linecap="round" stroke-linejoin="round"/>
<path d="M190.867 26.4904C192.31 28.44 193.849 31.126 194.735 34.4706" stroke="#FB5B29" stroke-width="3" stroke-linecap="round" stroke-linejoin="round"/>
</g>
<defs>
<filter id="filter0_d_639_10983" x="19" y="157" width="273" height="95" filterUnits="userSpaceOnUse" color-interpolation-filters="sRGB">
<feFlood flood-opacity="0" result="BackgroundImageFix"/>
<feColorMatrix in="SourceAlpha" type="matrix" values="0 0 0 0 0 0 0 0 0 0 0 0 0 0 0 0 0 0 127 0" result="hardAlpha"/>
<feOffset dy="10"/>
<feGaussianBlur stdDeviation="5"/>
<feComposite in2="hardAlpha" operator="out"/>
<feColorMatrix type="matrix" values="0 0 0 0 0.2975 0 0 0 0 0.299321 0 0 0 0 0.425 0 0 0 0.1 0"/>
<feBlend mode="normal" in2="BackgroundImageFix" result="effect1_dropShadow_639_10983"/>
<feBlend mode="normal" in="SourceGraphic" in2="effect1_dropShadow_639_10983" result="shape"/>
</filter>
<clipPath id="clip0_639_10983">
<rect width="312" height="260" fill="white"/>
</clipPath>
</defs>
</svg>
