<svg width="312" height="260" viewBox="0 0 312 260" fill="none" xmlns="http://www.w3.org/2000/svg">
<g clip-path="url(#clip0_18_730)">
<rect x="22" y="42" width="267" height="197" rx="18" fill="#ECFBFF" stroke="#E6F6FA" stroke-width="2"/>
<path d="M106.053 133L103.733 119.34H106.513L108.193 130.34H108.673L110.753 119.48H113.853L115.973 130.34H116.453L118.033 119.34H120.833L118.553 133H114.173L112.233 122.16H112.333L110.373 133H106.053ZM125.836 133.22C124.729 133.22 123.849 133.033 123.196 132.66C122.556 132.287 122.096 131.72 121.816 130.96C121.536 130.2 121.396 129.247 121.396 128.1C121.396 126.86 121.569 125.847 121.916 125.06C122.276 124.273 122.796 123.693 123.476 123.32C124.156 122.933 124.996 122.74 125.996 122.74C127.476 122.74 128.589 123.113 129.336 123.86C130.096 124.607 130.476 125.787 130.476 127.4L130.356 128.88H124.076C124.089 129.627 124.242 130.187 124.536 130.56C124.829 130.933 125.336 131.12 126.056 131.12C126.469 131.12 126.922 131.113 127.416 131.1C127.909 131.073 128.396 131.047 128.876 131.02C129.369 130.993 129.789 130.967 130.136 130.94L130.196 132.8C129.862 132.853 129.442 132.913 128.936 132.98C128.429 133.047 127.902 133.1 127.356 133.14C126.822 133.193 126.316 133.22 125.836 133.22ZM124.076 127.18H127.816C127.816 126.273 127.669 125.64 127.376 125.28C127.096 124.92 126.636 124.74 125.996 124.74C125.369 124.74 124.889 124.927 124.556 125.3C124.236 125.673 124.076 126.3 124.076 127.18ZM137 133V125.18H136V122.96H137V122.38C137 121.433 137.087 120.687 137.26 120.14C137.447 119.593 137.76 119.207 138.2 118.98C138.64 118.753 139.233 118.64 139.98 118.64C140.193 118.64 140.447 118.653 140.74 118.68C141.047 118.693 141.34 118.713 141.62 118.74C141.9 118.767 142.113 118.793 142.26 118.82L142.24 120.86C142.027 120.86 141.787 120.86 141.52 120.86C141.267 120.847 141.047 120.84 140.86 120.84C140.567 120.84 140.327 120.887 140.14 120.98C139.967 121.073 139.84 121.227 139.76 121.44C139.693 121.653 139.66 121.96 139.66 122.36V122.96H142.06V125.18H139.66V133H137ZM147.619 133.22C146.486 133.22 145.573 133.033 144.879 132.66C144.199 132.287 143.706 131.713 143.399 130.94C143.093 130.153 142.939 129.14 142.939 127.9C142.939 126.7 143.099 125.727 143.419 124.98C143.739 124.22 144.246 123.66 144.939 123.3C145.633 122.927 146.526 122.74 147.619 122.74C148.726 122.74 149.619 122.927 150.299 123.3C150.993 123.66 151.499 124.22 151.819 124.98C152.153 125.727 152.319 126.7 152.319 127.9C152.319 129.14 152.166 130.153 151.859 130.94C151.553 131.713 151.053 132.287 150.359 132.66C149.679 133.033 148.766 133.22 147.619 133.22ZM147.619 131.02C148.179 131.02 148.599 130.92 148.879 130.72C149.159 130.507 149.346 130.173 149.439 129.72C149.546 129.253 149.599 128.647 149.599 127.9C149.599 127.167 149.539 126.587 149.419 126.16C149.299 125.72 149.099 125.407 148.819 125.22C148.539 125.033 148.139 124.94 147.619 124.94C147.113 124.94 146.713 125.033 146.419 125.22C146.139 125.407 145.939 125.72 145.819 126.16C145.699 126.587 145.639 127.167 145.639 127.9C145.639 128.647 145.686 129.253 145.779 129.72C145.886 130.173 146.079 130.507 146.359 130.72C146.639 130.92 147.059 131.02 147.619 131.02ZM157.339 133.22C156.472 133.22 155.799 133.04 155.319 132.68C154.852 132.307 154.519 131.747 154.319 131C154.132 130.253 154.039 129.313 154.039 128.18V122.96H156.699V128.06C156.699 128.767 156.732 129.327 156.799 129.74C156.879 130.153 157.032 130.447 157.259 130.62C157.486 130.793 157.812 130.88 158.239 130.88C158.652 130.88 159.039 130.827 159.399 130.72C159.759 130.613 160.046 130.507 160.259 130.4V122.96H162.919V133H160.279V132.38C159.826 132.633 159.372 132.84 158.919 133C158.479 133.147 157.952 133.22 157.339 133.22ZM165.116 133V122.96H167.776V123.6C167.989 123.467 168.249 123.34 168.556 123.22C168.862 123.087 169.182 122.973 169.516 122.88C169.862 122.787 170.196 122.74 170.516 122.74C171.449 122.74 172.169 122.907 172.676 123.24C173.196 123.56 173.562 124.093 173.776 124.84C173.989 125.573 174.096 126.56 174.096 127.8V133H171.416V127.94C171.416 127.247 171.376 126.693 171.296 126.28C171.216 125.853 171.062 125.547 170.836 125.36C170.609 125.173 170.276 125.08 169.836 125.08C169.596 125.08 169.342 125.107 169.076 125.16C168.822 125.2 168.576 125.26 168.336 125.34C168.109 125.42 167.922 125.5 167.776 125.58V133H165.116ZM179.55 133.22C179.07 133.22 178.63 133.16 178.23 133.04C177.83 132.933 177.477 132.76 177.17 132.52C176.877 132.267 176.624 131.94 176.41 131.54C176.21 131.14 176.057 130.653 175.95 130.08C175.844 129.493 175.79 128.813 175.79 128.04C175.79 126.893 175.93 125.927 176.21 125.14C176.504 124.353 176.964 123.76 177.59 123.36C178.217 122.947 179.05 122.74 180.09 122.74C180.397 122.74 180.757 122.767 181.17 122.82C181.597 122.86 181.937 122.9 182.19 122.94V118.86H184.87V133H182.23L182.21 132.42C182.024 132.527 181.777 132.647 181.47 132.78C181.177 132.9 180.864 133 180.53 133.08C180.197 133.173 179.87 133.22 179.55 133.22ZM180.23 130.98C180.47 130.98 180.71 130.953 180.95 130.9C181.204 130.847 181.437 130.787 181.65 130.72C181.877 130.64 182.057 130.567 182.19 130.5V125.12C182.07 125.093 181.91 125.073 181.71 125.06C181.51 125.033 181.304 125.013 181.09 125C180.877 124.973 180.684 124.96 180.51 124.96C179.99 124.96 179.584 125.08 179.29 125.32C179.01 125.56 178.81 125.913 178.69 126.38C178.57 126.833 178.51 127.387 178.51 128.04C178.51 128.613 178.55 129.093 178.63 129.48C178.71 129.853 178.824 130.153 178.97 130.38C179.13 130.593 179.317 130.747 179.53 130.84C179.744 130.933 179.977 130.98 180.23 130.98ZM191.424 133V122.96H194.084V133H191.424ZM191.424 121.36V119.08H194.104V121.36H191.424ZM199.827 133.24C199.094 133.24 198.5 133.133 198.047 132.92C197.594 132.707 197.267 132.34 197.067 131.82C196.88 131.287 196.787 130.547 196.787 129.6V125.18H195.607V122.96H196.787V120.3H199.447V122.96H202.007V125.18H199.447V128.9C199.447 129.42 199.467 129.827 199.507 130.12C199.56 130.413 199.667 130.62 199.827 130.74C199.987 130.86 200.234 130.92 200.567 130.92C200.66 130.92 200.8 130.913 200.987 130.9C201.174 130.887 201.36 130.873 201.547 130.86C201.734 130.847 201.887 130.833 202.007 130.82L202.087 132.96C201.767 133.013 201.38 133.073 200.927 133.14C200.487 133.207 200.12 133.24 199.827 133.24ZM203.795 128.3L203.595 119.34H206.475L206.295 128.3H203.795ZM203.655 133V130.06H206.435V133H203.655Z" fill="#2C2FFE"/>
<g filter="url(#filter0_d_18_730)">
<rect x="29" y="157" width="253" height="75" rx="12" fill="white"/>
</g>
<path d="M109.248 189.16C108.331 189.16 107.573 189.043 106.976 188.808C106.379 188.563 105.909 188.205 105.568 187.736C105.237 187.256 105.003 186.669 104.864 185.976C104.725 185.272 104.656 184.461 104.656 183.544C104.656 182.573 104.731 181.736 104.88 181.032C105.04 180.317 105.296 179.731 105.648 179.272C106.011 178.803 106.48 178.456 107.056 178.232C107.643 177.997 108.363 177.88 109.216 177.88C109.653 177.88 110.107 177.907 110.576 177.96C111.056 178.003 111.509 178.061 111.936 178.136C112.373 178.211 112.736 178.285 113.024 178.36L112.992 180.088C112.693 180.035 112.331 179.987 111.904 179.944C111.488 179.901 111.061 179.869 110.624 179.848C110.187 179.816 109.792 179.8 109.44 179.8C108.907 179.8 108.469 179.869 108.128 180.008C107.797 180.147 107.541 180.371 107.36 180.68C107.189 180.979 107.072 181.368 107.008 181.848C106.944 182.317 106.912 182.883 106.912 183.544C106.912 184.387 106.971 185.091 107.088 185.656C107.216 186.211 107.456 186.621 107.808 186.888C108.171 187.155 108.688 187.288 109.36 187.288C109.531 187.288 109.712 187.283 109.904 187.272C110.107 187.261 110.299 187.245 110.48 187.224C110.672 187.203 110.832 187.181 110.96 187.16V184.776H109.664V183.096H113.056V188.744C112.821 188.776 112.539 188.819 112.208 188.872C111.877 188.915 111.531 188.957 111.168 189C110.816 189.043 110.469 189.08 110.128 189.112C109.797 189.144 109.504 189.16 109.248 189.16ZM114.755 189V180.968H116.883V181.912C117.064 181.773 117.288 181.629 117.555 181.48C117.822 181.32 118.11 181.176 118.419 181.048C118.739 180.909 119.043 180.819 119.331 180.776V182.84C119.054 182.883 118.76 182.957 118.451 183.064C118.142 183.16 117.848 183.267 117.571 183.384C117.304 183.501 117.075 183.608 116.883 183.704V189H114.755ZM122.539 189.176C121.707 189.176 121.077 188.968 120.651 188.552C120.235 188.125 120.027 187.485 120.027 186.632C120.027 186.035 120.133 185.571 120.347 185.24C120.56 184.899 120.875 184.653 121.291 184.504C121.717 184.344 122.235 184.248 122.843 184.216L124.795 184.04V183.56C124.795 183.176 124.699 182.909 124.507 182.76C124.315 182.6 124.032 182.52 123.659 182.52C123.36 182.52 123.013 182.531 122.619 182.552C122.235 182.573 121.851 182.6 121.467 182.632C121.093 182.664 120.768 182.696 120.491 182.728L120.427 181.224C120.704 181.16 121.035 181.096 121.419 181.032C121.813 180.957 122.224 180.899 122.651 180.856C123.077 180.813 123.472 180.792 123.835 180.792C124.517 180.792 125.088 180.877 125.547 181.048C126.005 181.219 126.352 181.501 126.587 181.896C126.821 182.28 126.939 182.803 126.939 183.464V187.128C126.96 187.277 127.04 187.395 127.179 187.48C127.317 187.555 127.477 187.608 127.659 187.64L127.611 189.112C127.355 189.123 127.104 189.128 126.859 189.128C126.613 189.128 126.405 189.112 126.235 189.08C125.989 189.048 125.776 188.984 125.595 188.888C125.424 188.792 125.285 188.691 125.179 188.584C125.008 188.659 124.779 188.744 124.491 188.84C124.203 188.936 123.888 189.016 123.547 189.08C123.216 189.144 122.88 189.176 122.539 189.176ZM123.051 187.592C123.253 187.592 123.467 187.571 123.691 187.528C123.915 187.485 124.123 187.437 124.315 187.384C124.517 187.32 124.677 187.261 124.795 187.208V185.368L123.163 185.512C122.811 185.544 122.555 185.651 122.395 185.832C122.245 186.003 122.171 186.248 122.171 186.568C122.171 186.888 122.24 187.139 122.379 187.32C122.528 187.501 122.752 187.592 123.051 187.592ZM128.818 189V177.688H130.946V181.256C131.212 181.16 131.554 181.059 131.97 180.952C132.386 180.845 132.77 180.792 133.122 180.792C133.868 180.792 134.45 180.925 134.866 181.192C135.282 181.448 135.57 181.869 135.73 182.456C135.9 183.043 135.986 183.821 135.986 184.792V189H133.842V184.952C133.842 184.397 133.81 183.955 133.746 183.624C133.682 183.283 133.559 183.037 133.378 182.888C133.207 182.739 132.94 182.664 132.578 182.664C132.29 182.664 131.991 182.701 131.682 182.776C131.383 182.851 131.138 182.92 130.946 182.984V189H128.818ZM139.757 189.176C138.925 189.176 138.296 188.968 137.869 188.552C137.453 188.125 137.245 187.485 137.245 186.632C137.245 186.035 137.352 185.571 137.565 185.24C137.779 184.899 138.093 184.653 138.509 184.504C138.936 184.344 139.453 184.248 140.061 184.216L142.013 184.04V183.56C142.013 183.176 141.917 182.909 141.725 182.76C141.533 182.6 141.251 182.52 140.877 182.52C140.579 182.52 140.232 182.531 139.837 182.552C139.453 182.573 139.069 182.6 138.685 182.632C138.312 182.664 137.987 182.696 137.709 182.728L137.645 181.224C137.923 181.16 138.253 181.096 138.637 181.032C139.032 180.957 139.443 180.899 139.869 180.856C140.296 180.813 140.691 180.792 141.053 180.792C141.736 180.792 142.307 180.877 142.765 181.048C143.224 181.219 143.571 181.501 143.805 181.896C144.04 182.28 144.157 182.803 144.157 183.464V187.128C144.179 187.277 144.259 187.395 144.397 187.48C144.536 187.555 144.696 187.608 144.877 187.64L144.829 189.112C144.573 189.123 144.323 189.128 144.077 189.128C143.832 189.128 143.624 189.112 143.453 189.08C143.208 189.048 142.995 188.984 142.813 188.888C142.643 188.792 142.504 188.691 142.397 188.584C142.227 188.659 141.997 188.744 141.709 188.84C141.421 188.936 141.107 189.016 140.765 189.08C140.435 189.144 140.099 189.176 139.757 189.176ZM140.269 187.592C140.472 187.592 140.685 187.571 140.909 187.528C141.133 187.485 141.341 187.437 141.533 187.384C141.736 187.32 141.896 187.261 142.013 187.208V185.368L140.381 185.512C140.029 185.544 139.773 185.651 139.613 185.832C139.464 186.003 139.389 186.248 139.389 186.568C139.389 186.888 139.459 187.139 139.597 187.32C139.747 187.501 139.971 187.592 140.269 187.592ZM146.036 189V180.968H148.164V181.48C148.41 181.331 148.74 181.181 149.156 181.032C149.572 180.872 149.967 180.792 150.34 180.792C150.831 180.792 151.231 180.861 151.54 181C151.85 181.128 152.106 181.32 152.308 181.576C152.5 181.459 152.74 181.341 153.028 181.224C153.316 181.107 153.631 181.005 153.972 180.92C154.314 180.835 154.644 180.792 154.964 180.792C155.754 180.792 156.356 180.931 156.772 181.208C157.188 181.485 157.476 181.923 157.636 182.52C157.796 183.107 157.876 183.875 157.876 184.824V189H155.748V185.016C155.748 184.461 155.716 184.013 155.652 183.672C155.599 183.32 155.482 183.064 155.3 182.904C155.13 182.744 154.868 182.664 154.516 182.664C154.207 182.664 153.903 182.707 153.604 182.792C153.306 182.877 153.071 182.963 152.9 183.048C152.954 183.272 152.991 183.56 153.012 183.912C153.044 184.264 153.06 184.632 153.06 185.016V189H150.932V185.048C150.932 184.483 150.9 184.024 150.836 183.672C150.783 183.32 150.666 183.064 150.484 182.904C150.303 182.744 150.042 182.664 149.7 182.664C149.402 182.664 149.108 182.707 148.82 182.792C148.543 182.877 148.324 182.963 148.164 183.048V189H146.036ZM163.18 189V178.072H166.732L168.94 185.368L171.1 178.072H174.7V189H172.492V180.904H172.268L169.98 188.712H167.9L165.612 180.904H165.388V189H163.18ZM179.961 189.176C179.054 189.176 178.324 189.027 177.769 188.728C177.225 188.429 176.83 187.971 176.585 187.352C176.34 186.723 176.217 185.912 176.217 184.92C176.217 183.96 176.345 183.181 176.601 182.584C176.857 181.976 177.262 181.528 177.817 181.24C178.372 180.941 179.086 180.792 179.961 180.792C180.846 180.792 181.561 180.941 182.105 181.24C182.66 181.528 183.065 181.976 183.321 182.584C183.588 183.181 183.721 183.96 183.721 184.92C183.721 185.912 183.598 186.723 183.353 187.352C183.108 187.971 182.708 188.429 182.153 188.728C181.609 189.027 180.878 189.176 179.961 189.176ZM179.961 187.416C180.409 187.416 180.745 187.336 180.969 187.176C181.193 187.005 181.342 186.739 181.417 186.376C181.502 186.003 181.545 185.517 181.545 184.92C181.545 184.333 181.497 183.869 181.401 183.528C181.305 183.176 181.145 182.925 180.921 182.776C180.697 182.627 180.377 182.552 179.961 182.552C179.556 182.552 179.236 182.627 179.001 182.776C178.777 182.925 178.617 183.176 178.521 183.528C178.425 183.869 178.377 184.333 178.377 184.92C178.377 185.517 178.414 186.003 178.489 186.376C178.574 186.739 178.729 187.005 178.953 187.176C179.177 187.336 179.513 187.416 179.961 187.416ZM185.241 189V177.688H187.369V189H185.241ZM189.193 189V180.968H191.321V189H189.193ZM189.193 179.688V177.864H191.337V179.688H189.193ZM193.099 189V180.968H195.227V181.48C195.397 181.373 195.605 181.272 195.851 181.176C196.096 181.069 196.352 180.979 196.619 180.904C196.896 180.829 197.163 180.792 197.419 180.792C198.165 180.792 198.741 180.925 199.147 181.192C199.563 181.448 199.856 181.875 200.027 182.472C200.197 183.059 200.283 183.848 200.283 184.84V189H198.139V184.952C198.139 184.397 198.107 183.955 198.043 183.624C197.979 183.283 197.856 183.037 197.675 182.888C197.493 182.739 197.227 182.664 196.875 182.664C196.683 182.664 196.48 182.685 196.267 182.728C196.064 182.76 195.867 182.808 195.675 182.872C195.493 182.936 195.344 183 195.227 183.064V189H193.099ZM204.039 189.176C203.207 189.176 202.577 188.968 202.151 188.552C201.735 188.125 201.527 187.485 201.527 186.632C201.527 186.035 201.633 185.571 201.847 185.24C202.06 184.899 202.375 184.653 202.791 184.504C203.217 184.344 203.735 184.248 204.343 184.216L206.295 184.04V183.56C206.295 183.176 206.199 182.909 206.007 182.76C205.815 182.6 205.532 182.52 205.159 182.52C204.86 182.52 204.513 182.531 204.119 182.552C203.735 182.573 203.351 182.6 202.967 182.632C202.593 182.664 202.268 182.696 201.991 182.728L201.927 181.224C202.204 181.16 202.535 181.096 202.919 181.032C203.313 180.957 203.724 180.899 204.151 180.856C204.577 180.813 204.972 180.792 205.335 180.792C206.017 180.792 206.588 180.877 207.047 181.048C207.505 181.219 207.852 181.501 208.087 181.896C208.321 182.28 208.439 182.803 208.439 183.464V187.128C208.46 187.277 208.54 187.395 208.679 187.48C208.817 187.555 208.977 187.608 209.159 187.64L209.111 189.112C208.855 189.123 208.604 189.128 208.359 189.128C208.113 189.128 207.905 189.112 207.735 189.08C207.489 189.048 207.276 188.984 207.095 188.888C206.924 188.792 206.785 188.691 206.679 188.584C206.508 188.659 206.279 188.744 205.991 188.84C205.703 188.936 205.388 189.016 205.047 189.08C204.716 189.144 204.38 189.176 204.039 189.176ZM204.551 187.592C204.753 187.592 204.967 187.571 205.191 187.528C205.415 187.485 205.623 187.437 205.815 187.384C206.017 187.32 206.177 187.261 206.295 187.208V185.368L204.663 185.512C204.311 185.544 204.055 185.651 203.895 185.832C203.745 186.003 203.671 186.248 203.671 186.568C203.671 186.888 203.74 187.139 203.879 187.32C204.028 187.501 204.252 187.592 204.551 187.592Z" fill="black"/>
<path opacity="0.7" d="M107.792 210.68V207.64H104.864V206.312H107.792V203.32H109.12V206.312H112.08V207.64H109.12V210.68H107.792ZM117.786 211V202.12L115.146 203.816L114.506 202.68L117.914 200.44H119.306V211H117.786ZM129.951 211.16C128.607 211.16 127.631 210.68 127.023 209.72C126.415 208.749 126.111 207.405 126.111 205.688C126.111 204.717 126.207 203.891 126.399 203.208C126.591 202.515 126.868 201.955 127.231 201.528C127.604 201.091 128.047 200.776 128.559 200.584C129.082 200.381 129.658 200.28 130.287 200.28C130.618 200.28 130.964 200.296 131.327 200.328C131.7 200.36 132.058 200.403 132.399 200.456C132.74 200.499 133.028 200.541 133.263 200.584L133.119 201.784C132.916 201.763 132.655 201.741 132.335 201.72C132.015 201.688 131.679 201.661 131.327 201.64C130.975 201.619 130.634 201.608 130.303 201.608C129.45 201.608 128.799 201.896 128.351 202.472C127.903 203.037 127.668 203.853 127.647 204.92C127.754 204.899 127.892 204.856 128.063 204.792C128.244 204.728 128.452 204.664 128.687 204.6C128.932 204.525 129.178 204.467 129.423 204.424C129.668 204.371 129.908 204.344 130.143 204.344C131.306 204.344 132.186 204.616 132.783 205.16C133.38 205.693 133.679 206.531 133.679 207.672C133.679 208.419 133.53 209.059 133.231 209.592C132.943 210.115 132.522 210.509 131.967 210.776C131.412 211.032 130.74 211.16 129.951 211.16ZM129.951 209.848C130.666 209.848 131.21 209.661 131.583 209.288C131.967 208.904 132.159 208.36 132.159 207.656C132.159 206.984 131.967 206.483 131.583 206.152C131.21 205.821 130.687 205.656 130.015 205.656C129.738 205.656 129.45 205.688 129.151 205.752C128.852 205.816 128.57 205.891 128.303 205.976C128.036 206.051 127.812 206.131 127.631 206.216C127.642 206.899 127.722 207.517 127.871 208.072C128.02 208.627 128.26 209.064 128.591 209.384C128.932 209.693 129.386 209.848 129.951 209.848ZM139.161 211V202.12L136.521 203.816L135.881 202.68L139.289 200.44H140.681V211H139.161ZM144.306 211V209.736L147.17 206.744C147.618 206.285 148.002 205.875 148.322 205.512C148.653 205.139 148.903 204.781 149.074 204.44C149.245 204.088 149.33 203.72 149.33 203.336C149.33 202.685 149.149 202.237 148.786 201.992C148.434 201.747 147.895 201.624 147.17 201.624C146.893 201.624 146.583 201.645 146.242 201.688C145.911 201.72 145.591 201.763 145.282 201.816C144.973 201.859 144.706 201.907 144.482 201.96L144.386 200.728C144.61 200.653 144.887 200.584 145.218 200.52C145.559 200.456 145.927 200.403 146.322 200.36C146.717 200.307 147.106 200.28 147.49 200.28C148.621 200.28 149.469 200.509 150.034 200.968C150.61 201.416 150.898 202.141 150.898 203.144C150.898 203.677 150.818 204.152 150.658 204.568C150.498 204.984 150.253 205.395 149.922 205.8C149.602 206.195 149.186 206.632 148.674 207.112L146.082 209.688H151.122V211H144.306ZM153.196 207.304V205.976H158.028V207.304H153.196ZM163.431 211.16C163.026 211.16 162.605 211.133 162.167 211.08C161.741 211.037 161.33 210.984 160.935 210.92C160.551 210.856 160.231 210.792 159.975 210.728L160.087 209.512C160.333 209.555 160.637 209.603 160.999 209.656C161.362 209.699 161.741 209.741 162.135 209.784C162.541 209.816 162.914 209.832 163.255 209.832C163.981 209.832 164.519 209.677 164.871 209.368C165.223 209.059 165.399 208.595 165.399 207.976C165.399 207.539 165.309 207.192 165.127 206.936C164.957 206.68 164.717 206.493 164.407 206.376C164.109 206.259 163.767 206.195 163.383 206.184H161.255V204.888H163.367C163.634 204.888 163.906 204.824 164.183 204.696C164.461 204.557 164.69 204.36 164.871 204.104C165.063 203.837 165.159 203.523 165.159 203.16C165.159 202.605 164.999 202.211 164.679 201.976C164.37 201.731 163.853 201.608 163.127 201.608C162.786 201.608 162.434 201.624 162.071 201.656C161.709 201.688 161.367 201.731 161.047 201.784C160.727 201.827 160.455 201.869 160.231 201.912L160.135 200.712C160.349 200.648 160.626 200.584 160.967 200.52C161.309 200.445 161.671 200.387 162.055 200.344C162.45 200.291 162.834 200.264 163.207 200.264C164.061 200.264 164.743 200.365 165.255 200.568C165.778 200.76 166.151 201.059 166.375 201.464C166.61 201.869 166.727 202.397 166.727 203.048C166.727 203.443 166.669 203.779 166.551 204.056C166.434 204.323 166.29 204.552 166.119 204.744C165.949 204.925 165.778 205.075 165.607 205.192C165.447 205.299 165.319 205.379 165.223 205.432C165.575 205.571 165.879 205.731 166.135 205.912C166.391 206.083 166.594 206.328 166.743 206.648C166.893 206.968 166.967 207.4 166.967 207.944C166.967 208.68 166.839 209.288 166.583 209.768C166.338 210.237 165.954 210.589 165.431 210.824C164.909 211.048 164.242 211.16 163.431 211.16ZM171.873 211.16L170.417 210.76L174.225 202.248V201.832H169.153V200.44H175.793V202.296L171.873 211.16ZM181.354 211.16C180.64 211.16 179.978 211.075 179.37 210.904C178.773 210.733 178.288 210.44 177.914 210.024C177.552 209.608 177.37 209.032 177.37 208.296C177.37 207.763 177.445 207.325 177.594 206.984C177.744 206.643 177.946 206.36 178.202 206.136C178.469 205.912 178.778 205.699 179.13 205.496C178.597 205.219 178.197 204.899 177.93 204.536C177.674 204.173 177.546 203.667 177.546 203.016C177.546 202.387 177.701 201.869 178.01 201.464C178.33 201.059 178.773 200.76 179.338 200.568C179.914 200.365 180.586 200.264 181.354 200.264C182.112 200.264 182.778 200.365 183.354 200.568C183.93 200.76 184.384 201.059 184.714 201.464C185.045 201.869 185.21 202.392 185.21 203.032C185.21 203.715 185.077 204.227 184.81 204.568C184.544 204.909 184.112 205.219 183.514 205.496C183.888 205.667 184.213 205.864 184.49 206.088C184.778 206.312 184.997 206.584 185.146 206.904C185.296 207.224 185.37 207.635 185.37 208.136C185.37 208.925 185.184 209.539 184.81 209.976C184.448 210.413 183.962 210.723 183.354 210.904C182.757 211.075 182.09 211.16 181.354 211.16ZM181.354 209.832C181.824 209.832 182.24 209.779 182.602 209.672C182.965 209.565 183.248 209.373 183.45 209.096C183.664 208.819 183.77 208.451 183.77 207.992C183.77 207.608 183.696 207.304 183.546 207.08C183.397 206.856 183.194 206.675 182.938 206.536C182.693 206.397 182.41 206.28 182.09 206.184H180.538C180.048 206.323 179.664 206.536 179.386 206.824C179.109 207.112 178.97 207.523 178.97 208.056C178.97 208.493 179.072 208.845 179.274 209.112C179.488 209.379 179.77 209.565 180.122 209.672C180.485 209.779 180.896 209.832 181.354 209.832ZM180.538 204.92H182.09C182.57 204.749 182.944 204.536 183.21 204.28C183.477 204.024 183.61 203.672 183.61 203.224C183.61 202.637 183.413 202.221 183.018 201.976C182.624 201.72 182.069 201.592 181.354 201.592C180.672 201.592 180.133 201.715 179.738 201.96C179.344 202.205 179.146 202.621 179.146 203.208C179.146 203.656 179.264 204.013 179.498 204.28C179.733 204.547 180.08 204.76 180.538 204.92ZM186.852 207.304V205.976H191.684V207.304H186.852ZM197.536 211V202.12L194.896 203.816L194.256 202.68L197.664 200.44H199.056V211H197.536ZM206.073 211.16C205.358 211.16 204.697 211.075 204.089 210.904C203.492 210.733 203.006 210.44 202.633 210.024C202.27 209.608 202.089 209.032 202.089 208.296C202.089 207.763 202.164 207.325 202.313 206.984C202.462 206.643 202.665 206.36 202.921 206.136C203.188 205.912 203.497 205.699 203.849 205.496C203.316 205.219 202.916 204.899 202.649 204.536C202.393 204.173 202.265 203.667 202.265 203.016C202.265 202.387 202.42 201.869 202.729 201.464C203.049 201.059 203.492 200.76 204.057 200.568C204.633 200.365 205.305 200.264 206.073 200.264C206.83 200.264 207.497 200.365 208.073 200.568C208.649 200.76 209.102 201.059 209.433 201.464C209.764 201.869 209.929 202.392 209.929 203.032C209.929 203.715 209.796 204.227 209.529 204.568C209.262 204.909 208.83 205.219 208.233 205.496C208.606 205.667 208.932 205.864 209.209 206.088C209.497 206.312 209.716 206.584 209.865 206.904C210.014 207.224 210.089 207.635 210.089 208.136C210.089 208.925 209.902 209.539 209.529 209.976C209.166 210.413 208.681 210.723 208.073 210.904C207.476 211.075 206.809 211.16 206.073 211.16ZM206.073 209.832C206.542 209.832 206.958 209.779 207.321 209.672C207.684 209.565 207.966 209.373 208.169 209.096C208.382 208.819 208.489 208.451 208.489 207.992C208.489 207.608 208.414 207.304 208.265 207.08C208.116 206.856 207.913 206.675 207.657 206.536C207.412 206.397 207.129 206.28 206.809 206.184H205.257C204.766 206.323 204.382 206.536 204.105 206.824C203.828 207.112 203.689 207.523 203.689 208.056C203.689 208.493 203.79 208.845 203.993 209.112C204.206 209.379 204.489 209.565 204.841 209.672C205.204 209.779 205.614 209.832 206.073 209.832ZM205.257 204.92H206.809C207.289 204.749 207.662 204.536 207.929 204.28C208.196 204.024 208.329 203.672 208.329 203.224C208.329 202.637 208.132 202.221 207.737 201.976C207.342 201.72 206.788 201.592 206.073 201.592C205.39 201.592 204.852 201.715 204.457 201.96C204.062 202.205 203.865 202.621 203.865 203.208C203.865 203.656 203.982 204.013 204.217 204.28C204.452 204.547 204.798 204.76 205.257 204.92ZM215.139 211.16C213.795 211.16 212.819 210.68 212.211 209.72C211.603 208.749 211.299 207.405 211.299 205.688C211.299 204.717 211.395 203.891 211.587 203.208C211.779 202.515 212.056 201.955 212.419 201.528C212.792 201.091 213.235 200.776 213.747 200.584C214.269 200.381 214.845 200.28 215.475 200.28C215.805 200.28 216.152 200.296 216.515 200.328C216.888 200.36 217.245 200.403 217.587 200.456C217.928 200.499 218.216 200.541 218.451 200.584L218.307 201.784C218.104 201.763 217.843 201.741 217.523 201.72C217.203 201.688 216.867 201.661 216.515 201.64C216.163 201.619 215.821 201.608 215.491 201.608C214.637 201.608 213.987 201.896 213.539 202.472C213.091 203.037 212.856 203.853 212.835 204.92C212.941 204.899 213.08 204.856 213.251 204.792C213.432 204.728 213.64 204.664 213.875 204.6C214.12 204.525 214.365 204.467 214.611 204.424C214.856 204.371 215.096 204.344 215.331 204.344C216.493 204.344 217.373 204.616 217.971 205.16C218.568 205.693 218.867 206.531 218.867 207.672C218.867 208.419 218.717 209.059 218.419 209.592C218.131 210.115 217.709 210.509 217.155 210.776C216.6 211.032 215.928 211.16 215.139 211.16ZM215.139 209.848C215.853 209.848 216.397 209.661 216.771 209.288C217.155 208.904 217.347 208.36 217.347 207.656C217.347 206.984 217.155 206.483 216.771 206.152C216.397 205.821 215.875 205.656 215.203 205.656C214.925 205.656 214.637 205.688 214.339 205.752C214.04 205.816 213.757 205.891 213.491 205.976C213.224 206.051 213 206.131 212.819 206.216C212.829 206.899 212.909 207.517 213.059 208.072C213.208 208.627 213.448 209.064 213.779 209.384C214.12 209.693 214.573 209.848 215.139 209.848ZM224.076 211.16C222.732 211.16 221.756 210.68 221.148 209.72C220.54 208.749 220.236 207.405 220.236 205.688C220.236 204.717 220.332 203.891 220.524 203.208C220.716 202.515 220.993 201.955 221.356 201.528C221.729 201.091 222.172 200.776 222.684 200.584C223.207 200.381 223.783 200.28 224.412 200.28C224.743 200.28 225.089 200.296 225.452 200.328C225.825 200.36 226.183 200.403 226.524 200.456C226.865 200.499 227.153 200.541 227.388 200.584L227.244 201.784C227.041 201.763 226.78 201.741 226.46 201.72C226.14 201.688 225.804 201.661 225.452 201.64C225.1 201.619 224.759 201.608 224.428 201.608C223.575 201.608 222.924 201.896 222.476 202.472C222.028 203.037 221.793 203.853 221.772 204.92C221.879 204.899 222.017 204.856 222.188 204.792C222.369 204.728 222.577 204.664 222.812 204.6C223.057 204.525 223.303 204.467 223.548 204.424C223.793 204.371 224.033 204.344 224.268 204.344C225.431 204.344 226.311 204.616 226.908 205.16C227.505 205.693 227.804 206.531 227.804 207.672C227.804 208.419 227.655 209.059 227.356 209.592C227.068 210.115 226.647 210.509 226.092 210.776C225.537 211.032 224.865 211.16 224.076 211.16ZM224.076 209.848C224.791 209.848 225.335 209.661 225.708 209.288C226.092 208.904 226.284 208.36 226.284 207.656C226.284 206.984 226.092 206.483 225.708 206.152C225.335 205.821 224.812 205.656 224.14 205.656C223.863 205.656 223.575 205.688 223.276 205.752C222.977 205.816 222.695 205.891 222.428 205.976C222.161 206.051 221.937 206.131 221.756 206.216C221.767 206.899 221.847 207.517 221.996 208.072C222.145 208.627 222.385 209.064 222.716 209.384C223.057 209.693 223.511 209.848 224.076 209.848Z" fill="black"/>
<path fill-rule="evenodd" clip-rule="evenodd" d="M66.5 218C79.4787 218 90 207.479 90 194.5C90 181.521 79.4787 171 66.5 171C53.5213 171 43 181.521 43 194.5C43 207.479 53.5213 218 66.5 218ZM66.5 220C80.5833 220 92 208.583 92 194.5C92 180.417 80.5833 169 66.5 169C52.4167 169 41 180.417 41 194.5C41 208.583 52.4167 220 66.5 220Z" fill="#2C2FFE"/>
<path d="M66.5 217.5C58.0165 217.5 50.6051 212.907 46.6176 206.07C48.517 202.073 51.5867 198.738 55.3839 196.511C56.1608 197.553 57.1556 198.441 58.3255 199.103L61.8255 201.081C64.7262 202.72 68.2738 202.72 71.1745 201.081L74.6745 199.103C75.8444 198.441 76.8392 197.553 77.6162 196.511C81.4133 198.738 84.4831 202.073 86.3824 206.07C82.3949 212.907 74.9835 217.5 66.5 217.5Z" fill="#2C2FFE" stroke="#2C2FFE"/>
<path d="M57.686 198.096C56.8336 197.473 56.1067 196.711 55.5293 195.851C54.3332 196.52 53.2045 197.296 52.1558 198.164C49.5723 200.305 47.475 203.011 46.0544 206.094C46.436 206.765 46.8496 207.416 47.2933 208.044C48.1736 209.29 49.1722 210.447 50.2727 211.498C50.8359 212.036 51.4259 212.546 52.0403 213.026C52.3486 207.404 54.4095 202.248 57.686 198.096Z" fill="#494CFF"/>
<circle cx="154.088" cy="84.0881" r="12" transform="rotate(17.7579 154.088 84.0881)" fill="#FB5B29"/>
<path fill-rule="evenodd" clip-rule="evenodd" d="M161.126 93.809L147.806 87.1476L142.087 84.2874C142.066 83.0116 142.249 81.7108 142.66 80.4282C144.681 74.1165 151.437 70.6386 157.748 72.6599C164.06 74.6812 167.538 81.4364 165.517 87.7481C164.705 90.283 163.129 92.3609 161.126 93.809Z" fill="#DD4C1F"/>
<path d="M137.12 33.0465C144.288 20.0688 158.691 20.5452 164.997 22.4056C171.211 24.5546 183.211 32.5343 181.507 47.2615C179.376 65.6705 177.047 80.9231 179.105 86.1071C179.569 87.2766 180.215 88.2996 180.855 89.2347C183.688 93.3708 178.527 94.9904 173.138 93.2647L145.173 84.3086L117.207 75.3525C111.818 73.6267 108.558 69.3101 113.267 67.5891C114.331 67.2 115.451 66.7425 116.508 66.0603C121.195 63.036 128.16 49.2685 137.12 33.0465Z" fill="#FB5B29"/>
<path fill-rule="evenodd" clip-rule="evenodd" d="M164.997 22.4056C158.691 20.5452 144.288 20.0688 137.12 33.0465C135.739 35.5468 134.405 37.9889 133.12 40.3423C126.067 53.2573 120.472 63.5021 116.508 66.0603C115.451 66.7425 114.331 67.2 113.267 67.5891C108.558 69.3101 111.818 73.6267 117.207 75.3525L118.887 75.8904C123.296 70.4382 128.857 60.256 135.472 48.1423C137.035 45.2801 138.657 42.31 140.337 39.269C148.038 25.3257 162.607 24.1521 171.187 25.6279C168.955 24.0779 166.747 23.0106 164.997 22.4056Z" fill="#FB6D41"/>
<circle cx="168.316" cy="15.3161" r="9" transform="rotate(17.7579 168.316 15.3161)" fill="#FB5B29"/>
<path fill-rule="evenodd" clip-rule="evenodd" d="M163.827 23.1185C162.519 20.967 162.116 18.2818 162.944 15.6959C164.46 10.9621 169.527 8.35365 174.261 9.86966C174.88 10.068 175.463 10.3272 176.005 10.6385C174.919 8.85155 173.209 7.43281 171.061 6.74497C166.327 5.22896 161.261 7.83745 159.745 12.5712C158.427 16.6855 160.225 21.0511 163.827 23.1185Z" fill="#FB6D41"/>
<path d="M149.418 15.316C146.681 15.6645 139.1 17.367 133.872 24.5128" stroke="#FB5B29" stroke-width="3" stroke-linecap="round" stroke-linejoin="round"/>
<path d="M141.568 10.702C139.261 11.4507 136.448 12.7429 133.784 14.9509" stroke="#FB5B29" stroke-width="3" stroke-linecap="round" stroke-linejoin="round"/>
<path d="M181.798 25.6858C183.823 27.5594 189.004 33.3488 189.108 42.2025" stroke="#FB5B29" stroke-width="3" stroke-linecap="round" stroke-linejoin="round"/>
<path d="M190.867 26.4904C192.31 28.44 193.849 31.126 194.735 34.4706" stroke="#FB5B29" stroke-width="3" stroke-linecap="round" stroke-linejoin="round"/>
<path d="M57 175L57 189.2C57 192.218 58.4345 195.057 60.8646 196.848V196.848C64.2158 199.317 68.7842 199.317 72.1354 196.848V196.848C74.5655 195.057 76 192.218 76 189.2V175" stroke="#2C2FFE" stroke-width="2"/>
<path d="M57 182.312C56.4579 181.519 56.0195 181 55 181C53.3431 181 52 182.371 52 184.062C52 185.754 53.8735 188 55.5304 188C56.3509 188 56.5897 187.449 57 186.688" stroke="#2C2FFE" stroke-width="2"/>
<path d="M74.9879 181.704C79.586 180.586 83 176.442 83 171.5C83 165.701 78.299 161 72.5 161C67.1814 161 62.7863 164.954 62.0947 170.084C61.0651 169.399 59.8292 169 58.5 169C54.9101 169 52 171.91 52 175.5C52 178.926 54.6501 181.732 58.012 181.982C58.0041 181.61 58 181.219 58 180.809C58 177.541 61.6544 176.07 63.5515 177.278C64.17 177.672 65.1411 177.943 65.7965 177.615C67.5815 176.72 70.3875 176.273 72.9199 177.81C74.3383 178.671 74.9013 180.126 74.9879 181.704Z" fill="#2C2FFE"/>
<path d="M76 182.312C76.5421 181.519 76.9805 181 78 181C79.6569 181 81 182.371 81 184.062C81 185.754 79.1265 188 77.4696 188C76.6491 188 76.4103 187.449 76 186.688" stroke="#2C2FFE" stroke-width="2"/>
<circle cx="62" cy="184" r="1" fill="#2C2FFE"/>
<circle cx="71" cy="184" r="1" fill="#2C2FFE"/>
<path d="M64 181.326C63.3333 180.993 61.6 180.626 60 181.826" stroke="#2C2FFE" stroke-width="1.5" stroke-linecap="round" stroke-linejoin="round"/>
<path d="M69 181.326C69.6667 180.993 71.4 180.626 73 181.826" stroke="#2C2FFE" stroke-width="1.5" stroke-linecap="round" stroke-linejoin="round"/>
<path d="M65 187C65.5 187.333 66.8 187.8 68 187" stroke="#2C2FFE" stroke-width="1.5" stroke-linecap="round" stroke-linejoin="round"/>
<path d="M58 175H57V189.2C57 192.218 58.4345 195.057 60.8646 196.848C64.2158 199.317 68.7842 199.317 72.1354 196.848C74.5655 195.057 76 192.218 76 189.2V175H75V187.219C75 188.827 73.8452 190.204 72.2611 190.483C68.4498 191.156 64.5502 191.156 60.7389 190.483C59.1548 190.204 58 188.827 58 187.219V175Z" fill="#2C2FFE"/>
<ellipse cx="66.5" cy="192.5" rx="6.5" ry="3.5" fill="#2C2FFE"/>
<path d="M64.1886 191C63.58 191 63.1057 191.552 63.3833 192.094C63.9632 193.226 65.1411 194 66.5 194C67.8588 194 69.0368 193.226 69.6167 192.094C69.8943 191.552 69.4199 191 68.8113 191H64.1886Z" fill="white"/>
</g>
<defs>
<filter id="filter0_d_18_730" x="19" y="157" width="273" height="95" filterUnits="userSpaceOnUse" color-interpolation-filters="sRGB">
<feFlood flood-opacity="0" result="BackgroundImageFix"/>
<feColorMatrix in="SourceAlpha" type="matrix" values="0 0 0 0 0 0 0 0 0 0 0 0 0 0 0 0 0 0 127 0" result="hardAlpha"/>
<feOffset dy="10"/>
<feGaussianBlur stdDeviation="5"/>
<feComposite in2="hardAlpha" operator="out"/>
<feColorMatrix type="matrix" values="0 0 0 0 0.2975 0 0 0 0 0.299321 0 0 0 0 0.425 0 0 0 0.1 0"/>
<feBlend mode="normal" in2="BackgroundImageFix" result="effect1_dropShadow_18_730"/>
<feBlend mode="normal" in="SourceGraphic" in2="effect1_dropShadow_18_730" result="shape"/>
</filter>
<clipPath id="clip0_18_730">
<rect width="312" height="260" fill="white"/>
</clipPath>
</defs>
</svg>
