<svg width="312" height="260" viewBox="0 0 312 260" fill="none" xmlns="http://www.w3.org/2000/svg">
<path fill-rule="evenodd" clip-rule="evenodd" d="M131.806 51.1564C166.516 42.8385 197.052 -3.36197 227.97 14.2916C258.581 31.7694 237.615 79.8553 242.911 114.594C247.602 145.357 275.727 178.5 256.789 203.318C237.8 228.201 198.273 214.278 166.905 214.196C145.232 214.14 124.896 212.34 105.42 202.923C82.322 191.756 59.1932 179.49 47.7819 156.602C32.8014 126.554 13.5051 86.9942 34.4916 60.6575C55.5606 34.2171 98.8548 59.053 131.806 51.1564Z" fill="#FFF9F8"/>
<path fill-rule="evenodd" clip-rule="evenodd" d="M228 96.3062C228 101.277 216.583 105.306 202.5 105.306C188.417 105.306 177 101.277 177 96.3062C177 91.3356 188.417 87.3062 202.5 87.3062C216.583 87.3062 228 91.3356 228 96.3062ZM199.5 99.3062L194 95.3062C194 96.3062 194.368 98.0512 195.5 98.8062C196.655 99.576 197.81 99.4568 198.736 99.3612C199.013 99.3326 199.27 99.3062 199.5 99.3062ZM210 95.3062L204.5 99.3062C204.73 99.3062 204.987 99.3326 205.264 99.3612C206.19 99.4568 207.345 99.576 208.5 98.8062C209.632 98.0512 210 96.3062 210 95.3062Z" fill="#FB5B29"/>
<path d="M207.5 108.806C209.1 107.206 210.167 103.139 210.5 101.306H202H193.5C193.833 103.139 194.9 107.206 196.5 108.806L192 107.306L194.5 114.806H202H209.5L212 107.306L207.5 108.806Z" fill="#FB5B29"/>
<path fill-rule="evenodd" clip-rule="evenodd" d="M211.022 85.8211C210.107 84.0193 209.012 82.2741 208.076 81.8061C206.584 81.0601 205.092 81.7054 204.223 82.0813C203.927 82.2093 203.703 82.3061 203.576 82.3061C203.455 82.3061 203.215 82.0404 202.872 81.6596C201.802 80.4734 199.726 78.1706 197.076 79.3061C194.641 80.3498 192.932 83.3301 192.286 86.0573C195.413 85.5742 198.868 85.3062 202.5 85.3062C205.489 85.3062 208.358 85.4876 211.022 85.8211Z" fill="#FB5B29"/>
<path fill-rule="evenodd" clip-rule="evenodd" d="M225.408 121.978C217.881 124.145 209.928 125.306 201.704 125.306C193.48 125.306 185.527 124.145 178 121.978C183.112 114.337 191.821 109.306 201.704 109.306C211.587 109.306 220.296 114.337 225.408 121.978Z" fill="#FB5B29"/>
<path fill-rule="evenodd" clip-rule="evenodd" d="M154.612 33.4894C153.451 31.5035 150.549 31.5035 149.388 33.4894L132.409 62.5319C131.248 64.5177 132.699 67 135.021 67H168.979C171.301 67 172.752 64.5177 171.591 62.5319L154.612 33.4894ZM152 48C153.105 48 154 47.1046 154 46C154 44.8954 153.105 44 152 44C150.895 44 150 44.8954 150 46C150 47.1046 150.895 48 152 48ZM154 53C154 51.8954 153.105 51 152 51C150.895 51 150 51.8954 150 53V61C150 62.1046 150.895 63 152 63C153.105 63 154 62.1046 154 61V53Z" fill="#FB5B29"/>
<path fill-rule="evenodd" clip-rule="evenodd" d="M97 95C93.6863 95 91 97.6863 91 101V115C91 118.314 93.6863 121 97 121H126C129.314 121 132 118.314 132 115V101C132 97.6863 129.314 95 126 95H97ZM105 103.5C105 105.433 103.881 107 102.5 107C101.119 107 100 105.433 100 103.5C100 101.567 101.119 100 102.5 100C103.881 100 105 101.567 105 103.5ZM123 103.5C123 105.433 121.881 107 120.5 107C119.119 107 118 105.433 118 103.5C118 101.567 119.119 100 120.5 100C121.881 100 123 101.567 123 103.5ZM108 111C106.895 111 106 111.895 106 113V114C106 115.105 106.895 116 108 116H115C116.105 116 117 115.105 117 114V113C117 111.895 116.105 111 115 111H108Z" fill="#FB5B29"/>
<line x1="101" y1="97" x2="101" y2="88" stroke="#FB5B29" stroke-width="2"/>
<line x1="121" y1="97" x2="121" y2="88" stroke="#FB5B29" stroke-width="2"/>
<circle cx="101" cy="84" r="5" fill="#FB5B29"/>
<circle cx="121" cy="84" r="5" fill="#FB5B29"/>
<line x1="108.5" y1="110" x2="108.5" y2="117" stroke="#FB5B29"/>
<line x1="111.5" y1="110" x2="111.5" y2="117" stroke="#FB5B29"/>
<line x1="114.5" y1="110" x2="114.5" y2="117" stroke="#FB5B29"/>
<g opacity="0.06" filter="url(#filter0_f_18_723)">
<circle cx="155" cy="126" r="83" stroke="#090A37" stroke-width="10"/>
<line x1="217.461" y1="64.6081" x2="94.4614" y2="182.608" stroke="#090A37" stroke-width="10"/>
</g>
<circle cx="155" cy="107" r="83" stroke="#E2E4FE" stroke-width="10"/>
<line x1="217.461" y1="45.6081" x2="94.4614" y2="163.608" stroke="#E2E4FE" stroke-width="10"/>
<path d="M116.398 151.957C116.181 147.395 119.84 143.595 124.351 142.879C135.524 141.106 146.611 136.302 153.632 132.527C156.35 131.066 159.65 131.066 162.368 132.527C169.389 136.302 180.476 141.106 191.649 142.879C196.16 143.595 199.819 147.395 199.602 151.957L198.056 184.535C197.389 198.583 189.88 211.568 177.681 219.769L162.463 230C159.764 231.814 156.236 231.814 153.537 230L138.319 219.769C126.12 211.568 118.611 198.583 117.944 184.535L116.398 151.957Z" fill="#2C2FFE"/>
<g filter="url(#filter1_di_18_723)">
<path fill-rule="evenodd" clip-rule="evenodd" d="M174.589 160C169.571 160 164.006 162.93 164.006 182C164.006 201.07 169.569 204 174.589 204C176.196 204 177.31 203.578 178.044 203.128C178.795 202.664 179.157 201.772 178.935 200.912C178.379 198.766 177.181 194.134 176.626 191.986C176.443 191.281 175.897 190.74 175.199 190.56L171.658 189.654C170.865 189.451 170.28 188.789 170.18 187.97C170.008 186.553 169.775 184.227 169.775 181.998C169.775 179.769 170.008 177.443 170.18 176.026C170.28 175.206 170.865 174.545 171.658 174.342L175.199 173.436C175.898 173.257 176.446 172.708 176.628 172.003L178.933 163.094C179.155 162.232 178.793 161.331 178.038 160.869C177.306 160.419 176.193 159.999 174.589 160ZM141.411 160C139.807 159.999 138.694 160.419 137.962 160.869C137.245 161.308 136.882 162.143 137.038 162.965L137.067 163.094L139.372 172.003C139.543 172.664 140.035 173.188 140.672 173.398L140.801 173.436L144.342 174.342C145.135 174.545 145.72 175.206 145.82 176.026C145.992 177.443 146.225 179.769 146.225 181.998C146.225 184.227 145.992 186.553 145.82 187.97C145.725 188.746 145.195 189.381 144.465 189.618L144.342 189.654L140.801 190.56C140.103 190.74 139.557 191.281 139.374 191.986C138.819 194.134 137.621 198.766 137.065 200.912C136.843 201.772 137.205 202.664 137.956 203.128C138.69 203.578 139.804 204 141.411 204C146.431 204 151.994 201.07 151.994 182C151.994 162.93 146.429 160 141.411 160ZM158 178.882C156.174 178.882 154.693 180.378 154.693 182.223C154.693 184.068 156.174 185.564 158 185.564C159.826 185.564 161.306 184.068 161.306 182.223C161.306 180.378 159.826 178.882 158 178.882Z" fill="white"/>
</g>
<defs>
<filter id="filter0_f_18_723" x="59" y="30" width="192" height="192" filterUnits="userSpaceOnUse" color-interpolation-filters="sRGB">
<feFlood flood-opacity="0" result="BackgroundImageFix"/>
<feBlend mode="normal" in="SourceGraphic" in2="BackgroundImageFix" result="shape"/>
<feGaussianBlur stdDeviation="4" result="effect1_foregroundBlur_18_723"/>
</filter>
<filter id="filter1_di_18_723" x="130" y="160" width="56" height="59" filterUnits="userSpaceOnUse" color-interpolation-filters="sRGB">
<feFlood flood-opacity="0" result="BackgroundImageFix"/>
<feColorMatrix in="SourceAlpha" type="matrix" values="0 0 0 0 0 0 0 0 0 0 0 0 0 0 0 0 0 0 127 0" result="hardAlpha"/>
<feOffset dy="8"/>
<feGaussianBlur stdDeviation="3.5"/>
<feComposite in2="hardAlpha" operator="out"/>
<feColorMatrix type="matrix" values="0 0 0 0 0.151545 0 0 0 0 0.161463 0 0 0 0 0.845833 0 0 0 1 0"/>
<feBlend mode="normal" in2="BackgroundImageFix" result="effect1_dropShadow_18_723"/>
<feBlend mode="normal" in="SourceGraphic" in2="effect1_dropShadow_18_723" result="shape"/>
<feColorMatrix in="SourceAlpha" type="matrix" values="0 0 0 0 0 0 0 0 0 0 0 0 0 0 0 0 0 0 127 0" result="hardAlpha"/>
<feOffset dx="2" dy="3"/>
<feGaussianBlur stdDeviation="1.5"/>
<feComposite in2="hardAlpha" operator="arithmetic" k2="-1" k3="1"/>
<feColorMatrix type="matrix" values="0 0 0 0 0.710742 0 0 0 0 0.714874 0 0 0 0 1 0 0 0 1 0"/>
<feBlend mode="normal" in2="shape" result="effect2_innerShadow_18_723"/>
</filter>
</defs>
</svg>
