<svg width="316" height="220" viewBox="0 0 316 220" fill="none" xmlns="http://www.w3.org/2000/svg">
<path d="M79.8446 219.256L30.1408 219.657C30.1408 219.657 -2.21606 188.743 0.120758 123.761C2.09891 68.8247 39.7925 13.7722 87.855 5.38119C132.505 -2.41512 170.166 55.4301 219.478 48.875C334.254 33.5927 332.668 205.861 286.866 219.282H79.8446V219.256Z" fill="#F8FAFB"/>
<path d="M270.904 219.559C270.867 218.785 270.565 218.012 269.942 217.352C268.584 215.899 266.264 214.73 262.378 214.465C262.378 214.465 263.717 190.339 245.495 188.736C224.595 186.906 224.35 210.599 224.35 210.599C224.35 210.599 214.843 201.582 207.995 213.013C207.995 213.013 196.149 206.166 190.188 218.804C190.075 219.049 190.019 219.294 190 219.54H270.904V219.559Z" fill="#5AC36D"/>
<path d="M98.9043 219.559C98.8712 218.881 98.6067 218.203 98.0612 217.624C96.8709 216.351 94.8375 215.327 91.4319 215.095C91.4319 215.095 92.6057 193.951 76.6361 192.546C58.319 190.942 58.1041 211.706 58.1041 211.706C58.1041 211.706 49.7721 203.804 43.7711 213.822C43.7711 213.822 33.3892 207.821 28.1652 218.897C28.066 219.112 28.0164 219.327 27.9998 219.542H98.9043V219.559Z" fill="#5AC36D"/>
<path d="M146.313 78.2256C146.313 78.2256 123.078 81.4785 115.178 97.8981C107.278 114.318 105.109 201.373 105.109 201.373C105.109 201.373 137.949 222.284 175.28 219.186C212.456 215.933 220.047 201.528 220.047 201.528L222.835 142.045L203.937 82.0981C191.854 76.057 160.1 74.9727 146.313 78.2256Z" fill="white"/>
<path d="M149.257 37.6411C149.257 37.6411 135.006 32.3744 134.386 43.2176C133.766 55.7646 148.637 55.2999 148.637 55.2999L149.257 37.6411Z" fill="#F79674"/>
<path d="M142.905 49.1042C142.596 49.1042 142.441 48.9493 142.286 48.7944L137.329 41.0493C137.019 40.7395 137.174 40.2748 137.484 39.965C137.794 39.8101 138.258 39.8101 138.568 40.1199L143.525 47.865C143.835 48.1748 143.68 48.6395 143.37 48.9493C143.06 49.1042 142.905 49.1042 142.905 49.1042Z" fill="black"/>
<path d="M137.329 46.9355C136.864 46.9355 136.555 46.6257 136.555 46.161C136.555 45.6963 136.864 45.3865 137.329 45.3865L141.357 45.0767C141.821 45.0767 142.131 45.3865 142.131 45.8512C142.131 46.3159 141.821 46.6257 141.357 46.6257L137.329 46.9355Z" fill="black"/>
<path d="M175.899 66.2982L176.674 81.0139C176.674 81.0139 171.097 84.2668 164.127 84.7315C154.523 85.1963 150.96 79.7747 150.96 79.7747L150.186 62.5806L175.899 66.2982Z" fill="#FBCEC9"/>
<path d="M175.9 66.2975C175.9 66.2975 171.873 78.3799 160.875 77.2956C152.045 76.3662 148.947 64.1289 148.947 64.1289L175.9 66.2975Z" fill="#F7B3AC"/>
<path d="M144.3 25.8684C144.3 25.8684 139.343 52.9763 147.553 64.5939C156.382 76.9861 169.549 72.4939 174.351 68.4665C180.856 62.89 181.941 55.7645 181.941 55.7645C181.941 55.7645 191.235 57.1586 194.023 49.5684C196.966 41.5135 190.925 35.4724 186.278 35.3175C181.631 35.1626 181.166 35.9371 181.166 35.9371L182.096 27.4175C181.941 27.4175 152.509 -2.47861 144.3 25.8684Z" fill="#FBCEC9"/>
<path d="M183.025 47.8647C182.87 47.8647 182.56 47.7098 182.405 47.5549C182.095 47.2451 182.095 46.7803 182.405 46.4705L189.221 40.1196C189.531 39.8098 189.995 39.8098 190.305 40.1196C190.615 40.4294 190.615 40.8941 190.305 41.2039L183.49 47.5549C183.49 47.8647 183.18 47.8647 183.025 47.8647Z" fill="#424956"/>
<path d="M189.686 48.7937C189.531 48.7937 189.376 48.7937 189.222 48.6388L184.884 45.6957C184.575 45.3859 184.42 44.9212 184.729 44.6114C185.039 44.3016 185.504 44.1467 185.814 44.4565L190.151 47.3996C190.461 47.7094 190.616 48.1741 190.306 48.4839C190.151 48.6388 189.996 48.7937 189.686 48.7937Z" fill="#424956"/>
<path d="M152.509 41.6691C152.044 41.6691 151.734 41.3593 151.734 40.8946V36.4024C151.734 35.9377 152.044 35.6279 152.509 35.6279C152.974 35.6279 153.283 35.9377 153.283 36.4024V40.8946C153.283 41.3593 152.974 41.6691 152.509 41.6691Z" fill="black"/>
<path d="M160.099 52.5119C159.944 52.5119 159.944 52.5119 159.789 52.5119C158.395 51.8923 157.466 50.9629 156.846 49.5687C155.142 45.2315 158.24 38.7256 158.395 38.4158C158.55 37.9511 159.015 37.7962 159.479 38.106C159.789 38.2609 160.099 38.7256 159.789 39.1903C159.789 39.1903 156.846 45.5413 158.24 49.104C158.705 50.0335 159.324 50.808 160.254 51.2727C160.719 51.4276 160.873 51.8923 160.719 52.357C160.564 52.357 160.409 52.5119 160.099 52.5119Z" fill="black"/>
<path d="M149.876 32.8391C149.721 32.8391 149.566 32.8391 149.411 32.6842C149.101 32.3744 149.101 31.9097 149.411 31.5999C151.115 29.7411 154.368 29.4313 154.523 29.2764C154.988 29.2764 155.297 29.5862 155.297 29.896C155.297 30.3607 154.988 30.6705 154.678 30.6705C154.678 30.6705 151.889 30.9803 150.65 32.3744C150.34 32.8391 150.031 32.8391 149.876 32.8391Z" fill="black"/>
<path d="M183.18 35.783C183.18 35.783 180.701 44.1477 179.617 43.8379C178.533 43.5281 179.772 30.3615 182.87 29.7419C185.813 29.1223 183.18 35.783 183.18 35.783Z" fill="#3F4855"/>
<path d="M143.06 36.402C143.06 36.402 142.131 42.7529 143.06 43.0627C143.989 43.3725 143.68 30.051 143.68 30.051C143.68 30.051 145.693 28.6569 147.552 25.7137C149.411 22.7706 150.34 18.7431 150.34 18.7431C150.34 18.7431 153.129 23.7 159.17 24.6294C165.211 25.5588 168.774 23.7 168.774 23.7C168.774 23.7 170.323 29.2765 175.899 31.7549C181.476 34.2333 183.025 31.9098 183.025 31.9098L183.18 35.6274L189.685 36.0922C189.685 36.0922 194.797 21.0667 191.854 15.8C188.911 10.6882 183.18 13.3216 183.18 13.3216C183.18 13.3216 176.364 0 167.38 0C158.55 0 158.55 7.28039 158.55 7.28039C158.55 7.28039 150.34 1.70392 142.905 8.51961C135.625 15.1804 143.06 36.402 143.06 36.402Z" fill="#3F4855"/>
<path d="M109.137 76.2123C109.137 76.2123 112.235 85.1966 109.137 92.0123C106.039 98.828 126.331 101.926 126.331 101.926L134.386 84.7319V74.1986L117.657 73.7339L109.137 76.2123Z" fill="#F6B3AC"/>
<path d="M132.372 99.1371C132.372 99.1371 138.104 89.3783 139.498 83.6469C140.892 77.9155 134.076 66.143 132.372 67.3822C130.514 68.6214 130.359 82.0979 130.049 83.1822C129.739 84.2665 120.755 92.6312 122.768 99.1371C124.937 105.488 132.372 99.1371 132.372 99.1371Z" fill="#F6B3AC"/>
<path d="M105.109 84.7319L146.313 99.7574C146.313 99.7574 154.523 197.81 122.768 208.189C95.0408 217.328 81.8741 180.771 86.9859 149.791C91.478 122.373 105.109 84.7319 105.109 84.7319Z" fill="white"/>
<path d="M98.9995 103.157C87.9995 128.657 73.8995 185.357 105.499 208.157" stroke="#424956" stroke-width="1.7" stroke-linecap="round" stroke-linejoin="round"/>
<path d="M125.247 209.118C125.247 209.118 238.016 240.873 249.633 182.165C263.265 113.234 203.008 81.6338 203.008 81.6338L131.133 155.212L125.247 209.118Z" fill="white"/>
<path d="M136.71 162.028C133.457 162.492 127.261 167.914 127.261 167.914C127.261 167.914 115.643 170.392 115.023 173.955C114.404 177.518 120.135 180.926 120.135 180.926C120.135 180.926 117.347 188.361 118.121 190.994C118.896 193.783 120.755 206.794 127.725 209.428C134.696 212.216 163.043 198.894 163.043 198.894L163.972 169.928C163.663 170.083 139.963 161.563 136.71 162.028Z" fill="#FBCEC9"/>
<path d="M164.592 164.661C164.282 164.661 163.973 164.351 163.818 164.041C163.663 163.577 163.973 163.267 164.437 163.112C165.676 162.802 194.178 157.226 209.669 158.929C210.133 158.929 210.443 159.394 210.288 159.859C210.288 160.324 209.824 160.633 209.359 160.479C194.333 158.929 165.057 164.661 164.592 164.661C164.747 164.661 164.747 164.661 164.592 164.661Z" fill="#424956"/>
<path d="M200.529 160.324C200.219 160.324 200.064 160.169 199.909 160.014C199.754 159.704 199.754 159.394 199.909 159.084C200.374 158.465 212.456 145.298 219.892 147.002C221.286 147.312 221.595 148.086 221.595 148.551C221.905 151.649 207.035 157.845 200.839 160.324C200.684 160.324 200.529 160.324 200.529 160.324ZM218.497 148.241C214.16 148.241 207.654 153.508 203.627 157.381C211.837 153.973 219.737 149.945 220.046 148.551C220.046 148.551 219.891 148.396 219.427 148.396C219.117 148.241 218.807 148.241 218.497 148.241Z" fill="#424956"/>
<path d="M141.512 168.843H127.261C126.796 168.843 126.486 168.534 126.486 168.069C126.486 167.604 126.796 167.294 127.261 167.294H141.512C141.977 167.294 142.286 167.604 142.286 168.069C142.286 168.534 141.977 168.843 141.512 168.843Z" fill="#F6B3AC"/>
<path d="M166.141 84.4221C166.141 84.4221 169.084 89.5338 168.929 91.7024C168.774 93.8711 161.804 101.926 161.804 101.926C161.804 101.926 167.225 120.05 165.831 128.879C164.592 137.708 158.861 160.634 157.002 159.55C155.143 158.465 148.637 136.159 149.102 129.808C149.567 123.457 155.453 101.616 155.453 101.616C155.453 101.616 150.961 93.7162 150.961 91.8573C150.961 89.5338 154.678 83.9573 154.678 83.9573C154.678 83.9573 161.184 82.873 166.141 84.4221Z" fill="#DFE5EC"/>
<path d="M176.674 76.3662C176.674 76.3662 182.561 90.4623 180.392 91.8564C178.223 93.2505 160.564 84.1113 160.564 84.1113C160.564 84.1113 147.243 91.7015 145.384 91.0819C143.215 90.4623 150.961 77.4505 150.961 77.4505C150.961 77.4505 158.861 89.8427 176.674 76.3662Z" fill="#DFE5EC"/>
<path d="M158.086 122.372C157.776 122.372 157.621 122.372 157.311 122.217C153.749 120.359 156.847 106.263 157.776 101.925C157.931 101.615 158.241 101.306 158.551 101.306C158.86 101.306 159.17 101.615 159.325 101.925C159.945 107.502 161.184 120.359 158.86 122.063C158.551 122.372 158.396 122.372 158.086 122.372ZM158.241 107.192C157.002 113.853 156.537 120.204 157.931 120.823C158.86 120.204 158.86 114.008 158.241 107.192Z" fill="#424956"/>
<path d="M162.733 113.698C162.423 113.698 162.113 113.543 161.958 113.233L157.931 102.855C154.678 101.306 154.988 97.1235 155.607 94.9549C155.762 94.4902 156.227 94.3353 156.537 94.4902C157.001 94.6451 157.156 95.1098 157.001 95.4196C157.001 95.5745 155.607 100.222 158.705 101.461C158.86 101.616 159.015 101.771 159.17 101.926L163.197 112.614C163.352 113.078 163.197 113.388 162.733 113.543C162.888 113.698 162.733 113.698 162.733 113.698Z" fill="#424956"/>
<path d="M145.193 83.0421C158.455 80.9186 166.652 63.2418 163.5 43.5598C160.349 23.8778 147.043 9.6438 133.781 11.7673C120.519 13.8908 112.322 31.5676 115.474 51.2496C118.625 70.9316 131.931 85.1656 145.193 83.0421Z" fill="white"/>
<path d="M141.803 83.8155C155.066 81.692 163.262 64.0152 160.11 44.3332C156.959 24.6512 143.653 10.4172 130.391 12.5407C117.129 14.6642 108.933 32.3411 112.084 52.023C115.236 71.705 128.541 85.939 141.803 83.8155Z" fill="#2C2FFE"/>
<path fill-rule="evenodd" clip-rule="evenodd" d="M146.75 37.9201C143.446 37.3968 139.843 38.6799 140.243 50.8088C140.643 62.9377 144.368 65.3813 147.673 65.9049C148.732 66.0725 149.456 65.9203 149.93 65.7105C150.415 65.494 150.635 64.9645 150.47 64.3943C150.059 62.971 149.173 59.9003 148.762 58.4765C148.627 58.0087 148.256 57.6074 147.793 57.4203L145.442 56.4747C144.916 56.2631 144.517 55.7811 144.434 55.2494C144.291 54.3304 144.088 52.8265 144.041 51.409C143.995 49.9915 144.099 48.5363 144.183 47.6532C144.232 47.1423 144.603 46.7825 145.121 46.7362L147.433 46.5291C147.89 46.4884 148.239 46.1964 148.344 45.7666L149.675 40.3412C149.803 39.8159 149.546 39.2053 149.039 38.8325C148.548 38.4698 147.806 38.0867 146.75 37.9201ZM124.903 34.46C123.847 34.292 123.123 34.4428 122.65 34.6529C122.188 34.8575 121.966 35.3507 122.086 35.8896L122.108 35.975L123.813 41.8812C123.939 42.3198 124.274 42.7043 124.698 42.9043L124.784 42.9418L127.134 43.8874C127.661 44.099 128.06 44.581 128.143 45.1127C128.286 46.0318 128.488 47.5356 128.535 48.9531C128.582 50.3706 128.477 51.8258 128.394 52.7089C128.348 53.1929 128.012 53.5413 127.536 53.616L127.456 53.6259L125.144 53.833C124.687 53.8745 124.339 54.1618 124.234 54.5916C123.913 55.8996 123.222 58.7204 122.9 60.0276C122.772 60.5515 123.029 61.1566 123.534 61.5297C124.027 61.8927 124.769 62.2772 125.827 62.4448C129.133 62.9684 132.734 61.685 132.334 49.5561C131.934 37.4272 128.208 34.9834 124.903 34.46ZM136.223 48.1992C135.02 48.0088 134.077 48.8058 134.116 49.9795C134.154 51.1532 135.161 52.259 136.363 52.4495C137.566 52.6399 138.509 51.8429 138.47 50.6692C138.432 49.4955 137.425 48.3897 136.223 48.1992Z" fill="white"/>
<path d="M119.98 59.3275C119.98 59.3275 129.429 52.5118 123.697 49.5687C117.966 46.6256 98.4484 54.6805 99.5327 61.3412C100.617 67.8471 119.98 59.3275 119.98 59.3275Z" fill="#FBCEC9"/>
<path d="M123.543 68.3119C123.543 68.3119 132.992 61.4962 127.261 58.5531C121.53 55.6099 102.012 63.6648 103.096 70.3256C104.18 76.8315 123.543 68.3119 123.543 68.3119Z" fill="#FBCEC9"/>
<path d="M121.684 78.5355C124.318 78.0708 126.641 76.9865 128.655 75.1276C130.359 73.5786 131.598 71.5649 129.274 69.861C124.782 66.4531 106.504 70.6355 106.504 76.5218C106.504 81.0139 116.573 79.6198 121.684 78.5355Z" fill="#FBCEC9"/>
<path d="M108.052 64.1291C107.743 64.1291 107.433 63.9742 107.278 63.6644C107.123 63.1997 107.278 62.8899 107.743 62.735L121.219 57.3135C121.684 57.1586 121.994 57.3135 122.148 57.7782C122.303 58.2429 122.148 58.5527 121.684 58.7076L108.207 64.1291C108.207 64.1291 108.207 64.1291 108.052 64.1291Z" fill="#424956"/>
<path d="M109.137 72.8039C108.827 72.8039 108.517 72.649 108.362 72.1843C108.208 71.7196 108.517 71.4098 108.827 71.2549L126.176 66.298C126.641 66.1431 126.951 66.4529 127.106 66.7627C127.261 67.2274 126.951 67.5373 126.641 67.6922L109.447 72.8039C109.292 72.8039 109.292 72.8039 109.137 72.8039Z" fill="#424956"/>
<path d="M141.356 160.169H141.202C140.737 160.014 140.582 159.549 140.737 159.24C146.313 139.412 144.3 110.136 144.3 109.826C144.3 109.361 144.609 109.051 145.074 109.051C145.539 109.051 145.849 109.361 145.849 109.826C145.849 110.136 147.862 139.722 142.286 159.859C141.976 160.014 141.666 160.169 141.356 160.169Z" fill="#424956"/>
<path d="M247 133.657C252 148.823 258.1 183.157 242.5 199.157" stroke="#424956" stroke-width="1.7" stroke-linecap="round" stroke-linejoin="round"/>
</svg>
