<svg width="378" height="259" viewBox="0 0 378 259" fill="none" xmlns="http://www.w3.org/2000/svg">
<g opacity="0.5">
<path d="M279.5 258.549L338.327 259C338.327 259 376.623 224.204 373.857 151.061C371.516 89.2263 326.904 27.2602 270.02 17.8154C217.175 9.04005 172.601 74.1496 114.238 66.7713C-21.6049 49.5698 -19.7268 243.472 34.4817 258.578H279.5V258.549Z" fill="#F0F5F7"/>
</g>
<path d="M95.3227 258.636C95.2936 258.096 95.0895 257.557 94.6521 257.105C93.7043 256.099 92.1005 255.282 89.3886 255.093C89.3886 255.093 90.3218 238.296 77.6371 237.188C63.0862 235.905 62.9113 252.41 62.9113 252.41C62.9113 252.41 56.2919 246.126 51.5243 254.087C51.5243 254.087 43.2865 249.319 39.1312 258.125C39.0437 258.3 39.0146 258.475 39 258.636H95.3227Z" fill="#5AC36D"/>
<path d="M305.371 258.082C305.4 257.484 305.634 256.886 306.115 256.376C307.164 255.253 308.958 254.349 311.961 254.145C311.961 254.145 310.926 235.497 325.01 234.258C341.165 232.844 341.355 251.156 341.355 251.156C341.355 251.156 348.703 244.187 353.996 253.022C353.996 253.022 363.152 247.73 367.759 257.498C367.847 257.688 367.89 257.877 367.905 258.067H305.371V258.082Z" fill="#5AC36D"/>
<path d="M184.362 102.469L169.505 107.222L156.646 91.7231L147.723 93.1957C147.723 93.1957 160.553 121.466 164.227 122.02C167.901 122.589 184.916 118.929 184.916 118.929L184.362 102.469Z" fill="#2C2FFE"/>
<path d="M190.734 88.8364L190.793 87.1159C190.851 85.3517 192.017 83.7917 193.694 83.2814C196.61 82.3774 199.818 83.8792 199.818 83.8792C199.818 83.8792 200.926 85.6433 201.028 85.8475C201.13 86.0516 199.745 85.3372 199.745 85.3372L190.734 88.8364Z" fill="#FBCEC9"/>
<path d="M190.559 94.2017L190.792 86.9116L200.211 84.4185V93.3123L200.05 95.6014C200.05 95.6014 200.546 100.282 200.298 101.258C200.05 102.221 198.578 104.131 195.968 104.043C195.151 104.014 194.422 103.854 193.825 103.635C192.6 103.198 191.871 101.944 192.06 100.661L192.6 97.2052C190.369 96.7969 190.559 94.2017 190.559 94.2017Z" fill="#FBCEC9"/>
<path d="M196.596 90.4402C196.567 90.4256 196.552 90.411 196.537 90.3818C196.508 90.3089 195.75 88.5885 194.278 89.0696C194.219 89.0842 194.161 89.0551 194.146 88.9967C194.132 88.9384 194.161 88.8801 194.219 88.8655C195.881 88.3261 196.742 90.2798 196.742 90.2944C196.771 90.3527 196.742 90.411 196.683 90.4402C196.654 90.4547 196.625 90.4547 196.596 90.4402Z" fill="#4C222E"/>
<path d="M192.178 88.8216C192.149 88.8362 192.135 88.8362 192.105 88.8216C192.091 88.8216 190.968 88.355 190.618 88.9382C190.589 88.9966 190.516 89.0111 190.472 88.982C190.414 88.9528 190.399 88.8799 190.429 88.8362C190.866 88.0926 192.135 88.6175 192.193 88.6321C192.251 88.6612 192.28 88.7195 192.251 88.7779C192.237 88.7924 192.207 88.807 192.178 88.8216Z" fill="#4C222E"/>
<path d="M191.974 90.44C191.96 90.44 191.945 90.44 191.931 90.44C191.931 90.44 191.245 90.163 191.027 90.5129C191.012 90.5421 190.968 90.5567 190.939 90.5421C190.91 90.5275 190.895 90.4838 190.91 90.4546C191.172 90.0026 191.945 90.3234 191.974 90.338C192.004 90.3526 192.018 90.3963 192.004 90.4255C192.004 90.4255 191.989 90.44 191.974 90.44Z" fill="black"/>
<path d="M195.094 91.2565C195.271 91.2565 195.415 91.1129 195.415 90.9357C195.415 90.7586 195.271 90.6149 195.094 90.6149C194.917 90.6149 194.773 90.7586 194.773 90.9357C194.773 91.1129 194.917 91.2565 195.094 91.2565Z" fill="black"/>
<path d="M203.201 86.1388C203.828 88.5737 202.589 89.813 202.545 90.5274C202.501 91.2418 202.822 96.1116 199.439 95.6304L198.783 87.5968L200.066 84.4475L199.818 83.7477C199.833 83.7477 202.589 83.7039 203.201 86.1388Z" fill="#3F4855"/>
<path d="M199.409 92.9187C200.488 92.9187 201.363 92.044 201.363 90.965C201.363 89.8859 200.488 89.0112 199.409 89.0112C198.33 89.0112 197.455 89.8859 197.455 90.965C197.455 92.044 198.33 92.9187 199.409 92.9187Z" fill="#FBCEC9"/>
<path d="M199.964 90.7606C199.425 90.3961 198.944 90.8335 198.929 90.8627L198.783 90.9939L198.842 90.8044C198.944 90.469 199.119 90.2358 199.366 90.1045C199.804 89.8858 200.3 90.0608 200.314 90.0754C200.343 90.09 200.358 90.1191 200.343 90.1483C200.329 90.1774 200.3 90.192 200.27 90.1774C200.27 90.1774 199.789 90.0025 199.396 90.2066C199.221 90.2941 199.075 90.4545 198.987 90.6732C199.191 90.5419 199.585 90.3816 200.008 90.6732C200.3 90.8627 200.402 91.2126 200.285 91.5771C200.183 91.8833 199.906 92.1749 199.498 92.1603H199.483C199.454 92.1603 199.425 92.1312 199.425 92.102C199.425 92.0728 199.454 92.0437 199.483 92.0437H199.498C199.877 92.0583 200.095 91.7812 200.183 91.5334C200.27 91.3001 200.256 90.9648 199.964 90.7606Z" fill="#F07162"/>
<path d="M192.63 97.1907C192.63 97.1907 196.129 98.0218 197.981 95.1495C197.981 95.1495 197.689 99.4943 192.236 99.7422L192.63 97.1907Z" fill="#F07162"/>
<path d="M193.593 93.0353C193.578 93.0645 193.564 93.0645 193.534 93.0645H193.52L192.354 92.6417L192.791 90.0027C192.791 89.9735 192.82 89.959 192.849 89.959C192.878 89.959 192.893 89.9881 192.893 90.0173L192.47 92.5688L193.549 92.9624C193.593 92.977 193.607 93.0062 193.593 93.0353Z" fill="#F07162"/>
<path d="M199.875 92.525L200.137 96.1991L198.84 96.272L198.956 92.5833L199.875 92.525Z" fill="#FBCEC9"/>
<path d="M193.767 81.1672C196.246 82.0712 200.882 82.1149 202.122 84.4769C203.346 86.8388 198.783 87.7136 198.783 87.7136C198.783 87.7136 190.516 86.9555 190.064 84.9872C189.612 83.0335 191.566 83.048 191.566 83.048C191.566 83.048 191.289 80.2778 193.767 81.1672Z" fill="#3F4855"/>
<path d="M197.323 87.2325C196.332 86.6638 199.233 86.2119 199.321 86.2556C199.408 86.2993 201.056 87.2033 200.823 87.1596C200.604 87.1158 198.956 87.1887 198.956 87.1887L198.898 88.9821C198.898 88.9821 198.169 90.0172 198.359 91.3586C198.359 91.3586 197.848 91.5336 197.775 91.1108C197.688 90.6879 198.315 87.8011 197.323 87.2325Z" fill="#3F4855"/>
<path d="M192.133 93.5893C192.133 93.5893 194.407 93.5018 194.451 93.5018C194.451 93.5018 194.174 94.4495 193.328 94.4787C192.468 94.5224 192.133 93.5893 192.133 93.5893Z" fill="#FBFDFC"/>
<path d="M236.238 163.938C235.976 164.332 235.466 164.434 235.072 164.171C234.678 163.909 234.576 163.399 234.839 163.005L237.288 158.165C237.449 157.917 238.046 157.785 238.557 157.8C243.339 156.444 243.878 155.482 245.205 155.234L245.395 156.269L246.284 161.255C246.532 162.772 247.071 164.215 247.844 165.542L248.034 165.877C248.281 166.3 248.121 166.84 247.684 167.058C247.29 167.262 246.794 167.088 246.561 166.708L245.147 164.303C245.103 164.23 245.016 164.186 244.928 164.201C244.797 164.23 244.724 164.361 244.782 164.478L246.371 168.283C246.561 168.72 246.328 169.158 245.861 169.245C245.395 169.333 244.87 169.056 244.695 168.618L243.076 164.74C243.033 164.653 242.945 164.594 242.843 164.623L242.77 164.638C242.654 164.667 242.595 164.769 242.61 164.886L243.543 169.449C243.63 169.887 243.383 170.339 242.945 170.455C242.464 170.587 241.997 170.281 241.895 169.814L240.962 165.221C240.933 165.105 240.831 165.046 240.714 165.061L240.496 165.105C240.394 165.119 240.321 165.221 240.335 165.323L240.642 169.668C240.671 170.12 240.365 170.528 239.913 170.587C239.431 170.66 238.994 170.295 238.965 169.814C238.965 169.814 238.148 163.209 237.93 162.189L236.238 163.938Z" fill="#FBCEC9"/>
<path d="M218.217 243.268L218.625 255.151L208.259 254.32L206.99 240.469L218.217 243.268Z" fill="#FE9F73"/>
<path d="M198.287 257.98C197.66 257.98 197.164 257.411 197.281 256.769C197.368 256.288 197.82 255.953 198.316 255.953H199.745L206.35 251.987L209.98 255.924L218.903 255.895C219.122 255.895 219.311 256.07 219.311 256.303V257.659C219.311 257.805 219.195 257.936 219.034 257.936L198.287 257.98Z" fill="#485362"/>
<path d="M200.94 254.145L208.507 250.762C211.569 253.722 215.024 251.258 215.024 251.258C217.313 250.223 218.815 252.235 218.815 252.235L218.829 255.894L198.301 255.953C198.869 254.845 200.94 254.145 200.94 254.145Z" fill="#3F4855"/>
<path d="M218.753 252.25L218.762 255.895L218.908 255.894L218.898 252.249L218.753 252.25Z" fill="#424956"/>
<path d="M211.482 252.133C211.497 252.133 213.29 252.381 214.982 251.2L215.069 251.331C213.859 252.177 212.59 252.308 211.92 252.308C211.628 252.308 211.453 252.279 211.453 252.279L211.482 252.133Z" fill="#424956"/>
<path d="M216.912 255.098L216.994 255.219L217.96 254.565L217.878 254.444L216.912 255.098Z" fill="#424956"/>
<path d="M216.205 254.918L216.287 255.039L217.252 254.384L217.171 254.263L216.205 254.918Z" fill="#424956"/>
<path d="M197.673 257.703L197.571 257.819C197.324 257.615 197.178 257.309 197.178 256.988C197.178 256.39 197.659 255.895 198.271 255.895L218.8 255.836C219.121 255.836 219.383 256.099 219.383 256.419V257.425H219.237V256.419C219.237 256.186 219.048 255.982 218.8 255.982L198.271 256.04C197.746 256.04 197.338 256.463 197.338 256.988C197.353 257.251 197.469 257.513 197.673 257.703Z" fill="#424956"/>
<path d="M198.36 255.997L198.229 255.938C198.243 255.909 198.666 255.049 200.211 254.378C201.728 253.722 208.435 250.733 208.493 250.704L208.551 250.85C208.478 250.879 201.786 253.868 200.255 254.524C198.768 255.151 198.36 255.982 198.36 255.997Z" fill="#424956"/>
<path d="M175.964 240.265L186.71 239.521L184.494 255.136L173.967 254.276L175.964 240.265Z" fill="#FE9F73"/>
<path d="M164.343 257.98C163.717 257.98 163.221 257.411 163.337 256.769C163.425 256.288 163.877 255.953 164.373 255.953H165.801L172.406 251.987L176.037 255.924L184.96 255.895C185.178 255.895 185.368 256.07 185.368 256.303V257.659C185.368 257.805 185.251 257.936 185.091 257.936L164.343 257.98Z" fill="#485362"/>
<path d="M166.998 254.145L174.565 250.762C177.627 253.722 181.083 251.258 181.083 251.258C183.372 250.223 184.874 252.235 184.874 252.235L184.888 255.894L164.359 255.953C164.928 254.845 166.998 254.145 166.998 254.145Z" fill="#3F4855"/>
<path d="M184.807 252.246L184.816 255.891L184.962 255.89L184.953 252.245L184.807 252.246Z" fill="#424956"/>
<path d="M177.539 252.133C177.553 252.133 179.347 252.381 181.038 251.2L181.126 251.331C179.915 252.177 178.647 252.308 177.976 252.308C177.685 252.308 177.51 252.279 177.51 252.279L177.539 252.133Z" fill="#424956"/>
<path d="M182.965 255.123L183.047 255.244L184.013 254.591L183.931 254.47L182.965 255.123Z" fill="#424956"/>
<path d="M182.254 254.94L182.336 255.061L183.301 254.406L183.219 254.286L182.254 254.94Z" fill="#424956"/>
<path d="M163.732 257.703L163.63 257.819C163.382 257.615 163.236 257.309 163.236 256.988C163.236 256.39 163.717 255.895 164.33 255.895L184.859 255.836C185.179 255.836 185.442 256.099 185.442 256.419V257.425H185.296V256.419C185.296 256.186 185.106 255.982 184.859 255.982L164.33 256.04C163.805 256.04 163.397 256.463 163.397 256.988C163.397 257.251 163.528 257.513 163.732 257.703Z" fill="#424956"/>
<path d="M164.403 255.997L164.271 255.938C164.286 255.909 164.709 255.049 166.254 254.378C167.771 253.722 174.478 250.733 174.536 250.704L174.594 250.85C174.521 250.879 167.829 253.868 166.298 254.524C164.811 255.151 164.417 255.982 164.403 255.997Z" fill="#424956"/>
<path d="M185.82 250.398C183.808 250.981 173.558 248.794 173.777 247.176L186.432 152.711C186.462 152.507 186.505 152.289 186.564 152.099L186.695 151.691C187.409 149.402 190.048 148.352 192.133 149.533L205.197 156.91C206.597 157.698 207.326 159.287 207.049 160.847C205.022 171.84 189.917 249.202 185.82 250.398Z" fill="#DFE5EC"/>
<path d="M220.974 249.99C220.843 251.55 206.336 250.092 206.234 248.765L200.402 205.433L199.439 167.015L195.459 145.611L222.359 158.048C222.359 158.048 219.283 180.02 218.772 204.675C218.481 218.366 221.922 238.165 220.974 249.99Z" fill="#F4F7FF"/>
<path d="M205.474 242.831C205.401 242.816 205.343 242.773 205.343 242.7L200.254 205.462V205.448L199.525 176.798C199.525 176.71 199.598 176.637 199.686 176.637C199.773 176.637 199.846 176.71 199.846 176.798L200.561 205.433L205.649 242.67C205.664 242.758 205.605 242.845 205.518 242.845C205.503 242.831 205.489 242.831 205.474 242.831Z" fill="#424956"/>
<path d="M219.02 200.927C219.02 201 219.035 201.117 219.035 201.277C219.122 206.993 219.341 217.374 219.764 222.695C219.764 222.783 219.705 222.856 219.618 222.87C219.603 222.87 219.589 222.87 219.574 222.87C219.501 222.856 219.443 222.798 219.443 222.725C219.02 217.388 218.801 206.993 218.714 201.277C218.714 201.19 218.714 201.117 218.714 201.059H218.699V200.898C218.699 200.898 218.699 200.898 218.699 200.884C218.728 200.534 220.624 171.52 220.653 171.228C220.653 171.14 220.74 171.068 220.828 171.082C220.915 171.082 220.988 171.17 220.974 171.257L219.049 200.592C219.035 200.738 219.035 200.84 219.02 200.927C219.02 200.913 219.02 200.913 219.02 200.927Z" fill="#424956"/>
<path d="M175.396 236.168C175.308 236.153 175.25 236.08 175.25 235.993L184.494 166.111C184.508 166.023 184.581 165.965 184.669 165.979C184.756 165.994 184.815 166.067 184.815 166.154L175.571 236.036C175.571 236.109 175.483 236.182 175.396 236.168Z" fill="#424956"/>
<path d="M225.595 136.061C223.904 134.137 218.116 127.007 218.116 127.007L222.621 161.387C222.621 161.387 203.71 168.21 184.552 163.005C184.552 163.005 183.153 130.9 182.409 109.759C182.278 106.187 182.219 104.539 182.89 103.577C183.211 103.11 183.561 102.644 184.363 102.483C190.982 101.156 204.775 99.1298 207.866 99.8151C214.31 101.244 239.111 123.129 240.758 127.532C242.406 131.935 247.567 156.007 247.567 156.007C247.567 156.007 245.424 158.325 234.576 159.054C234.591 159.039 227.286 137.986 225.595 136.061Z" fill="#2C2FFE"/>
<path d="M238.586 158.893C236.443 159.185 234.767 159.287 234.606 159.287L234.402 159.302L234.344 159.098C231.938 150.189 225.727 136.892 225.392 136.192L213.13 121.408C213.042 121.306 213.057 121.146 213.159 121.058C213.261 120.971 213.421 120.985 213.509 121.087L225.785 135.901L225.814 135.959C225.873 136.09 232.244 149.621 234.752 158.777C236.152 158.675 244.448 158.019 247.407 155.802C247.524 155.715 247.67 155.744 247.757 155.846C247.845 155.963 247.816 156.109 247.714 156.196C245.76 157.669 241.677 158.471 238.586 158.893Z" fill="#424956"/>
<path d="M220.696 146.617C220.565 146.632 220.434 146.544 220.419 146.398L217.882 127.036C217.868 126.905 217.955 126.774 218.101 126.759C218.232 126.745 218.364 126.832 218.378 126.978L220.915 146.34C220.93 146.471 220.828 146.588 220.696 146.617Z" fill="#424956"/>
<path d="M233.964 120.038C217.999 105.064 209.251 100.573 209.163 100.529C209.032 100.471 208.989 100.311 209.047 100.194C209.105 100.077 209.266 100.019 209.382 100.077C209.47 100.121 218.276 104.641 234.314 119.673C234.416 119.775 234.416 119.921 234.329 120.023C234.285 120.067 234.241 120.096 234.183 120.096C234.095 120.11 234.022 120.081 233.964 120.038Z" fill="#424956"/>
<path d="M211.364 163.792C211.495 163.778 211.627 163.865 211.656 163.997C211.685 164.128 211.583 164.259 211.452 164.288C210.621 164.419 209.819 164.551 209.031 164.653C193.737 166.694 184.581 163.268 184.479 163.238L184.318 163.18L182.189 107.309C182.189 107.164 182.292 107.061 182.437 107.047C182.583 107.047 182.7 107.149 182.7 107.295L184.814 162.816C186.126 163.268 195.895 166.344 211.364 163.792Z" fill="#424956"/>
<path d="M171.066 91.2856L188.344 90.8482V87.8009L171.066 87.349V91.2856Z" fill="#D8E3F0"/>
<path d="M159.096 92.4958L176.373 91.7668V86.8679L159.096 86.1535V92.4958Z" fill="#C9D7E8"/>
<path d="M135.637 94.5077L159.096 93.3267V85.3222L135.637 84.1412V94.5077Z" fill="#D8E3F0"/>
<path d="M189.306 87.4512H188.344V91.1982H189.306V87.4512Z" fill="#C9D7E8"/>
<path d="M135.636 82.9458H134.674V95.7179H135.636V82.9458Z" fill="#C9D7E8"/>
<path d="M152.344 86.0516L152.053 83.398C152.053 83.398 151.63 82.9898 151.119 83.0627C150.609 83.1356 150.39 83.5146 150.405 83.5875L150.697 86.2411C150.726 86.5619 151.09 86.7952 151.542 86.7514C152.023 86.7223 152.388 86.3869 152.344 86.0516Z" fill="#FE9F73"/>
<path d="M150.653 86.4016L150.405 83.4564C150.405 83.4564 150.158 83.194 149.647 83.2669C149.137 83.3398 148.758 83.646 148.758 83.7335L149.006 86.6057C149.035 86.9265 149.385 87.1744 149.837 87.1306C150.303 87.0869 150.682 86.7515 150.653 86.4016Z" fill="#FE9F73"/>
<path d="M148.932 86.6931L148.743 83.9375C148.743 83.9375 148.509 83.6896 148.028 83.7479C147.547 83.8062 147.197 84.0833 147.197 84.1707L147.387 86.8535C147.401 87.1597 147.737 87.3783 148.145 87.3492C148.597 87.32 148.961 87.0138 148.932 86.6931Z" fill="#FE9F73"/>
<path d="M152.506 86.0225L152.214 83.3981C152.214 83.3398 152.127 83.2961 152.039 83.3107C151.952 83.3252 151.894 83.3836 151.894 83.4419L152.185 86.0663C152.2 86.1975 152.141 86.3433 152.01 86.4599C151.879 86.5766 151.704 86.6495 151.514 86.6641C151.165 86.6932 150.858 86.5183 150.829 86.2412L150.523 83.369C150.523 83.3107 150.435 83.2669 150.363 83.2815C150.29 83.2961 150.231 83.3398 150.217 83.3981C150.217 83.4127 150.217 83.4127 150.217 83.4273L150.523 86.2996C150.567 86.6932 151.004 86.9557 151.514 86.9119C151.791 86.8828 152.039 86.7807 152.229 86.6203C152.433 86.4308 152.535 86.2267 152.506 86.0225Z" fill="#F07162"/>
<path d="M153.977 86.1393L153.729 83.4566C153.7 83.165 153.233 82.9608 152.942 82.99C152.431 83.0483 152.052 83.3691 152.067 83.4566L152.344 86.3288C152.373 86.6496 152.723 86.8829 153.146 86.8537C153.627 86.8246 154.006 86.4892 153.977 86.1393Z" fill="#FE9F73"/>
<path d="M154.138 86.1099L153.89 83.4855C153.89 83.4272 153.803 83.3834 153.73 83.398C153.642 83.4126 153.584 83.4709 153.584 83.5292L153.832 86.1536C153.846 86.2849 153.788 86.4306 153.657 86.5473C153.526 86.6639 153.351 86.7368 153.161 86.7514C152.811 86.7806 152.505 86.591 152.491 86.3286L152.228 83.4563C152.228 83.398 152.155 83.3543 152.068 83.3688C151.995 83.3834 151.936 83.4272 151.922 83.4855C151.922 83.5001 151.922 83.5001 151.922 83.5146L152.184 86.3869C152.228 86.7806 152.651 87.043 153.176 86.9993C153.453 86.9701 153.701 86.8681 153.89 86.7077C154.051 86.5181 154.153 86.314 154.138 86.1099Z" fill="#F07162"/>
<path d="M150.813 86.3869L150.565 83.4418C150.565 83.3834 150.493 83.3397 150.405 83.3543C150.318 83.3689 150.259 83.4272 150.259 83.4855L150.507 86.4307C150.522 86.5619 150.449 86.7077 150.332 86.8243C150.201 86.941 150.026 86.9993 149.836 87.0139C149.487 87.043 149.224 86.8681 149.195 86.5911L149.005 83.7771C149.005 83.7188 148.932 83.675 148.845 83.675C148.772 83.6896 148.714 83.7334 148.699 83.7917V83.8063L148.889 86.6202C148.918 87.0139 149.326 87.2763 149.836 87.2326C150.113 87.2034 150.361 87.1159 150.551 86.941C150.726 86.7952 150.828 86.5765 150.813 86.3869Z" fill="#F07162"/>
<path d="M149.196 86.6786L149.006 83.923C149.006 83.8647 148.933 83.8209 148.846 83.8209C148.758 83.8355 148.7 83.8938 148.7 83.9521L148.889 86.7078C148.904 86.839 148.831 86.9556 148.714 87.0577C148.598 87.1597 148.437 87.2181 148.262 87.2326C147.942 87.2618 147.679 87.0723 147.65 86.8244L147.46 84.1417C147.46 84.0834 147.388 84.0396 147.3 84.0396C147.227 84.0542 147.169 84.0979 147.154 84.1563V84.1708L147.344 86.8536C147.373 87.2181 147.767 87.4805 148.262 87.4513C148.525 87.4368 148.758 87.3347 148.948 87.1889C149.123 87.0577 149.21 86.8681 149.196 86.6786Z" fill="#F07162"/>
<path d="M95.7601 161.839C93.7335 163.924 92.3629 166.358 94.5791 170.922C96.7807 175.471 115.093 171.009 115.093 171.009C115.093 171.009 119.846 170.339 120.109 165.25C120.371 160.176 114.875 157.45 113.344 157.333C111.813 157.217 111.944 155.234 110.501 152.843C109.057 150.452 106.666 151.458 105.208 151.326C103.75 151.195 102.263 146.894 99.2447 150.218C96.2266 153.543 98.2387 156.371 98.2387 156.371C99.7259 159.156 96.9994 160.556 95.7601 161.839Z" fill="#49263E"/>
<path d="M109.948 169.945L108.388 156.05L100.456 157.523C100.456 157.523 100.208 164.405 101.52 165.775C101.52 165.775 102.162 166.504 103.503 166.388L103.985 170.616L109.948 169.945Z" fill="#FE9F73"/>
<path d="M102.192 161.853L102.148 161.882L102.178 161.926C102.192 161.955 102.513 162.553 102.994 162.597H103.009C103.038 162.597 103.052 162.568 103.052 162.553C103.052 162.524 103.038 162.495 103.009 162.495C102.644 162.466 102.382 162.057 102.294 161.912C102.761 161.591 103.023 161.212 103.082 160.774C103.169 160.075 102.673 159.506 102.644 159.491C102.63 159.462 102.586 159.462 102.571 159.491C102.542 159.506 102.542 159.55 102.571 159.564C102.571 159.564 103.052 160.118 102.979 160.76C102.921 161.183 102.659 161.547 102.192 161.853Z" fill="#F07162"/>
<path d="M103.488 166.373L103.678 168.079C105.85 167.146 107.994 164.565 107.994 164.565C106.346 165.878 103.488 166.373 103.488 166.373Z" fill="#F07162"/>
<path d="M103.489 159.214C104.51 158.179 105.866 159.287 105.924 159.346C105.953 159.36 105.982 159.375 106.012 159.375C106.041 159.375 106.07 159.36 106.084 159.331C106.128 159.287 106.114 159.214 106.07 159.171C106.055 159.156 104.495 157.888 103.343 159.054C103.3 159.098 103.3 159.171 103.343 159.214C103.387 159.258 103.445 159.258 103.489 159.214Z" fill="#49263E"/>
<path d="M100.748 159.346C101.171 158.894 102.118 159.521 102.133 159.535C102.162 159.55 102.177 159.55 102.206 159.55C102.235 159.55 102.264 159.535 102.279 159.506C102.308 159.462 102.293 159.389 102.25 159.36C102.206 159.331 101.142 158.602 100.587 159.2C100.544 159.244 100.544 159.317 100.587 159.36C100.631 159.389 100.704 159.389 100.748 159.346Z" fill="#49263E"/>
<path d="M101.361 160.804C101.53 160.804 101.667 160.667 101.667 160.497C101.667 160.328 101.53 160.191 101.361 160.191C101.192 160.191 101.055 160.328 101.055 160.497C101.055 160.667 101.192 160.804 101.361 160.804Z" fill="#1D1D1B"/>
<path d="M104.043 160.497C104.212 160.497 104.349 160.36 104.349 160.191C104.349 160.022 104.212 159.885 104.043 159.885C103.873 159.885 103.736 160.022 103.736 160.191C103.736 160.36 103.873 160.497 104.043 160.497Z" fill="#1D1D1B"/>
<path d="M109.438 162.611C110.38 162.611 111.144 161.848 111.144 160.905C111.144 159.963 110.38 159.2 109.438 159.2C108.496 159.2 107.732 159.963 107.732 160.905C107.732 161.848 108.496 162.611 109.438 162.611Z" fill="#FE9F73"/>
<path d="M109.349 160.264C109.656 160.045 110.093 160.133 110.093 160.133C110.122 160.133 110.151 160.118 110.151 160.089C110.151 160.06 110.137 160.031 110.108 160.031C110.093 160.031 109.626 159.929 109.276 160.177C109.072 160.322 108.956 160.541 108.912 160.847L108.883 161.037L108.999 160.876C109.014 160.862 109.379 160.424 109.874 160.658C110.151 160.789 110.21 161.081 110.166 161.299C110.122 161.518 109.962 161.795 109.641 161.824C109.612 161.824 109.583 161.853 109.597 161.882C109.597 161.912 109.626 161.941 109.656 161.926C109.656 161.926 109.656 161.926 109.67 161.926C110.02 161.882 110.239 161.591 110.283 161.314C110.341 160.993 110.195 160.687 109.918 160.556C109.524 160.366 109.204 160.541 109.043 160.672C109.116 160.497 109.204 160.351 109.349 160.264Z" fill="#F07162"/>
<path d="M108.373 156.05C108.373 156.05 107.6 153.484 104.13 154.155C100.66 154.84 100.441 157.508 100.441 157.508L100.704 157.464L104.465 157.304L108.373 156.05Z" fill="#FE9F73"/>
<path d="M105.383 156.386C105.383 156.386 106.71 159.739 108.736 159.346C110.763 158.952 109.115 154.301 109.115 154.301C109.115 154.301 105.12 153.178 104.873 153.207C104.625 153.237 100.542 153.455 100.542 153.455L100.178 155.322C100.192 155.292 102.613 157.188 105.383 156.386Z" fill="#49263E"/>
<path d="M103.721 161.08C103.633 161.095 103.648 161.227 103.736 161.212C103.824 161.197 103.809 161.066 103.721 161.08Z" fill="#EA5942"/>
<path d="M104.159 161.27C104.071 161.284 104.085 161.416 104.173 161.402C104.261 161.402 104.246 161.255 104.159 161.27Z" fill="#EA5942"/>
<path d="M104.844 160.701C104.756 160.716 104.771 160.848 104.859 160.833C104.947 160.833 104.932 160.687 104.844 160.701Z" fill="#EA5942"/>
<path d="M105.543 161.11C105.456 161.124 105.47 161.256 105.558 161.241C105.646 161.241 105.631 161.11 105.543 161.11Z" fill="#EA5942"/>
<path d="M106.143 160.38C106.055 160.395 106.07 160.527 106.158 160.512C106.245 160.512 106.231 160.38 106.143 160.38Z" fill="#EA5942"/>
<path d="M106.493 161.328C106.405 161.343 106.419 161.475 106.507 161.46C106.595 161.46 106.58 161.328 106.493 161.328Z" fill="#EA5942"/>
<path d="M102.323 160.832C102.235 160.847 102.249 160.979 102.337 160.964C102.425 160.964 102.41 160.818 102.323 160.832Z" fill="#EA5942"/>
<path d="M101.885 161.43C101.797 161.445 101.812 161.577 101.9 161.562C101.988 161.562 101.973 161.43 101.885 161.43Z" fill="#EA5942"/>
<path d="M101.258 161.255C101.17 161.27 101.185 161.402 101.273 161.387C101.361 161.387 101.346 161.255 101.258 161.255Z" fill="#EA5942"/>
<path d="M101.317 162.218C101.229 162.232 101.244 162.364 101.331 162.349C101.419 162.349 101.405 162.218 101.317 162.218Z" fill="#EA5942"/>
<path d="M100.791 161.707C100.704 161.722 100.718 161.854 100.806 161.839C100.894 161.839 100.879 161.707 100.791 161.707Z" fill="#EA5942"/>
<path d="M100.805 160.862C100.717 160.876 100.732 161.008 100.82 160.993C100.908 160.993 100.893 160.862 100.805 160.862Z" fill="#EA5942"/>
<path d="M104.7 161.635C104.612 161.649 104.626 161.781 104.714 161.766C104.802 161.766 104.787 161.635 104.7 161.635Z" fill="#EA5942"/>
<path d="M103.795 163.894C104.524 163.661 104.524 162.772 104.524 162.772C104.524 162.772 102.57 163.399 102.541 163.413C102.541 163.413 103.08 164.142 103.795 163.894Z" fill="#FBFDFC"/>
<path d="M97.2913 187.995C97.2913 187.995 90.395 195.635 88.1205 196.904C86.2688 197.924 68.5978 194.6 62.7949 193.507L64.0051 186.333C64.6466 186.304 83.484 187.806 83.484 187.806L90.1908 180.457L97.2913 187.995Z" fill="#F9B498"/>
<path d="M85.1172 191.844C85.5254 191.582 84.9568 190.911 84.4756 189.526C83.9945 188.403 83.6737 186.931 83.2363 187.689C83.3675 188.01 84.6798 192.136 85.1172 191.844Z" fill="#F07162"/>
<path d="M59.443 185.764L59.2827 185.589C58.7869 185.56 57.7955 185.444 56.6437 185.385C56.527 186.362 56.4104 187.106 56.2937 187.106V187.324C56.2937 187.383 56.2646 187.426 56.2354 187.47C56.2354 188.476 56.2646 189.745 56.2063 190.809C56.1771 191.567 55.9001 192.194 56.4687 192.646C56.804 192.909 58.6703 193.098 59.341 193.113L63.7879 193.623C63.8025 192.296 64.5169 186.523 64.2982 186.318L59.443 185.764Z" fill="#F9B498"/>
<path d="M55.9727 181.711L57.4452 181.551L57.5473 181.536L59.0199 181.376L61.9942 198.055C62.0817 198.522 61.7464 198.959 61.2798 199.018L57.5181 199.426C57.0516 199.47 56.6288 199.12 56.6142 198.638L55.9727 181.711Z" fill="#C9D7E8"/>
<path d="M55.7393 182.09L59.3552 181.697C59.5739 181.667 59.7197 181.478 59.7051 181.274L59.5155 179.524L55.127 179.991L55.3165 181.74C55.3457 181.959 55.5352 182.119 55.7393 182.09Z" fill="#AEBFD2"/>
<path d="M56.6708 182.061L59.062 181.799C59.4848 181.755 59.791 181.376 59.7472 180.953L59.5868 179.51L59.441 179.524L59.6014 180.968C59.6452 181.303 59.3973 181.609 59.0474 181.653L56.6562 181.915L56.6708 182.061Z" fill="#424956"/>
<path d="M56.4827 179.699C60.9356 179.699 64.5455 176.089 64.5455 171.636C64.5455 167.183 60.9356 163.574 56.4827 163.574C52.0297 163.574 48.4199 167.183 48.4199 171.636C48.4199 176.089 52.0297 179.699 56.4827 179.699Z" fill="#F4F7FF"/>
<g opacity="0.6">
<path d="M51.4857 167.46C50.4344 168.764 50.0852 170.227 50.7058 170.727C51.3264 171.227 52.6818 170.576 53.7331 169.272C54.7845 167.968 55.1336 166.506 54.513 166.005C53.8924 165.505 52.537 166.156 51.4857 167.46Z" fill="white"/>
</g>
<path d="M61.9678 198.285L62.1113 198.259L59.1325 181.714L58.989 181.74L61.9678 198.285Z" fill="#424956"/>
<path d="M60.8855 166.227L60.9876 166.125C60.973 166.11 59.69 164.798 57.9404 164.609L57.9258 164.754C59.6316 164.944 60.8855 166.212 60.8855 166.227Z" fill="#424956"/>
<path d="M60.5359 167.175L60.638 167.073C60.6234 167.058 59.3404 165.746 57.5908 165.556L57.5762 165.702C59.2675 165.892 60.5213 167.16 60.5359 167.175Z" fill="#424956"/>
<path d="M57.3423 179.655C52.9246 180.137 48.9442 176.929 48.4776 172.511C47.9965 168.093 51.2041 164.113 55.6219 163.647C60.0396 163.165 64.02 166.373 64.4865 170.791C64.9677 175.209 61.7601 179.174 57.3423 179.655ZM65.7696 170.645C65.2155 165.513 60.6228 161.809 55.4906 162.364C50.3585 162.918 46.6551 167.51 47.2092 172.642C47.7632 177.775 52.3559 181.478 57.4881 180.924C62.6057 180.37 66.3236 175.777 65.7696 170.645Z" fill="#D8E3F0"/>
<path d="M57.4889 180.997C62.6502 180.443 66.3973 175.792 65.8433 170.63C65.2892 165.469 60.6382 161.722 55.4769 162.276C53.0566 162.538 50.855 163.705 49.2949 165.556L49.4116 165.644C50.957 163.821 53.1149 162.67 55.506 162.407C60.5799 161.868 65.158 165.556 65.7121 170.63C66.2515 175.704 62.5628 180.282 57.4889 180.836C55.1269 181.084 52.7941 180.443 50.8987 179.014L50.8112 179.13C52.7212 180.588 55.0978 181.259 57.4889 180.997Z" fill="#424956"/>
<path d="M55.5064 187.864C55.4335 188.418 55.7688 188.739 55.8563 188.753L58.6703 189.176C59.0056 189.234 59.3555 188.914 59.4284 188.462C59.5159 187.951 59.268 187.485 58.9035 187.427L56.1042 187.004C56.1042 186.989 55.5647 187.31 55.5064 187.864Z" fill="#F9B498"/>
<path d="M55.2869 189.439C55.214 189.993 55.4181 190.459 55.5202 190.474L58.5382 191.013C58.8736 191.072 59.2235 190.78 59.311 190.313C59.3985 189.803 59.1652 189.322 58.8007 189.264L55.6951 188.71C55.6951 188.695 55.3598 188.885 55.2869 189.439Z" fill="#F9B498"/>
<path d="M55.5786 188.855C55.5202 188.826 55.4911 188.753 55.5057 188.68C55.5202 188.593 55.5786 188.52 55.6515 188.534L58.6841 189.016C58.9757 189.059 59.2382 188.797 59.3111 188.432C59.3402 188.228 59.3256 188.039 59.2382 187.878C59.1507 187.718 59.034 187.616 58.8882 187.601L56.118 187.179C56.0451 187.164 56.0014 187.091 56.016 186.989C56.0306 186.901 56.0889 186.829 56.1618 186.843L58.932 187.266C59.1361 187.295 59.3256 187.456 59.4423 187.689C59.5589 187.922 59.6027 188.214 59.5443 188.505C59.4569 189.045 59.0486 189.424 58.6404 189.366L55.6077 188.884C55.6077 188.855 55.5931 188.855 55.5786 188.855Z" fill="#F07162"/>
<path d="M55.9275 185.983C55.84 186.537 56.0733 187.004 56.1608 187.018L59.1789 187.529C59.5142 187.587 59.8495 187.296 59.9516 186.844C60.0537 186.319 59.8204 185.838 59.4413 185.765L56.6128 185.283C56.3066 185.24 55.9712 185.663 55.9275 185.983Z" fill="#F9B498"/>
<path d="M56.1176 187.15C56.0593 187.12 56.0302 187.048 56.0447 186.975C56.0593 186.887 56.1176 186.814 56.1905 186.829L59.2086 187.354C59.5002 187.397 59.7626 187.15 59.8355 186.785C59.8647 186.581 59.8501 186.391 59.7626 186.231C59.6897 186.071 59.5585 185.969 59.4127 185.939L56.6425 185.473C56.5696 185.458 56.5259 185.371 56.5405 185.283C56.555 185.196 56.6134 185.123 56.6863 185.138L59.4565 185.604C59.6606 185.633 59.8501 185.794 59.9668 186.027C60.0834 186.26 60.1126 186.552 60.0688 186.843C59.9668 187.383 59.5731 187.762 59.1649 187.689L56.1468 187.164C56.1322 187.164 56.1176 187.15 56.1176 187.15Z" fill="#F07162"/>
<path d="M55.5786 190.547C55.5202 190.518 55.4911 190.445 55.5057 190.372C55.5202 190.284 55.5786 190.212 55.6515 190.226L58.5966 190.809C58.8882 190.868 59.1361 190.634 59.1944 190.27C59.2382 190.066 59.209 189.876 59.1361 189.716C59.0632 189.555 58.932 189.453 58.7862 189.424L55.6806 188.87C55.6077 188.856 55.564 188.768 55.5786 188.681C55.5931 188.593 55.6515 188.52 55.7244 188.535L58.8299 189.089C59.034 189.133 59.2236 189.278 59.3402 189.512C59.4569 189.745 59.486 190.037 59.4423 190.328C59.3402 190.868 58.9757 191.203 58.5529 191.13L55.6077 190.547C55.5931 190.561 55.5786 190.561 55.5786 190.547Z" fill="#F07162"/>
<path d="M62.5915 187.412C62.679 187.981 62.3728 188.958 62.2707 188.972L59.2235 189.06C58.8736 189.118 58.5237 188.826 58.4216 188.36C58.305 187.82 58.5528 187.31 58.9319 187.237L61.8625 186.698C62.1833 186.639 62.5332 187.077 62.5915 187.412Z" fill="#F9B498"/>
<path d="M62.4599 189.162C62.5182 189.132 62.5473 189.06 62.5328 188.972C62.5182 188.87 62.4453 188.812 62.387 188.826L59.1939 188.885C58.9023 188.943 58.6107 188.68 58.5378 188.301C58.4941 188.097 58.5233 187.893 58.5962 187.718C58.6836 187.543 58.8003 187.441 58.9607 187.412L61.8329 186.887C61.9058 186.873 61.9496 186.785 61.935 186.698C61.9204 186.596 61.8475 186.537 61.7892 186.552L58.9169 187.077C58.6982 187.12 58.5087 187.281 58.392 187.529C58.2754 187.776 58.2462 188.083 58.3046 188.389C58.4066 188.957 58.8294 189.337 59.2668 189.249L62.4599 189.191C62.4453 189.176 62.4453 189.176 62.4599 189.162Z" fill="#F07162"/>
<path d="M55.3445 191.217C55.2716 191.728 55.4611 192.165 55.5486 192.18L58.3625 192.734C58.6833 192.792 59.0041 192.515 59.0915 192.092C59.179 191.626 58.9603 191.174 58.625 191.101L55.7381 190.532C55.7235 190.547 55.4174 190.707 55.3445 191.217Z" fill="#F9B498"/>
<path d="M55.5336 192.238C55.4753 192.209 55.4462 192.136 55.4607 192.063C55.4753 191.975 55.5336 191.903 55.6065 191.917L58.4205 192.471C58.6829 192.529 58.9308 192.296 59.0037 191.961C59.0329 191.786 59.0183 191.596 58.9454 191.451C58.8725 191.305 58.7558 191.203 58.6246 191.173L55.7378 190.605C55.6794 190.59 55.6357 190.503 55.6357 190.415C55.6503 190.328 55.7086 190.255 55.7815 190.27L58.6684 190.838C58.8579 190.882 59.0329 191.028 59.1495 191.246C59.2516 191.48 59.2807 191.742 59.237 192.019C59.1349 192.529 58.7558 192.865 58.3768 192.792L55.5628 192.238C55.5482 192.238 55.5482 192.238 55.5336 192.238Z" fill="#F07162"/>
<path d="M95.2804 172.613C95.2804 172.613 90.0754 177.687 85.9492 183.971C85.9492 183.971 90.7461 190.459 95.6158 191.334C100.486 192.209 99.4066 176.739 99.4066 176.739L95.2804 172.613Z" fill="#5463E4"/>
<path d="M95.0032 172.949C95.0032 172.949 91.2124 179.845 92.5684 185.517C93.9243 191.188 96.3592 192.544 97.8463 197.137C99.3335 201.73 100.689 205.112 100.952 209.705C100.952 209.705 133.801 213.088 140.158 211.323C140.158 211.323 123.915 170.499 116.217 168.473C108.519 166.461 95.7905 171.301 95.0032 172.949Z" fill="#5463E4"/>
<path d="M112.572 168.006C112.572 168.006 123.726 165.994 131.57 175.179C131.57 175.179 129.966 183.971 122.078 185.458C114.191 186.945 112.572 168.006 112.572 168.006Z" fill="#5463E4"/>
<path d="M100.791 209.734C100.339 205.2 99.5077 202.707 98.3704 199.266C98.21 198.785 98.0497 198.289 97.8747 197.764C97.1311 195.489 96.3292 194.09 95.4836 192.603C94.74 191.29 93.8798 189.803 92.9612 187.5C91.0075 182.63 93.2383 176.681 93.2674 176.623L93.5444 176.725C93.5153 176.783 91.3428 182.615 93.2383 187.383C94.1568 189.672 94.9587 191.086 95.746 192.457C96.5917 193.944 97.4081 195.358 98.1517 197.662C98.3267 198.187 98.4871 198.682 98.6474 199.164C99.7993 202.634 100.63 205.127 101.082 209.705L100.791 209.734Z" fill="#424956"/>
<path d="M147.081 258.169H140.389C140.389 258.169 139.645 253.489 140.389 253.489C141.133 253.489 144.632 253.489 144.632 253.489L147.883 256.74L147.081 258.169Z" fill="#F9B498"/>
<path d="M94.4925 253.139H94.3613V256.361H94.4925V253.139Z" fill="black"/>
<path d="M92.8444 255.764L92.7715 255.647L93.6025 255.078L93.6754 255.18L92.8444 255.764Z" fill="black"/>
<path d="M140.623 250.427L147.695 253.416L149.211 257.834L155.816 256.842L156.938 257.323C157.332 257.484 157.799 257.367 158.032 257.003C158.353 256.522 158.163 255.895 157.667 255.676L141.221 248.736C141.105 248.677 140.959 248.75 140.9 248.867L140.434 249.961C140.376 250.15 140.448 250.354 140.623 250.427Z" fill="#485362"/>
<path d="M140.695 250.442L139.441 253.416C139.441 253.416 139.937 255.559 142.11 255.487C142.11 255.487 145.696 254.655 147.096 258.082L154.255 257.892C154.255 257.892 156.136 258.023 156.967 257.309L140.695 250.442Z" fill="#B8C2EA"/>
<path d="M158.162 256.07C158.279 256.317 158.293 256.609 158.177 256.871C157.973 257.367 157.419 257.6 156.937 257.396L140.681 250.515C140.418 250.412 140.302 250.106 140.418 249.844L140.768 249.027L140.885 249.071L140.535 249.888C140.447 250.077 140.535 250.31 140.724 250.383L156.981 257.265C157.389 257.44 157.871 257.236 158.046 256.813C158.148 256.594 158.133 256.332 158.031 256.113L158.162 256.07Z" fill="#424956"/>
<path d="M94.0254 258.154H140.798V249.494C135.841 247.044 124.702 244.012 123.579 243.72C123.521 243.706 123.492 243.691 123.492 243.691C123.492 243.691 128.726 239.157 133.771 233.033C136.366 229.33 137.372 225.947 137.707 223.396C137.868 221.209 137.62 219.444 137.474 218.643C137.416 218.336 137.372 218.176 137.372 218.176L126.495 216.062L118.899 223.76C118.899 223.76 100.834 242.656 99.5075 247.19C98.1807 251.739 94.0254 258.154 94.0254 258.154Z" fill="#DFE5EC"/>
<path d="M121.451 245.105C121.465 245.164 121.509 245.193 121.567 245.193H121.597C121.626 245.178 122.034 245.062 123.58 243.72C124.935 242.539 127.195 240.411 130.84 236.576C131.992 235.38 132.955 234.185 133.756 233.033C136.352 229.33 137.358 225.947 137.693 223.396C138.058 220.567 137.606 218.774 137.591 218.73C137.576 218.672 137.518 218.628 137.46 218.643H137.445C137.387 218.657 137.343 218.73 137.358 218.788C137.372 218.876 139.472 227.157 130.651 236.401C122.996 244.42 121.567 244.93 121.509 244.96C121.465 244.974 121.422 245.047 121.451 245.105Z" fill="#424956"/>
<path d="M140.785 258.271C140.843 258.271 140.901 258.227 140.901 258.169C141.062 256.492 140.901 249.786 140.901 249.494V249.421L140.828 249.392C140.726 249.348 131.016 245.149 123.493 243.575L123.376 243.545L123.347 243.662C123.347 243.662 123.23 244.172 122.778 245.018C122.749 245.076 122.764 245.149 122.822 245.178C122.88 245.208 122.953 245.193 122.982 245.135C123.332 244.479 123.493 244.027 123.551 243.822C130.695 245.339 139.779 249.188 140.668 249.567C140.683 250.325 140.814 256.565 140.668 258.14C140.668 258.198 140.712 258.257 140.785 258.271Z" fill="#424956"/>
<path d="M138.67 256.682C138.729 256.682 138.787 256.638 138.787 256.58C138.787 256.536 139.312 251.696 138.627 248.532C138.612 248.473 138.554 248.43 138.481 248.444C138.423 248.459 138.379 248.517 138.393 248.59C139.064 251.71 138.554 256.507 138.539 256.565C138.554 256.609 138.598 256.667 138.67 256.682Z" fill="#424956"/>
<path d="M95.2344 254.67L105.878 254.728L105.965 245.528L95.351 244.391L95.2344 254.67Z" fill="#F9B498"/>
<path d="M105.981 255.88H96.9556L93.296 251.783L86.6038 255.88H85.1603C84.6646 255.88 84.2126 256.23 84.1106 256.726C83.9794 257.396 84.4897 257.994 85.1166 257.994H106.112C106.272 257.994 106.389 257.863 106.389 257.703V256.303C106.389 256.07 106.199 255.88 105.981 255.88Z" fill="#485362"/>
<path d="M105.893 255.895V252.089C105.893 252.089 104.377 249.99 102.058 251.054C102.058 251.054 98.5591 253.605 95.4681 250.515L87.799 253.999C87.799 253.999 85.6995 254.714 85.1309 255.88H105.893V255.895Z" fill="#B8C2EA"/>
<path d="M84.3878 257.804C84.1399 257.586 83.9941 257.28 83.9941 256.944C83.9941 256.317 84.4899 255.807 85.1022 255.807H105.879C106.2 255.807 106.477 256.084 106.477 256.419V257.469H106.316V256.419C106.316 256.171 106.127 255.967 105.879 255.967H85.1022C84.5773 255.967 84.1545 256.405 84.1545 256.944C84.1545 257.236 84.2712 257.498 84.4899 257.688L84.3878 257.804Z" fill="#424956"/>
<path d="M85.1751 255.924L85.0293 255.851C85.0439 255.807 85.4667 254.932 87.0413 254.247C88.5868 253.576 95.3666 250.485 95.4395 250.456L95.4978 250.602C95.4249 250.631 88.6452 253.722 87.0997 254.393C85.5979 255.049 85.1751 255.909 85.1751 255.924Z" fill="#424956"/>
<path d="M139.677 210.798L100.442 203.96C96.3743 203.873 92.8897 206.891 92.4085 210.929C92.1024 213.437 92.3502 218.657 92.394 221.981C92.496 229.796 94.6101 250.281 94.6101 250.281H106.318L107.703 224.606C108.17 224.737 125.87 233.252 137.65 225.524C141.193 223.206 140.873 214.749 140.668 211.906C140.625 211.338 140.217 210.886 139.677 210.798Z" fill="#F4F7FF"/>
<path d="M121.625 209.851C119.978 210.244 117.062 210.74 115.924 210.682C115.822 210.682 115.72 210.667 115.647 210.653C115.647 210.653 115.647 210.653 115.633 210.653C115.618 210.653 115.589 210.638 115.574 210.638C115.268 210.536 114.918 210.463 114.525 210.405C113.344 210.069 112.163 209.574 111.769 209.559C111.405 209.544 110.763 209.938 110.355 210.201C110.019 210.434 109.567 210.405 109.276 210.128C109.101 209.967 108.999 209.719 109.072 209.369C109.072 209.369 107.964 209.136 108.314 208.203C108.314 208.203 107.089 207.955 107.993 206.643C107.993 206.643 107.439 206.22 107.774 205.55C108.109 204.879 109.465 203.756 109.757 203.654C110.049 203.552 114.175 202.94 114.175 202.94C114.175 202.94 119.322 203.144 119.599 203.1L121.625 209.851Z" fill="#F9B498"/>
<path d="M111.52 204.763C111.506 204.777 111.491 204.792 111.462 204.792C111.447 204.792 110.427 204.967 110.091 205.142C109.814 205.288 108.663 206.221 108.109 206.702C108.065 206.731 108.007 206.731 107.977 206.687C107.948 206.643 107.948 206.585 107.992 206.556C108.065 206.498 109.654 205.156 110.019 204.981C110.398 204.792 111.404 204.617 111.447 204.617C111.506 204.602 111.549 204.646 111.564 204.69C111.535 204.719 111.535 204.748 111.52 204.763Z" fill="#F07162"/>
<path d="M111.74 206.643C111.726 206.658 111.696 206.673 111.682 206.687C111.667 206.687 110.865 206.804 110.413 206.993C109.961 207.183 108.431 208.262 108.416 208.276C108.372 208.306 108.314 208.291 108.285 208.262C108.256 208.218 108.27 208.16 108.314 208.131C108.372 208.087 109.874 207.023 110.355 206.818C110.836 206.614 111.638 206.498 111.682 206.498C111.74 206.483 111.784 206.527 111.798 206.585C111.769 206.6 111.755 206.629 111.74 206.643Z" fill="#F07162"/>
<path d="M112.032 208.014C112.017 208.028 111.988 208.043 111.959 208.058C111.959 208.058 111.405 208.116 110.938 208.291C110.472 208.466 109.174 209.443 109.159 209.443C109.116 209.472 109.057 209.472 109.028 209.428C108.999 209.384 108.999 209.326 109.043 209.297C109.101 209.253 110.37 208.306 110.865 208.116C111.361 207.926 111.915 207.868 111.93 207.868C111.988 207.868 112.032 207.897 112.032 207.956C112.061 207.97 112.046 207.985 112.032 208.014Z" fill="#F07162"/>
<path d="M119.104 209.676C119.104 209.676 121.364 209.821 121.627 209.865C121.889 209.909 124.572 209.136 124.572 209.136L125.272 205.447L120.752 202.152L118.871 203.494L119.104 209.676Z" fill="#F9B498"/>
<path d="M131.322 175.879C129.251 180.472 127.895 181.988 122.574 184.613L130.593 192.909L119.322 203.479L124.571 209.122C124.571 209.122 142.402 202.546 143.029 193.273C143.292 189.439 133.931 179.349 131.322 175.879Z" fill="#F9B498"/>
<path d="M120.868 185.458L120.81 185.371C119.833 184.03 113.855 177.512 113.797 177.439L114.016 177.235C114.263 177.498 119.833 183.578 120.985 185.094C121.933 184.773 129.15 182.105 131.424 175.238L131.716 175.34C129.237 182.805 121.058 185.4 120.985 185.429L120.868 185.458Z" fill="#424956"/>
<path d="M106.448 250.281L106.185 250.267L107.556 224.635L105.471 222.171L105.675 221.996L107.833 224.547L106.448 250.281Z" fill="#424956"/>
<path d="M124.528 228.863C118.463 228.863 107.761 224.752 107.645 224.708L107.747 224.46C107.849 224.504 118.507 228.586 124.528 228.586C124.587 228.586 124.645 228.586 124.703 228.586C131.993 228.484 137.446 226.472 139.312 223.192L139.546 223.323C137.636 226.676 132.081 228.747 124.703 228.849C124.645 228.863 124.587 228.863 124.528 228.863Z" fill="#424956"/>
<path d="M111.158 168.079C111.158 168.079 108.344 173.619 105.195 173.853C102.046 174.086 102.556 169.464 102.556 169.464C102.556 169.464 106.974 167.802 111.158 168.079Z" fill="#FE9F73"/>
<path d="M300.472 160.526L315.329 165.279L328.189 149.781L337.112 151.253C337.112 151.253 324.281 179.524 320.607 180.078C316.933 180.647 299.918 176.987 299.918 176.987L300.472 160.526Z" fill="#DFE5EC"/>
<path d="M301.842 161.051C301.842 161.051 302.732 168.925 302.396 174.538C302.061 180.151 299.291 218.118 299.291 218.118C299.291 218.118 287.554 219.561 280.118 218.788C272.682 218.016 261.383 213.452 261.383 213.452L265.626 176.229C265.626 176.229 267.725 160.701 269.489 158.573C271.254 156.444 284.332 157.683 284.332 157.683C284.332 157.683 298.562 159.681 301.842 161.051Z" fill="#F4F7FF"/>
<path d="M288.21 141.66L297.76 144.867L297.177 152.959C297.177 152.959 297.089 155.7 294.684 155.875L294.859 159.549C294.931 160.92 294.027 162.159 292.701 162.48C292.059 162.64 291.286 162.728 290.426 162.67C287.714 162.48 286.388 160.322 286.227 159.272C286.081 158.237 287.102 153.382 287.102 153.382L287.189 150.962L288.21 141.66Z" fill="#F9B59D"/>
<path d="M293.721 148.163C292.54 147.054 291.067 148.352 290.994 148.41C290.965 148.425 290.936 148.44 290.907 148.44C290.878 148.44 290.848 148.425 290.834 148.396C290.79 148.352 290.79 148.279 290.849 148.235C290.863 148.221 292.54 146.734 293.881 147.988C293.925 148.031 293.925 148.104 293.881 148.148C293.837 148.206 293.765 148.206 293.721 148.163Z" fill="black"/>
<path d="M297.249 147.812C296.753 147.317 295.718 148.075 295.703 148.089C295.674 148.104 295.66 148.119 295.631 148.119C295.601 148.119 295.572 148.104 295.543 148.075C295.499 148.031 295.514 147.958 295.572 147.914C295.616 147.871 296.768 147.025 297.409 147.667C297.453 147.71 297.453 147.783 297.409 147.827C297.366 147.856 297.293 147.856 297.249 147.812Z" fill="black"/>
<path d="M292.86 148.698C292.676 148.685 292.515 148.83 292.501 149.023C292.487 149.215 292.625 149.383 292.81 149.396C292.995 149.409 293.156 149.264 293.17 149.071C293.184 148.878 293.045 148.711 292.86 148.698Z" fill="black"/>
<path d="M289.93 145.188L288.151 142.957C288.151 142.957 288.005 142.535 287.845 141.893C287.685 141.252 289.668 139.808 291.315 139.006C292.963 138.204 293.837 140.1 295.237 139.589C297.803 138.656 299.742 140.144 300.121 140.829C300.894 142.228 302.658 143.701 299.524 146.15C296.389 148.6 289.93 145.188 289.93 145.188Z" fill="#3F4855"/>
<path d="M287.787 153.484C284.215 153.615 285.089 148.556 285.119 147.798C285.148 147.04 284.258 145.64 285.177 143.162C286.095 140.683 288.691 141.004 288.691 141.004L288.355 141.718L289.347 145.159L287.787 153.484Z" fill="#3F4855"/>
<path d="M288.482 146.562C287.358 146.481 286.38 147.333 286.298 148.466C286.217 149.598 287.062 150.582 288.187 150.663C289.311 150.744 290.289 149.891 290.37 148.759C290.452 147.626 289.606 146.643 288.482 146.562Z" fill="#F9B59D"/>
<path d="M288.429 147.812C288.05 147.565 287.539 147.681 287.525 147.696C287.496 147.71 287.466 147.681 287.452 147.652C287.437 147.623 287.466 147.594 287.496 147.579C287.525 147.579 288.064 147.433 288.487 147.71C288.735 147.871 288.895 148.133 288.954 148.498L288.983 148.702L288.852 148.541C288.837 148.512 288.385 148.017 287.787 148.323C287.452 148.498 287.408 148.862 287.452 149.11C287.51 149.373 287.714 149.693 288.108 149.722H288.123C288.152 149.722 288.181 149.752 288.181 149.781C288.181 149.81 288.152 149.839 288.123 149.839H288.108C287.685 149.81 287.423 149.475 287.35 149.139C287.262 148.746 287.423 148.396 287.743 148.221C288.21 147.973 288.618 148.177 288.808 148.337C288.72 148.119 288.604 147.929 288.429 147.812Z" fill="#F07162"/>
<path d="M289.346 153.164C290.95 156.357 294.697 155.89 294.697 155.89L294.828 158.602C289.186 157.742 289.346 153.164 289.346 153.164Z" fill="#F07162"/>
<path d="M295.237 148.279C295.266 148.279 295.295 148.308 295.295 148.337L295.47 151.151L294.216 151.472H294.202C294.173 151.472 294.158 151.457 294.158 151.428C294.144 151.399 294.173 151.37 294.202 151.355L295.368 151.064L295.208 148.352C295.193 148.308 295.208 148.279 295.237 148.279Z" fill="#F07162"/>
<path d="M293.24 152.507C293.269 152.507 295.486 152.609 295.486 152.609C295.486 152.609 295.136 153.513 294.319 153.47C293.503 153.44 293.24 152.507 293.24 152.507Z" fill="#FBFDFC"/>
<path d="M285.148 219.313C282.713 219.313 280.307 219.182 278.251 218.847C278.164 218.832 278.091 218.744 278.105 218.657C278.12 218.569 278.207 218.497 278.295 218.511C285.672 219.736 297.716 218.161 299.115 217.972C299.276 215.653 301.477 185.196 301.871 179.553C302.279 173.721 302.031 164.113 302.031 164.011C302.031 163.923 302.104 163.836 302.192 163.836C302.279 163.836 302.367 163.909 302.367 163.996C302.367 164.098 302.614 173.721 302.206 179.568C301.798 185.4 299.465 217.797 299.436 218.118L299.421 218.249L299.29 218.263C299.217 218.307 292.058 219.313 285.148 219.313Z" fill="#424956"/>
<path d="M254.792 258.096H261.484C261.484 258.096 262.228 253.416 261.484 253.416C260.741 253.416 257.242 253.416 257.242 253.416L253.99 256.667L254.792 258.096Z" fill="#F9B498"/>
<path d="M307.514 253.066H307.383V256.288H307.514V253.066Z" fill="black"/>
<path d="M309.03 255.69L309.103 255.574L308.272 255.005L308.199 255.107L309.03 255.69Z" fill="black"/>
<path d="M261.237 250.354L254.165 253.343L252.649 257.761L246.044 256.77L244.922 257.251C244.528 257.411 244.061 257.294 243.828 256.93C243.507 256.449 243.697 255.822 244.193 255.603L260.639 248.648C260.756 248.59 260.901 248.663 260.96 248.78L261.426 249.873C261.499 250.077 261.412 250.281 261.237 250.354Z" fill="#485362"/>
<path d="M261.178 250.369L262.431 253.343C262.431 253.343 261.936 255.486 259.763 255.413C259.763 255.413 256.177 254.582 254.777 258.009L247.618 257.819C247.618 257.819 245.737 257.95 244.906 257.236L261.178 250.369Z" fill="#B8C2EA"/>
<path d="M243.697 255.997C243.58 256.245 243.565 256.536 243.682 256.799C243.886 257.294 244.44 257.528 244.921 257.324L261.178 250.442C261.441 250.34 261.557 250.033 261.441 249.771L261.091 248.955L260.974 248.998L261.324 249.815C261.411 250.004 261.324 250.238 261.134 250.311L244.878 257.192C244.469 257.367 243.988 257.163 243.813 256.74C243.711 256.522 243.726 256.259 243.828 256.04L243.697 255.997Z" fill="#424956"/>
<path d="M307.849 258.082H261.076V249.421C266.033 246.972 277.173 243.939 278.295 243.647C278.354 243.633 278.383 243.618 278.383 243.618C278.383 243.618 273.148 239.084 268.104 232.96C265.508 229.257 264.502 225.874 264.167 223.323C264.007 221.136 264.255 219.372 264.4 218.57C264.459 218.264 264.502 218.103 264.502 218.103L275.379 215.989L286.839 223.673C286.839 223.673 305.02 245.82 306.347 250.354C307.674 254.918 307.849 258.082 307.849 258.082Z" fill="#485362"/>
<path d="M280.423 245.033C280.408 245.091 280.365 245.12 280.306 245.12H280.277C280.248 245.105 279.84 244.989 278.294 243.647C276.938 242.466 274.678 240.338 271.033 236.503C269.882 235.308 268.919 234.112 268.117 232.96C265.522 229.257 264.516 225.874 264.181 223.323C263.816 220.494 264.268 218.701 264.283 218.657C264.297 218.599 264.356 218.555 264.414 218.57H264.429C264.487 218.584 264.531 218.657 264.516 218.716C264.502 218.803 262.402 227.084 271.223 236.328C278.877 244.347 280.306 244.858 280.365 244.887C280.408 244.916 280.438 244.974 280.423 245.033Z" fill="#424956"/>
<path d="M261.077 258.198C261.018 258.198 260.96 258.155 260.96 258.096C260.8 256.42 260.96 249.713 260.96 249.421V249.348L261.033 249.319C261.135 249.275 270.845 245.076 278.369 243.502L278.485 243.473L278.514 243.589C278.514 243.589 278.631 244.1 279.083 244.945C279.112 245.004 279.098 245.076 279.039 245.106C278.981 245.135 278.908 245.12 278.879 245.062C278.529 244.406 278.369 243.954 278.31 243.75C271.166 245.266 262.083 249.115 261.193 249.494C261.179 250.252 261.047 256.493 261.193 258.067C261.208 258.126 261.149 258.184 261.077 258.198Z" fill="#424956"/>
<path d="M263.19 256.609C263.131 256.609 263.073 256.565 263.073 256.507C263.073 256.463 262.548 251.623 263.233 248.459C263.248 248.4 263.306 248.357 263.379 248.371C263.437 248.386 263.481 248.444 263.467 248.517C262.796 251.637 263.306 256.434 263.321 256.492C263.321 256.536 263.277 256.594 263.19 256.609Z" fill="#424956"/>
<path d="M306.64 255.501L295.997 255.545L295.895 246.345L306.509 245.222L306.64 255.501Z" fill="#F9B498"/>
<path d="M295.895 256.711H304.92L308.579 252.614L315.271 256.711H316.715C317.211 256.711 317.663 257.061 317.765 257.557C317.896 258.227 317.386 258.825 316.759 258.825H295.763C295.603 258.825 295.486 258.694 295.486 258.533V257.134C295.486 256.886 295.661 256.711 295.895 256.711Z" fill="#485362"/>
<path d="M295.967 256.711V252.906C295.967 252.906 297.483 250.806 299.801 251.87C299.801 251.87 303.301 254.422 306.392 251.331L314.061 254.816C314.061 254.816 316.16 255.53 316.729 256.696H295.967V256.711Z" fill="#B8C2EA"/>
<path d="M317.473 258.635C317.72 258.417 317.866 258.111 317.866 257.775C317.866 257.148 317.371 256.638 316.758 256.638H295.996C295.675 256.638 295.398 256.915 295.398 257.25V258.3H295.559V257.25C295.559 257.002 295.748 256.798 295.996 256.798H316.758C317.283 256.798 317.706 257.236 317.706 257.775C317.706 258.067 317.589 258.329 317.371 258.519L317.473 258.635Z" fill="#424956"/>
<path d="M316.686 256.74L316.832 256.667C316.817 256.623 316.394 255.749 314.82 255.063C313.274 254.393 306.495 251.302 306.422 251.272L306.363 251.418C306.436 251.447 313.216 254.538 314.761 255.209C316.278 255.88 316.686 256.74 316.686 256.74Z" fill="#424956"/>
<path d="M262.198 211.615L299.436 202.24C303.401 201.234 307.455 203.552 308.621 207.489C309.058 208.961 309.335 210.478 309.481 211.746C309.787 214.254 309.54 219.474 309.496 222.798C309.394 230.613 307.28 251.098 307.28 251.098H295.557L294.172 225.422C293.706 225.553 276.005 234.068 264.225 226.341C260.682 224.023 261.003 215.566 261.207 212.723C261.25 212.169 261.659 211.717 262.198 211.615Z" fill="#545F6D"/>
<path d="M295.412 251.098L294.041 225.364L296.184 222.827L296.388 223.002L294.303 225.466L295.689 251.083L295.412 251.098Z" fill="#424956"/>
<path d="M277.348 229.694C277.29 229.694 277.232 229.694 277.159 229.694C269.767 229.592 264.226 227.522 262.316 224.168L262.55 224.037C264.416 227.318 269.869 229.33 277.159 229.432C283.137 229.519 294.013 225.349 294.115 225.306L294.218 225.553C294.115 225.583 283.414 229.694 277.348 229.694Z" fill="#424956"/>
<path d="M314.075 150.947L297.41 150.525V147.594L314.075 147.157V150.947Z" fill="#C9D7E8"/>
<path d="M325.622 152.113L308.957 151.414V146.69L325.622 145.99V152.113Z" fill="#D8E3F0"/>
<path d="M348.264 154.053L325.621 152.916V145.188L348.264 144.051V154.053Z" fill="#C9D7E8"/>
<path d="M297.41 147.244H296.477V150.86H297.41V147.244Z" fill="#D8E3F0"/>
<path d="M349.199 142.899H348.266V155.219H349.199V142.899Z" fill="#D8E3F0"/>
<path d="M332.474 144.094L332.766 141.441C332.766 141.441 333.189 141.032 333.699 141.105C334.209 141.178 334.428 141.557 334.413 141.63L334.122 144.284C334.093 144.605 333.728 144.838 333.276 144.794C332.809 144.78 332.43 144.444 332.474 144.094Z" fill="#FE9F73"/>
<path d="M334.166 144.459L334.414 141.514C334.414 141.514 334.661 141.251 335.186 141.324C335.697 141.397 336.076 141.703 336.076 141.791L335.828 144.663C335.799 144.984 335.449 145.232 334.997 145.188C334.516 145.144 334.136 144.809 334.166 144.459Z" fill="#FE9F73"/>
<path d="M335.887 144.736L336.077 141.98C336.077 141.98 336.31 141.732 336.791 141.791C337.272 141.849 337.622 142.126 337.622 142.213L337.433 144.896C337.418 145.202 337.083 145.421 336.675 145.392C336.223 145.377 335.873 145.071 335.887 144.736Z" fill="#FE9F73"/>
<path d="M332.314 144.08L332.606 141.455C332.606 141.397 332.693 141.353 332.781 141.368C332.868 141.382 332.926 141.441 332.926 141.499L332.635 144.124C332.62 144.255 332.679 144.401 332.81 144.517C332.941 144.634 333.116 144.707 333.306 144.721C333.655 144.75 333.962 144.576 333.991 144.299L334.297 141.426C334.297 141.368 334.384 141.324 334.457 141.339C334.53 141.353 334.589 141.397 334.603 141.455C334.603 141.47 334.603 141.47 334.603 141.485L334.297 144.357C334.253 144.75 333.816 145.013 333.306 144.969C333.028 144.94 332.781 144.838 332.591 144.678C332.387 144.488 332.299 144.269 332.314 144.08Z" fill="#F07162"/>
<path d="M330.841 144.197L331.089 141.514C331.118 141.222 331.585 141.018 331.877 141.047C332.387 141.106 332.766 141.426 332.751 141.514L332.474 144.386C332.445 144.707 332.095 144.94 331.672 144.911C331.206 144.882 330.812 144.546 330.841 144.197Z" fill="#FE9F73"/>
<path d="M330.696 144.167L330.944 141.543C330.944 141.484 331.032 141.441 331.105 141.455C331.192 141.47 331.25 141.528 331.25 141.586L331.003 144.211C330.988 144.342 331.046 144.488 331.177 144.605C331.309 144.721 331.484 144.794 331.673 144.809C332.023 144.838 332.329 144.648 332.344 144.386L332.606 141.514C332.606 141.455 332.679 141.412 332.767 141.426C332.84 141.441 332.898 141.484 332.913 141.543C332.913 141.557 332.913 141.557 332.913 141.572L332.65 144.444C332.606 144.838 332.183 145.1 331.659 145.057C331.382 145.027 331.134 144.925 330.944 144.765C330.769 144.575 330.667 144.371 330.696 144.167Z" fill="#F07162"/>
<path d="M334.021 144.444L334.268 141.499C334.268 141.441 334.341 141.397 334.429 141.412C334.516 141.426 334.575 141.484 334.575 141.543L334.327 144.488C334.312 144.619 334.385 144.765 334.502 144.882C334.633 144.998 334.808 145.057 334.997 145.071C335.347 145.1 335.61 144.925 335.639 144.648L335.828 141.834C335.828 141.776 335.901 141.732 335.989 141.732C336.062 141.747 336.12 141.791 336.135 141.849V141.864L335.945 144.677C335.916 145.071 335.508 145.334 334.997 145.29C334.72 145.261 334.473 145.173 334.283 144.998C334.093 144.838 333.991 144.634 334.021 144.444Z" fill="#F07162"/>
<path d="M335.624 144.736L335.814 141.98C335.814 141.922 335.887 141.878 335.974 141.878C336.062 141.893 336.12 141.951 336.12 142.009L335.931 144.765C335.916 144.896 335.989 145.013 336.106 145.115C336.222 145.217 336.383 145.275 336.558 145.29C336.878 145.319 337.141 145.13 337.17 144.882L337.359 142.199C337.359 142.141 337.432 142.097 337.52 142.097C337.593 142.111 337.651 142.155 337.666 142.214V142.228L337.476 144.911C337.447 145.275 337.053 145.538 336.558 145.509C336.295 145.494 336.062 145.392 335.872 145.246C335.712 145.115 335.61 144.925 335.624 144.736Z" fill="#F07162"/>
<path d="M255.508 212.65C255.77 213.044 256.281 213.146 256.674 212.883C257.068 212.621 257.17 212.111 256.907 211.717L254.458 206.876C254.298 206.628 253.7 206.497 253.19 206.512C248.407 205.156 247.868 204.194 246.541 203.946L246.352 204.981L245.462 209.967C245.214 211.484 244.675 212.927 243.902 214.254L243.713 214.589C243.465 215.012 243.625 215.551 244.062 215.77C244.456 215.974 244.952 215.799 245.185 215.42L246.599 213.015C246.643 212.942 246.731 212.898 246.818 212.913C246.949 212.942 247.022 213.073 246.964 213.19L245.375 216.995C245.185 217.432 245.418 217.87 245.885 217.957C246.352 218.045 246.876 217.768 247.051 217.33L248.67 213.452C248.713 213.364 248.801 213.306 248.903 213.335L248.976 213.35C249.093 213.379 249.151 213.481 249.136 213.598L248.203 218.161C248.116 218.599 248.364 219.051 248.801 219.167C249.282 219.299 249.749 218.992 249.851 218.526L250.784 213.933C250.813 213.816 250.915 213.758 251.032 213.773L251.25 213.816C251.352 213.831 251.425 213.933 251.411 214.035L251.105 218.38C251.075 218.832 251.382 219.24 251.834 219.299C252.315 219.371 252.752 219.007 252.781 218.526C252.781 218.526 253.598 211.921 253.817 210.9L255.508 212.65Z" fill="#FE9F73"/>
<path d="M260.887 188.535C261.602 186.975 266.88 182.746 270.86 178.999C273.28 176.71 275.497 174.217 277.48 171.549L277.596 171.389C278.5 169.61 279.2 167.408 279.317 164.828C279.652 156.823 270.846 157.742 270.846 157.742C265.189 160.672 252.154 178.387 248.917 185.021C245.68 191.669 245.637 206.687 245.637 206.687C245.637 206.687 249.296 208.568 254.968 207.518C254.968 207.503 259.809 190.882 260.887 188.535Z" fill="#F4F7FF"/>
<path d="M254.793 207.474L255.143 207.547C255.711 204.646 261.135 188.491 261.398 188.068C261.675 187.631 264.255 185.21 265.218 184.321C272.872 178.125 277.698 171.564 277.742 171.491L277.465 171.287C277.421 171.345 272.624 177.891 264.984 184.059C264.839 184.204 261.456 187.325 261.106 187.893C260.683 188.52 255.289 204.937 254.793 207.474Z" fill="#424956"/>
<path d="M374 258H39V259H374V258Z" fill="#485362"/>
<path d="M243.238 67.1268C243.238 67.1268 252.22 68.2203 255.004 79.2865C255.004 79.2865 241.678 76.9974 243.238 67.1268Z" fill="#61B070"/>
<path d="M239.607 62.7379C239.607 62.7379 253.094 56.206 265.779 71.2235C265.779 71.2089 244.638 79.1842 239.607 62.7379Z" fill="#5AC36D"/>
</svg>
